G75*
G70*
%OFA0B0*%
%FSLAX24Y24*%
%IPPOS*%
%LPD*%
%AMOC8*
5,1,8,0,0,1.08239X$1,22.5*
%
%ADD10C,0.0700*%
%ADD11C,0.1266*%
%ADD12OC8,0.0660*%
%ADD13C,0.0600*%
%ADD14C,0.0740*%
%ADD15C,0.0660*%
%ADD16OC8,0.0480*%
%ADD17C,0.0531*%
%ADD18C,0.0480*%
%ADD19R,0.0740X0.0740*%
%ADD20C,0.1581*%
%ADD21C,0.0472*%
%ADD22C,0.1384*%
%ADD23OC8,0.0760*%
%ADD24C,0.0320*%
%ADD25C,0.0560*%
%ADD26C,0.0240*%
%ADD27C,0.0376*%
D10*
X010730Y007385D03*
X013290Y007385D03*
X006123Y010615D03*
X006123Y011615D03*
X006123Y012615D03*
X006123Y013615D03*
X006123Y014615D03*
X006123Y015615D03*
X006123Y016615D03*
X006123Y017615D03*
X003617Y017650D03*
X003617Y016650D03*
X003617Y015650D03*
X003617Y014650D03*
X003617Y013650D03*
X003617Y012650D03*
X003617Y011650D03*
X003617Y010650D03*
X021060Y011010D03*
X021060Y010010D03*
X021060Y009010D03*
X021060Y008010D03*
X021060Y007010D03*
X021060Y006010D03*
X021060Y005010D03*
X021060Y004010D03*
X021060Y003010D03*
D11*
X032616Y003010D03*
X032616Y011010D03*
D12*
X036635Y011135D03*
X037635Y011135D03*
X007760Y021760D03*
X007760Y022760D03*
X004260Y022760D03*
X004260Y021760D03*
D13*
X036760Y002560D02*
X036760Y001960D01*
X037760Y001960D02*
X037760Y002560D01*
X038760Y002560D02*
X038760Y001960D01*
D14*
X035135Y004635D03*
X035135Y005635D03*
X035135Y006635D03*
X035135Y007635D03*
X035135Y008635D03*
X035135Y009635D03*
X029760Y013260D03*
X028760Y013260D03*
X027760Y013260D03*
X026760Y013260D03*
X025760Y013260D03*
X024760Y013260D03*
X023760Y013260D03*
X022760Y013260D03*
X021760Y013260D03*
X020760Y013260D03*
X019760Y013260D03*
X018760Y013260D03*
X017760Y013260D03*
X016760Y013260D03*
X024760Y017760D03*
X025760Y017760D03*
X026760Y017760D03*
X027760Y017760D03*
X028760Y017760D03*
X029760Y017760D03*
X031760Y019010D03*
X032760Y019010D03*
X032760Y016260D03*
X031760Y016260D03*
X037260Y015760D03*
X037260Y016760D03*
X037260Y019260D03*
X037260Y020260D03*
X029760Y022260D03*
X028760Y022260D03*
X027760Y022260D03*
X026760Y022260D03*
X025760Y022260D03*
X024760Y022260D03*
X023760Y022260D03*
X022760Y022260D03*
X021760Y022260D03*
X020760Y022260D03*
X019760Y022260D03*
X018760Y022260D03*
X017760Y022260D03*
X016760Y022260D03*
X016760Y020010D03*
X017760Y020010D03*
X018760Y020010D03*
X019760Y020010D03*
X020760Y020010D03*
X021760Y020010D03*
X022760Y020010D03*
X041635Y007635D03*
X041635Y006635D03*
X041635Y005635D03*
X007760Y006010D03*
X006760Y006010D03*
X004040Y005120D03*
X004040Y006900D03*
X001480Y006900D03*
X001480Y005120D03*
D15*
X033260Y025260D03*
X034260Y025260D03*
X035260Y025260D03*
X036260Y025260D03*
X037260Y025260D03*
D16*
X026260Y023510D03*
X022260Y023510D03*
X021260Y023510D03*
X017260Y023510D03*
X013385Y019385D03*
X012010Y019385D03*
X010635Y019385D03*
X009260Y019385D03*
X015135Y017510D03*
X015135Y015510D03*
X013385Y015385D03*
X012010Y015385D03*
X010635Y015385D03*
X009260Y015385D03*
X010510Y010510D03*
X009010Y010010D03*
X014510Y010510D03*
X016510Y010385D03*
X018510Y010385D03*
X019635Y008885D03*
X016885Y008885D03*
X016885Y004885D03*
X019635Y004885D03*
X020635Y001385D03*
X024635Y001385D03*
X031760Y001510D03*
X033760Y001510D03*
X032135Y013635D03*
X036135Y013635D03*
X009010Y006010D03*
D17*
X018260Y004885D03*
X018260Y007885D03*
D18*
X015760Y022520D02*
X015760Y023000D01*
X014760Y023000D02*
X014760Y022520D01*
X013760Y022520D02*
X013760Y023000D01*
X008750Y025010D02*
X008270Y025010D01*
X008270Y026010D02*
X008750Y026010D01*
X005750Y026010D02*
X005270Y026010D01*
X005270Y025010D02*
X005750Y025010D01*
D19*
X023760Y020010D03*
X041635Y008635D03*
D20*
X040260Y002760D03*
X040260Y025260D03*
X002760Y025260D03*
X002760Y002760D03*
D21*
X010385Y020635D03*
X011385Y020635D03*
X012385Y020635D03*
X012385Y022635D03*
X010385Y022635D03*
D22*
X015204Y019858D03*
X003590Y019858D03*
X003590Y008441D03*
X015204Y008441D03*
D23*
X034510Y011760D03*
X035510Y011760D03*
D24*
X002220Y001531D02*
X001836Y001836D01*
X001531Y002220D01*
X001318Y002662D01*
X001209Y003140D01*
X001195Y003385D01*
X001195Y004534D01*
X001351Y004470D01*
X001609Y004470D01*
X001848Y004569D01*
X002031Y004752D01*
X002130Y004991D01*
X002130Y005249D01*
X002031Y005488D01*
X001848Y005671D01*
X001609Y005770D01*
X001351Y005770D01*
X001195Y005706D01*
X001195Y006314D01*
X001351Y006250D01*
X001609Y006250D01*
X001848Y006349D01*
X002031Y006532D01*
X002130Y006771D01*
X002130Y007029D01*
X002031Y007268D01*
X001848Y007451D01*
X001609Y007550D01*
X001351Y007550D01*
X001195Y007486D01*
X001195Y024635D01*
X001209Y024880D01*
X001318Y025358D01*
X001531Y025800D01*
X001836Y026184D01*
X002220Y026489D01*
X002662Y026702D01*
X003140Y026811D01*
X003385Y026825D01*
X039635Y026825D01*
X039880Y026811D01*
X040358Y026702D01*
X040800Y026489D01*
X041184Y026184D01*
X041489Y025800D01*
X041702Y025358D01*
X041811Y024880D01*
X041825Y024635D01*
X041825Y024070D01*
X037948Y024070D01*
X037834Y024023D01*
X037747Y023936D01*
X037700Y023822D01*
X037700Y020739D01*
X037628Y020811D01*
X037389Y020910D01*
X037131Y020910D01*
X036892Y020811D01*
X036741Y020660D01*
X036680Y020660D01*
X036533Y020599D01*
X036421Y020487D01*
X033421Y017487D01*
X033360Y017340D01*
X033360Y016510D01*
X033311Y016628D01*
X033128Y016811D01*
X032889Y016910D01*
X032631Y016910D01*
X032392Y016811D01*
X032260Y016679D01*
X032128Y016811D01*
X031889Y016910D01*
X031631Y016910D01*
X031392Y016811D01*
X031209Y016628D01*
X031110Y016389D01*
X031110Y016131D01*
X031209Y015892D01*
X031392Y015709D01*
X031631Y015610D01*
X031889Y015610D01*
X032128Y015709D01*
X032260Y015841D01*
X032392Y015709D01*
X032631Y015610D01*
X032889Y015610D01*
X033128Y015709D01*
X033311Y015892D01*
X033360Y016010D01*
X033360Y015926D01*
X032594Y015160D01*
X031680Y015160D01*
X031533Y015099D01*
X030533Y014099D01*
X030421Y013987D01*
X030360Y013840D01*
X030360Y013510D01*
X030320Y013607D01*
X030320Y014871D01*
X030235Y015077D01*
X028320Y016992D01*
X028320Y017281D01*
X028392Y017209D01*
X028631Y017110D01*
X028889Y017110D01*
X029128Y017209D01*
X029275Y017356D01*
X029279Y017350D01*
X029350Y017279D01*
X029430Y017221D01*
X029518Y017176D01*
X029612Y017146D01*
X029710Y017130D01*
X029760Y017130D01*
X029810Y017130D01*
X029908Y017146D01*
X030002Y017176D01*
X030090Y017221D01*
X030170Y017279D01*
X030241Y017350D01*
X030299Y017430D01*
X030344Y017518D01*
X030374Y017612D01*
X030390Y017710D01*
X030390Y017760D01*
X030390Y017810D01*
X030374Y017908D01*
X030344Y018002D01*
X030299Y018090D01*
X030241Y018170D01*
X030170Y018241D01*
X030090Y018299D01*
X030002Y018344D01*
X029908Y018374D01*
X029810Y018390D01*
X029760Y018390D01*
X029760Y017760D01*
X029760Y017760D01*
X030390Y017760D01*
X029760Y017760D01*
X029760Y017760D01*
X029760Y018390D01*
X029710Y018390D01*
X029612Y018374D01*
X029518Y018344D01*
X029430Y018299D01*
X029350Y018241D01*
X029279Y018170D01*
X029275Y018164D01*
X029160Y018279D01*
X029160Y021741D01*
X029275Y021856D01*
X029279Y021850D01*
X029350Y021779D01*
X029430Y021721D01*
X029518Y021676D01*
X029612Y021646D01*
X029710Y021630D01*
X029760Y021630D01*
X029810Y021630D01*
X029908Y021646D01*
X030002Y021676D01*
X030090Y021721D01*
X030170Y021779D01*
X030241Y021850D01*
X030299Y021930D01*
X030344Y022018D01*
X030374Y022112D01*
X030390Y022210D01*
X030390Y022260D01*
X030390Y022310D01*
X030374Y022408D01*
X030344Y022502D01*
X030299Y022590D01*
X030241Y022670D01*
X030170Y022741D01*
X030090Y022799D01*
X030002Y022844D01*
X029908Y022874D01*
X029810Y022890D01*
X029760Y022890D01*
X029760Y022260D01*
X029760Y022260D01*
X030390Y022260D01*
X029760Y022260D01*
X029760Y022260D01*
X029760Y022890D01*
X029710Y022890D01*
X029612Y022874D01*
X029518Y022844D01*
X029430Y022799D01*
X029350Y022741D01*
X029279Y022670D01*
X029275Y022664D01*
X029128Y022811D01*
X028889Y022910D01*
X028631Y022910D01*
X028392Y022811D01*
X028320Y022739D01*
X028320Y023871D01*
X028235Y024077D01*
X028077Y024235D01*
X027577Y024735D01*
X027371Y024820D01*
X012492Y024820D01*
X011985Y025327D01*
X011827Y025485D01*
X011621Y025570D01*
X009045Y025570D01*
X009191Y025715D01*
X009270Y025907D01*
X009270Y026113D01*
X009191Y026305D01*
X009045Y026451D01*
X008853Y026530D01*
X008167Y026530D01*
X007975Y026451D01*
X007829Y026305D01*
X007750Y026113D01*
X007750Y025907D01*
X007829Y025715D01*
X007975Y025569D01*
X008118Y025510D01*
X007975Y025451D01*
X007829Y025305D01*
X007750Y025113D01*
X007750Y024907D01*
X007829Y024715D01*
X007975Y024569D01*
X008167Y024490D01*
X008302Y024490D01*
X008399Y024450D01*
X010474Y024450D01*
X010377Y024410D01*
X008930Y024410D01*
X008783Y024349D01*
X008671Y024237D01*
X007804Y023370D01*
X007507Y023370D01*
X007150Y023013D01*
X007150Y022507D01*
X007397Y022260D01*
X007150Y022013D01*
X007150Y021507D01*
X007360Y021297D01*
X007360Y020680D01*
X007421Y020533D01*
X007533Y020421D01*
X008740Y019214D01*
X008740Y019170D01*
X009045Y018865D01*
X009475Y018865D01*
X009610Y019000D01*
X009610Y016460D01*
X009599Y016487D01*
X009487Y016599D01*
X006660Y019426D01*
X006660Y022340D01*
X006599Y022487D01*
X006487Y022599D01*
X005910Y023176D01*
X005910Y024513D01*
X006045Y024569D01*
X006191Y024715D01*
X006270Y024907D01*
X006270Y025113D01*
X006191Y025305D01*
X006045Y025451D01*
X005902Y025510D01*
X006045Y025569D01*
X006191Y025715D01*
X006270Y025907D01*
X006270Y026113D01*
X006191Y026305D01*
X006045Y026451D01*
X005853Y026530D01*
X005167Y026530D01*
X004975Y026451D01*
X004935Y026410D01*
X004430Y026410D01*
X004283Y026349D01*
X004033Y026099D01*
X003921Y025987D01*
X003860Y025840D01*
X003860Y024426D01*
X003033Y023599D01*
X002921Y023487D01*
X002860Y023340D01*
X002860Y022180D01*
X002921Y022033D01*
X003421Y021533D01*
X003533Y021421D01*
X003680Y021360D01*
X003797Y021360D01*
X004007Y021150D01*
X004513Y021150D01*
X004870Y021507D01*
X004870Y022013D01*
X004609Y022274D01*
X004850Y022516D01*
X004850Y022760D01*
X004850Y023004D01*
X004504Y023350D01*
X004260Y023350D01*
X004260Y022760D01*
X004260Y022760D01*
X004850Y022760D01*
X004260Y022760D01*
X004260Y022760D01*
X004260Y022760D01*
X003670Y022760D01*
X003670Y023004D01*
X004016Y023350D01*
X004260Y023350D01*
X004260Y022760D01*
X003670Y022760D01*
X003670Y022516D01*
X003911Y022274D01*
X003862Y022224D01*
X003660Y022426D01*
X003660Y023094D01*
X004599Y024033D01*
X004660Y024180D01*
X004660Y025594D01*
X004676Y025610D01*
X004935Y025610D01*
X004975Y025569D01*
X005118Y025510D01*
X004975Y025451D01*
X004829Y025305D01*
X004750Y025113D01*
X004750Y024907D01*
X004829Y024715D01*
X004975Y024569D01*
X005110Y024513D01*
X005110Y022930D01*
X005171Y022783D01*
X005860Y022094D01*
X005860Y019180D01*
X005921Y019033D01*
X008860Y016094D01*
X008860Y015720D01*
X008740Y015600D01*
X008740Y015170D01*
X009000Y014910D01*
X006683Y014910D01*
X006657Y014972D01*
X006514Y015115D01*
X006657Y015258D01*
X006753Y015490D01*
X006753Y015741D01*
X006657Y015972D01*
X006514Y016115D01*
X006657Y016258D01*
X006753Y016490D01*
X006753Y016741D01*
X006657Y016972D01*
X006497Y017133D01*
X006521Y017150D01*
X006588Y017218D01*
X006645Y017296D01*
X006688Y017381D01*
X006718Y017472D01*
X006733Y017567D01*
X006733Y017615D01*
X006123Y017615D01*
X006123Y017615D01*
X006123Y017245D01*
X006123Y017245D01*
X006123Y017615D01*
X005513Y017615D01*
X005513Y017567D01*
X005528Y017472D01*
X005558Y017381D01*
X005601Y017296D01*
X005658Y017218D01*
X005726Y017150D01*
X005750Y017133D01*
X005589Y016972D01*
X005493Y016741D01*
X005493Y016490D01*
X005589Y016258D01*
X005732Y016115D01*
X005589Y015972D01*
X005493Y015741D01*
X005493Y015490D01*
X005589Y015258D01*
X005732Y015115D01*
X005632Y015015D01*
X004143Y015015D01*
X004008Y015150D01*
X004151Y015293D01*
X004247Y015524D01*
X004247Y015775D01*
X004151Y016007D01*
X004008Y016150D01*
X004151Y016293D01*
X004247Y016524D01*
X004247Y016775D01*
X004151Y017007D01*
X003991Y017167D01*
X004015Y017184D01*
X004083Y017252D01*
X004139Y017330D01*
X004183Y017416D01*
X004212Y017507D01*
X004227Y017602D01*
X004227Y017650D01*
X004227Y017698D01*
X004212Y017793D01*
X004183Y017884D01*
X004139Y017969D01*
X004083Y018047D01*
X004015Y018115D01*
X003937Y018171D01*
X003851Y018215D01*
X003760Y018245D01*
X003665Y018260D01*
X003617Y018260D01*
X003569Y018260D01*
X003474Y018245D01*
X003383Y018215D01*
X003298Y018171D01*
X003220Y018115D01*
X003152Y018047D01*
X003096Y017969D01*
X003052Y017884D01*
X003022Y017793D01*
X003007Y017698D01*
X003007Y017650D01*
X003617Y017650D01*
X003617Y017650D01*
X003617Y018260D01*
X003617Y017650D01*
X003617Y017650D01*
X003007Y017650D01*
X003007Y017602D01*
X003022Y017507D01*
X003052Y017416D01*
X003096Y017330D01*
X003152Y017252D01*
X003220Y017184D01*
X003244Y017167D01*
X003083Y017007D01*
X002987Y016775D01*
X002987Y016524D01*
X003083Y016293D01*
X003226Y016150D01*
X003083Y016007D01*
X002987Y015775D01*
X002987Y015524D01*
X003083Y015293D01*
X003226Y015150D01*
X003083Y015007D01*
X002987Y014775D01*
X002987Y014524D01*
X003083Y014293D01*
X003226Y014150D01*
X003083Y014007D01*
X002987Y013775D01*
X002987Y013524D01*
X003083Y013293D01*
X003226Y013150D01*
X003083Y013007D01*
X002987Y012775D01*
X002987Y012524D01*
X003083Y012293D01*
X003226Y012150D01*
X003083Y012007D01*
X002987Y011775D01*
X002987Y011524D01*
X003083Y011293D01*
X003226Y011150D01*
X003083Y011007D01*
X002987Y010775D01*
X002987Y010524D01*
X003083Y010293D01*
X003260Y010116D01*
X003492Y010020D01*
X003743Y010020D01*
X003974Y010116D01*
X004074Y010215D01*
X005632Y010215D01*
X005766Y010081D01*
X005998Y009985D01*
X006249Y009985D01*
X006480Y010081D01*
X006614Y010215D01*
X008490Y010215D01*
X008490Y009795D01*
X008609Y009675D01*
X006421Y007487D01*
X006360Y007340D01*
X006360Y006529D01*
X006209Y006378D01*
X006110Y006139D01*
X006110Y005881D01*
X006209Y005642D01*
X006392Y005459D01*
X006631Y005360D01*
X006889Y005360D01*
X007128Y005459D01*
X007275Y005606D01*
X007279Y005600D01*
X007350Y005529D01*
X007430Y005471D01*
X007518Y005426D01*
X007612Y005396D01*
X007710Y005380D01*
X007760Y005380D01*
X007810Y005380D01*
X007908Y005396D01*
X008002Y005426D01*
X008090Y005471D01*
X008170Y005529D01*
X008241Y005600D01*
X008299Y005680D01*
X008344Y005768D01*
X008374Y005862D01*
X008390Y005960D01*
X008390Y006010D01*
X008390Y006060D01*
X008374Y006158D01*
X008344Y006252D01*
X008299Y006340D01*
X008241Y006420D01*
X008170Y006491D01*
X008090Y006549D01*
X008002Y006594D01*
X007908Y006624D01*
X007810Y006640D01*
X007760Y006640D01*
X007760Y006010D01*
X007760Y006010D01*
X008390Y006010D01*
X007760Y006010D01*
X007760Y006010D01*
X007760Y006640D01*
X007710Y006640D01*
X007612Y006624D01*
X007518Y006594D01*
X007430Y006549D01*
X007350Y006491D01*
X007279Y006420D01*
X007275Y006414D01*
X007160Y006529D01*
X007160Y007094D01*
X009237Y009171D01*
X009349Y009283D01*
X009410Y009430D01*
X009410Y009610D01*
X010090Y009610D01*
X010237Y009671D01*
X010349Y009783D01*
X010556Y009990D01*
X010725Y009990D01*
X011030Y010295D01*
X011030Y010725D01*
X010725Y011030D01*
X010295Y011030D01*
X009990Y010725D01*
X009990Y010556D01*
X009844Y010410D01*
X009345Y010410D01*
X009225Y010530D01*
X009096Y010530D01*
X009676Y011110D01*
X014344Y011110D01*
X014424Y011030D01*
X014295Y011030D01*
X013990Y010725D01*
X013990Y010295D01*
X014295Y009990D01*
X014543Y009990D01*
X014555Y009985D01*
X016110Y009985D01*
X016110Y009180D01*
X016171Y009033D01*
X016283Y008921D01*
X016365Y008839D01*
X016365Y008670D01*
X016670Y008365D01*
X017100Y008365D01*
X017405Y008670D01*
X017405Y009100D01*
X017100Y009405D01*
X016931Y009405D01*
X016910Y009426D01*
X016910Y010050D01*
X017030Y010170D01*
X017030Y010600D01*
X016770Y010860D01*
X018250Y010860D01*
X017990Y010600D01*
X017990Y010170D01*
X018295Y009865D01*
X018464Y009865D01*
X019172Y009157D01*
X019115Y009100D01*
X019115Y008670D01*
X019420Y008365D01*
X019850Y008365D01*
X020155Y008670D01*
X020155Y009100D01*
X020035Y009220D01*
X020035Y009340D01*
X019974Y009487D01*
X019862Y009599D01*
X019030Y010431D01*
X019030Y010600D01*
X018770Y010860D01*
X018840Y010860D01*
X018987Y010921D01*
X019099Y011033D01*
X019099Y011033D01*
X020676Y012610D01*
X020889Y012610D01*
X021128Y012709D01*
X021260Y012841D01*
X021360Y012741D01*
X021360Y012180D01*
X021421Y012033D01*
X021533Y011921D01*
X021860Y011594D01*
X021860Y008286D01*
X021690Y008130D01*
X021690Y008135D01*
X021594Y008367D01*
X021451Y008510D01*
X021594Y008653D01*
X021690Y008885D01*
X021690Y009135D01*
X021594Y009367D01*
X021451Y009510D01*
X021594Y009653D01*
X021690Y009885D01*
X021690Y010135D01*
X021594Y010367D01*
X021451Y010510D01*
X021594Y010653D01*
X021690Y010885D01*
X021690Y011135D01*
X021594Y011367D01*
X021417Y011544D01*
X021185Y011640D01*
X020935Y011640D01*
X020703Y011544D01*
X020526Y011367D01*
X020430Y011135D01*
X020430Y010885D01*
X020526Y010653D01*
X020669Y010510D01*
X020526Y010367D01*
X020430Y010135D01*
X020430Y009885D01*
X020526Y009653D01*
X020669Y009510D01*
X020526Y009367D01*
X020430Y009135D01*
X020430Y008885D01*
X020526Y008653D01*
X020669Y008510D01*
X020526Y008367D01*
X020430Y008135D01*
X020430Y007885D01*
X020526Y007653D01*
X020669Y007510D01*
X020526Y007367D01*
X020430Y007135D01*
X020430Y006885D01*
X020526Y006653D01*
X020669Y006510D01*
X020526Y006367D01*
X020430Y006135D01*
X020430Y005885D01*
X020526Y005653D01*
X020686Y005493D01*
X020663Y005475D01*
X020595Y005407D01*
X020538Y005330D01*
X020495Y005244D01*
X020465Y005153D01*
X020450Y005058D01*
X020450Y005010D01*
X021060Y005010D01*
X021670Y005010D01*
X021670Y005058D01*
X021655Y005153D01*
X021625Y005244D01*
X021582Y005330D01*
X021525Y005407D01*
X021457Y005475D01*
X021434Y005493D01*
X021594Y005653D01*
X021690Y005885D01*
X021690Y006054D01*
X022981Y007268D01*
X022987Y007271D01*
X023039Y007323D01*
X023092Y007373D01*
X023095Y007379D01*
X023099Y007383D01*
X023127Y007451D01*
X023157Y007518D01*
X023158Y007525D01*
X023160Y007530D01*
X023160Y007604D01*
X023162Y007677D01*
X023160Y007683D01*
X023160Y012741D01*
X023260Y012841D01*
X023392Y012709D01*
X023631Y012610D01*
X023844Y012610D01*
X025726Y010728D01*
X025667Y010728D01*
X025495Y010657D01*
X025363Y010525D01*
X025295Y010361D01*
X025033Y010099D01*
X024921Y009987D01*
X024860Y009840D01*
X024860Y005018D01*
X024792Y004853D01*
X024792Y004667D01*
X024863Y004495D01*
X024995Y004363D01*
X025167Y004292D01*
X025353Y004292D01*
X025525Y004363D01*
X025657Y004495D01*
X025728Y004667D01*
X025728Y004853D01*
X025660Y005018D01*
X025660Y009594D01*
X025861Y009795D01*
X026025Y009863D01*
X026157Y009995D01*
X026228Y010167D01*
X026228Y010226D01*
X029046Y007408D01*
X029158Y007296D01*
X029305Y007235D01*
X034616Y007235D01*
X034656Y007195D01*
X034024Y007195D01*
X033818Y007110D01*
X033660Y006952D01*
X032679Y005971D01*
X032657Y006025D01*
X032525Y006157D01*
X032361Y006225D01*
X031599Y006987D01*
X031487Y007099D01*
X031340Y007160D01*
X029518Y007160D01*
X029353Y007228D01*
X029167Y007228D01*
X028995Y007157D01*
X028863Y007025D01*
X028792Y006853D01*
X028792Y006667D01*
X028863Y006495D01*
X028995Y006363D01*
X029167Y006292D01*
X029353Y006292D01*
X029518Y006360D01*
X031094Y006360D01*
X031795Y005659D01*
X031863Y005495D01*
X031995Y005363D01*
X032049Y005341D01*
X030028Y003320D01*
X024492Y003320D01*
X023327Y004485D01*
X023121Y004570D01*
X021483Y004570D01*
X021525Y004613D01*
X021582Y004690D01*
X021625Y004776D01*
X021655Y004867D01*
X021670Y004962D01*
X021670Y005010D01*
X021060Y005010D01*
X021060Y005010D01*
X021060Y005010D01*
X020450Y005010D01*
X020450Y004962D01*
X020465Y004867D01*
X020495Y004776D01*
X020538Y004690D01*
X020595Y004613D01*
X020663Y004545D01*
X020686Y004527D01*
X020526Y004367D01*
X020430Y004135D01*
X020430Y003885D01*
X020526Y003653D01*
X020669Y003510D01*
X020526Y003367D01*
X020430Y003135D01*
X020430Y002885D01*
X020526Y002653D01*
X020703Y002476D01*
X020935Y002380D01*
X021185Y002380D01*
X021417Y002476D01*
X021594Y002653D01*
X021690Y002885D01*
X021690Y003135D01*
X021594Y003367D01*
X021511Y003450D01*
X022778Y003450D01*
X023785Y002443D01*
X023943Y002285D01*
X024149Y002200D01*
X030278Y002200D01*
X031283Y001195D01*
X025155Y001195D01*
X025155Y001600D01*
X024850Y001905D01*
X024420Y001905D01*
X024115Y001600D01*
X024115Y001195D01*
X021155Y001195D01*
X021155Y001600D01*
X020850Y001905D01*
X020420Y001905D01*
X020300Y001785D01*
X006801Y001785D01*
X004440Y004146D01*
X004440Y004601D01*
X004591Y004752D01*
X004690Y004991D01*
X004690Y005249D01*
X004591Y005488D01*
X004408Y005671D01*
X004169Y005770D01*
X003911Y005770D01*
X003672Y005671D01*
X003489Y005488D01*
X003390Y005249D01*
X003390Y004991D01*
X003489Y004752D01*
X003640Y004601D01*
X003640Y003900D01*
X003701Y003753D01*
X003813Y003641D01*
X003813Y003641D01*
X006259Y001195D01*
X003385Y001195D01*
X003140Y001209D01*
X002662Y001318D01*
X002220Y001531D01*
X002216Y001534D02*
X005920Y001534D01*
X005602Y001853D02*
X003329Y001853D01*
X003417Y001903D02*
X003617Y002103D01*
X003665Y002186D01*
X003673Y002195D01*
X003679Y002211D01*
X003758Y002347D01*
X003831Y002619D01*
X003831Y002901D01*
X003758Y003173D01*
X003679Y003309D01*
X003673Y003325D01*
X003665Y003334D01*
X003617Y003417D01*
X003417Y003617D01*
X003173Y003758D01*
X003067Y003786D01*
X003054Y003793D01*
X003036Y003794D01*
X002901Y003831D01*
X002619Y003831D01*
X002347Y003758D01*
X002286Y003722D01*
X002281Y003721D01*
X002274Y003716D01*
X002103Y003617D01*
X001978Y003492D01*
X001967Y003483D01*
X001962Y003476D01*
X001903Y003417D01*
X001762Y003173D01*
X001689Y002901D01*
X001689Y002777D01*
X001686Y002760D01*
X001689Y002743D01*
X001689Y002619D01*
X001762Y002347D01*
X001903Y002103D01*
X001962Y002044D01*
X001967Y002037D01*
X001978Y002028D01*
X002103Y001903D01*
X002274Y001804D01*
X002281Y001799D01*
X002286Y001798D01*
X002347Y001762D01*
X002619Y001689D01*
X002901Y001689D01*
X003036Y001726D01*
X003054Y001727D01*
X003067Y001734D01*
X003173Y001762D01*
X003417Y001903D01*
X003656Y002171D02*
X005283Y002171D01*
X004965Y002490D02*
X003796Y002490D01*
X003831Y002808D02*
X004646Y002808D01*
X004328Y003127D02*
X003770Y003127D01*
X003589Y003445D02*
X004009Y003445D01*
X003697Y003764D02*
X003151Y003764D01*
X003640Y004082D02*
X001195Y004082D01*
X001195Y003764D02*
X002369Y003764D01*
X001931Y003445D02*
X001195Y003445D01*
X001212Y003127D02*
X001750Y003127D01*
X001689Y002808D02*
X001285Y002808D01*
X001401Y002490D02*
X001724Y002490D01*
X001864Y002171D02*
X001570Y002171D01*
X001824Y001853D02*
X002191Y001853D01*
X003110Y001216D02*
X006239Y001216D01*
X006733Y001853D02*
X020367Y001853D01*
X020903Y001853D02*
X024367Y001853D01*
X024115Y001534D02*
X021155Y001534D01*
X021155Y001216D02*
X024115Y001216D01*
X024903Y001853D02*
X030626Y001853D01*
X030307Y002171D02*
X006415Y002171D01*
X006096Y002490D02*
X020690Y002490D01*
X021430Y002490D02*
X023739Y002490D01*
X023420Y002808D02*
X021658Y002808D01*
X021690Y003127D02*
X023102Y003127D01*
X022783Y003445D02*
X021516Y003445D01*
X020604Y003445D02*
X005141Y003445D01*
X005459Y003127D02*
X020430Y003127D01*
X020462Y002808D02*
X005778Y002808D01*
X004822Y003764D02*
X020480Y003764D01*
X020430Y004082D02*
X004504Y004082D01*
X004440Y004401D02*
X016634Y004401D01*
X016670Y004365D02*
X017100Y004365D01*
X017405Y004670D01*
X017405Y005100D01*
X017100Y005405D01*
X016931Y005405D01*
X015516Y006819D01*
X015369Y006880D01*
X014360Y006880D01*
X013920Y007321D01*
X013920Y007510D01*
X013824Y007742D01*
X013646Y007919D01*
X013415Y008015D01*
X013164Y008015D01*
X012933Y007919D01*
X012755Y007742D01*
X012660Y007510D01*
X012660Y007260D01*
X012755Y007028D01*
X012933Y006851D01*
X013164Y006755D01*
X013354Y006755D01*
X013968Y006141D01*
X014115Y006080D01*
X015124Y006080D01*
X016365Y004839D01*
X016365Y004670D01*
X016670Y004365D01*
X017136Y004401D02*
X018004Y004401D01*
X017951Y004422D02*
X018151Y004339D01*
X018369Y004339D01*
X018569Y004422D01*
X018632Y004485D01*
X019300Y004485D01*
X019420Y004365D01*
X019850Y004365D01*
X020155Y004670D01*
X020155Y005100D01*
X019850Y005405D01*
X019420Y005405D01*
X019300Y005285D01*
X018632Y005285D01*
X018569Y005348D01*
X018369Y005431D01*
X018151Y005431D01*
X017951Y005348D01*
X017797Y005194D01*
X017714Y004994D01*
X017714Y004776D01*
X017797Y004576D01*
X017951Y004422D01*
X017738Y004719D02*
X017405Y004719D01*
X017405Y005038D02*
X017732Y005038D01*
X017971Y005356D02*
X017149Y005356D01*
X016661Y005675D02*
X020517Y005675D01*
X020557Y005356D02*
X019899Y005356D01*
X019371Y005356D02*
X018549Y005356D01*
X020155Y005038D02*
X020450Y005038D01*
X020524Y004719D02*
X020155Y004719D01*
X019886Y004401D02*
X020560Y004401D01*
X019384Y004401D02*
X018516Y004401D01*
X016365Y004719D02*
X004558Y004719D01*
X004690Y005038D02*
X016167Y005038D01*
X015848Y005356D02*
X004646Y005356D01*
X004400Y005675D02*
X006195Y005675D01*
X006110Y005993D02*
X001195Y005993D01*
X001195Y006312D02*
X001202Y006312D01*
X001758Y006312D02*
X003812Y006312D01*
X003798Y006316D02*
X003892Y006286D01*
X003990Y006270D01*
X004040Y006270D01*
X004090Y006270D01*
X004188Y006286D01*
X004282Y006316D01*
X004370Y006361D01*
X004450Y006419D01*
X004521Y006490D01*
X004579Y006570D01*
X004624Y006658D01*
X004654Y006752D01*
X004670Y006850D01*
X004670Y006900D01*
X004670Y006950D01*
X004654Y007048D01*
X004624Y007142D01*
X004579Y007230D01*
X004521Y007310D01*
X004450Y007381D01*
X004370Y007439D01*
X004282Y007484D01*
X004188Y007514D01*
X004090Y007530D01*
X004040Y007530D01*
X004040Y006900D01*
X004670Y006900D01*
X004040Y006900D01*
X004040Y006900D01*
X004040Y006900D01*
X004040Y006270D01*
X004040Y006900D01*
X004040Y006900D01*
X004040Y006900D01*
X003410Y006900D01*
X003410Y006950D01*
X003426Y007048D01*
X003456Y007142D01*
X003501Y007230D01*
X003559Y007310D01*
X003630Y007381D01*
X003710Y007439D01*
X003798Y007484D01*
X003892Y007514D01*
X003990Y007530D01*
X004040Y007530D01*
X004040Y006900D01*
X003410Y006900D01*
X003410Y006850D01*
X003426Y006752D01*
X003456Y006658D01*
X003501Y006570D01*
X003559Y006490D01*
X003630Y006419D01*
X003710Y006361D01*
X003798Y006316D01*
X004040Y006312D02*
X004040Y006312D01*
X004268Y006312D02*
X006181Y006312D01*
X006360Y006630D02*
X004609Y006630D01*
X004670Y006949D02*
X006360Y006949D01*
X006360Y007267D02*
X004552Y007267D01*
X004040Y007267D02*
X004040Y007267D01*
X003955Y007560D02*
X003854Y007525D01*
X003749Y007501D01*
X003676Y007493D01*
X003676Y008355D01*
X003676Y008527D01*
X004538Y008527D01*
X004530Y008601D01*
X004506Y008705D01*
X004471Y008806D01*
X004424Y008902D01*
X004367Y008993D01*
X004301Y009077D01*
X004225Y009152D01*
X004142Y009219D01*
X004051Y009276D01*
X003955Y009322D01*
X003854Y009357D01*
X003749Y009381D01*
X003676Y009390D01*
X003676Y008527D01*
X003504Y008527D01*
X003504Y009390D01*
X003430Y009381D01*
X003326Y009357D01*
X003225Y009322D01*
X003128Y009276D01*
X003038Y009219D01*
X002954Y009152D01*
X002879Y009077D01*
X002812Y008993D01*
X002755Y008902D01*
X002709Y008806D01*
X002673Y008705D01*
X002650Y008601D01*
X002641Y008527D01*
X003504Y008527D01*
X003504Y008355D01*
X003676Y008355D01*
X004538Y008355D01*
X004530Y008281D01*
X004506Y008177D01*
X004471Y008076D01*
X004424Y007980D01*
X004367Y007889D01*
X004301Y007806D01*
X004225Y007730D01*
X004142Y007663D01*
X004051Y007606D01*
X003955Y007560D01*
X004007Y007586D02*
X006520Y007586D01*
X006838Y007904D02*
X004377Y007904D01*
X004516Y008223D02*
X007157Y008223D01*
X007475Y008541D02*
X004537Y008541D01*
X004445Y008860D02*
X007794Y008860D01*
X008112Y009178D02*
X004193Y009178D01*
X003676Y009178D02*
X003504Y009178D01*
X003504Y008860D02*
X003676Y008860D01*
X003676Y008541D02*
X003504Y008541D01*
X003504Y008355D02*
X002641Y008355D01*
X002650Y008281D01*
X002673Y008177D01*
X002709Y008076D01*
X002755Y007980D01*
X002812Y007889D01*
X002879Y007806D01*
X002954Y007730D01*
X003038Y007663D01*
X003128Y007606D01*
X003225Y007560D01*
X003326Y007525D01*
X003430Y007501D01*
X003504Y007493D01*
X003504Y008355D01*
X003504Y008223D02*
X003676Y008223D01*
X003676Y007904D02*
X003504Y007904D01*
X003504Y007586D02*
X003676Y007586D01*
X003172Y007586D02*
X001195Y007586D01*
X001195Y007904D02*
X002803Y007904D01*
X002663Y008223D02*
X001195Y008223D01*
X001195Y008541D02*
X002643Y008541D01*
X002734Y008860D02*
X001195Y008860D01*
X001195Y009178D02*
X002987Y009178D01*
X003243Y010134D02*
X001195Y010134D01*
X001195Y010452D02*
X003017Y010452D01*
X002987Y010771D02*
X001195Y010771D01*
X001195Y011089D02*
X003166Y011089D01*
X003036Y011408D02*
X001195Y011408D01*
X001195Y011726D02*
X002987Y011726D01*
X003121Y012045D02*
X001195Y012045D01*
X001195Y012363D02*
X003054Y012363D01*
X002987Y012682D02*
X001195Y012682D01*
X001195Y013000D02*
X003080Y013000D01*
X003073Y013319D02*
X001195Y013319D01*
X001195Y013637D02*
X002987Y013637D01*
X003062Y013956D02*
X001195Y013956D01*
X001195Y014274D02*
X003102Y014274D01*
X002987Y014593D02*
X001195Y014593D01*
X001195Y014911D02*
X003044Y014911D01*
X003147Y015230D02*
X001195Y015230D01*
X001195Y015548D02*
X002987Y015548D01*
X003025Y015867D02*
X001195Y015867D01*
X001195Y016185D02*
X003191Y016185D01*
X002996Y016504D02*
X001195Y016504D01*
X001195Y016822D02*
X003007Y016822D01*
X003217Y017141D02*
X001195Y017141D01*
X001195Y017459D02*
X003038Y017459D01*
X003020Y017778D02*
X001195Y017778D01*
X001195Y018096D02*
X003201Y018096D01*
X003617Y018096D02*
X003617Y018096D01*
X003617Y017778D02*
X003617Y017778D01*
X003617Y017650D02*
X004227Y017650D01*
X003617Y017650D01*
X003617Y017650D01*
X003617Y017280D01*
X003617Y017280D01*
X003617Y017650D01*
X003617Y017650D01*
X003617Y017459D02*
X003617Y017459D01*
X004017Y017141D02*
X005739Y017141D01*
X005533Y017459D02*
X004197Y017459D01*
X004215Y017778D02*
X005535Y017778D01*
X005528Y017758D02*
X005513Y017663D01*
X005513Y017615D01*
X006123Y017615D01*
X006123Y017615D01*
X006123Y017615D01*
X006123Y018225D01*
X006075Y018225D01*
X005980Y018210D01*
X005889Y018181D01*
X005803Y018137D01*
X005726Y018081D01*
X005658Y018013D01*
X005601Y017935D01*
X005558Y017849D01*
X005528Y017758D01*
X005747Y018096D02*
X004034Y018096D01*
X003854Y018942D02*
X003955Y018977D01*
X004051Y019024D01*
X004142Y019081D01*
X004225Y019147D01*
X004301Y019223D01*
X004367Y019307D01*
X004424Y019397D01*
X004471Y019493D01*
X004506Y019594D01*
X004530Y019699D01*
X004538Y019772D01*
X003676Y019772D01*
X003676Y018910D01*
X003749Y018918D01*
X003854Y018942D01*
X003676Y019052D02*
X003504Y019052D01*
X003504Y018910D02*
X003504Y019772D01*
X003676Y019772D01*
X003676Y019944D01*
X004538Y019944D01*
X004530Y020018D01*
X004506Y020122D01*
X004471Y020223D01*
X004424Y020320D01*
X004367Y020410D01*
X004301Y020494D01*
X004225Y020569D01*
X004142Y020636D01*
X004051Y020693D01*
X003955Y020739D01*
X003854Y020775D01*
X003749Y020799D01*
X003676Y020807D01*
X003676Y019945D01*
X003504Y019945D01*
X003504Y020807D01*
X003430Y020799D01*
X003326Y020775D01*
X003225Y020739D01*
X003128Y020693D01*
X003038Y020636D01*
X002954Y020569D01*
X002879Y020494D01*
X002812Y020410D01*
X002755Y020320D01*
X002709Y020223D01*
X002673Y020122D01*
X002650Y020018D01*
X002641Y019944D01*
X003504Y019944D01*
X003504Y019772D01*
X002641Y019772D01*
X002650Y019699D01*
X002673Y019594D01*
X002709Y019493D01*
X002755Y019397D01*
X002812Y019307D01*
X002879Y019223D01*
X002954Y019147D01*
X003038Y019081D01*
X003128Y019024D01*
X003225Y018977D01*
X003326Y018942D01*
X003430Y018918D01*
X003504Y018910D01*
X003084Y019052D02*
X001195Y019052D01*
X001195Y018733D02*
X006221Y018733D01*
X005913Y019052D02*
X004095Y019052D01*
X004407Y019370D02*
X005860Y019370D01*
X005860Y019689D02*
X004528Y019689D01*
X004531Y020007D02*
X005860Y020007D01*
X005860Y020326D02*
X004421Y020326D01*
X004129Y020644D02*
X005860Y020644D01*
X005860Y020963D02*
X001195Y020963D01*
X001195Y021281D02*
X003876Y021281D01*
X004644Y021281D02*
X005860Y021281D01*
X005860Y021600D02*
X004870Y021600D01*
X004870Y021918D02*
X005860Y021918D01*
X005718Y022237D02*
X004646Y022237D01*
X004850Y022555D02*
X005399Y022555D01*
X005134Y022874D02*
X004850Y022874D01*
X004662Y023192D02*
X005110Y023192D01*
X005110Y023511D02*
X004076Y023511D01*
X004260Y023192D02*
X004260Y023192D01*
X004260Y022874D02*
X004260Y022874D01*
X003858Y023192D02*
X003758Y023192D01*
X003670Y022874D02*
X003660Y022874D01*
X003660Y022555D02*
X003670Y022555D01*
X003849Y022237D02*
X003874Y022237D01*
X003355Y021600D02*
X001195Y021600D01*
X001195Y021918D02*
X003036Y021918D01*
X002860Y022237D02*
X001195Y022237D01*
X001195Y022555D02*
X002860Y022555D01*
X002860Y022874D02*
X001195Y022874D01*
X001195Y023192D02*
X002860Y023192D01*
X002945Y023511D02*
X001195Y023511D01*
X001195Y023829D02*
X003263Y023829D01*
X003173Y024262D02*
X003417Y024403D01*
X003617Y024603D01*
X003665Y024686D01*
X003673Y024695D01*
X003679Y024711D01*
X003758Y024847D01*
X003831Y025119D01*
X003831Y025401D01*
X003758Y025673D01*
X003679Y025809D01*
X003673Y025825D01*
X003665Y025834D01*
X003617Y025917D01*
X003417Y026117D01*
X003173Y026258D01*
X003067Y026286D01*
X003054Y026293D01*
X003036Y026294D01*
X002901Y026331D01*
X002619Y026331D01*
X002347Y026258D01*
X002286Y026222D01*
X002281Y026221D01*
X002274Y026216D01*
X002103Y026117D01*
X001978Y025992D01*
X001967Y025983D01*
X001962Y025976D01*
X001903Y025917D01*
X001762Y025673D01*
X001689Y025401D01*
X001689Y025277D01*
X001686Y025260D01*
X001689Y025243D01*
X001689Y025119D01*
X001762Y024847D01*
X001903Y024603D01*
X001962Y024544D01*
X001967Y024537D01*
X001978Y024528D01*
X002103Y024403D01*
X002274Y024304D01*
X002281Y024299D01*
X002286Y024298D01*
X002347Y024262D01*
X002619Y024189D01*
X002901Y024189D01*
X003036Y024226D01*
X003054Y024227D01*
X003067Y024234D01*
X003173Y024262D01*
X003480Y024466D02*
X003860Y024466D01*
X003860Y024785D02*
X003722Y024785D01*
X003826Y025103D02*
X003860Y025103D01*
X003860Y025422D02*
X003825Y025422D01*
X003860Y025740D02*
X003719Y025740D01*
X003475Y026059D02*
X003993Y026059D01*
X004351Y026377D02*
X002079Y026377D01*
X002045Y026059D02*
X001737Y026059D01*
X001801Y025740D02*
X001502Y025740D01*
X001348Y025422D02*
X001695Y025422D01*
X001694Y025103D02*
X001260Y025103D01*
X001203Y024785D02*
X001798Y024785D01*
X002040Y024466D02*
X001195Y024466D01*
X001195Y024148D02*
X003582Y024148D01*
X004395Y023829D02*
X005110Y023829D01*
X005110Y024148D02*
X004646Y024148D01*
X004660Y024466D02*
X005110Y024466D01*
X004801Y024785D02*
X004660Y024785D01*
X004660Y025103D02*
X004750Y025103D01*
X004660Y025422D02*
X004946Y025422D01*
X006074Y025422D02*
X007946Y025422D01*
X007819Y025740D02*
X006201Y025740D01*
X006270Y026059D02*
X007750Y026059D01*
X007902Y026377D02*
X006118Y026377D01*
X006270Y025103D02*
X007750Y025103D01*
X007801Y024785D02*
X006219Y024785D01*
X005910Y024466D02*
X008360Y024466D01*
X008582Y024148D02*
X005910Y024148D01*
X005910Y023829D02*
X008263Y023829D01*
X007945Y023511D02*
X005910Y023511D01*
X005910Y023192D02*
X007329Y023192D01*
X007150Y022874D02*
X006212Y022874D01*
X006531Y022555D02*
X007150Y022555D01*
X007374Y022237D02*
X006660Y022237D01*
X006660Y021918D02*
X007150Y021918D01*
X007150Y021600D02*
X006660Y021600D01*
X006660Y021281D02*
X007360Y021281D01*
X007360Y020963D02*
X006660Y020963D01*
X006660Y020644D02*
X007375Y020644D01*
X007629Y020326D02*
X006660Y020326D01*
X006660Y020007D02*
X007947Y020007D01*
X008266Y019689D02*
X006660Y019689D01*
X006716Y019370D02*
X008584Y019370D01*
X008858Y019052D02*
X007034Y019052D01*
X007353Y018733D02*
X009610Y018733D01*
X009610Y018415D02*
X007671Y018415D01*
X007990Y018096D02*
X009610Y018096D01*
X009610Y017778D02*
X008308Y017778D01*
X008627Y017459D02*
X009610Y017459D01*
X009610Y017141D02*
X008945Y017141D01*
X009264Y016822D02*
X009610Y016822D01*
X009610Y016504D02*
X009582Y016504D01*
X008769Y016185D02*
X006584Y016185D01*
X006701Y015867D02*
X008860Y015867D01*
X008740Y015548D02*
X006753Y015548D01*
X006628Y015230D02*
X008740Y015230D01*
X008999Y014911D02*
X006683Y014911D01*
X005618Y015230D02*
X004088Y015230D01*
X004247Y015548D02*
X005493Y015548D01*
X005545Y015867D02*
X004209Y015867D01*
X004043Y016185D02*
X005663Y016185D01*
X005493Y016504D02*
X004239Y016504D01*
X004228Y016822D02*
X005527Y016822D01*
X006123Y017459D02*
X006123Y017459D01*
X006123Y017615D02*
X006733Y017615D01*
X006733Y017663D01*
X006718Y017758D01*
X006688Y017849D01*
X006645Y017935D01*
X006588Y018013D01*
X006521Y018081D01*
X006443Y018137D01*
X006357Y018181D01*
X006266Y018210D01*
X006171Y018225D01*
X006123Y018225D01*
X006123Y017615D01*
X006123Y017615D01*
X006123Y017778D02*
X006123Y017778D01*
X006123Y018096D02*
X006123Y018096D01*
X006499Y018096D02*
X006858Y018096D01*
X006712Y017778D02*
X007177Y017778D01*
X007495Y017459D02*
X006714Y017459D01*
X006507Y017141D02*
X007814Y017141D01*
X008132Y016822D02*
X006719Y016822D01*
X006753Y016504D02*
X008451Y016504D01*
X006540Y018415D02*
X001195Y018415D01*
X001195Y019370D02*
X002772Y019370D01*
X002652Y019689D02*
X001195Y019689D01*
X001195Y020007D02*
X002648Y020007D01*
X002759Y020326D02*
X001195Y020326D01*
X001195Y020644D02*
X003050Y020644D01*
X003504Y020644D02*
X003676Y020644D01*
X003676Y020326D02*
X003504Y020326D01*
X003504Y020007D02*
X003676Y020007D01*
X003676Y019689D02*
X003504Y019689D01*
X003504Y019370D02*
X003676Y019370D01*
X008160Y020926D02*
X008160Y021297D01*
X008370Y021507D01*
X008370Y022013D01*
X008123Y022260D01*
X008370Y022507D01*
X008370Y022804D01*
X009176Y023610D01*
X010377Y023610D01*
X010542Y023542D01*
X010728Y023542D01*
X010900Y023613D01*
X011032Y023745D01*
X011103Y023917D01*
X011103Y024103D01*
X011032Y024275D01*
X010900Y024407D01*
X010796Y024450D01*
X011278Y024450D01*
X011943Y023785D01*
X012149Y023700D01*
X016760Y023700D01*
X016760Y023510D01*
X017260Y023510D01*
X017760Y023510D01*
X017760Y023700D01*
X020740Y023700D01*
X020740Y023295D01*
X021045Y022990D01*
X021475Y022990D01*
X021595Y023110D01*
X021925Y023110D01*
X022045Y022990D01*
X022475Y022990D01*
X022595Y023110D01*
X022844Y023110D01*
X023268Y022687D01*
X023260Y022679D01*
X023128Y022811D01*
X022889Y022910D01*
X022631Y022910D01*
X022392Y022811D01*
X022260Y022679D01*
X022128Y022811D01*
X021889Y022910D01*
X021631Y022910D01*
X021392Y022811D01*
X021260Y022679D01*
X021128Y022811D01*
X020889Y022910D01*
X020631Y022910D01*
X020392Y022811D01*
X020260Y022679D01*
X020128Y022811D01*
X019889Y022910D01*
X019631Y022910D01*
X019392Y022811D01*
X019260Y022679D01*
X019128Y022811D01*
X018889Y022910D01*
X018631Y022910D01*
X018392Y022811D01*
X018260Y022679D01*
X018128Y022811D01*
X017889Y022910D01*
X017631Y022910D01*
X017392Y022811D01*
X017260Y022679D01*
X017128Y022811D01*
X016889Y022910D01*
X016631Y022910D01*
X016392Y022811D01*
X016280Y022699D01*
X016280Y023103D01*
X016201Y023295D01*
X016055Y023441D01*
X015863Y023520D01*
X015657Y023520D01*
X015465Y023441D01*
X015319Y023295D01*
X015260Y023152D01*
X015201Y023295D01*
X015055Y023441D01*
X014863Y023520D01*
X014657Y023520D01*
X014465Y023441D01*
X014319Y023295D01*
X014247Y023120D01*
X014223Y023192D01*
X014277Y023192D01*
X014223Y023192D02*
X014188Y023262D01*
X014141Y023326D01*
X014086Y023381D01*
X014022Y023428D01*
X013952Y023463D01*
X013877Y023488D01*
X013799Y023500D01*
X013760Y023500D01*
X013760Y022760D01*
X013760Y022760D01*
X013760Y022020D01*
X013799Y022020D01*
X013877Y022032D01*
X013952Y022057D01*
X014022Y022092D01*
X014086Y022139D01*
X014141Y022194D01*
X014188Y022258D01*
X014223Y022328D01*
X014247Y022400D01*
X014319Y022225D01*
X014465Y022079D01*
X014657Y022000D01*
X014863Y022000D01*
X015055Y022079D01*
X015201Y022225D01*
X015260Y022368D01*
X015319Y022225D01*
X015465Y022079D01*
X015657Y022000D01*
X015863Y022000D01*
X015984Y022050D01*
X015594Y021660D01*
X013805Y021660D01*
X013658Y021599D01*
X013546Y021487D01*
X012855Y020795D01*
X012845Y020825D01*
X012809Y020895D01*
X012763Y020958D01*
X012708Y021013D01*
X012645Y021059D01*
X012575Y021095D01*
X012501Y021119D01*
X012424Y021131D01*
X012385Y021131D01*
X012346Y021131D01*
X012269Y021119D01*
X012195Y021095D01*
X012125Y021059D01*
X012062Y021013D01*
X012007Y020958D01*
X011961Y020895D01*
X011925Y020825D01*
X011901Y020751D01*
X011900Y020742D01*
X011823Y020927D01*
X011677Y021073D01*
X011488Y021151D01*
X011282Y021151D01*
X011093Y021073D01*
X010947Y020927D01*
X010885Y020777D01*
X010823Y020927D01*
X010677Y021073D01*
X010488Y021151D01*
X010282Y021151D01*
X010093Y021073D01*
X009947Y020927D01*
X009869Y020738D01*
X009869Y020532D01*
X009915Y020421D01*
X009410Y020926D01*
X009410Y022502D01*
X009478Y022667D01*
X009478Y022853D01*
X009407Y023025D01*
X009275Y023157D01*
X009103Y023228D01*
X008917Y023228D01*
X008745Y023157D01*
X008613Y023025D01*
X008542Y022853D01*
X008542Y022667D01*
X008610Y022502D01*
X008610Y020680D01*
X008671Y020533D01*
X008783Y020421D01*
X009299Y019905D01*
X009181Y019905D01*
X008160Y020926D01*
X008160Y020963D02*
X008610Y020963D01*
X008610Y021281D02*
X008160Y021281D01*
X008370Y021600D02*
X008610Y021600D01*
X008610Y021918D02*
X008370Y021918D01*
X008146Y022237D02*
X008610Y022237D01*
X008588Y022555D02*
X008370Y022555D01*
X008439Y022874D02*
X008550Y022874D01*
X008758Y023192D02*
X008830Y023192D01*
X009190Y023192D02*
X013297Y023192D01*
X013272Y023117D01*
X013260Y023039D01*
X013260Y022760D01*
X013760Y022760D01*
X013760Y022760D01*
X013760Y022760D01*
X013760Y023500D01*
X013721Y023500D01*
X013643Y023488D01*
X013568Y023463D01*
X013498Y023428D01*
X013434Y023381D01*
X013379Y023326D01*
X013332Y023262D01*
X013297Y023192D01*
X013260Y022874D02*
X012820Y022874D01*
X012809Y022895D02*
X012763Y022958D01*
X012708Y023013D01*
X012645Y023059D01*
X012575Y023095D01*
X012501Y023119D01*
X012424Y023131D01*
X012385Y023131D01*
X012346Y023131D01*
X012269Y023119D01*
X012195Y023095D01*
X012125Y023059D01*
X012062Y023013D01*
X012007Y022958D01*
X011961Y022895D01*
X011925Y022825D01*
X011901Y022751D01*
X011889Y022674D01*
X011889Y022635D01*
X011889Y022596D01*
X011901Y022519D01*
X011925Y022445D01*
X011961Y022375D01*
X012007Y022312D01*
X012062Y022257D01*
X012125Y022211D01*
X012195Y022175D01*
X012269Y022151D01*
X012346Y022139D01*
X012385Y022139D01*
X012424Y022139D01*
X012501Y022151D01*
X012575Y022175D01*
X012645Y022211D01*
X012708Y022257D01*
X012763Y022312D01*
X012809Y022375D01*
X012845Y022445D01*
X012869Y022519D01*
X012881Y022596D01*
X012881Y022635D01*
X012881Y022674D01*
X012869Y022751D01*
X012845Y022825D01*
X012809Y022895D01*
X012881Y022635D02*
X012385Y022635D01*
X012385Y022635D01*
X012385Y022635D01*
X012385Y023131D01*
X012385Y022635D01*
X012881Y022635D01*
X012875Y022555D02*
X013260Y022555D01*
X013260Y022481D02*
X013272Y022403D01*
X013297Y022328D01*
X013332Y022258D01*
X013379Y022194D01*
X013434Y022139D01*
X013498Y022092D01*
X013568Y022057D01*
X013643Y022032D01*
X013721Y022020D01*
X013760Y022020D01*
X013760Y022760D01*
X013260Y022760D01*
X013260Y022481D01*
X013348Y022237D02*
X012681Y022237D01*
X012385Y022237D02*
X012385Y022237D01*
X012385Y022139D02*
X012385Y022635D01*
X012385Y022635D01*
X012385Y022635D01*
X011889Y022635D01*
X012385Y022635D01*
X012385Y022139D01*
X012089Y022237D02*
X010681Y022237D01*
X010708Y022257D02*
X010763Y022312D01*
X010809Y022375D01*
X010845Y022445D01*
X010869Y022519D01*
X010881Y022596D01*
X010881Y022635D01*
X010881Y022674D01*
X010869Y022751D01*
X010845Y022825D01*
X010809Y022895D01*
X010763Y022958D01*
X010708Y023013D01*
X010645Y023059D01*
X010575Y023095D01*
X010501Y023119D01*
X010424Y023131D01*
X010385Y023131D01*
X010346Y023131D01*
X010269Y023119D01*
X010195Y023095D01*
X010125Y023059D01*
X010062Y023013D01*
X010007Y022958D01*
X009961Y022895D01*
X009925Y022825D01*
X009901Y022751D01*
X009889Y022674D01*
X009889Y022635D01*
X009889Y022596D01*
X009901Y022519D01*
X009925Y022445D01*
X009961Y022375D01*
X010007Y022312D01*
X010062Y022257D01*
X010125Y022211D01*
X010195Y022175D01*
X010269Y022151D01*
X010346Y022139D01*
X010385Y022139D01*
X010424Y022139D01*
X010501Y022151D01*
X010575Y022175D01*
X010645Y022211D01*
X010708Y022257D01*
X010385Y022237D02*
X010385Y022237D01*
X010385Y022139D02*
X010385Y022635D01*
X010881Y022635D01*
X010385Y022635D01*
X010385Y022635D01*
X010385Y022635D01*
X010385Y023131D01*
X010385Y022635D01*
X010385Y022635D01*
X010385Y022635D01*
X009889Y022635D01*
X010385Y022635D01*
X010385Y022139D01*
X010089Y022237D02*
X009410Y022237D01*
X009432Y022555D02*
X009895Y022555D01*
X009950Y022874D02*
X009470Y022874D01*
X009076Y023511D02*
X014634Y023511D01*
X014886Y023511D02*
X015634Y023511D01*
X015886Y023511D02*
X016760Y023511D01*
X016760Y023510D02*
X016760Y023303D01*
X017053Y023010D01*
X017260Y023010D01*
X017467Y023010D01*
X017760Y023303D01*
X017760Y023510D01*
X017260Y023510D01*
X017260Y023510D01*
X017260Y023010D01*
X017260Y023510D01*
X017260Y023510D01*
X017260Y023510D01*
X016760Y023510D01*
X016871Y023192D02*
X016243Y023192D01*
X016280Y022874D02*
X016543Y022874D01*
X016977Y022874D02*
X017543Y022874D01*
X017649Y023192D02*
X020843Y023192D01*
X020740Y023511D02*
X017760Y023511D01*
X017260Y023192D02*
X017260Y023192D01*
X017977Y022874D02*
X018543Y022874D01*
X018977Y022874D02*
X019543Y022874D01*
X019977Y022874D02*
X020543Y022874D01*
X020977Y022874D02*
X021543Y022874D01*
X021977Y022874D02*
X022543Y022874D01*
X022977Y022874D02*
X023081Y022874D01*
X027457Y024785D02*
X032873Y024785D01*
X032914Y024743D02*
X033139Y024650D01*
X033301Y024650D01*
X031420Y022769D01*
X031251Y022600D01*
X031160Y022379D01*
X031160Y019365D01*
X031070Y019147D01*
X031070Y018873D01*
X031175Y018619D01*
X031369Y018425D01*
X031623Y018320D01*
X031897Y018320D01*
X032151Y018425D01*
X032260Y018534D01*
X032369Y018425D01*
X032623Y018320D01*
X032897Y018320D01*
X033151Y018425D01*
X033345Y018619D01*
X033450Y018873D01*
X033450Y019147D01*
X033360Y019365D01*
X033360Y021011D01*
X035600Y023251D01*
X035769Y023420D01*
X035860Y023641D01*
X035860Y024797D01*
X035914Y024743D01*
X036139Y024650D01*
X036381Y024650D01*
X036606Y024743D01*
X036760Y024897D01*
X036914Y024743D01*
X037139Y024650D01*
X037381Y024650D01*
X037606Y024743D01*
X037777Y024914D01*
X037870Y025139D01*
X037870Y025381D01*
X037777Y025606D01*
X037606Y025777D01*
X037381Y025870D01*
X037139Y025870D01*
X036914Y025777D01*
X036760Y025623D01*
X036606Y025777D01*
X036381Y025870D01*
X036139Y025870D01*
X035914Y025777D01*
X035788Y025651D01*
X035628Y025811D01*
X035389Y025910D01*
X035131Y025910D01*
X034892Y025811D01*
X034760Y025679D01*
X034628Y025811D01*
X034389Y025910D01*
X034131Y025910D01*
X033892Y025811D01*
X033732Y025651D01*
X033606Y025777D01*
X033381Y025870D01*
X033139Y025870D01*
X032914Y025777D01*
X032743Y025606D01*
X032650Y025381D01*
X032650Y025139D01*
X032743Y024914D01*
X032914Y024743D01*
X033117Y024466D02*
X027846Y024466D01*
X028164Y024148D02*
X032799Y024148D01*
X032480Y023829D02*
X028320Y023829D01*
X028320Y023511D02*
X032162Y023511D01*
X031843Y023192D02*
X028320Y023192D01*
X028320Y022874D02*
X028543Y022874D01*
X028977Y022874D02*
X029609Y022874D01*
X029760Y022874D02*
X029760Y022874D01*
X029911Y022874D02*
X031525Y022874D01*
X031233Y022555D02*
X030317Y022555D01*
X030390Y022237D02*
X031160Y022237D01*
X031160Y021918D02*
X030290Y021918D01*
X029760Y021918D02*
X029760Y021918D01*
X029760Y021630D02*
X029760Y022260D01*
X029760Y022260D01*
X029410Y022260D01*
X029410Y022260D01*
X029760Y022260D01*
X029760Y022260D01*
X029760Y021630D01*
X029160Y021600D02*
X031160Y021600D01*
X031160Y021281D02*
X029160Y021281D01*
X029160Y020963D02*
X031160Y020963D01*
X031160Y020644D02*
X029160Y020644D01*
X029160Y020326D02*
X031160Y020326D01*
X031160Y020007D02*
X029160Y020007D01*
X029160Y019689D02*
X031160Y019689D01*
X031160Y019370D02*
X029160Y019370D01*
X029160Y019052D02*
X031070Y019052D01*
X031128Y018733D02*
X029160Y018733D01*
X029160Y018415D02*
X031395Y018415D01*
X032125Y018415D02*
X032395Y018415D01*
X033125Y018415D02*
X034349Y018415D01*
X034667Y018733D02*
X033392Y018733D01*
X033450Y019052D02*
X034986Y019052D01*
X035304Y019370D02*
X033360Y019370D01*
X033360Y019689D02*
X035623Y019689D01*
X035941Y020007D02*
X033360Y020007D01*
X033360Y020326D02*
X036260Y020326D01*
X036642Y020644D02*
X033360Y020644D01*
X033360Y020963D02*
X037700Y020963D01*
X037700Y021281D02*
X033630Y021281D01*
X033948Y021600D02*
X037700Y021600D01*
X037700Y021918D02*
X034267Y021918D01*
X034585Y022237D02*
X037700Y022237D01*
X037700Y022555D02*
X034904Y022555D01*
X035222Y022874D02*
X037700Y022874D01*
X037700Y023192D02*
X035541Y023192D01*
X035600Y023251D02*
X035600Y023251D01*
X035806Y023511D02*
X037700Y023511D01*
X037703Y023829D02*
X035860Y023829D01*
X035860Y024148D02*
X041825Y024148D01*
X041825Y024466D02*
X040980Y024466D01*
X040917Y024403D02*
X041117Y024603D01*
X041165Y024686D01*
X041173Y024695D01*
X041179Y024711D01*
X041258Y024847D01*
X041331Y025119D01*
X041331Y025401D01*
X041258Y025673D01*
X041179Y025809D01*
X041173Y025825D01*
X041165Y025834D01*
X041117Y025917D01*
X040917Y026117D01*
X040673Y026258D01*
X040567Y026286D01*
X040554Y026293D01*
X040536Y026294D01*
X040401Y026331D01*
X040119Y026331D01*
X039847Y026258D01*
X039786Y026222D01*
X039781Y026221D01*
X039774Y026216D01*
X039603Y026117D01*
X039478Y025992D01*
X039467Y025983D01*
X039462Y025976D01*
X039403Y025917D01*
X039262Y025673D01*
X039189Y025401D01*
X039189Y025277D01*
X039186Y025260D01*
X039189Y025243D01*
X039189Y025119D01*
X039262Y024847D01*
X039403Y024603D01*
X039462Y024544D01*
X039467Y024537D01*
X039478Y024528D01*
X039603Y024403D01*
X039774Y024304D01*
X039781Y024299D01*
X039786Y024298D01*
X039847Y024262D01*
X040119Y024189D01*
X040401Y024189D01*
X040536Y024226D01*
X040554Y024227D01*
X040567Y024234D01*
X040673Y024262D01*
X040917Y024403D01*
X041222Y024785D02*
X041817Y024785D01*
X041760Y025103D02*
X041326Y025103D01*
X041325Y025422D02*
X041672Y025422D01*
X041518Y025740D02*
X041219Y025740D01*
X041283Y026059D02*
X040975Y026059D01*
X040941Y026377D02*
X009118Y026377D01*
X009270Y026059D02*
X039545Y026059D01*
X039301Y025740D02*
X037643Y025740D01*
X037853Y025422D02*
X039195Y025422D01*
X039194Y025103D02*
X037855Y025103D01*
X037647Y024785D02*
X039298Y024785D01*
X039540Y024466D02*
X035860Y024466D01*
X035860Y024785D02*
X035873Y024785D01*
X036647Y024785D02*
X036873Y024785D01*
X036877Y025740D02*
X036643Y025740D01*
X035877Y025740D02*
X035699Y025740D01*
X034821Y025740D02*
X034699Y025740D01*
X033821Y025740D02*
X033643Y025740D01*
X032877Y025740D02*
X009201Y025740D01*
X011085Y024148D02*
X011581Y024148D01*
X011899Y023829D02*
X011067Y023829D01*
X010820Y022874D02*
X011950Y022874D01*
X011895Y022555D02*
X010875Y022555D01*
X010385Y022555D02*
X010385Y022555D01*
X010385Y022874D02*
X010385Y022874D01*
X009410Y021918D02*
X015852Y021918D01*
X015315Y022237D02*
X015205Y022237D01*
X014315Y022237D02*
X014172Y022237D01*
X013760Y022237D02*
X013760Y022237D01*
X013760Y022555D02*
X013760Y022555D01*
X013760Y022874D02*
X013760Y022874D01*
X013760Y023192D02*
X013760Y023192D01*
X012385Y022874D02*
X012385Y022874D01*
X012385Y022555D02*
X012385Y022555D01*
X013659Y021600D02*
X009410Y021600D01*
X009410Y021281D02*
X013340Y021281D01*
X013022Y020963D02*
X012759Y020963D01*
X012385Y020963D02*
X012385Y020963D01*
X012385Y021131D02*
X012385Y020635D01*
X012385Y020635D01*
X012385Y021131D01*
X012011Y020963D02*
X011788Y020963D01*
X012385Y020644D02*
X012385Y020644D01*
X013198Y020007D02*
X014262Y020007D01*
X014264Y020018D02*
X014255Y019944D01*
X015118Y019944D01*
X015118Y019772D01*
X015290Y019772D01*
X015290Y018910D01*
X015364Y018918D01*
X015468Y018942D01*
X015569Y018977D01*
X015665Y019024D01*
X015756Y019081D01*
X015839Y019147D01*
X015915Y019223D01*
X015982Y019307D01*
X016039Y019397D01*
X016085Y019493D01*
X016120Y019594D01*
X016144Y019699D01*
X016152Y019772D01*
X015290Y019772D01*
X015290Y019944D01*
X016110Y019944D01*
X016110Y019881D01*
X016209Y019642D01*
X016392Y019459D01*
X016631Y019360D01*
X016794Y019360D01*
X016094Y018660D01*
X011926Y018660D01*
X011155Y019431D01*
X011155Y019600D01*
X010850Y019905D01*
X010420Y019905D01*
X010394Y019879D01*
X010349Y019987D01*
X010237Y020099D01*
X010171Y020165D01*
X010282Y020119D01*
X010488Y020119D01*
X010677Y020197D01*
X010823Y020343D01*
X010885Y020493D01*
X010947Y020343D01*
X010985Y020305D01*
X010985Y019930D01*
X011046Y019783D01*
X011158Y019671D01*
X011490Y019339D01*
X011490Y019170D01*
X011795Y018865D01*
X012225Y018865D01*
X012530Y019170D01*
X012530Y019339D01*
X014051Y020860D01*
X015840Y020860D01*
X015987Y020921D01*
X016360Y021294D01*
X016360Y020529D01*
X016209Y020378D01*
X016112Y020145D01*
X016085Y020223D01*
X016039Y020320D01*
X015982Y020410D01*
X015915Y020494D01*
X015839Y020569D01*
X015756Y020636D01*
X015665Y020693D01*
X015569Y020739D01*
X015468Y020775D01*
X015364Y020799D01*
X015290Y020807D01*
X015290Y019945D01*
X015118Y019945D01*
X015118Y020807D01*
X015044Y020799D01*
X014940Y020775D01*
X014839Y020739D01*
X014743Y020693D01*
X014652Y020636D01*
X014568Y020569D01*
X014493Y020494D01*
X014426Y020410D01*
X014369Y020320D01*
X014323Y020223D01*
X014288Y020122D01*
X014264Y020018D01*
X014255Y019772D02*
X014264Y019699D01*
X014288Y019594D01*
X014323Y019493D01*
X014369Y019397D01*
X014426Y019307D01*
X014493Y019223D01*
X014568Y019147D01*
X014652Y019081D01*
X014743Y019024D01*
X014839Y018977D01*
X014940Y018942D01*
X015044Y018918D01*
X015118Y018910D01*
X015118Y019772D01*
X014255Y019772D01*
X014266Y019689D02*
X013817Y019689D01*
X013905Y019600D02*
X013600Y019905D01*
X013170Y019905D01*
X012865Y019600D01*
X012865Y019170D01*
X013170Y018865D01*
X013600Y018865D01*
X013905Y019170D01*
X013905Y019600D01*
X013905Y019370D02*
X014386Y019370D01*
X014698Y019052D02*
X013787Y019052D01*
X012983Y019052D02*
X012412Y019052D01*
X011853Y018733D02*
X016167Y018733D01*
X016486Y019052D02*
X015709Y019052D01*
X015290Y019052D02*
X015118Y019052D01*
X015118Y019370D02*
X015290Y019370D01*
X015290Y019689D02*
X015118Y019689D01*
X015118Y020007D02*
X015290Y020007D01*
X015290Y020326D02*
X015118Y020326D01*
X015118Y020644D02*
X015290Y020644D01*
X015743Y020644D02*
X016360Y020644D01*
X016360Y020963D02*
X016028Y020963D01*
X016347Y021281D02*
X016360Y021281D01*
X016187Y020326D02*
X016035Y020326D01*
X016142Y019689D02*
X016190Y019689D01*
X016021Y019370D02*
X016607Y019370D01*
X017617Y019052D02*
X024360Y019052D01*
X024360Y018733D02*
X017299Y018733D01*
X016980Y018415D02*
X024360Y018415D01*
X024360Y018279D02*
X024209Y018128D01*
X024110Y017889D01*
X024110Y017631D01*
X024209Y017392D01*
X024392Y017209D01*
X024631Y017110D01*
X024889Y017110D01*
X025128Y017209D01*
X025260Y017341D01*
X025392Y017209D01*
X025631Y017110D01*
X025889Y017110D01*
X026128Y017209D01*
X026260Y017341D01*
X026392Y017209D01*
X026631Y017110D01*
X026889Y017110D01*
X027128Y017209D01*
X027200Y017281D01*
X027200Y016649D01*
X027285Y016443D01*
X027443Y016285D01*
X029200Y014528D01*
X029200Y013711D01*
X029170Y013741D01*
X029090Y013799D01*
X029002Y013844D01*
X028908Y013874D01*
X028810Y013890D01*
X028760Y013890D01*
X028760Y013260D01*
X028760Y013260D01*
X028760Y012630D01*
X028810Y012630D01*
X028908Y012646D01*
X029002Y012676D01*
X029090Y012721D01*
X029170Y012779D01*
X029241Y012850D01*
X029245Y012856D01*
X029392Y012709D01*
X029631Y012610D01*
X029889Y012610D01*
X030128Y012709D01*
X030311Y012892D01*
X030360Y013010D01*
X030360Y011426D01*
X030159Y011225D01*
X029995Y011157D01*
X029863Y011025D01*
X029792Y010853D01*
X029792Y010667D01*
X029863Y010495D01*
X029995Y010363D01*
X030167Y010292D01*
X030353Y010292D01*
X030525Y010363D01*
X030657Y010495D01*
X030725Y010659D01*
X031099Y011033D01*
X031160Y011180D01*
X031160Y013594D01*
X031926Y014360D01*
X032840Y014360D01*
X032987Y014421D01*
X033099Y014533D01*
X034099Y015533D01*
X034160Y015680D01*
X034160Y017094D01*
X036833Y019768D01*
X036856Y019745D01*
X036850Y019741D01*
X036779Y019670D01*
X036721Y019590D01*
X036676Y019502D01*
X036646Y019408D01*
X036630Y019310D01*
X036630Y019260D01*
X037260Y019260D01*
X037260Y018630D01*
X037310Y018630D01*
X037408Y018646D01*
X037502Y018676D01*
X037590Y018721D01*
X037670Y018779D01*
X037700Y018809D01*
X037700Y017239D01*
X037628Y017311D01*
X037389Y017410D01*
X037131Y017410D01*
X036892Y017311D01*
X036741Y017160D01*
X036680Y017160D01*
X036533Y017099D01*
X036033Y016599D01*
X035921Y016487D01*
X035860Y016340D01*
X035860Y015180D01*
X035921Y015033D01*
X036033Y014921D01*
X036860Y014094D01*
X036860Y013476D01*
X036655Y013681D01*
X036655Y013850D01*
X036350Y014155D01*
X035920Y014155D01*
X035615Y013850D01*
X035615Y013420D01*
X035920Y013115D01*
X036089Y013115D01*
X036235Y012969D01*
X036235Y011598D01*
X036170Y011533D01*
X036170Y012033D01*
X035910Y012293D01*
X035910Y012340D01*
X035849Y012487D01*
X035737Y012599D01*
X035237Y013099D01*
X035090Y013160D01*
X033176Y013160D01*
X032655Y013681D01*
X032655Y013850D01*
X032350Y014155D01*
X031920Y014155D01*
X031615Y013850D01*
X031615Y013420D01*
X031920Y013115D01*
X032089Y013115D01*
X032671Y012533D01*
X032783Y012421D01*
X032930Y012360D01*
X034205Y012360D01*
X033870Y012025D01*
X033870Y011760D01*
X034510Y011760D01*
X034510Y011120D01*
X034775Y011120D01*
X034996Y011341D01*
X035237Y011100D01*
X035783Y011100D01*
X036025Y011342D01*
X036025Y010882D01*
X036382Y010525D01*
X036888Y010525D01*
X037135Y010772D01*
X037382Y010525D01*
X037888Y010525D01*
X038245Y010882D01*
X038245Y011388D01*
X038183Y011450D01*
X041825Y011450D01*
X041825Y009285D01*
X041209Y009285D01*
X041106Y009242D01*
X041028Y009164D01*
X040985Y009061D01*
X040985Y008209D01*
X041028Y008106D01*
X041106Y008028D01*
X041108Y008027D01*
X041084Y008003D01*
X040985Y007764D01*
X040985Y007506D01*
X041084Y007267D01*
X035686Y007267D01*
X035785Y007506D01*
X035785Y007764D01*
X035686Y008003D01*
X035554Y008135D01*
X035686Y008267D01*
X035785Y008506D01*
X035785Y008764D01*
X035686Y009003D01*
X035554Y009135D01*
X035686Y009267D01*
X035785Y009506D01*
X035785Y009764D01*
X035686Y010003D01*
X035503Y010186D01*
X035264Y010285D01*
X035006Y010285D01*
X034767Y010186D01*
X034616Y010035D01*
X029551Y010035D01*
X028294Y011292D01*
X028353Y011292D01*
X028525Y011363D01*
X028657Y011495D01*
X028728Y011667D01*
X028728Y011853D01*
X028657Y012025D01*
X028525Y012157D01*
X028361Y012225D01*
X027950Y012635D01*
X028128Y012709D01*
X028275Y012856D01*
X028279Y012850D01*
X028350Y012779D01*
X028430Y012721D01*
X028518Y012676D01*
X028612Y012646D01*
X028710Y012630D01*
X028760Y012630D01*
X028760Y013260D01*
X028760Y013260D01*
X028760Y013890D01*
X028710Y013890D01*
X028612Y013874D01*
X028518Y013844D01*
X028430Y013799D01*
X028350Y013741D01*
X028279Y013670D01*
X028275Y013664D01*
X028128Y013811D01*
X027889Y013910D01*
X027631Y013910D01*
X027392Y013811D01*
X027260Y013679D01*
X027128Y013811D01*
X026889Y013910D01*
X026631Y013910D01*
X026392Y013811D01*
X026260Y013679D01*
X026128Y013811D01*
X025889Y013910D01*
X025631Y013910D01*
X025392Y013811D01*
X025260Y013679D01*
X025128Y013811D01*
X024889Y013910D01*
X024631Y013910D01*
X024392Y013811D01*
X024260Y013679D01*
X024128Y013811D01*
X023889Y013910D01*
X023631Y013910D01*
X023392Y013811D01*
X023260Y013679D01*
X023128Y013811D01*
X022889Y013910D01*
X022631Y013910D01*
X022392Y013811D01*
X022260Y013679D01*
X022128Y013811D01*
X021889Y013910D01*
X021631Y013910D01*
X021392Y013811D01*
X021260Y013679D01*
X021128Y013811D01*
X020889Y013910D01*
X020631Y013910D01*
X020392Y013811D01*
X020260Y013679D01*
X020128Y013811D01*
X019889Y013910D01*
X019631Y013910D01*
X019392Y013811D01*
X019260Y013679D01*
X019128Y013811D01*
X018889Y013910D01*
X018631Y013910D01*
X018392Y013811D01*
X018260Y013679D01*
X018128Y013811D01*
X017889Y013910D01*
X017676Y013910D01*
X016737Y014849D01*
X016590Y014910D01*
X013645Y014910D01*
X013905Y015170D01*
X013905Y015600D01*
X013848Y015657D01*
X015181Y016990D01*
X015350Y016990D01*
X015655Y017295D01*
X015655Y017725D01*
X015520Y017860D01*
X016340Y017860D01*
X016487Y017921D01*
X017951Y019386D01*
X018128Y019459D01*
X018260Y019591D01*
X018392Y019459D01*
X018631Y019360D01*
X018889Y019360D01*
X019128Y019459D01*
X019260Y019591D01*
X019392Y019459D01*
X019631Y019360D01*
X019889Y019360D01*
X020128Y019459D01*
X020260Y019591D01*
X020392Y019459D01*
X020631Y019360D01*
X020889Y019360D01*
X021128Y019459D01*
X021260Y019591D01*
X021392Y019459D01*
X021631Y019360D01*
X021889Y019360D01*
X022128Y019459D01*
X022260Y019591D01*
X022392Y019459D01*
X022631Y019360D01*
X022889Y019360D01*
X023128Y019459D01*
X023152Y019483D01*
X023153Y019481D01*
X023231Y019403D01*
X023334Y019360D01*
X024186Y019360D01*
X024289Y019403D01*
X024360Y019474D01*
X024360Y018279D01*
X024196Y018096D02*
X016662Y018096D01*
X015603Y017778D02*
X024110Y017778D01*
X024181Y017459D02*
X015655Y017459D01*
X015501Y017141D02*
X024557Y017141D01*
X024963Y017141D02*
X025557Y017141D01*
X025963Y017141D02*
X026557Y017141D01*
X026963Y017141D02*
X027200Y017141D01*
X027200Y016822D02*
X015013Y016822D01*
X014694Y016504D02*
X027260Y016504D01*
X027543Y016185D02*
X014376Y016185D01*
X014057Y015867D02*
X014784Y015867D01*
X014928Y016010D02*
X014635Y015717D01*
X014635Y015510D01*
X015135Y015510D01*
X015135Y015510D01*
X015135Y016010D01*
X015342Y016010D01*
X015635Y015717D01*
X015635Y015510D01*
X015135Y015510D01*
X015135Y015510D01*
X015135Y015510D01*
X015135Y016010D01*
X014928Y016010D01*
X015135Y015867D02*
X015135Y015867D01*
X015135Y015548D02*
X015135Y015548D01*
X015135Y015510D02*
X014635Y015510D01*
X014635Y015303D01*
X014928Y015010D01*
X015135Y015010D01*
X015342Y015010D01*
X015635Y015303D01*
X015635Y015510D01*
X015135Y015510D01*
X015135Y015010D01*
X015135Y015510D01*
X015135Y015510D01*
X015135Y015230D02*
X015135Y015230D01*
X015562Y015230D02*
X028499Y015230D01*
X028180Y015548D02*
X015635Y015548D01*
X015486Y015867D02*
X027862Y015867D01*
X028808Y016504D02*
X031157Y016504D01*
X031110Y016185D02*
X029127Y016185D01*
X029445Y015867D02*
X031234Y015867D01*
X031345Y014911D02*
X030304Y014911D01*
X030320Y014593D02*
X031027Y014593D01*
X030708Y014274D02*
X030320Y014274D01*
X030320Y013956D02*
X030408Y013956D01*
X030360Y013637D02*
X030320Y013637D01*
X030356Y013000D02*
X030360Y013000D01*
X030360Y012682D02*
X030062Y012682D01*
X030360Y012363D02*
X028223Y012363D01*
X028062Y012682D02*
X028508Y012682D01*
X028760Y012682D02*
X028760Y012682D01*
X029012Y012682D02*
X029458Y012682D01*
X028760Y013000D02*
X028760Y013000D01*
X028760Y013319D02*
X028760Y013319D01*
X028760Y013637D02*
X028760Y013637D01*
X029200Y013956D02*
X017630Y013956D01*
X017312Y014274D02*
X029200Y014274D01*
X029136Y014593D02*
X016993Y014593D01*
X014708Y015230D02*
X013905Y015230D01*
X013905Y015548D02*
X014635Y015548D01*
X013646Y014911D02*
X028817Y014911D01*
X029764Y015548D02*
X032982Y015548D01*
X033286Y015867D02*
X033301Y015867D01*
X033795Y015230D02*
X035860Y015230D01*
X035860Y015548D02*
X034105Y015548D01*
X034160Y015867D02*
X035860Y015867D01*
X035860Y016185D02*
X034160Y016185D01*
X034160Y016504D02*
X035938Y016504D01*
X036033Y016599D02*
X036033Y016599D01*
X036256Y016822D02*
X034160Y016822D01*
X034206Y017141D02*
X036633Y017141D01*
X037700Y017459D02*
X034525Y017459D01*
X034843Y017778D02*
X037700Y017778D01*
X037700Y018096D02*
X035162Y018096D01*
X035480Y018415D02*
X037700Y018415D01*
X037700Y018733D02*
X037606Y018733D01*
X037260Y018733D02*
X037260Y018733D01*
X037260Y018630D02*
X037260Y019260D01*
X037260Y019260D01*
X037260Y019260D01*
X036630Y019260D01*
X036630Y019210D01*
X036646Y019112D01*
X036676Y019018D01*
X036721Y018930D01*
X036779Y018850D01*
X036850Y018779D01*
X036930Y018721D01*
X037018Y018676D01*
X037112Y018646D01*
X037210Y018630D01*
X037260Y018630D01*
X036914Y018733D02*
X035799Y018733D01*
X036117Y019052D02*
X036665Y019052D01*
X037260Y019052D02*
X037260Y019052D01*
X036640Y019370D02*
X036436Y019370D01*
X036754Y019689D02*
X036798Y019689D01*
X034030Y018096D02*
X030295Y018096D01*
X030390Y017778D02*
X033712Y017778D01*
X033409Y017459D02*
X030314Y017459D01*
X029876Y017141D02*
X033360Y017141D01*
X033360Y016822D02*
X033102Y016822D01*
X032418Y016822D02*
X032102Y016822D01*
X031418Y016822D02*
X028490Y016822D01*
X028557Y017141D02*
X028320Y017141D01*
X028963Y017141D02*
X029644Y017141D01*
X029760Y017141D02*
X029760Y017141D01*
X029760Y017130D02*
X029760Y017760D01*
X029760Y017130D01*
X029760Y017459D02*
X029760Y017459D01*
X029760Y017760D02*
X029760Y017760D01*
X029760Y017778D02*
X029760Y017778D01*
X029760Y018096D02*
X029760Y018096D01*
X030082Y015230D02*
X032664Y015230D01*
X033158Y014593D02*
X036362Y014593D01*
X036043Y014911D02*
X033477Y014911D01*
X031840Y014274D02*
X036680Y014274D01*
X036550Y013956D02*
X036860Y013956D01*
X036860Y013637D02*
X036699Y013637D01*
X036204Y013000D02*
X035336Y013000D01*
X035654Y012682D02*
X036235Y012682D01*
X036235Y012363D02*
X035900Y012363D01*
X036159Y012045D02*
X036235Y012045D01*
X036235Y011726D02*
X036170Y011726D01*
X036025Y011089D02*
X033507Y011089D01*
X033509Y011069D02*
X033494Y011185D01*
X033464Y011298D01*
X033419Y011406D01*
X033360Y011507D01*
X033289Y011600D01*
X033206Y011683D01*
X033114Y011754D01*
X033012Y011813D01*
X032904Y011857D01*
X032791Y011888D01*
X032675Y011903D01*
X032673Y011903D01*
X032673Y011067D01*
X032560Y011067D01*
X032560Y011903D01*
X032558Y011903D01*
X032442Y011888D01*
X032329Y011857D01*
X032220Y011813D01*
X032119Y011754D01*
X032026Y011683D01*
X031943Y011600D01*
X031872Y011507D01*
X031814Y011406D01*
X031769Y011298D01*
X031739Y011185D01*
X031723Y011069D01*
X031723Y011067D01*
X032560Y011067D01*
X032560Y010953D01*
X032673Y010953D01*
X032673Y010117D01*
X032675Y010117D01*
X032791Y010132D01*
X032904Y010163D01*
X033012Y010207D01*
X033114Y010266D01*
X033206Y010337D01*
X033289Y010420D01*
X033360Y010513D01*
X033419Y010614D01*
X033464Y010722D01*
X033494Y010835D01*
X033509Y010951D01*
X033509Y010953D01*
X032673Y010953D01*
X032673Y011067D01*
X033509Y011067D01*
X033509Y011069D01*
X033477Y010771D02*
X036137Y010771D01*
X035556Y010134D02*
X041825Y010134D01*
X041825Y010452D02*
X033314Y010452D01*
X032796Y010134D02*
X034714Y010134D01*
X034510Y011120D02*
X034245Y011120D01*
X033870Y011495D01*
X033870Y011760D01*
X034510Y011760D01*
X034510Y011760D01*
X034510Y011760D01*
X034510Y011120D01*
X034510Y011408D02*
X034510Y011408D01*
X034510Y011726D02*
X034510Y011726D01*
X033957Y011408D02*
X033418Y011408D01*
X033150Y011726D02*
X033870Y011726D01*
X033889Y012045D02*
X031160Y012045D01*
X031160Y011726D02*
X032082Y011726D01*
X031815Y011408D02*
X031160Y011408D01*
X031122Y011089D02*
X031726Y011089D01*
X031723Y010953D02*
X031723Y010951D01*
X031739Y010835D01*
X031769Y010722D01*
X031814Y010614D01*
X031872Y010513D01*
X031943Y010420D01*
X032026Y010337D01*
X032119Y010266D01*
X032220Y010207D01*
X032329Y010163D01*
X032442Y010132D01*
X032558Y010117D01*
X032560Y010117D01*
X032560Y010953D01*
X031723Y010953D01*
X031756Y010771D02*
X030836Y010771D01*
X030614Y010452D02*
X031919Y010452D01*
X032437Y010134D02*
X029452Y010134D01*
X029134Y010452D02*
X029906Y010452D01*
X029792Y010771D02*
X028815Y010771D01*
X028497Y011089D02*
X029927Y011089D01*
X030342Y011408D02*
X028570Y011408D01*
X028728Y011726D02*
X030360Y011726D01*
X030360Y012045D02*
X028637Y012045D01*
X031160Y012363D02*
X032923Y012363D01*
X032523Y012682D02*
X031160Y012682D01*
X031160Y013000D02*
X032204Y013000D01*
X031716Y013319D02*
X031160Y013319D01*
X031203Y013637D02*
X031615Y013637D01*
X031521Y013956D02*
X031720Y013956D01*
X032550Y013956D02*
X035720Y013956D01*
X035615Y013637D02*
X032699Y013637D01*
X033017Y013319D02*
X035716Y013319D01*
X037660Y013319D02*
X037700Y013319D01*
X037700Y013637D02*
X037660Y013637D01*
X037660Y013956D02*
X037700Y013956D01*
X037700Y014274D02*
X037660Y014274D01*
X037660Y014340D02*
X037599Y014487D01*
X036660Y015426D01*
X036660Y015568D01*
X036676Y015518D01*
X036721Y015430D01*
X036779Y015350D01*
X036850Y015279D01*
X036930Y015221D01*
X037018Y015176D01*
X037112Y015146D01*
X037210Y015130D01*
X037260Y015130D01*
X037310Y015130D01*
X037408Y015146D01*
X037502Y015176D01*
X037590Y015221D01*
X037670Y015279D01*
X037700Y015309D01*
X037700Y011886D01*
X037660Y011926D01*
X037660Y014340D01*
X037700Y014593D02*
X037493Y014593D01*
X037700Y014911D02*
X037175Y014911D01*
X037260Y015130D02*
X037260Y015760D01*
X037260Y015130D01*
X037260Y015230D02*
X037260Y015230D01*
X037260Y015548D02*
X037260Y015548D01*
X037260Y015760D02*
X037260Y015760D01*
X036666Y015548D02*
X036660Y015548D01*
X036856Y015230D02*
X036918Y015230D01*
X037602Y015230D02*
X037700Y015230D01*
X037660Y013000D02*
X037700Y013000D01*
X037700Y012682D02*
X037660Y012682D01*
X037660Y012363D02*
X037700Y012363D01*
X037700Y012045D02*
X037660Y012045D01*
X038225Y011408D02*
X041825Y011408D01*
X041825Y011089D02*
X038245Y011089D01*
X038133Y010771D02*
X041825Y010771D01*
X041825Y009815D02*
X035764Y009815D01*
X035781Y009497D02*
X041825Y009497D01*
X041042Y009178D02*
X035597Y009178D01*
X035746Y008860D02*
X040985Y008860D01*
X040985Y008541D02*
X035785Y008541D01*
X035642Y008223D02*
X040985Y008223D01*
X041043Y007904D02*
X035727Y007904D01*
X035785Y007586D02*
X040985Y007586D01*
X041084Y007267D02*
X041216Y007135D01*
X041084Y007003D01*
X040985Y006764D01*
X040985Y006506D01*
X041084Y006267D01*
X041216Y006135D01*
X041084Y006003D01*
X040985Y005764D01*
X040985Y005506D01*
X041084Y005267D01*
X041267Y005084D01*
X041506Y004985D01*
X041764Y004985D01*
X041825Y005010D01*
X041825Y003385D01*
X041811Y003140D01*
X041702Y002662D01*
X041489Y002220D01*
X041184Y001836D01*
X040800Y001531D01*
X040358Y001318D01*
X039880Y001209D01*
X039635Y001195D01*
X034152Y001195D01*
X034260Y001303D01*
X034260Y001510D01*
X034260Y001717D01*
X033967Y002010D01*
X033760Y002010D01*
X033760Y001510D01*
X033760Y001510D01*
X034260Y001510D01*
X033760Y001510D01*
X033760Y001510D01*
X033760Y001510D01*
X033260Y001510D01*
X033260Y001717D01*
X033553Y002010D01*
X033760Y002010D01*
X033760Y001510D01*
X033260Y001510D01*
X033260Y001303D01*
X033368Y001195D01*
X032236Y001195D01*
X032275Y001289D01*
X032280Y001295D01*
X032280Y001302D01*
X032320Y001399D01*
X032320Y001621D01*
X032280Y001718D01*
X032280Y001725D01*
X032275Y001731D01*
X032235Y001827D01*
X031177Y002885D01*
X032841Y004549D01*
X032863Y004495D01*
X032995Y004363D01*
X033159Y004295D01*
X034533Y002921D01*
X034680Y002860D01*
X036286Y002860D01*
X036281Y002854D01*
X036241Y002775D01*
X036214Y002691D01*
X036200Y002604D01*
X036200Y002260D01*
X036760Y002260D01*
X036760Y001400D01*
X036804Y001400D01*
X036891Y001414D01*
X036975Y001441D01*
X037054Y001481D01*
X037125Y001533D01*
X037187Y001595D01*
X037239Y001666D01*
X037247Y001683D01*
X037268Y001631D01*
X037431Y001468D01*
X037645Y001380D01*
X037875Y001380D01*
X038089Y001468D01*
X038252Y001631D01*
X038260Y001651D01*
X038268Y001631D01*
X038431Y001468D01*
X038645Y001380D01*
X038875Y001380D01*
X039089Y001468D01*
X039252Y001631D01*
X039340Y001845D01*
X039340Y002212D01*
X039403Y002103D01*
X039462Y002044D01*
X039467Y002037D01*
X039478Y002028D01*
X039603Y001903D01*
X039774Y001804D01*
X039781Y001799D01*
X039786Y001798D01*
X039847Y001762D01*
X040119Y001689D01*
X040401Y001689D01*
X040536Y001726D01*
X040554Y001727D01*
X040567Y001734D01*
X040673Y001762D01*
X040917Y001903D01*
X041117Y002103D01*
X041165Y002186D01*
X041173Y002195D01*
X041179Y002211D01*
X041258Y002347D01*
X041331Y002619D01*
X041331Y002901D01*
X041258Y003173D01*
X041179Y003309D01*
X041173Y003325D01*
X041165Y003334D01*
X041117Y003417D01*
X040917Y003617D01*
X040673Y003758D01*
X040567Y003786D01*
X040554Y003793D01*
X040536Y003794D01*
X040401Y003831D01*
X040119Y003831D01*
X039847Y003758D01*
X039786Y003722D01*
X039781Y003721D01*
X039774Y003716D01*
X039603Y003617D01*
X039478Y003492D01*
X039467Y003483D01*
X039462Y003476D01*
X039403Y003417D01*
X039320Y003273D01*
X039320Y005871D01*
X039235Y006077D01*
X038202Y007110D01*
X037996Y007195D01*
X035614Y007195D01*
X035686Y007267D01*
X035586Y006075D02*
X037653Y006075D01*
X038200Y005528D01*
X038200Y002940D01*
X038089Y003052D01*
X037995Y003090D01*
X037599Y003487D01*
X037487Y003599D01*
X037340Y003660D01*
X034926Y003660D01*
X033725Y004861D01*
X033657Y005025D01*
X033525Y005157D01*
X033471Y005179D01*
X034367Y006075D01*
X034684Y006075D01*
X034654Y006045D01*
X034596Y005965D01*
X034551Y005877D01*
X034521Y005783D01*
X034505Y005685D01*
X034505Y005635D01*
X035135Y005635D01*
X035765Y005635D01*
X035765Y005685D01*
X035749Y005783D01*
X035719Y005877D01*
X035674Y005965D01*
X035616Y006045D01*
X035586Y006075D01*
X035654Y005993D02*
X037735Y005993D01*
X038054Y005675D02*
X035765Y005675D01*
X035765Y005635D02*
X035135Y005635D01*
X035135Y005635D01*
X035135Y004635D01*
X035135Y004635D01*
X035765Y004635D01*
X035765Y004685D01*
X035749Y004783D01*
X035719Y004877D01*
X035674Y004965D01*
X035616Y005045D01*
X035545Y005116D01*
X035519Y005135D01*
X035545Y005154D01*
X035616Y005225D01*
X035674Y005305D01*
X035719Y005393D01*
X035749Y005487D01*
X035765Y005585D01*
X035765Y005635D01*
X035700Y005356D02*
X038200Y005356D01*
X038200Y005038D02*
X035621Y005038D01*
X035760Y004719D02*
X038200Y004719D01*
X038200Y004401D02*
X035721Y004401D01*
X035719Y004393D02*
X035749Y004487D01*
X035765Y004585D01*
X035765Y004635D01*
X035135Y004635D01*
X035135Y004635D01*
X035135Y005265D01*
X035135Y005635D01*
X035135Y005635D01*
X035135Y005635D01*
X034505Y005635D01*
X034505Y005585D01*
X034521Y005487D01*
X034551Y005393D01*
X034596Y005305D01*
X034654Y005225D01*
X034725Y005154D01*
X034751Y005135D01*
X034725Y005116D01*
X034654Y005045D01*
X034596Y004965D01*
X034551Y004877D01*
X034521Y004783D01*
X034505Y004685D01*
X034505Y004635D01*
X035135Y004635D01*
X035135Y004005D01*
X035185Y004005D01*
X035283Y004021D01*
X035377Y004051D01*
X035465Y004096D01*
X035545Y004154D01*
X035616Y004225D01*
X035674Y004305D01*
X035719Y004393D01*
X035437Y004082D02*
X038200Y004082D01*
X038200Y003764D02*
X034822Y003764D01*
X034893Y004051D02*
X034805Y004096D01*
X034725Y004154D01*
X034654Y004225D01*
X034596Y004305D01*
X034551Y004393D01*
X034521Y004487D01*
X034505Y004585D01*
X034505Y004635D01*
X035135Y004635D01*
X035135Y004635D01*
X035135Y004635D01*
X035135Y004005D01*
X035085Y004005D01*
X034987Y004021D01*
X034893Y004051D01*
X034833Y004082D02*
X034504Y004082D01*
X034549Y004401D02*
X034185Y004401D01*
X033867Y004719D02*
X034510Y004719D01*
X034649Y005038D02*
X033645Y005038D01*
X033648Y005356D02*
X034570Y005356D01*
X034505Y005675D02*
X033966Y005675D01*
X034285Y005993D02*
X034616Y005993D01*
X035135Y005356D02*
X035135Y005356D01*
X035135Y005038D02*
X035135Y005038D01*
X035135Y004719D02*
X035135Y004719D01*
X035135Y004401D02*
X035135Y004401D01*
X035135Y004082D02*
X035135Y004082D01*
X034009Y003445D02*
X033396Y003445D01*
X033419Y003406D02*
X033360Y003507D01*
X033289Y003600D01*
X033206Y003683D01*
X033114Y003754D01*
X033012Y003813D01*
X032904Y003857D01*
X032791Y003888D01*
X032675Y003903D01*
X032673Y003903D01*
X032673Y003067D01*
X032560Y003067D01*
X032560Y003903D01*
X032558Y003903D01*
X032442Y003888D01*
X032329Y003857D01*
X032220Y003813D01*
X032119Y003754D01*
X032026Y003683D01*
X031943Y003600D01*
X031872Y003507D01*
X031814Y003406D01*
X031769Y003298D01*
X031739Y003185D01*
X031723Y003069D01*
X031723Y003067D01*
X032560Y003067D01*
X032560Y002953D01*
X032673Y002953D01*
X032673Y002117D01*
X032675Y002117D01*
X032791Y002132D01*
X032904Y002163D01*
X033012Y002207D01*
X033114Y002266D01*
X033206Y002337D01*
X033289Y002420D01*
X033360Y002513D01*
X033419Y002614D01*
X033464Y002722D01*
X033494Y002835D01*
X033509Y002951D01*
X033509Y002953D01*
X032673Y002953D01*
X032673Y003067D01*
X033509Y003067D01*
X033509Y003069D01*
X033494Y003185D01*
X033464Y003298D01*
X033419Y003406D01*
X033502Y003127D02*
X034328Y003127D01*
X033487Y002808D02*
X036258Y002808D01*
X036200Y002490D02*
X033343Y002490D01*
X032924Y002171D02*
X036200Y002171D01*
X036200Y002260D02*
X036200Y001916D01*
X036214Y001829D01*
X036241Y001745D01*
X036281Y001666D01*
X036333Y001595D01*
X036395Y001533D01*
X036466Y001481D01*
X036545Y001441D01*
X036629Y001414D01*
X036716Y001400D01*
X036760Y001400D01*
X036760Y002260D01*
X036760Y002260D01*
X036760Y002260D01*
X036200Y002260D01*
X036760Y002171D02*
X036760Y002171D01*
X036760Y001853D02*
X036760Y001853D01*
X036760Y001534D02*
X036760Y001534D01*
X037126Y001534D02*
X037366Y001534D01*
X038154Y001534D02*
X038366Y001534D01*
X039154Y001534D02*
X040804Y001534D01*
X040829Y001853D02*
X041196Y001853D01*
X041156Y002171D02*
X041450Y002171D01*
X041296Y002490D02*
X041619Y002490D01*
X041735Y002808D02*
X041331Y002808D01*
X041270Y003127D02*
X041808Y003127D01*
X041825Y003445D02*
X041089Y003445D01*
X040651Y003764D02*
X041825Y003764D01*
X041825Y004082D02*
X039320Y004082D01*
X039320Y003764D02*
X039869Y003764D01*
X039431Y003445D02*
X039320Y003445D01*
X039320Y004401D02*
X041825Y004401D01*
X041825Y004719D02*
X039320Y004719D01*
X039320Y005038D02*
X041379Y005038D01*
X041047Y005356D02*
X039320Y005356D01*
X039320Y005675D02*
X040985Y005675D01*
X041080Y005993D02*
X039270Y005993D01*
X039000Y006312D02*
X041065Y006312D01*
X040985Y006630D02*
X038682Y006630D01*
X038363Y006949D02*
X041061Y006949D01*
X038200Y003445D02*
X037641Y003445D01*
X037599Y003487D02*
X037599Y003487D01*
X037959Y003127D02*
X038200Y003127D01*
X039340Y002171D02*
X039364Y002171D01*
X039340Y001853D02*
X039691Y001853D01*
X039910Y001216D02*
X034173Y001216D01*
X034260Y001534D02*
X036394Y001534D01*
X036210Y001853D02*
X034125Y001853D01*
X033760Y001853D02*
X033760Y001853D01*
X033760Y001534D02*
X033760Y001534D01*
X033395Y001853D02*
X032209Y001853D01*
X032329Y002163D02*
X032220Y002207D01*
X032119Y002266D01*
X032026Y002337D01*
X031943Y002420D01*
X031872Y002513D01*
X031814Y002614D01*
X031769Y002722D01*
X031739Y002835D01*
X031723Y002951D01*
X031723Y002953D01*
X032560Y002953D01*
X032560Y002117D01*
X032558Y002117D01*
X032442Y002132D01*
X032329Y002163D01*
X032308Y002171D02*
X031891Y002171D01*
X031890Y002490D02*
X031572Y002490D01*
X031746Y002808D02*
X031254Y002808D01*
X031418Y003127D02*
X031731Y003127D01*
X031737Y003445D02*
X031836Y003445D01*
X032055Y003764D02*
X032135Y003764D01*
X032374Y004082D02*
X033372Y004082D01*
X033097Y003764D02*
X033691Y003764D01*
X032957Y004401D02*
X032692Y004401D01*
X032673Y003764D02*
X032560Y003764D01*
X032560Y003445D02*
X032673Y003445D01*
X032673Y003127D02*
X032560Y003127D01*
X032560Y002808D02*
X032673Y002808D01*
X032673Y002490D02*
X032560Y002490D01*
X032560Y002171D02*
X032673Y002171D01*
X032320Y001534D02*
X033260Y001534D01*
X033347Y001216D02*
X032244Y001216D01*
X031263Y001216D02*
X025155Y001216D01*
X025155Y001534D02*
X030944Y001534D01*
X030153Y003445D02*
X024367Y003445D01*
X024048Y003764D02*
X030472Y003764D01*
X030790Y004082D02*
X023730Y004082D01*
X023411Y004401D02*
X024957Y004401D01*
X024792Y004719D02*
X021596Y004719D01*
X021670Y005038D02*
X024860Y005038D01*
X024860Y005356D02*
X021563Y005356D01*
X021603Y005675D02*
X024860Y005675D01*
X024860Y005993D02*
X021690Y005993D01*
X021964Y006312D02*
X024860Y006312D01*
X024860Y006630D02*
X022302Y006630D01*
X022641Y006949D02*
X024860Y006949D01*
X024860Y007267D02*
X022979Y007267D01*
X023160Y007586D02*
X024860Y007586D01*
X024860Y007904D02*
X023160Y007904D01*
X023160Y008223D02*
X024860Y008223D01*
X024860Y008541D02*
X023160Y008541D01*
X023160Y008860D02*
X024860Y008860D01*
X024860Y009178D02*
X023160Y009178D01*
X023160Y009497D02*
X024860Y009497D01*
X024860Y009815D02*
X023160Y009815D01*
X023160Y010134D02*
X025068Y010134D01*
X025333Y010452D02*
X023160Y010452D01*
X023160Y010771D02*
X025684Y010771D01*
X025365Y011089D02*
X023160Y011089D01*
X023160Y011408D02*
X025047Y011408D01*
X024728Y011726D02*
X023160Y011726D01*
X023160Y012045D02*
X024410Y012045D01*
X024091Y012363D02*
X023160Y012363D01*
X023160Y012682D02*
X023458Y012682D01*
X021728Y011726D02*
X019792Y011726D01*
X020110Y012045D02*
X021416Y012045D01*
X021360Y012363D02*
X020429Y012363D01*
X021062Y012682D02*
X021360Y012682D01*
X021553Y011408D02*
X021860Y011408D01*
X021860Y011089D02*
X021690Y011089D01*
X021643Y010771D02*
X021860Y010771D01*
X021860Y010452D02*
X021509Y010452D01*
X021690Y010134D02*
X021860Y010134D01*
X021860Y009815D02*
X021661Y009815D01*
X021464Y009497D02*
X021860Y009497D01*
X021860Y009178D02*
X021672Y009178D01*
X021680Y008860D02*
X021860Y008860D01*
X021860Y008541D02*
X021482Y008541D01*
X021654Y008223D02*
X021791Y008223D01*
X020638Y008541D02*
X020026Y008541D01*
X020155Y008860D02*
X020440Y008860D01*
X020448Y009178D02*
X020077Y009178D01*
X019964Y009497D02*
X020656Y009497D01*
X020459Y009815D02*
X019646Y009815D01*
X019327Y010134D02*
X020430Y010134D01*
X020611Y010452D02*
X019030Y010452D01*
X018860Y010771D02*
X020477Y010771D01*
X020430Y011089D02*
X019155Y011089D01*
X019473Y011408D02*
X020567Y011408D01*
X018160Y010771D02*
X016860Y010771D01*
X017030Y010452D02*
X017990Y010452D01*
X018026Y010134D02*
X016994Y010134D01*
X016910Y009815D02*
X018514Y009815D01*
X018833Y009497D02*
X016910Y009497D01*
X017327Y009178D02*
X019151Y009178D01*
X019115Y008860D02*
X017405Y008860D01*
X017276Y008541D02*
X019244Y008541D01*
X018723Y008194D02*
X018569Y008348D01*
X018369Y008431D01*
X018151Y008431D01*
X017951Y008348D01*
X017797Y008194D01*
X017714Y007994D01*
X017714Y007776D01*
X017797Y007576D01*
X017951Y007422D01*
X018151Y007339D01*
X018369Y007339D01*
X018569Y007422D01*
X018723Y007576D01*
X018806Y007776D01*
X018806Y007994D01*
X018723Y008194D01*
X018694Y008223D02*
X020466Y008223D01*
X020430Y007904D02*
X018806Y007904D01*
X018727Y007586D02*
X020594Y007586D01*
X020485Y007267D02*
X013973Y007267D01*
X014292Y006949D02*
X020430Y006949D01*
X020549Y006630D02*
X015706Y006630D01*
X016024Y006312D02*
X020503Y006312D01*
X020430Y005993D02*
X016343Y005993D01*
X015530Y005675D02*
X009382Y005675D01*
X009510Y005803D02*
X009217Y005510D01*
X009010Y005510D01*
X009010Y006010D01*
X009010Y006010D01*
X009010Y006510D01*
X009217Y006510D01*
X009510Y006217D01*
X009510Y006010D01*
X009010Y006010D01*
X009010Y006010D01*
X009010Y006010D01*
X008510Y006010D01*
X008510Y006217D01*
X008803Y006510D01*
X009010Y006510D01*
X009010Y006010D01*
X009510Y006010D01*
X009510Y005803D01*
X009510Y005993D02*
X015211Y005993D01*
X013797Y006312D02*
X009416Y006312D01*
X009010Y006312D02*
X009010Y006312D01*
X009010Y006010D02*
X008510Y006010D01*
X008510Y005803D01*
X008803Y005510D01*
X009010Y005510D01*
X009010Y006010D01*
X009010Y006010D01*
X009010Y005993D02*
X009010Y005993D01*
X009010Y005675D02*
X009010Y005675D01*
X008638Y005675D02*
X008295Y005675D01*
X008390Y005993D02*
X008510Y005993D01*
X008604Y006312D02*
X008313Y006312D01*
X007873Y006630D02*
X013479Y006630D01*
X012835Y006949D02*
X011185Y006949D01*
X011265Y007028D02*
X011087Y006851D01*
X010856Y006755D01*
X010605Y006755D01*
X010374Y006851D01*
X010196Y007028D01*
X010100Y007260D01*
X010100Y007510D01*
X010196Y007742D01*
X010374Y007919D01*
X010605Y008015D01*
X010856Y008015D01*
X011087Y007919D01*
X011265Y007742D01*
X011360Y007510D01*
X011360Y007260D01*
X011265Y007028D01*
X011360Y007267D02*
X012660Y007267D01*
X012691Y007586D02*
X011329Y007586D01*
X011102Y007904D02*
X012918Y007904D01*
X013661Y007904D02*
X014417Y007904D01*
X014426Y007889D02*
X014493Y007806D01*
X014568Y007730D01*
X014652Y007663D01*
X014743Y007606D01*
X014839Y007560D01*
X014940Y007525D01*
X015044Y007501D01*
X015118Y007493D01*
X015118Y008355D01*
X015290Y008355D01*
X015290Y008527D01*
X016152Y008527D01*
X016144Y008601D01*
X016120Y008705D01*
X016085Y008806D01*
X016039Y008902D01*
X015982Y008993D01*
X015915Y009077D01*
X015839Y009152D01*
X015756Y009219D01*
X015665Y009276D01*
X015569Y009322D01*
X015468Y009357D01*
X015364Y009381D01*
X015290Y009390D01*
X015290Y008527D01*
X015118Y008527D01*
X015118Y008355D01*
X014255Y008355D01*
X014264Y008281D01*
X014288Y008177D01*
X014323Y008076D01*
X014369Y007980D01*
X014426Y007889D01*
X014277Y008223D02*
X008288Y008223D01*
X008607Y008541D02*
X014257Y008541D01*
X014255Y008527D02*
X015118Y008527D01*
X015118Y009390D01*
X015044Y009381D01*
X014940Y009357D01*
X014839Y009322D01*
X014743Y009276D01*
X014652Y009219D01*
X014568Y009152D01*
X014493Y009077D01*
X014426Y008993D01*
X014369Y008902D01*
X014323Y008806D01*
X014288Y008705D01*
X014264Y008601D01*
X014255Y008527D01*
X014349Y008860D02*
X008925Y008860D01*
X009244Y009178D02*
X014601Y009178D01*
X015118Y009178D02*
X015290Y009178D01*
X015290Y008860D02*
X015118Y008860D01*
X015118Y008541D02*
X015290Y008541D01*
X015290Y008355D02*
X016152Y008355D01*
X016144Y008281D01*
X016120Y008177D01*
X016085Y008076D01*
X016039Y007980D01*
X015982Y007889D01*
X015915Y007806D01*
X015839Y007730D01*
X015756Y007663D01*
X015665Y007606D01*
X015569Y007560D01*
X015468Y007525D01*
X015364Y007501D01*
X015290Y007493D01*
X015290Y008355D01*
X015290Y008223D02*
X015118Y008223D01*
X015118Y007904D02*
X015290Y007904D01*
X015290Y007586D02*
X015118Y007586D01*
X014786Y007586D02*
X013888Y007586D01*
X015622Y007586D02*
X017793Y007586D01*
X017714Y007904D02*
X015991Y007904D01*
X016131Y008223D02*
X017826Y008223D01*
X016494Y008541D02*
X016151Y008541D01*
X016059Y008860D02*
X016345Y008860D01*
X016111Y009178D02*
X015807Y009178D01*
X016110Y009497D02*
X009410Y009497D01*
X008490Y009815D02*
X001195Y009815D01*
X001195Y009497D02*
X008431Y009497D01*
X008490Y010134D02*
X006532Y010134D01*
X005714Y010134D02*
X003992Y010134D01*
X007651Y007586D02*
X010132Y007586D01*
X010359Y007904D02*
X007970Y007904D01*
X007333Y007267D02*
X010100Y007267D01*
X010276Y006949D02*
X007160Y006949D01*
X007160Y006630D02*
X007647Y006630D01*
X007760Y006630D02*
X007760Y006630D01*
X007760Y006312D02*
X007760Y006312D01*
X007760Y006010D02*
X007760Y005380D01*
X007760Y006010D01*
X007760Y006010D01*
X007760Y005993D02*
X007760Y005993D01*
X007760Y005675D02*
X007760Y005675D01*
X004040Y006630D02*
X004040Y006630D01*
X004040Y006949D02*
X004040Y006949D01*
X003528Y007267D02*
X002032Y007267D01*
X002130Y006949D02*
X003410Y006949D01*
X003471Y006630D02*
X002072Y006630D01*
X001840Y005675D02*
X003680Y005675D01*
X003434Y005356D02*
X002086Y005356D01*
X002130Y005038D02*
X003390Y005038D01*
X003522Y004719D02*
X001998Y004719D01*
X001195Y004401D02*
X003640Y004401D01*
X010381Y009815D02*
X016110Y009815D01*
X014365Y011089D02*
X009655Y011089D01*
X009336Y010771D02*
X010035Y010771D01*
X009886Y010452D02*
X009303Y010452D01*
X010869Y010134D02*
X014151Y010134D01*
X013990Y010452D02*
X011030Y010452D01*
X010985Y010771D02*
X014035Y010771D01*
X025660Y009497D02*
X026958Y009497D01*
X027276Y009178D02*
X025660Y009178D01*
X025660Y008860D02*
X027595Y008860D01*
X027913Y008541D02*
X025660Y008541D01*
X025660Y008223D02*
X028232Y008223D01*
X028550Y007904D02*
X025660Y007904D01*
X025660Y007586D02*
X028869Y007586D01*
X029228Y007267D02*
X025660Y007267D01*
X025660Y006949D02*
X028831Y006949D01*
X028807Y006630D02*
X025660Y006630D01*
X025660Y006312D02*
X029120Y006312D01*
X029400Y006312D02*
X031143Y006312D01*
X031461Y005993D02*
X025660Y005993D01*
X025660Y005675D02*
X031780Y005675D01*
X032012Y005356D02*
X025660Y005356D01*
X025660Y005038D02*
X031746Y005038D01*
X031427Y004719D02*
X025728Y004719D01*
X025563Y004401D02*
X031109Y004401D01*
X032670Y005993D02*
X032701Y005993D01*
X033020Y006312D02*
X032274Y006312D01*
X031956Y006630D02*
X033338Y006630D01*
X033657Y006949D02*
X031637Y006949D01*
X031599Y006987D02*
X031599Y006987D01*
X032560Y010134D02*
X032673Y010134D01*
X032673Y010452D02*
X032560Y010452D01*
X032560Y010771D02*
X032673Y010771D01*
X032673Y011089D02*
X032560Y011089D01*
X032560Y011408D02*
X032673Y011408D01*
X032673Y011726D02*
X032560Y011726D01*
X037133Y010771D02*
X037137Y010771D01*
X026639Y009815D02*
X025909Y009815D01*
X026214Y010134D02*
X026321Y010134D01*
X024360Y019370D02*
X024210Y019370D01*
X023310Y019370D02*
X022913Y019370D01*
X022607Y019370D02*
X021913Y019370D01*
X021607Y019370D02*
X020913Y019370D01*
X020607Y019370D02*
X019913Y019370D01*
X019607Y019370D02*
X018913Y019370D01*
X018607Y019370D02*
X017936Y019370D01*
X014665Y020644D02*
X013835Y020644D01*
X013516Y020326D02*
X014373Y020326D01*
X012953Y019689D02*
X012879Y019689D01*
X012865Y019370D02*
X012561Y019370D01*
X011608Y019052D02*
X011534Y019052D01*
X011459Y019370D02*
X011216Y019370D01*
X011141Y019689D02*
X011067Y019689D01*
X010985Y020007D02*
X010329Y020007D01*
X010806Y020326D02*
X010964Y020326D01*
X010982Y020963D02*
X010788Y020963D01*
X009982Y020963D02*
X009410Y020963D01*
X009692Y020644D02*
X009869Y020644D01*
X009197Y020007D02*
X009079Y020007D01*
X008879Y020326D02*
X008760Y020326D01*
X008625Y020644D02*
X008442Y020644D01*
X012209Y025103D02*
X032665Y025103D01*
X032667Y025422D02*
X011890Y025422D01*
X015243Y023192D02*
X015277Y023192D01*
X002648Y026696D02*
X040372Y026696D01*
X029760Y022555D02*
X029760Y022555D01*
X029760Y022237D02*
X029760Y022237D01*
D25*
X031760Y022260D02*
X031760Y019010D01*
X032760Y019010D02*
X032760Y021260D01*
X035260Y023760D01*
X035260Y025260D01*
X034260Y025260D02*
X034260Y024760D01*
X031760Y022260D01*
X027760Y022260D02*
X027760Y017760D01*
X027760Y016760D01*
X029760Y014760D01*
X029760Y013260D01*
X034135Y006635D02*
X035135Y006635D01*
X037885Y006635D01*
X038760Y005760D01*
X038760Y002260D01*
X034135Y006635D02*
X030260Y002760D01*
X030510Y002760D01*
X031760Y001510D01*
X030260Y002760D02*
X024260Y002760D01*
X023010Y004010D01*
X021060Y004010D01*
X027760Y022260D02*
X027760Y023760D01*
X027260Y024260D01*
X012260Y024260D01*
X011510Y025010D01*
X008510Y025010D01*
D26*
X009010Y024010D02*
X010635Y024010D01*
X009010Y024010D02*
X007760Y022760D01*
X009010Y022760D02*
X009010Y020760D01*
X010010Y019760D01*
X010010Y016510D01*
X010635Y015885D01*
X010635Y015385D01*
X009260Y015385D02*
X009260Y016260D01*
X006260Y019260D01*
X006260Y022260D01*
X005510Y023010D01*
X005510Y025010D01*
X005510Y026010D02*
X004510Y026010D01*
X004260Y025760D01*
X004260Y024260D01*
X003260Y023260D01*
X003260Y022260D01*
X003760Y021760D01*
X004260Y021760D01*
X007760Y021760D02*
X007760Y020760D01*
X009135Y019385D01*
X009260Y019385D01*
X010635Y019385D02*
X011760Y018260D01*
X016260Y018260D01*
X017760Y019760D01*
X017760Y020010D01*
X017760Y022260D01*
X018760Y022260D02*
X018760Y020010D01*
X019760Y020010D02*
X019760Y022260D01*
X020760Y022260D02*
X020760Y020010D01*
X021760Y020010D02*
X021760Y022260D01*
X022760Y022260D02*
X022760Y020010D01*
X023760Y020010D02*
X023760Y022260D01*
X023760Y022760D01*
X023010Y023510D01*
X022260Y023510D01*
X021260Y023510D01*
X024760Y022260D02*
X024760Y017760D01*
X025760Y017760D02*
X025760Y022260D01*
X026760Y022260D02*
X026760Y017760D01*
X028760Y017760D02*
X028760Y022260D01*
X033760Y017260D02*
X036760Y020260D01*
X037260Y020260D01*
X033760Y017260D02*
X033760Y015760D01*
X032760Y014760D01*
X031760Y014760D01*
X030760Y013760D01*
X030760Y011260D01*
X030260Y010760D01*
X029385Y009635D02*
X035135Y009635D01*
X035135Y008635D02*
X029385Y008635D01*
X024760Y013260D01*
X023760Y013260D02*
X029385Y007635D01*
X035135Y007635D01*
X032260Y005760D02*
X031260Y006760D01*
X029260Y006760D01*
X033260Y004760D02*
X034760Y003260D01*
X037260Y003260D01*
X037760Y002760D01*
X037760Y002260D01*
X029385Y009635D02*
X025760Y013260D01*
X026760Y013260D02*
X028260Y011760D01*
X025760Y010260D02*
X025260Y009760D01*
X025260Y004760D01*
X022760Y007610D02*
X021060Y006010D01*
X021060Y007010D02*
X022260Y008110D01*
X022260Y011760D01*
X021760Y012260D01*
X021760Y013260D01*
X020760Y013260D02*
X018760Y011260D01*
X014760Y011260D01*
X014510Y011510D01*
X009510Y011510D01*
X008615Y010615D01*
X006123Y010615D01*
X003777Y010615D01*
X003617Y010650D01*
X003777Y011615D02*
X006123Y011615D01*
X008615Y011615D01*
X009260Y012260D01*
X014760Y012260D01*
X015260Y011760D01*
X018260Y011760D01*
X019760Y013260D01*
X018760Y013260D02*
X017760Y012260D01*
X015760Y012260D01*
X015010Y013010D01*
X009010Y013010D01*
X008615Y012615D01*
X006123Y012615D01*
X003777Y012615D01*
X003617Y012650D01*
X003777Y013615D02*
X006123Y013615D01*
X006268Y013760D01*
X016260Y013760D01*
X016760Y013260D01*
X017760Y013260D02*
X016510Y014510D01*
X006229Y014510D01*
X006123Y014615D01*
X003777Y014615D01*
X003617Y014650D01*
X003617Y013650D02*
X003777Y013615D01*
X003617Y011650D02*
X003777Y011615D01*
X006760Y007260D02*
X009010Y009510D01*
X009010Y010010D01*
X010010Y010010D01*
X010510Y010510D01*
X014510Y010510D02*
X014635Y010385D01*
X016510Y010385D01*
X016510Y009260D01*
X016885Y008885D01*
X018510Y010385D02*
X019635Y009260D01*
X019635Y008885D01*
X022760Y007610D02*
X022760Y013260D01*
X015135Y017510D02*
X013385Y015760D01*
X013385Y015385D01*
X012010Y019385D02*
X013885Y021260D01*
X015760Y021260D01*
X016760Y022260D01*
X016760Y020010D01*
X012010Y019385D02*
X011385Y020010D01*
X011385Y020635D01*
X013290Y007385D02*
X014194Y006480D01*
X015290Y006480D01*
X016885Y004885D01*
X018260Y004885D02*
X019635Y004885D01*
X020635Y001385D02*
X006635Y001385D01*
X004040Y003980D01*
X004040Y005120D01*
X006760Y006010D02*
X006760Y007260D01*
X032135Y013635D02*
X033010Y012760D01*
X035010Y012760D01*
X035510Y012260D01*
X035510Y011760D01*
X036635Y011135D02*
X036635Y013135D01*
X036135Y013635D01*
X037260Y014260D02*
X036260Y015260D01*
X036260Y016260D01*
X036760Y016760D01*
X037260Y016760D01*
X037260Y014260D02*
X037260Y011760D01*
X037635Y011385D01*
X037635Y011135D01*
D27*
X030260Y010760D03*
X028260Y011760D03*
X025760Y010260D03*
X029260Y006760D03*
X032260Y005760D03*
X033260Y004760D03*
X025260Y004760D03*
X009010Y022760D03*
X010635Y024010D03*
M02*
