%
M48
M72
T01C0.0236
T02C0.0315
T03C0.0320
T04C0.0354
T05C0.0394
T06C0.0400
T07C0.0866
T08C0.0984
T09C0.1181
%
T01
X25260Y4760
X29260Y6760
X32260Y5760
X33260Y4760
X25760Y10260
X28260Y11760
X30260Y10760
X10635Y24010
X9010Y22760
T02
X10385Y22635
X12385Y22635
X12385Y20635
X11385Y20635
X10385Y20635
T03
X10635Y19385
X9260Y19385
X12010Y19385
X13385Y19385
X15135Y17510
X15135Y15510
X13385Y15385
X12010Y15385
X10635Y15385
X9260Y15385
X10510Y10510
X9010Y10010
X14510Y10510
X16510Y10385
X18510Y10385
X19635Y8885
X16885Y8885
X16885Y4885
X19635Y4885
X20635Y1385
X24635Y1385
X31760Y1510
X33760Y1510
X36635Y11135
X37635Y11135
X36135Y13635
X32135Y13635
X26260Y23510
X22260Y23510
X21260Y23510
X17260Y23510
X15760Y22760
X14760Y22760
X13760Y22760
X8510Y25010
X8510Y26010
X5510Y26010
X5510Y25010
X4260Y22760
X4260Y21760
X7760Y21760
X7760Y22760
X9010Y6010
T04
X10730Y7385
X13290Y7385
X18260Y7885
X18260Y4885
X33260Y25260
X34260Y25260
X35260Y25260
X36260Y25260
X37260Y25260
T05
X35510Y11760
X34510Y11760
X21060Y11010
X21060Y10010
X21060Y9010
X21060Y8010
X21060Y7010
X21060Y6010
X21060Y5010
X21060Y4010
X21060Y3010
X6123Y10615
X6123Y11615
X6123Y12615
X6123Y13615
X6123Y14615
X6123Y15615
X6123Y16615
X6123Y17615
X3617Y17650
X3617Y16650
X3617Y15650
X3617Y14650
X3617Y13650
X3617Y12650
X3617Y11650
X3617Y10650
T06
X4040Y6900
X4040Y5120
X1480Y5120
X1480Y6900
X6760Y6010
X7760Y6010
X16760Y13260
X17760Y13260
X18760Y13260
X19760Y13260
X20760Y13260
X21760Y13260
X22760Y13260
X23760Y13260
X24760Y13260
X25760Y13260
X26760Y13260
X27760Y13260
X28760Y13260
X29760Y13260
X31760Y16260
X32760Y16260
X29760Y17760
X28760Y17760
X27760Y17760
X26760Y17760
X25760Y17760
X24760Y17760
X23760Y20010
X22760Y20010
X21760Y20010
X20760Y20010
X19760Y20010
X18760Y20010
X17760Y20010
X16760Y20010
X16760Y22260
X17760Y22260
X18760Y22260
X19760Y22260
X20760Y22260
X21760Y22260
X22760Y22260
X23760Y22260
X24760Y22260
X25760Y22260
X26760Y22260
X27760Y22260
X28760Y22260
X29760Y22260
X31760Y19010
X32760Y19010
X37260Y19260
X37260Y20260
X37260Y16760
X37260Y15760
X35135Y9635
X35135Y8635
X35135Y7635
X35135Y6635
X35135Y5635
X35135Y4635
X36760Y2260
X37760Y2260
X38760Y2260
X41635Y5635
X41635Y6635
X41635Y7635
X41635Y8635
T07
X32616Y11010
X32616Y3010
T08
X15204Y8441
X3590Y8441
X3590Y19858
X15204Y19858
T09
X2760Y2760
X2760Y25260
X40260Y25260
X40260Y2760
M30
