%
M48
M72
T01C0.0236
T02C0.0315
T03C0.0320
T04C0.0354
T05C0.0394
T06C0.0400
T07C0.0866
T08C0.0984
T09C0.1181
%
T01
X25260Y6760
X29260Y6760
X31760Y6260
X33260Y4760
X25760Y10260
X28260Y11760
X30260Y10760
X10635Y24010
X9010Y22760
T02
X10385Y22635
X12385Y22635
X12385Y20635
X11385Y20635
X10385Y20635
X34829Y24885
X36010Y24885
X37191Y24885
T03
X26260Y23510
X22260Y23510
X21260Y23510
X17260Y23510
X15760Y22760
X14760Y22760
X13760Y22760
X13385Y19385
X12010Y19385
X10635Y19385
X9260Y19385
X7760Y21760
X7760Y22760
X8510Y25010
X8510Y26010
X5510Y26010
X5510Y25010
X4260Y22760
X4260Y21760
X9260Y15385
X10635Y15385
X12010Y15385
X13385Y15385
X14510Y16760
X14510Y17760
X14010Y10760
X14010Y9760
X10010Y9760
X10010Y10760
X18385Y10385
X19385Y10385
X19760Y8885
X18260Y8885
X18260Y4885
X19760Y4885
X22510Y1510
X26510Y1510
X36510Y2760
X37510Y2760
T04
X16760Y5260
X13915Y6760
X11355Y6760
X16760Y8260
T05
X21060Y8010
X21060Y7010
X21060Y6010
X21060Y5010
X21060Y4010
X21060Y3010
X21060Y9010
X21060Y10010
X21060Y11010
X9010Y6635
X8010Y6635
X7010Y6635
X6010Y6635
X4492Y10615
X4492Y11615
X4492Y12615
X4492Y13615
X4492Y14615
X4492Y15615
X4492Y16615
X4492Y17615
T06
X16760Y19885
X17760Y19885
X18760Y19885
X19760Y19885
X20760Y19885
X21760Y19885
X22760Y19885
X23760Y19885
X24760Y17760
X25760Y17760
X26760Y17760
X27760Y17760
X28760Y17760
X29760Y17760
X31760Y19010
X32760Y19010
X32760Y16260
X31760Y16260
X29760Y13260
X28760Y13260
X27760Y13260
X26760Y13260
X25760Y13260
X24760Y13260
X23760Y13260
X22760Y13260
X21760Y13260
X20760Y13260
X19760Y13260
X18760Y13260
X17760Y13260
X16760Y13260
X4415Y6650
X4415Y4870
X1855Y4870
X1855Y6650
X16760Y22260
X17760Y22260
X18760Y22260
X19760Y22260
X20760Y22260
X21760Y22260
X22760Y22260
X23760Y22260
X24760Y22260
X25760Y22260
X26760Y22260
X27760Y22260
X28760Y22260
X29760Y22260
X37260Y20260
X37260Y19260
X37260Y16760
X37260Y15760
X34885Y10135
X34885Y9135
X34885Y8135
X34885Y7135
X34885Y6135
X34885Y5135
X36885Y5385
X37885Y5385
X38885Y5385
X41385Y6135
X41385Y7135
X41385Y8135
X41385Y9135
T07
X32616Y11010
X32616Y3010
X33549Y24885
X38471Y24885
T08
X4465Y19823
X4465Y8406
T09
X2760Y2760
X2760Y25260
X40260Y25260
X40260Y2760
M30
