G75*
G70*
%OFA0B0*%
%FSLAX24Y24*%
%IPPOS*%
%LPD*%
%AMOC8*
5,1,8,0,0,1.08239X$1,22.5*
%
%ADD10C,0.0780*%
%ADD11C,0.1346*%
%ADD12OC8,0.0740*%
%ADD13C,0.0680*%
%ADD14C,0.0820*%
%ADD15C,0.0740*%
%ADD16OC8,0.0560*%
%ADD17C,0.0611*%
%ADD18C,0.0560*%
%ADD19R,0.0820X0.0820*%
%ADD20C,0.1661*%
%ADD21C,0.0552*%
%ADD22C,0.1464*%
%ADD23R,0.0330X0.0580*%
%ADD24OC8,0.0840*%
%ADD25C,0.0456*%
D10*
X010730Y007385D03*
X013290Y007385D03*
X006123Y010615D03*
X006123Y011615D03*
X006123Y012615D03*
X006123Y013615D03*
X006123Y014615D03*
X006123Y015615D03*
X006123Y016615D03*
X006123Y017615D03*
X003617Y017650D03*
X003617Y016650D03*
X003617Y015650D03*
X003617Y014650D03*
X003617Y013650D03*
X003617Y012650D03*
X003617Y011650D03*
X003617Y010650D03*
X021060Y011010D03*
X021060Y010010D03*
X021060Y009010D03*
X021060Y008010D03*
X021060Y007010D03*
X021060Y006010D03*
X021060Y005010D03*
X021060Y004010D03*
X021060Y003010D03*
D11*
X032616Y003010D03*
X032616Y011010D03*
D12*
X036635Y011135D03*
X037635Y011135D03*
X007760Y021760D03*
X007760Y022760D03*
X004260Y022760D03*
X004260Y021760D03*
D13*
X036760Y002560D02*
X036760Y001960D01*
X037760Y001960D02*
X037760Y002560D01*
X038760Y002560D02*
X038760Y001960D01*
D14*
X035135Y004635D03*
X035135Y005635D03*
X035135Y006635D03*
X035135Y007635D03*
X035135Y008635D03*
X035135Y009635D03*
X029760Y013260D03*
X028760Y013260D03*
X027760Y013260D03*
X026760Y013260D03*
X025760Y013260D03*
X024760Y013260D03*
X023760Y013260D03*
X022760Y013260D03*
X021760Y013260D03*
X020760Y013260D03*
X019760Y013260D03*
X018760Y013260D03*
X017760Y013260D03*
X016760Y013260D03*
X024760Y017760D03*
X025760Y017760D03*
X026760Y017760D03*
X027760Y017760D03*
X028760Y017760D03*
X029760Y017760D03*
X031760Y019010D03*
X032760Y019010D03*
X032760Y016260D03*
X031760Y016260D03*
X037260Y015760D03*
X037260Y016760D03*
X037260Y019260D03*
X037260Y020260D03*
X029760Y022260D03*
X028760Y022260D03*
X027760Y022260D03*
X026760Y022260D03*
X025760Y022260D03*
X024760Y022260D03*
X023760Y022260D03*
X022760Y022260D03*
X021760Y022260D03*
X020760Y022260D03*
X019760Y022260D03*
X018760Y022260D03*
X017760Y022260D03*
X016760Y022260D03*
X016760Y020010D03*
X017760Y020010D03*
X018760Y020010D03*
X019760Y020010D03*
X020760Y020010D03*
X021760Y020010D03*
X022760Y020010D03*
X041635Y007635D03*
X041635Y006635D03*
X041635Y005635D03*
X007760Y006010D03*
X006760Y006010D03*
X004040Y005120D03*
X004040Y006900D03*
X001480Y006900D03*
X001480Y005120D03*
D15*
X033260Y025260D03*
X034260Y025260D03*
X035260Y025260D03*
X036260Y025260D03*
X037260Y025260D03*
D16*
X026260Y023510D03*
X022260Y023510D03*
X021260Y023510D03*
X017260Y023510D03*
X013385Y019385D03*
X012010Y019385D03*
X010635Y019385D03*
X009260Y019385D03*
X015135Y017510D03*
X015135Y015510D03*
X013385Y015385D03*
X012010Y015385D03*
X010635Y015385D03*
X009260Y015385D03*
X010510Y010510D03*
X009010Y010010D03*
X014510Y010510D03*
X016510Y010385D03*
X018510Y010385D03*
X019635Y008885D03*
X016885Y008885D03*
X016885Y004885D03*
X019635Y004885D03*
X020635Y001385D03*
X024635Y001385D03*
X031760Y001510D03*
X033760Y001510D03*
X032135Y013635D03*
X036135Y013635D03*
X009010Y006010D03*
D17*
X018260Y004885D03*
X018260Y007885D03*
D18*
X015760Y022520D02*
X015760Y023000D01*
X014760Y023000D02*
X014760Y022520D01*
X013760Y022520D02*
X013760Y023000D01*
X008750Y025010D02*
X008270Y025010D01*
X008270Y026010D02*
X008750Y026010D01*
X005750Y026010D02*
X005270Y026010D01*
X005270Y025010D02*
X005750Y025010D01*
D19*
X023760Y020010D03*
X041635Y008635D03*
D20*
X002760Y002760D03*
X002760Y025260D03*
X040260Y025260D03*
X040260Y002760D03*
D21*
X012385Y020635D03*
X011385Y020635D03*
X010385Y020635D03*
X010385Y022635D03*
X012385Y022635D03*
D22*
X015204Y019858D03*
X003590Y019858D03*
X003590Y008441D03*
X015204Y008441D03*
D23*
X023583Y009010D03*
X023937Y009010D03*
D24*
X034510Y011760D03*
X035510Y011760D03*
D25*
X030260Y010760D03*
X028260Y011760D03*
X025760Y010260D03*
X029260Y006760D03*
X032260Y005760D03*
X033260Y004760D03*
X025260Y004760D03*
X009010Y022760D03*
X010635Y024010D03*
M02*
