G75*
G70*
%OFA0B0*%
%FSLAX24Y24*%
%IPPOS*%
%LPD*%
%AMOC8*
5,1,8,0,0,1.08239X$1,22.5*
%
%ADD10C,0.0000*%
D10*
X003385Y000885D02*
X039635Y000885D01*
X039754Y000888D01*
X039873Y000896D01*
X039991Y000910D01*
X040108Y000930D01*
X040224Y000955D01*
X040339Y000986D01*
X040453Y001022D01*
X040564Y001064D01*
X040674Y001111D01*
X040781Y001163D01*
X040885Y001220D01*
X040987Y001282D01*
X041085Y001349D01*
X041180Y001420D01*
X041272Y001496D01*
X041360Y001576D01*
X041444Y001660D01*
X041524Y001748D01*
X041600Y001840D01*
X041671Y001935D01*
X041738Y002033D01*
X041800Y002135D01*
X041857Y002239D01*
X041909Y002346D01*
X041956Y002456D01*
X041998Y002567D01*
X042034Y002681D01*
X042065Y002796D01*
X042090Y002912D01*
X042110Y003029D01*
X042124Y003147D01*
X042132Y003266D01*
X042135Y003385D01*
X042135Y011760D01*
X038010Y011760D01*
X038010Y023760D01*
X042135Y023760D01*
X042135Y024635D01*
X042132Y024754D01*
X042124Y024873D01*
X042110Y024991D01*
X042090Y025108D01*
X042065Y025224D01*
X042034Y025339D01*
X041998Y025453D01*
X041956Y025564D01*
X041909Y025674D01*
X041857Y025781D01*
X041800Y025885D01*
X041738Y025987D01*
X041671Y026085D01*
X041600Y026180D01*
X041524Y026272D01*
X041444Y026360D01*
X041360Y026444D01*
X041272Y026524D01*
X041180Y026600D01*
X041085Y026671D01*
X040987Y026738D01*
X040885Y026800D01*
X040781Y026857D01*
X040674Y026909D01*
X040564Y026956D01*
X040453Y026998D01*
X040339Y027034D01*
X040224Y027065D01*
X040108Y027090D01*
X039991Y027110D01*
X039873Y027124D01*
X039754Y027132D01*
X039635Y027135D01*
X003385Y027135D01*
X003266Y027132D01*
X003147Y027124D01*
X003029Y027110D01*
X002912Y027090D01*
X002796Y027065D01*
X002681Y027034D01*
X002567Y026998D01*
X002456Y026956D01*
X002346Y026909D01*
X002239Y026857D01*
X002135Y026800D01*
X002033Y026738D01*
X001935Y026671D01*
X001840Y026600D01*
X001748Y026524D01*
X001660Y026444D01*
X001576Y026360D01*
X001496Y026272D01*
X001420Y026180D01*
X001349Y026085D01*
X001282Y025987D01*
X001220Y025885D01*
X001163Y025781D01*
X001111Y025674D01*
X001064Y025564D01*
X001022Y025453D01*
X000986Y025339D01*
X000955Y025224D01*
X000930Y025108D01*
X000910Y024991D01*
X000896Y024873D01*
X000888Y024754D01*
X000885Y024635D01*
X000885Y003385D01*
X000888Y003266D01*
X000896Y003147D01*
X000910Y003029D01*
X000930Y002912D01*
X000955Y002796D01*
X000986Y002681D01*
X001022Y002567D01*
X001064Y002456D01*
X001111Y002346D01*
X001163Y002239D01*
X001220Y002135D01*
X001282Y002033D01*
X001349Y001935D01*
X001420Y001840D01*
X001496Y001748D01*
X001576Y001660D01*
X001660Y001576D01*
X001748Y001496D01*
X001840Y001420D01*
X001935Y001349D01*
X002033Y001282D01*
X002135Y001220D01*
X002239Y001163D01*
X002346Y001111D01*
X002456Y001064D01*
X002567Y001022D01*
X002681Y000986D01*
X002796Y000955D01*
X002912Y000930D01*
X003029Y000910D01*
X003147Y000896D01*
X003266Y000888D01*
X003385Y000885D01*
M02*
