G75*
G70*
%OFA0B0*%
%FSLAX24Y24*%
%IPPOS*%
%LPD*%
%AMOC8*
5,1,8,0,0,1.08239X$1,22.5*
%
%ADD10C,0.0000*%
%ADD11C,0.0100*%
%ADD12C,0.0050*%
%ADD13C,0.0060*%
%ADD14C,0.0300*%
%ADD15R,0.0300X0.0200*%
%ADD16R,0.0300X0.0400*%
%ADD17C,0.0090*%
%ADD18C,0.0080*%
%ADD19C,0.0010*%
%ADD20R,0.0050X1.3550*%
%ADD21R,0.0050X0.3950*%
%ADD22R,0.0050X0.9100*%
%ADD23R,0.0050X0.3700*%
%ADD24R,0.0050X0.1850*%
%ADD25R,0.0050X0.1150*%
%ADD26R,0.0050X0.3350*%
%ADD27R,0.0050X0.3650*%
%ADD28R,0.0050X0.1750*%
%ADD29R,0.0050X0.3550*%
%ADD30R,0.0050X0.1700*%
%ADD31R,0.0050X0.3500*%
%ADD32R,0.0050X0.1600*%
%ADD33R,0.0050X0.3400*%
%ADD34R,0.0050X0.1550*%
%ADD35R,0.0050X0.1450*%
%ADD36R,0.0050X0.3300*%
%ADD37R,0.0050X0.1400*%
%ADD38R,0.0050X0.3250*%
%ADD39R,0.0050X0.1350*%
%ADD40R,0.0050X0.3200*%
%ADD41R,0.0050X0.1300*%
%ADD42R,0.0050X0.3150*%
%ADD43R,0.0050X0.1250*%
%ADD44R,0.0050X0.3100*%
%ADD45R,0.0050X0.1200*%
%ADD46R,0.0050X0.3050*%
%ADD47R,0.0050X0.3000*%
%ADD48R,0.0050X0.1500*%
%ADD49R,0.0050X0.1650*%
%ADD50R,0.0050X0.1800*%
%ADD51R,0.0050X0.3900*%
%ADD52R,0.0050X0.2000*%
%ADD53R,0.0050X0.4150*%
%ADD54R,0.0050X0.2250*%
%ADD55R,0.0050X0.6500*%
%ADD56R,0.0050X0.6450*%
%ADD57R,0.0050X0.6400*%
%ADD58R,0.0050X0.6350*%
%ADD59R,0.0050X0.6300*%
%ADD60R,0.0050X0.6250*%
%ADD61R,0.0050X0.6200*%
%ADD62R,0.0050X0.6150*%
%ADD63R,0.0050X0.6050*%
%ADD64R,0.0050X0.5950*%
%ADD65R,0.0050X0.5900*%
%ADD66R,0.0050X0.5800*%
%ADD67R,0.0050X0.5700*%
%ADD68R,0.0050X0.5600*%
%ADD69R,0.0050X0.5500*%
%ADD70R,0.0050X0.5450*%
%ADD71R,0.0050X0.5350*%
%ADD72R,0.0050X0.5250*%
%ADD73R,0.0050X0.5150*%
%ADD74R,0.0050X0.5100*%
%ADD75R,0.0050X0.5000*%
%ADD76R,0.0050X0.4900*%
%ADD77R,0.0050X0.4800*%
%ADD78R,0.0050X0.4750*%
%ADD79R,0.0050X0.4650*%
%ADD80R,0.0050X0.1950*%
%ADD81R,0.0050X0.4550*%
%ADD82R,0.0050X0.4450*%
%ADD83R,0.0050X0.2050*%
%ADD84R,0.0050X0.4400*%
%ADD85R,0.0050X0.2150*%
%ADD86R,0.0050X0.4300*%
%ADD87R,0.0050X0.2200*%
%ADD88R,0.0050X0.4200*%
%ADD89R,0.0050X0.4100*%
%ADD90R,0.0050X0.2300*%
%ADD91R,0.0050X0.4000*%
%ADD92R,0.0050X0.2400*%
%ADD93R,0.0050X0.2450*%
%ADD94R,0.0050X0.3850*%
%ADD95R,0.0050X0.2500*%
%ADD96R,0.0050X0.3750*%
%ADD97R,0.0050X0.2550*%
%ADD98R,0.0050X0.2600*%
%ADD99R,0.0050X0.3600*%
%ADD100R,0.0050X0.2650*%
%ADD101R,0.0050X0.2700*%
%ADD102R,0.0050X0.3450*%
%ADD103R,0.0050X0.3800*%
%ADD104R,0.0050X0.4250*%
%ADD105R,0.0050X0.4350*%
%ADD106R,0.0050X0.4500*%
%ADD107R,0.0050X0.4600*%
%ADD108R,0.0050X0.4700*%
%ADD109R,0.0050X0.4850*%
%ADD110R,0.0050X0.4950*%
%ADD111R,0.0050X0.5650*%
%ADD112R,0.0050X0.5050*%
%ADD113R,0.0050X0.5550*%
%ADD114R,0.0050X0.5200*%
%ADD115R,0.0050X0.5300*%
%ADD116R,0.0050X0.5400*%
%ADD117R,0.0050X0.5750*%
%ADD118R,0.0050X0.5850*%
%ADD119R,0.0050X0.6000*%
%ADD120R,0.0050X0.6100*%
%ADD121R,0.0050X0.6550*%
%ADD122R,0.0050X0.4050*%
%ADD123R,0.0050X0.6600*%
%ADD124R,0.0050X0.6700*%
%ADD125R,0.0050X0.6800*%
%ADD126R,0.0050X0.6900*%
%ADD127R,0.0050X0.6950*%
%ADD128R,0.0050X0.7050*%
%ADD129R,0.0050X0.7150*%
%ADD130R,0.0050X0.7250*%
%ADD131R,0.0050X0.7300*%
%ADD132R,0.0050X0.7400*%
%ADD133R,0.0050X0.7500*%
%ADD134R,0.0050X0.7600*%
%ADD135R,0.0050X0.7700*%
%ADD136R,0.0050X0.7750*%
%ADD137R,0.0050X0.7850*%
%ADD138R,0.0050X0.7950*%
%ADD139R,0.0050X0.8050*%
%ADD140R,0.0050X0.8100*%
%ADD141R,0.0050X0.8200*%
%ADD142R,0.0050X0.8300*%
%ADD143R,0.0050X0.8400*%
%ADD144R,0.0050X0.8450*%
%ADD145R,0.0050X0.8550*%
%ADD146R,0.0050X0.8650*%
%ADD147R,0.0050X0.8750*%
%ADD148R,0.0050X0.8800*%
%ADD149R,0.0050X0.8900*%
%ADD150R,0.0050X0.9000*%
%ADD151R,0.0050X0.9150*%
%ADD152R,0.0050X0.9250*%
%ADD153R,0.0050X0.9350*%
%ADD154R,0.0050X0.9450*%
%ADD155R,0.0050X0.9500*%
%ADD156R,0.0050X0.9600*%
%ADD157R,0.0050X0.9700*%
%ADD158R,0.0050X0.9800*%
%ADD159R,0.0050X0.9850*%
%ADD160R,0.0050X0.9950*%
%ADD161R,0.0050X1.0050*%
%ADD162R,0.0050X1.0150*%
%ADD163R,0.0050X1.0200*%
%ADD164R,0.0050X1.0300*%
%ADD165R,0.0050X1.0400*%
D10*
X003385Y000885D02*
X039635Y000885D01*
X039754Y000888D01*
X039873Y000896D01*
X039991Y000910D01*
X040108Y000930D01*
X040224Y000955D01*
X040339Y000986D01*
X040453Y001022D01*
X040564Y001064D01*
X040674Y001111D01*
X040781Y001163D01*
X040885Y001220D01*
X040987Y001282D01*
X041085Y001349D01*
X041180Y001420D01*
X041272Y001496D01*
X041360Y001576D01*
X041444Y001660D01*
X041524Y001748D01*
X041600Y001840D01*
X041671Y001935D01*
X041738Y002033D01*
X041800Y002135D01*
X041857Y002239D01*
X041909Y002346D01*
X041956Y002456D01*
X041998Y002567D01*
X042034Y002681D01*
X042065Y002796D01*
X042090Y002912D01*
X042110Y003029D01*
X042124Y003147D01*
X042132Y003266D01*
X042135Y003385D01*
X042135Y011760D01*
X038010Y011760D01*
X038010Y023760D01*
X042135Y023760D01*
X042135Y024635D01*
X042132Y024754D01*
X042124Y024873D01*
X042110Y024991D01*
X042090Y025108D01*
X042065Y025224D01*
X042034Y025339D01*
X041998Y025453D01*
X041956Y025564D01*
X041909Y025674D01*
X041857Y025781D01*
X041800Y025885D01*
X041738Y025987D01*
X041671Y026085D01*
X041600Y026180D01*
X041524Y026272D01*
X041444Y026360D01*
X041360Y026444D01*
X041272Y026524D01*
X041180Y026600D01*
X041085Y026671D01*
X040987Y026738D01*
X040885Y026800D01*
X040781Y026857D01*
X040674Y026909D01*
X040564Y026956D01*
X040453Y026998D01*
X040339Y027034D01*
X040224Y027065D01*
X040108Y027090D01*
X039991Y027110D01*
X039873Y027124D01*
X039754Y027132D01*
X039635Y027135D01*
X003385Y027135D01*
X003266Y027132D01*
X003147Y027124D01*
X003029Y027110D01*
X002912Y027090D01*
X002796Y027065D01*
X002681Y027034D01*
X002567Y026998D01*
X002456Y026956D01*
X002346Y026909D01*
X002239Y026857D01*
X002135Y026800D01*
X002033Y026738D01*
X001935Y026671D01*
X001840Y026600D01*
X001748Y026524D01*
X001660Y026444D01*
X001576Y026360D01*
X001496Y026272D01*
X001420Y026180D01*
X001349Y026085D01*
X001282Y025987D01*
X001220Y025885D01*
X001163Y025781D01*
X001111Y025674D01*
X001064Y025564D01*
X001022Y025453D01*
X000986Y025339D01*
X000955Y025224D01*
X000930Y025108D01*
X000910Y024991D01*
X000896Y024873D01*
X000888Y024754D01*
X000885Y024635D01*
X000885Y003385D01*
X000888Y003266D01*
X000896Y003147D01*
X000910Y003029D01*
X000930Y002912D01*
X000955Y002796D01*
X000986Y002681D01*
X001022Y002567D01*
X001064Y002456D01*
X001111Y002346D01*
X001163Y002239D01*
X001220Y002135D01*
X001282Y002033D01*
X001349Y001935D01*
X001420Y001840D01*
X001496Y001748D01*
X001576Y001660D01*
X001660Y001576D01*
X001748Y001496D01*
X001840Y001420D01*
X001935Y001349D01*
X002033Y001282D01*
X002135Y001220D01*
X002239Y001163D01*
X002346Y001111D01*
X002456Y001064D01*
X002567Y001022D01*
X002681Y000986D01*
X002796Y000955D01*
X002912Y000930D01*
X003029Y000910D01*
X003147Y000896D01*
X003266Y000888D01*
X003385Y000885D01*
D11*
X003335Y004069D02*
X003335Y004669D01*
X002734Y004069D01*
X002584Y004069D01*
X002434Y004219D01*
X002434Y004519D01*
X002584Y004669D01*
X002734Y004986D02*
X002734Y005136D01*
X003035Y005437D01*
X003335Y005437D02*
X002734Y005437D01*
X002584Y005757D02*
X003185Y006357D01*
X003335Y006207D01*
X003335Y005907D01*
X003185Y005757D01*
X002584Y005757D01*
X002434Y005907D01*
X002434Y006207D01*
X002584Y006357D01*
X003185Y006357D01*
X003185Y006668D02*
X003335Y006668D01*
X003335Y006818D01*
X003185Y006818D01*
X003185Y006668D01*
X003335Y007138D02*
X003335Y007739D01*
X003335Y007438D02*
X002434Y007438D01*
X002734Y007739D01*
X002734Y008059D02*
X003335Y008359D01*
X002734Y008659D01*
X002734Y009894D02*
X002734Y010194D01*
X002584Y010044D02*
X003185Y010044D01*
X003335Y009894D01*
X003335Y010508D02*
X003335Y010808D01*
X003335Y010658D02*
X002734Y010658D01*
X002734Y010808D01*
X002434Y010658D02*
X002284Y010658D01*
X002434Y011128D02*
X003035Y011729D01*
X002885Y011579D02*
X003335Y011128D01*
X003335Y011729D02*
X002434Y011729D01*
X002885Y012970D02*
X002734Y013120D01*
X002734Y013420D01*
X002885Y013570D01*
X003185Y013570D01*
X003335Y013420D01*
X003335Y013120D01*
X003185Y012970D01*
X002885Y012970D01*
X002885Y013890D02*
X003335Y013890D01*
X002885Y013890D02*
X002734Y014041D01*
X002734Y014491D01*
X003335Y014491D01*
X003335Y014811D02*
X002885Y014811D01*
X002734Y014961D01*
X002734Y015262D01*
X003035Y015262D02*
X003185Y015412D01*
X003335Y015262D01*
X003335Y014811D01*
X003035Y014811D02*
X003035Y015262D01*
X003335Y015732D02*
X002434Y015732D01*
X002434Y016333D02*
X003335Y015732D01*
X003335Y016333D02*
X002434Y016333D01*
X002885Y017574D02*
X003035Y017574D01*
X003035Y018174D01*
X003185Y018174D02*
X002885Y018174D01*
X002734Y018024D01*
X002734Y017724D01*
X002885Y017574D01*
X003335Y017724D02*
X003335Y018024D01*
X003185Y018174D01*
X003335Y018488D02*
X003335Y018788D01*
X003335Y018638D02*
X002734Y018638D01*
X002734Y018788D01*
X002734Y019108D02*
X002734Y019559D01*
X002885Y019709D01*
X003185Y019709D01*
X003335Y019559D01*
X003335Y019108D01*
X003485Y019108D02*
X002734Y019108D01*
X002434Y018638D02*
X002284Y018638D01*
X003485Y019108D02*
X003635Y019258D01*
X003635Y019409D01*
X003335Y020022D02*
X003335Y020323D01*
X003335Y020173D02*
X002734Y020173D01*
X002734Y020323D01*
X002434Y020173D02*
X002284Y020173D01*
X002885Y020643D02*
X003035Y020643D01*
X003035Y021243D01*
X003185Y021243D02*
X002885Y021243D01*
X002734Y021093D01*
X002734Y020793D01*
X002885Y020643D01*
X003335Y020793D02*
X003335Y021093D01*
X003185Y021243D01*
X003185Y021564D02*
X002885Y021564D01*
X002885Y021864D01*
X002584Y022164D02*
X003185Y022164D01*
X003335Y022014D01*
X003335Y021714D01*
X003185Y021564D01*
X002584Y021564D02*
X002434Y021714D01*
X002434Y022014D01*
X002584Y022164D01*
X002885Y022484D02*
X002734Y022635D01*
X002734Y023085D01*
X002434Y023085D02*
X003335Y023085D01*
X003335Y022635D01*
X003185Y022484D01*
X002885Y022484D01*
X035859Y004135D02*
X036460Y004135D01*
X039234Y004135D02*
X039835Y004135D01*
X039535Y004436D02*
X039535Y003835D01*
D12*
X029569Y024285D02*
X029419Y024435D01*
X029494Y024435D01*
X029494Y024510D01*
X029419Y024510D01*
X029419Y024435D01*
X029112Y024435D02*
X029112Y024885D01*
X029262Y024885D02*
X028962Y024885D01*
X028802Y024660D02*
X028802Y024510D01*
X028727Y024435D01*
X028577Y024435D01*
X028502Y024510D01*
X028502Y024660D01*
X028577Y024735D01*
X028727Y024735D01*
X028802Y024660D01*
X028341Y024585D02*
X028116Y024735D01*
X027958Y024735D02*
X027958Y024510D01*
X027883Y024435D01*
X027658Y024435D01*
X027658Y024360D02*
X027733Y024285D01*
X027808Y024285D01*
X027658Y024360D02*
X027658Y024735D01*
X027497Y024660D02*
X027497Y024510D01*
X027422Y024435D01*
X027272Y024435D01*
X027197Y024510D01*
X027197Y024660D01*
X027272Y024735D01*
X027422Y024735D01*
X027497Y024660D01*
X027958Y025085D02*
X027808Y025235D01*
X027883Y025235D01*
X027883Y025310D01*
X027808Y025310D01*
X027808Y025235D01*
X027651Y025235D02*
X027426Y025235D01*
X027351Y025310D01*
X027351Y025610D01*
X027426Y025685D01*
X027651Y025685D01*
X027651Y025235D01*
X028115Y025235D02*
X028265Y025235D01*
X028190Y025235D02*
X028190Y025535D01*
X028265Y025535D01*
X028190Y025685D02*
X028190Y025760D01*
X028266Y026035D02*
X028341Y026110D01*
X028266Y026185D01*
X028041Y026185D01*
X028041Y026260D02*
X028041Y026035D01*
X028266Y026035D01*
X028502Y026035D02*
X028502Y026260D01*
X028577Y026335D01*
X028727Y026335D01*
X028802Y026260D01*
X028959Y026335D02*
X029109Y026335D01*
X029034Y026410D02*
X029034Y026110D01*
X028959Y026035D01*
X028802Y026035D02*
X028802Y026485D01*
X028266Y026335D02*
X028116Y026335D01*
X028041Y026260D01*
X027881Y026335D02*
X027881Y026035D01*
X027581Y026035D02*
X027581Y026260D01*
X027656Y026335D01*
X027881Y026335D01*
X027421Y026185D02*
X027195Y026035D01*
X027037Y026035D02*
X026812Y026035D01*
X026737Y026110D01*
X026812Y026185D01*
X026962Y026185D01*
X027037Y026260D01*
X026962Y026335D01*
X026737Y026335D01*
X027195Y026335D02*
X027421Y026185D01*
X027421Y026035D02*
X027421Y026485D01*
X027115Y025535D02*
X026965Y025535D01*
X026890Y025460D01*
X026890Y025235D01*
X027115Y025235D01*
X027190Y025310D01*
X027115Y025385D01*
X026890Y025385D01*
X026730Y025235D02*
X026730Y025535D01*
X026505Y025535D01*
X026430Y025460D01*
X026430Y025235D01*
X026270Y025085D02*
X026120Y025235D01*
X026195Y025235D01*
X026195Y025310D01*
X026120Y025310D01*
X026120Y025235D01*
X025963Y025235D02*
X025963Y025685D01*
X025738Y025685D01*
X025663Y025610D01*
X025663Y025460D01*
X025738Y025385D01*
X025963Y025385D01*
X025502Y025385D02*
X025202Y025385D01*
X025202Y025460D01*
X025277Y025535D01*
X025427Y025535D01*
X025502Y025460D01*
X025502Y025310D01*
X025427Y025235D01*
X025277Y025235D01*
X024967Y025310D02*
X024892Y025235D01*
X024967Y025310D02*
X024967Y025610D01*
X025042Y025535D02*
X024892Y025535D01*
X024735Y025460D02*
X024660Y025535D01*
X024510Y025535D01*
X024435Y025460D01*
X024435Y025385D01*
X024735Y025385D01*
X024735Y025310D02*
X024735Y025460D01*
X024735Y025310D02*
X024660Y025235D01*
X024510Y025235D01*
X024275Y025235D02*
X024275Y025535D01*
X024275Y025385D02*
X024125Y025535D01*
X024049Y025535D01*
X023816Y025310D02*
X023816Y025235D01*
X023741Y025235D01*
X023741Y025310D01*
X023816Y025310D01*
X023741Y025235D02*
X023891Y025085D01*
X023584Y025310D02*
X023509Y025235D01*
X023434Y025235D01*
X023359Y025310D01*
X023359Y025685D01*
X023434Y025685D02*
X023284Y025685D01*
X023277Y025885D02*
X023127Y026035D01*
X023202Y026035D01*
X023202Y026110D01*
X023127Y026110D01*
X023127Y026035D01*
X022970Y026035D02*
X022970Y026485D01*
X022745Y026485D01*
X022670Y026410D01*
X022670Y026260D01*
X022745Y026185D01*
X022970Y026185D01*
X022820Y026185D02*
X022670Y026035D01*
X022510Y026110D02*
X022435Y026035D01*
X022285Y026035D01*
X022210Y026110D01*
X022210Y026260D01*
X022285Y026335D01*
X022435Y026335D01*
X022510Y026260D01*
X022510Y026110D01*
X022049Y026035D02*
X021824Y026035D01*
X021749Y026110D01*
X021749Y026260D01*
X021824Y026335D01*
X022049Y026335D01*
X022049Y026485D02*
X022049Y026035D01*
X021589Y025885D02*
X021439Y026035D01*
X021514Y026035D01*
X021514Y026110D01*
X021439Y026110D01*
X021439Y026035D01*
X021282Y026110D02*
X021207Y026035D01*
X021132Y026035D01*
X021057Y026110D01*
X021057Y026485D01*
X021132Y026485D02*
X020982Y026485D01*
X020822Y026335D02*
X020822Y026110D01*
X020747Y026035D01*
X020521Y026035D01*
X020521Y026335D01*
X020361Y026335D02*
X020361Y026035D01*
X020361Y026185D02*
X020211Y026335D01*
X020136Y026335D01*
X019978Y026260D02*
X019978Y026110D01*
X019903Y026035D01*
X019677Y026035D01*
X019677Y025960D02*
X019677Y026335D01*
X019903Y026335D01*
X019978Y026260D01*
X019828Y025885D02*
X019752Y025885D01*
X019677Y025960D01*
X019517Y026110D02*
X019442Y026035D01*
X019292Y026035D01*
X019217Y026185D02*
X019517Y026185D01*
X019517Y026110D02*
X019517Y026260D01*
X019442Y026335D01*
X019292Y026335D01*
X019217Y026260D01*
X019217Y026185D01*
X019057Y026035D02*
X019057Y026335D01*
X018832Y026335D01*
X018757Y026260D01*
X018757Y026035D01*
X018596Y025885D02*
X018446Y026035D01*
X018521Y026035D01*
X018521Y026110D01*
X018446Y026110D01*
X018446Y026035D01*
X018290Y026110D02*
X018215Y026035D01*
X018064Y026035D01*
X017989Y026110D01*
X017989Y026185D01*
X018064Y026260D01*
X018215Y026260D01*
X018290Y026335D01*
X018290Y026410D01*
X018215Y026485D01*
X018064Y026485D01*
X017989Y026410D01*
X017829Y026260D02*
X017754Y026335D01*
X017604Y026335D01*
X017529Y026260D01*
X017529Y026185D01*
X017829Y026185D01*
X017829Y026110D02*
X017829Y026260D01*
X017829Y026110D02*
X017754Y026035D01*
X017604Y026035D01*
X017369Y026110D02*
X017294Y026035D01*
X017069Y026035D01*
X017069Y026260D01*
X017144Y026335D01*
X017294Y026335D01*
X017294Y026185D02*
X017069Y026185D01*
X016908Y026035D02*
X016908Y026335D01*
X016683Y026335D01*
X016608Y026260D01*
X016608Y026035D01*
X016448Y025885D02*
X016298Y026035D01*
X016373Y026035D01*
X016373Y026110D01*
X016298Y026110D01*
X016298Y026035D01*
X016141Y026035D02*
X016141Y026485D01*
X015916Y026485D01*
X015841Y026410D01*
X015841Y026260D01*
X015916Y026185D01*
X016141Y026185D01*
X015991Y026185D02*
X015841Y026035D01*
X015681Y026110D02*
X015606Y026035D01*
X015455Y026035D01*
X015380Y026110D01*
X015380Y026260D01*
X015455Y026335D01*
X015606Y026335D01*
X015681Y026260D01*
X015681Y026110D01*
X015220Y026035D02*
X014995Y026035D01*
X014920Y026110D01*
X014920Y026260D01*
X014995Y026335D01*
X015220Y026335D01*
X015220Y026485D02*
X015220Y026035D01*
X014760Y026035D02*
X014610Y026035D01*
X014685Y026035D02*
X014685Y026335D01*
X014760Y026335D01*
X014685Y026485D02*
X014685Y026560D01*
X014453Y026335D02*
X014228Y026335D01*
X014153Y026260D01*
X014153Y026035D01*
X013993Y025885D02*
X013842Y026035D01*
X013918Y026035D01*
X013918Y026110D01*
X013842Y026110D01*
X013842Y026035D01*
X013686Y026035D02*
X013686Y026335D01*
X013536Y026485D01*
X013385Y026335D01*
X013385Y026035D01*
X013225Y026035D02*
X013225Y026485D01*
X013000Y026335D02*
X013225Y026185D01*
X013000Y026035D01*
X012842Y026035D02*
X012691Y026035D01*
X012767Y026035D02*
X012767Y026335D01*
X012842Y026335D01*
X012767Y026485D02*
X012767Y026560D01*
X012535Y026485D02*
X012535Y026035D01*
X012309Y026035D01*
X012234Y026110D01*
X012234Y026260D01*
X012309Y026335D01*
X012535Y026335D01*
X012074Y026110D02*
X011999Y026185D01*
X011774Y026185D01*
X011774Y026260D02*
X011774Y026035D01*
X011999Y026035D01*
X012074Y026110D01*
X011999Y026335D02*
X011849Y026335D01*
X011774Y026260D01*
X011539Y026110D02*
X011539Y026035D01*
X011464Y026035D01*
X011464Y026110D01*
X011539Y026110D01*
X011464Y026035D02*
X011614Y025885D01*
X011464Y025685D02*
X011539Y025610D01*
X011539Y025235D01*
X011774Y025235D02*
X011999Y025235D01*
X012074Y025310D01*
X011999Y025385D01*
X011774Y025385D01*
X011774Y025460D02*
X011774Y025235D01*
X011774Y025460D02*
X011849Y025535D01*
X011999Y025535D01*
X012234Y025610D02*
X012309Y025685D01*
X012460Y025685D01*
X012535Y025610D01*
X012535Y025310D01*
X012460Y025235D01*
X012309Y025235D01*
X012234Y025310D01*
X012695Y025310D02*
X012695Y025460D01*
X012770Y025535D01*
X012995Y025535D01*
X012995Y025685D02*
X012995Y025235D01*
X012770Y025235D01*
X012695Y025310D01*
X012920Y024960D02*
X012920Y024885D01*
X012920Y024735D02*
X012920Y024435D01*
X012995Y024435D02*
X012845Y024435D01*
X012613Y024510D02*
X012538Y024435D01*
X012613Y024510D02*
X012613Y024810D01*
X012688Y024735D02*
X012538Y024735D01*
X012306Y024510D02*
X012306Y024435D01*
X012231Y024435D01*
X012231Y024510D01*
X012306Y024510D01*
X012231Y024435D02*
X012381Y024285D01*
X012074Y024510D02*
X011999Y024435D01*
X011849Y024435D01*
X011774Y024510D01*
X011774Y024585D01*
X011849Y024660D01*
X011999Y024660D01*
X012074Y024735D01*
X012074Y024810D01*
X011999Y024885D01*
X011849Y024885D01*
X011774Y024810D01*
X011614Y024735D02*
X011389Y024735D01*
X011314Y024660D01*
X011314Y024510D01*
X011389Y024435D01*
X011614Y024435D01*
X011614Y024285D02*
X011614Y024735D01*
X011153Y024510D02*
X011078Y024585D01*
X010853Y024585D01*
X010853Y024660D02*
X010853Y024435D01*
X011078Y024435D01*
X011153Y024510D01*
X011078Y024735D02*
X010928Y024735D01*
X010853Y024660D01*
X010693Y024585D02*
X010543Y024735D01*
X010468Y024735D01*
X010309Y024585D02*
X010084Y024735D01*
X009926Y024660D02*
X009776Y024660D01*
X009851Y024810D02*
X009776Y024885D01*
X009851Y024810D02*
X009851Y024435D01*
X010084Y024435D02*
X010309Y024585D01*
X010309Y024435D02*
X010309Y024885D01*
X010693Y024735D02*
X010693Y024435D01*
X009619Y024510D02*
X009544Y024435D01*
X009319Y024435D01*
X009319Y024735D01*
X009158Y024735D02*
X008933Y024735D01*
X008858Y024660D01*
X008858Y024435D01*
X009158Y024435D02*
X009158Y024735D01*
X009619Y024735D02*
X009619Y024510D01*
X011082Y025235D02*
X011232Y025235D01*
X011307Y025310D01*
X011307Y025460D01*
X011232Y025535D01*
X011082Y025535D01*
X011007Y025460D01*
X011007Y025385D01*
X011307Y025385D01*
X011464Y025460D02*
X011614Y025460D01*
X011307Y026035D02*
X011307Y026335D01*
X011157Y026485D01*
X011007Y026335D01*
X011007Y026035D01*
X010847Y026035D02*
X010546Y026035D01*
X010386Y026035D02*
X010161Y026035D01*
X010086Y026110D01*
X010086Y026260D01*
X010161Y026335D01*
X010386Y026335D01*
X010386Y026485D02*
X010386Y026035D01*
X010546Y026335D02*
X010847Y026035D01*
X011007Y026260D02*
X011307Y026260D01*
X010847Y026335D02*
X010546Y026335D01*
X009926Y026335D02*
X009926Y026110D01*
X009851Y026035D01*
X009626Y026035D01*
X009626Y025960D02*
X009701Y025885D01*
X009776Y025885D01*
X009626Y025960D02*
X009626Y026335D01*
X013155Y025460D02*
X013155Y025235D01*
X013380Y025235D01*
X013455Y025310D01*
X013380Y025385D01*
X013155Y025385D01*
X013155Y025460D02*
X013230Y025535D01*
X013380Y025535D01*
X013616Y025685D02*
X013916Y025685D01*
X013916Y025235D01*
X014073Y025235D02*
X014148Y025235D01*
X014148Y025310D01*
X014073Y025310D01*
X014073Y025235D01*
X014223Y025085D01*
X014381Y025235D02*
X014606Y025385D01*
X014381Y025535D01*
X014606Y025685D02*
X014606Y025235D01*
X014765Y025535D02*
X014840Y025535D01*
X014990Y025385D01*
X014990Y025235D02*
X014990Y025535D01*
X015150Y025460D02*
X015225Y025535D01*
X015375Y025535D01*
X015450Y025460D01*
X015450Y025310D01*
X015375Y025235D01*
X015225Y025235D01*
X015150Y025310D01*
X015150Y025460D01*
X015611Y025535D02*
X015611Y025310D01*
X015686Y025235D01*
X015761Y025310D01*
X015836Y025235D01*
X015911Y025310D01*
X015911Y025535D01*
X016068Y025535D02*
X016218Y025535D01*
X016143Y025610D02*
X016143Y025310D01*
X016068Y025235D01*
X016375Y025460D02*
X016525Y025460D01*
X016685Y025460D02*
X016760Y025535D01*
X016910Y025535D01*
X016985Y025460D01*
X016985Y025310D01*
X016910Y025235D01*
X016760Y025235D01*
X016685Y025310D01*
X016685Y025460D01*
X016450Y025610D02*
X016450Y025235D01*
X016450Y025610D02*
X016375Y025685D01*
X017145Y025235D02*
X017446Y025235D01*
X017446Y025685D01*
X017602Y025310D02*
X017677Y025310D01*
X017677Y025235D01*
X017602Y025235D01*
X017602Y025310D01*
X017602Y025235D02*
X017752Y025085D01*
X017913Y025235D02*
X017913Y025460D01*
X017988Y025535D01*
X018063Y025460D01*
X018063Y025235D01*
X018213Y025235D02*
X018213Y025535D01*
X018138Y025535D01*
X018063Y025460D01*
X018373Y025460D02*
X018448Y025535D01*
X018598Y025535D01*
X018673Y025460D01*
X018673Y025310D01*
X018598Y025235D01*
X018448Y025235D01*
X018373Y025310D01*
X018373Y025460D01*
X018833Y025535D02*
X019059Y025535D01*
X019134Y025460D01*
X019134Y025310D01*
X019059Y025235D01*
X018833Y025235D01*
X019294Y025235D02*
X019294Y025685D01*
X019294Y025535D02*
X019519Y025535D01*
X019594Y025460D01*
X019594Y025310D01*
X019519Y025235D01*
X019294Y025235D01*
X019754Y025385D02*
X020054Y025385D01*
X020054Y025310D02*
X020054Y025460D01*
X019979Y025535D01*
X019829Y025535D01*
X019754Y025460D01*
X019754Y025385D01*
X019829Y025235D02*
X019979Y025235D01*
X020054Y025310D01*
X020215Y025235D02*
X020215Y025685D01*
X020365Y025535D01*
X020515Y025685D01*
X020515Y025235D01*
X020672Y025235D02*
X020822Y025085D01*
X020747Y025235D02*
X020672Y025235D01*
X020672Y025310D01*
X020747Y025310D01*
X020747Y025235D01*
X020982Y025235D02*
X020982Y025460D01*
X021057Y025535D01*
X021207Y025535D01*
X021282Y025460D01*
X021442Y025460D02*
X021442Y025310D01*
X021517Y025235D01*
X021743Y025235D01*
X021743Y025085D02*
X021743Y025535D01*
X021517Y025535D01*
X021442Y025460D01*
X021282Y025685D02*
X021282Y025235D01*
X021903Y025385D02*
X022203Y025385D01*
X022203Y025310D02*
X022203Y025460D01*
X022128Y025535D01*
X021978Y025535D01*
X021903Y025460D01*
X021903Y025385D01*
X021978Y025235D02*
X022128Y025235D01*
X022203Y025310D01*
X022363Y025310D02*
X022438Y025385D01*
X022588Y025385D01*
X022663Y025460D01*
X022588Y025535D01*
X022363Y025535D01*
X022363Y025310D02*
X022438Y025235D01*
X022663Y025235D01*
X022823Y025310D02*
X022823Y025460D01*
X022898Y025535D01*
X023049Y025535D01*
X023124Y025460D01*
X023124Y025310D01*
X023049Y025235D01*
X022898Y025235D01*
X022823Y025310D01*
X022822Y024735D02*
X022747Y024660D01*
X022747Y024510D01*
X022822Y024435D01*
X023047Y024435D01*
X023047Y024285D02*
X023047Y024735D01*
X022822Y024735D01*
X022511Y024735D02*
X022361Y024735D01*
X022286Y024660D01*
X022286Y024435D01*
X022511Y024435D01*
X022587Y024510D01*
X022511Y024585D01*
X022286Y024585D01*
X022126Y024510D02*
X022051Y024435D01*
X021826Y024435D01*
X021666Y024510D02*
X021666Y024660D01*
X021591Y024735D01*
X021441Y024735D01*
X021366Y024660D01*
X021366Y024585D01*
X021666Y024585D01*
X021666Y024510D02*
X021591Y024435D01*
X021441Y024435D01*
X021205Y024285D02*
X021055Y024435D01*
X021130Y024435D01*
X021130Y024510D01*
X021055Y024510D01*
X021055Y024435D01*
X020898Y024510D02*
X020823Y024435D01*
X020673Y024435D01*
X020598Y024510D01*
X020438Y024435D02*
X020438Y024885D01*
X020213Y024885D01*
X020138Y024810D01*
X020138Y024660D01*
X020213Y024585D01*
X020438Y024585D01*
X020288Y024585D02*
X020138Y024435D01*
X019978Y024435D02*
X019978Y024735D01*
X019828Y024885D01*
X019677Y024735D01*
X019677Y024435D01*
X019517Y024510D02*
X019442Y024435D01*
X019292Y024435D01*
X019217Y024510D01*
X019217Y024585D01*
X019292Y024660D01*
X019442Y024660D01*
X019517Y024735D01*
X019517Y024810D01*
X019442Y024885D01*
X019292Y024885D01*
X019217Y024810D01*
X019057Y024885D02*
X019057Y024435D01*
X019057Y024660D02*
X018757Y024660D01*
X018757Y024885D02*
X018757Y024435D01*
X018136Y024510D02*
X018061Y024435D01*
X017911Y024435D01*
X017836Y024510D01*
X017836Y024585D01*
X017911Y024660D01*
X018061Y024660D01*
X018136Y024735D01*
X018136Y024810D01*
X018061Y024885D01*
X017911Y024885D01*
X017836Y024810D01*
X017676Y024735D02*
X017451Y024735D01*
X017375Y024660D01*
X017375Y024510D01*
X017451Y024435D01*
X017676Y024435D01*
X017676Y024285D02*
X017676Y024735D01*
X017215Y024510D02*
X017140Y024585D01*
X016915Y024585D01*
X016915Y024660D02*
X016915Y024435D01*
X017140Y024435D01*
X017215Y024510D01*
X017140Y024735D02*
X016990Y024735D01*
X016915Y024660D01*
X016755Y024660D02*
X016755Y024510D01*
X016680Y024435D01*
X016455Y024435D01*
X016295Y024510D02*
X016295Y024660D01*
X016219Y024735D01*
X016069Y024735D01*
X015994Y024660D01*
X015994Y024585D01*
X016295Y024585D01*
X016295Y024510D02*
X016219Y024435D01*
X016069Y024435D01*
X015834Y024285D02*
X015684Y024435D01*
X015759Y024435D01*
X015759Y024510D01*
X015684Y024510D01*
X015684Y024435D01*
X015527Y024435D02*
X015527Y024735D01*
X015377Y024885D01*
X015227Y024735D01*
X015227Y024435D01*
X015067Y024510D02*
X015067Y024660D01*
X014992Y024735D01*
X014767Y024735D01*
X014767Y024885D02*
X014767Y024435D01*
X014992Y024435D01*
X015067Y024510D01*
X015227Y024660D02*
X015527Y024660D01*
X016455Y024735D02*
X016680Y024735D01*
X016755Y024660D01*
X017369Y026110D02*
X017294Y026185D01*
X019677Y024660D02*
X019978Y024660D01*
X020598Y024810D02*
X020673Y024885D01*
X020823Y024885D01*
X020898Y024810D01*
X020898Y024510D01*
X021826Y024735D02*
X022051Y024735D01*
X022126Y024660D01*
X022126Y024510D01*
X023207Y024510D02*
X023282Y024435D01*
X023432Y024435D01*
X023507Y024510D01*
X023432Y024660D02*
X023282Y024660D01*
X023207Y024585D01*
X023207Y024510D01*
X023432Y024660D02*
X023507Y024735D01*
X023507Y024810D01*
X023432Y024885D01*
X023282Y024885D01*
X023207Y024810D01*
X024126Y024735D02*
X024201Y024735D01*
X024351Y024585D01*
X024351Y024435D02*
X024351Y024735D01*
X024512Y024660D02*
X024512Y024585D01*
X024812Y024585D01*
X024812Y024510D02*
X024812Y024660D01*
X024737Y024735D01*
X024587Y024735D01*
X024512Y024660D01*
X024587Y024435D02*
X024737Y024435D01*
X024812Y024510D01*
X024970Y024435D02*
X025195Y024585D01*
X024970Y024735D01*
X025195Y024885D02*
X025195Y024435D01*
X025356Y024435D02*
X025581Y024435D01*
X025656Y024510D01*
X025656Y024660D01*
X025581Y024735D01*
X025356Y024735D01*
X025816Y024660D02*
X025816Y024435D01*
X026041Y024435D01*
X026116Y024510D01*
X026041Y024585D01*
X025816Y024585D01*
X025816Y024660D02*
X025891Y024735D01*
X026041Y024735D01*
X026276Y024660D02*
X026577Y024660D01*
X026577Y024435D02*
X026577Y024885D01*
X026276Y024885D02*
X026276Y024435D01*
X028116Y024435D02*
X028341Y024585D01*
X028341Y024435D02*
X028341Y024885D01*
X028500Y025235D02*
X028425Y025310D01*
X028425Y025460D01*
X028500Y025535D01*
X028650Y025535D01*
X028725Y025460D01*
X028725Y025310D01*
X028650Y025235D01*
X028500Y025235D01*
X028960Y025310D02*
X028960Y025685D01*
X029035Y025685D02*
X028885Y025685D01*
X028960Y025310D02*
X029035Y025235D01*
X029110Y025235D01*
X029186Y025310D01*
X029342Y025310D02*
X029417Y025310D01*
X029417Y025235D01*
X029342Y025235D01*
X029342Y025310D01*
X029342Y025235D02*
X029492Y025085D01*
X029653Y025235D02*
X029653Y025535D01*
X029953Y025535D02*
X029953Y025310D01*
X029878Y025235D01*
X029653Y025235D01*
X030111Y025535D02*
X030186Y025535D01*
X030337Y025385D01*
X030337Y025235D02*
X030337Y025535D01*
X030497Y025460D02*
X030497Y025385D01*
X030797Y025385D01*
X030797Y025310D02*
X030797Y025460D01*
X030722Y025535D01*
X030572Y025535D01*
X030497Y025460D01*
X030572Y025235D02*
X030722Y025235D01*
X030797Y025310D01*
X030957Y025235D02*
X031182Y025235D01*
X031257Y025310D01*
X031257Y025460D01*
X031182Y025535D01*
X030957Y025535D01*
X030957Y025160D01*
X031032Y025085D01*
X031107Y025085D01*
X031182Y024960D02*
X031182Y024885D01*
X031182Y024735D02*
X031182Y024435D01*
X031257Y024435D02*
X031107Y024435D01*
X030950Y024510D02*
X030950Y024660D01*
X030875Y024735D01*
X030650Y024735D01*
X030415Y024735D02*
X030265Y024735D01*
X030190Y024660D01*
X030190Y024435D01*
X030415Y024435D01*
X030490Y024510D01*
X030415Y024585D01*
X030190Y024585D01*
X030030Y024435D02*
X030030Y024735D01*
X029804Y024735D01*
X029729Y024660D01*
X029729Y024435D01*
X030650Y024435D02*
X030875Y024435D01*
X030950Y024510D01*
X031182Y024735D02*
X031257Y024735D01*
X031489Y024885D02*
X031489Y024435D01*
X031564Y024435D02*
X031414Y024435D01*
X031724Y024585D02*
X032025Y024585D01*
X032025Y024510D02*
X032025Y024660D01*
X031950Y024735D01*
X031799Y024735D01*
X031724Y024660D01*
X031724Y024585D01*
X031799Y024435D02*
X031950Y024435D01*
X032025Y024510D01*
X032185Y024660D02*
X032260Y024585D01*
X032485Y024585D01*
X032485Y024435D02*
X032485Y024885D01*
X032260Y024885D01*
X032185Y024810D01*
X032185Y024660D01*
X031564Y024885D02*
X031489Y024885D01*
X031489Y025235D02*
X031489Y025535D01*
X031564Y025535D01*
X031489Y025685D02*
X031489Y025760D01*
X031489Y026035D02*
X031339Y026035D01*
X031489Y026035D02*
X031564Y026110D01*
X031564Y026260D01*
X031489Y026335D01*
X031339Y026335D01*
X031264Y026260D01*
X031264Y026185D01*
X031564Y026185D01*
X031724Y026110D02*
X031799Y026035D01*
X032025Y026035D01*
X032025Y025885D02*
X032025Y026335D01*
X031799Y026335D01*
X031724Y026260D01*
X031724Y026110D01*
X032185Y026110D02*
X032260Y026035D01*
X032410Y026035D01*
X032485Y026110D01*
X032410Y026260D02*
X032260Y026260D01*
X032185Y026185D01*
X032185Y026110D01*
X032410Y026260D02*
X032485Y026335D01*
X032485Y026410D01*
X032410Y026485D01*
X032260Y026485D01*
X032185Y026410D01*
X031104Y026260D02*
X031104Y026110D01*
X031029Y026035D01*
X030804Y026035D01*
X030643Y026035D02*
X030493Y026035D01*
X030568Y026035D02*
X030568Y026335D01*
X030643Y026335D01*
X030804Y026335D02*
X031029Y026335D01*
X031104Y026260D01*
X030568Y026485D02*
X030568Y026560D01*
X030261Y026335D02*
X030111Y026335D01*
X030036Y026260D01*
X030036Y026035D01*
X030261Y026035D01*
X030337Y026110D01*
X030261Y026185D01*
X030036Y026185D01*
X029876Y026035D02*
X029726Y026035D01*
X029801Y026035D02*
X029801Y026485D01*
X029876Y026485D01*
X031414Y025235D02*
X031564Y025235D01*
X031724Y025235D02*
X031724Y025460D01*
X031799Y025535D01*
X031950Y025535D01*
X032025Y025460D01*
X032185Y025385D02*
X032185Y025310D01*
X032260Y025235D01*
X032410Y025235D01*
X032485Y025310D01*
X032410Y025460D02*
X032260Y025460D01*
X032185Y025385D01*
X032025Y025235D02*
X032025Y025685D01*
X032185Y025610D02*
X032260Y025685D01*
X032410Y025685D01*
X032485Y025610D01*
X032485Y025535D01*
X032410Y025460D01*
X026116Y026335D02*
X025966Y026335D01*
X026041Y026410D02*
X026041Y026110D01*
X025966Y026035D01*
X025809Y026110D02*
X025734Y026035D01*
X025584Y026035D01*
X025509Y026110D01*
X025509Y026260D01*
X025584Y026335D01*
X025734Y026335D01*
X025809Y026260D01*
X025809Y026110D01*
X025349Y026110D02*
X025349Y026035D01*
X025274Y026035D01*
X025274Y026110D01*
X025349Y026110D01*
X025349Y026260D02*
X025349Y026335D01*
X025274Y026335D01*
X025274Y026260D01*
X025349Y026260D01*
X024658Y026110D02*
X024583Y026035D01*
X024508Y026035D01*
X024433Y026110D01*
X024433Y026485D01*
X024508Y026485D02*
X024358Y026485D01*
X024198Y026260D02*
X024198Y026110D01*
X024123Y026035D01*
X023973Y026035D01*
X023898Y026110D01*
X023898Y026260D01*
X023973Y026335D01*
X024123Y026335D01*
X024198Y026260D01*
X023738Y026260D02*
X023662Y026335D01*
X023512Y026335D01*
X023437Y026260D01*
X023437Y026185D01*
X023738Y026185D01*
X023738Y026110D02*
X023738Y026260D01*
X023738Y026110D02*
X023662Y026035D01*
X023512Y026035D01*
X014606Y024510D02*
X014531Y024585D01*
X014306Y024585D01*
X014306Y024660D02*
X014306Y024435D01*
X014531Y024435D01*
X014606Y024510D01*
X014531Y024735D02*
X014381Y024735D01*
X014306Y024660D01*
X014146Y024660D02*
X013996Y024660D01*
X014071Y024810D02*
X013996Y024885D01*
X014071Y024810D02*
X014071Y024435D01*
X013839Y024435D02*
X013839Y024735D01*
X013839Y024585D02*
X013689Y024735D01*
X013614Y024735D01*
X013455Y024735D02*
X013455Y024510D01*
X013380Y024435D01*
X013155Y024435D01*
X013155Y024735D01*
X012995Y024735D02*
X012920Y024735D01*
X013766Y025460D02*
X013916Y025460D01*
X014453Y026035D02*
X014453Y026335D01*
X013686Y026260D02*
X013385Y026260D01*
D13*
X036385Y007135D02*
X037385Y007135D01*
X038385Y007135D01*
X039385Y007135D01*
X039385Y006135D01*
X038385Y006135D01*
X037385Y006135D01*
X036385Y006135D01*
X036385Y007135D01*
X037385Y007135D02*
X037385Y006135D01*
X038385Y006135D02*
X038385Y007135D01*
D14*
X037885Y007385D02*
X037885Y009635D01*
X038885Y009635D02*
X038885Y007385D01*
X036885Y007385D02*
X036885Y009635D01*
D15*
X036885Y007235D03*
X037885Y007235D03*
X038885Y007235D03*
D16*
X038885Y005935D03*
X037885Y005935D03*
X036885Y005935D03*
D17*
X039525Y006468D02*
X039525Y006537D01*
X039593Y006605D01*
X039935Y006605D01*
X039935Y006537D02*
X039935Y006674D01*
X039935Y006860D02*
X039525Y006860D01*
X039662Y006860D02*
X039662Y007066D01*
X039730Y007134D01*
X039867Y007134D01*
X039935Y007066D01*
X039935Y006860D01*
X039525Y006468D02*
X039593Y006400D01*
X039525Y007321D02*
X039525Y007594D01*
X039525Y007458D02*
X039935Y007458D01*
X039799Y007321D01*
D18*
X024075Y008616D02*
X023445Y008616D01*
X023445Y008617D02*
X023429Y008622D01*
X023413Y008630D01*
X023399Y008640D01*
X023387Y008652D01*
X023377Y008667D01*
X023370Y008683D01*
X023366Y008700D01*
X023365Y008717D01*
X023367Y008735D01*
X024075Y008617D02*
X024091Y008622D01*
X024107Y008630D01*
X024121Y008640D01*
X024133Y008652D01*
X024143Y008667D01*
X024150Y008683D01*
X024154Y008700D01*
X024155Y008717D01*
X024153Y008735D01*
X024153Y009285D02*
X024155Y009303D01*
X024154Y009320D01*
X024150Y009337D01*
X024143Y009353D01*
X024133Y009368D01*
X024121Y009380D01*
X024107Y009390D01*
X024091Y009398D01*
X024075Y009403D01*
X024075Y009404D02*
X023445Y009404D01*
X023445Y009403D02*
X023429Y009398D01*
X023413Y009390D01*
X023399Y009380D01*
X023387Y009368D01*
X023377Y009353D01*
X023370Y009337D01*
X023366Y009320D01*
X023365Y009303D01*
X023367Y009285D01*
D19*
X023718Y009540D02*
X023718Y009565D01*
X023743Y009590D01*
X023818Y009590D01*
X023818Y009540D01*
X023793Y009515D01*
X023743Y009515D01*
X023718Y009540D01*
X023768Y009640D02*
X023818Y009590D01*
X023865Y009590D02*
X023890Y009565D01*
X023965Y009565D01*
X023965Y009515D02*
X023965Y009665D01*
X023890Y009665D01*
X023865Y009640D01*
X023865Y009590D01*
X023768Y009640D02*
X023718Y009665D01*
X024012Y009665D02*
X024062Y009665D01*
X024037Y009665D02*
X024037Y009540D01*
X024062Y009515D01*
X024087Y009515D01*
X024112Y009540D01*
D20*
X020260Y013510D03*
X020210Y013510D03*
X020160Y013510D03*
X020110Y013510D03*
X020060Y013510D03*
X020010Y013510D03*
X019960Y013510D03*
X019910Y013510D03*
X019860Y013510D03*
X019810Y013510D03*
X019760Y013510D03*
X019710Y013510D03*
X019660Y013510D03*
X019610Y013510D03*
X019560Y013510D03*
X019510Y013510D03*
X019460Y013510D03*
X019410Y013510D03*
X019360Y013510D03*
X019310Y013510D03*
X019260Y013510D03*
X019210Y013510D03*
X019160Y013510D03*
X019110Y013510D03*
X019060Y013510D03*
X019010Y013510D03*
X018960Y013510D03*
X018910Y013510D03*
X018860Y013510D03*
X018810Y013510D03*
X018760Y013510D03*
X008260Y013510D03*
X008210Y013510D03*
X008160Y013510D03*
X008110Y013510D03*
X008060Y013510D03*
X008010Y013510D03*
X007960Y013510D03*
X007910Y013510D03*
X007860Y013510D03*
X007810Y013510D03*
X007760Y013510D03*
X007710Y013510D03*
X007660Y013510D03*
X007610Y013510D03*
X007560Y013510D03*
X007510Y013510D03*
X007460Y013510D03*
X007410Y013510D03*
X007360Y013510D03*
X007310Y013510D03*
X007260Y013510D03*
X007210Y013510D03*
X007160Y013510D03*
D21*
X010410Y018310D03*
X013160Y018310D03*
X018710Y018310D03*
X012010Y008710D03*
D22*
X009060Y011285D03*
X018710Y011285D03*
D23*
X012260Y008585D03*
X012210Y008585D03*
X010260Y018435D03*
X016510Y018435D03*
X018660Y018435D03*
D24*
X018660Y014710D03*
X013610Y012460D03*
D25*
X014560Y012110D03*
X014610Y012110D03*
X014660Y012110D03*
X014710Y012110D03*
X014760Y012110D03*
X014810Y012110D03*
X014860Y012110D03*
X014910Y012110D03*
X014960Y012110D03*
X015010Y012110D03*
X015060Y012110D03*
X015110Y012110D03*
X015160Y012110D03*
X015210Y012110D03*
X015260Y012110D03*
X015310Y012110D03*
X015360Y012110D03*
X015410Y012110D03*
X015460Y012110D03*
X015510Y012110D03*
X015560Y012110D03*
X015610Y012110D03*
X015660Y012110D03*
X015710Y012110D03*
X015760Y012110D03*
X015810Y012110D03*
X015860Y012110D03*
X015910Y012110D03*
X015960Y012110D03*
X016010Y012110D03*
X016060Y012110D03*
X016110Y012110D03*
X016160Y012110D03*
X016210Y012110D03*
X016260Y012110D03*
X016310Y012110D03*
X016360Y012110D03*
X016410Y012110D03*
X016460Y012110D03*
X016510Y012110D03*
X016560Y012110D03*
X016610Y012110D03*
X016660Y012110D03*
X016710Y012110D03*
X016760Y012110D03*
X016810Y012110D03*
X016860Y012110D03*
X016910Y012110D03*
X016960Y012110D03*
X017010Y012110D03*
X017060Y012110D03*
X017110Y012110D03*
X017160Y012110D03*
X017210Y012110D03*
X017260Y012110D03*
X017310Y012110D03*
X017360Y012110D03*
X017410Y012110D03*
X017460Y012110D03*
X017510Y012110D03*
X017560Y012110D03*
X017610Y012110D03*
X017660Y012110D03*
X017710Y012110D03*
X017760Y012110D03*
X017810Y012110D03*
X017860Y012110D03*
X017910Y012110D03*
X017960Y012110D03*
X018010Y012110D03*
X018060Y012110D03*
X018110Y012110D03*
X018160Y012110D03*
X018210Y012110D03*
X018260Y012110D03*
X018310Y012110D03*
X018360Y012110D03*
X018410Y012110D03*
X018460Y012110D03*
X018510Y012110D03*
X018560Y012110D03*
X018610Y012110D03*
X018660Y012110D03*
X017760Y014360D03*
X017710Y014360D03*
X017660Y014360D03*
X017610Y014360D03*
X017560Y014360D03*
X017510Y014360D03*
X017460Y014360D03*
X017410Y014360D03*
X017360Y014360D03*
D26*
X016760Y018610D03*
X018410Y018610D03*
X010060Y018610D03*
X012910Y008410D03*
X012960Y008410D03*
X013010Y008410D03*
X013060Y008410D03*
X013110Y008410D03*
X013160Y008410D03*
X013210Y008410D03*
X013260Y008410D03*
X013310Y008410D03*
X013360Y008410D03*
X013410Y008410D03*
X013460Y008410D03*
X013510Y008410D03*
X013560Y008410D03*
X013610Y008410D03*
X013660Y008410D03*
X013710Y008410D03*
X013760Y008410D03*
X013810Y008410D03*
X013860Y008410D03*
X013910Y008410D03*
X013960Y008410D03*
X014010Y008410D03*
X014060Y008410D03*
X014110Y008410D03*
X014160Y008410D03*
X014210Y008410D03*
X014260Y008410D03*
X014310Y008410D03*
X014360Y008410D03*
X014410Y008410D03*
X014460Y008410D03*
X014510Y008410D03*
X014560Y008410D03*
X014610Y008410D03*
X014660Y008410D03*
X014710Y008410D03*
X014760Y008410D03*
X014810Y008410D03*
X014860Y008410D03*
X014910Y008410D03*
X014960Y008410D03*
X015010Y008410D03*
X015060Y008410D03*
X015110Y008410D03*
X015160Y008410D03*
X015210Y008410D03*
X015260Y008410D03*
X015310Y008410D03*
X015360Y008410D03*
X015410Y008410D03*
X015460Y008410D03*
X015510Y008410D03*
X015560Y008410D03*
X015610Y008410D03*
X015660Y008410D03*
X015710Y008410D03*
X015760Y008410D03*
X015810Y008410D03*
X015860Y008410D03*
X015910Y008410D03*
X015960Y008410D03*
X016010Y008410D03*
X016060Y008410D03*
X016110Y008410D03*
X016160Y008410D03*
X016210Y008410D03*
X016260Y008410D03*
X016310Y008410D03*
X016360Y008410D03*
X016410Y008410D03*
X016460Y008410D03*
X016510Y008410D03*
X016560Y008410D03*
X016610Y008410D03*
X016660Y008410D03*
X016710Y008410D03*
X016760Y008410D03*
X016810Y008410D03*
X016860Y008410D03*
X016910Y008410D03*
X016960Y008410D03*
X017010Y008410D03*
X017060Y008410D03*
X017110Y008410D03*
X017160Y008410D03*
X017210Y008410D03*
X017260Y008410D03*
X017310Y008410D03*
X017360Y008410D03*
X017410Y008410D03*
X017460Y008410D03*
X017510Y008410D03*
X017560Y008410D03*
X017610Y008410D03*
X017660Y008410D03*
X017710Y008410D03*
X017760Y008410D03*
X017810Y008410D03*
X017860Y008410D03*
X017910Y008410D03*
X017960Y008410D03*
X018010Y008410D03*
X018060Y008410D03*
X018110Y008410D03*
X018160Y008410D03*
X018210Y008410D03*
X018260Y008410D03*
X018310Y008410D03*
X018360Y008410D03*
X018410Y008410D03*
X018460Y008410D03*
X018510Y008410D03*
X018560Y008410D03*
X018610Y008410D03*
X018660Y008410D03*
D27*
X012310Y008560D03*
X013010Y018460D03*
X016560Y018460D03*
X018610Y018460D03*
D28*
X018610Y014660D03*
X016560Y014660D03*
X013660Y012410D03*
D29*
X012460Y008510D03*
X012410Y008510D03*
X016610Y018510D03*
X018560Y018510D03*
D30*
X018560Y014635D03*
D31*
X018510Y018535D03*
X016660Y018535D03*
X012910Y018535D03*
X010160Y018535D03*
X012510Y008485D03*
X012560Y008485D03*
D32*
X013760Y012335D03*
X016660Y014585D03*
X018510Y014585D03*
D33*
X018460Y018585D03*
X016710Y018585D03*
X012860Y018585D03*
X012860Y008435D03*
X012810Y008435D03*
X012760Y008435D03*
X012710Y008435D03*
D34*
X013810Y012310D03*
X018460Y014560D03*
D35*
X018410Y014510D03*
X018360Y014510D03*
X016810Y014510D03*
X016760Y014510D03*
X013910Y012260D03*
D36*
X012810Y018635D03*
X016810Y018635D03*
X018310Y018635D03*
X018360Y018635D03*
D37*
X018310Y014485D03*
X016860Y014485D03*
X013960Y012235D03*
D38*
X012760Y018660D03*
X010010Y018660D03*
X016860Y018660D03*
X016910Y018660D03*
X018260Y018660D03*
D39*
X018260Y014460D03*
X018210Y014460D03*
X016960Y014460D03*
X016910Y014460D03*
X014060Y012210D03*
X014010Y012210D03*
D40*
X016960Y018685D03*
X018160Y018685D03*
X018210Y018685D03*
D41*
X018160Y014435D03*
X017010Y014435D03*
X014160Y012185D03*
X014110Y012185D03*
D42*
X012710Y018710D03*
X009960Y018710D03*
X017010Y018710D03*
X017060Y018710D03*
X018110Y018710D03*
D43*
X018110Y014410D03*
X018060Y014410D03*
X017060Y014410D03*
X014260Y012160D03*
X014210Y012160D03*
D44*
X017110Y018735D03*
X017160Y018735D03*
X017210Y018735D03*
X017260Y018735D03*
X017910Y018735D03*
X017960Y018735D03*
X018010Y018735D03*
X018060Y018735D03*
X009910Y018735D03*
D45*
X017110Y014385D03*
X017160Y014385D03*
X017210Y014385D03*
X017260Y014385D03*
X017310Y014385D03*
X017810Y014385D03*
X017860Y014385D03*
X017910Y014385D03*
X017960Y014385D03*
X018010Y014385D03*
X014510Y012135D03*
X014460Y012135D03*
X014410Y012135D03*
X014360Y012135D03*
X014310Y012135D03*
D46*
X012660Y018760D03*
X012610Y018760D03*
X012560Y018760D03*
X012510Y018760D03*
X012460Y018760D03*
X012410Y018760D03*
X012360Y018760D03*
X012310Y018760D03*
X012260Y018760D03*
X012210Y018760D03*
X012160Y018760D03*
X012110Y018760D03*
X012060Y018760D03*
X012010Y018760D03*
X011960Y018760D03*
X011910Y018760D03*
X011860Y018760D03*
X011810Y018760D03*
X011760Y018760D03*
X011710Y018760D03*
X011660Y018760D03*
X011610Y018760D03*
X011560Y018760D03*
X011510Y018760D03*
X011460Y018760D03*
X009860Y018760D03*
X009810Y018760D03*
X009760Y018760D03*
X009710Y018760D03*
X009660Y018760D03*
X009610Y018760D03*
X009560Y018760D03*
X009510Y018760D03*
X009460Y018760D03*
X009410Y018760D03*
X009360Y018760D03*
X009310Y018760D03*
X009260Y018760D03*
X009210Y018760D03*
X009160Y018760D03*
X009110Y018760D03*
X009060Y018760D03*
X009010Y018760D03*
X008960Y018760D03*
X008910Y018760D03*
X008860Y018760D03*
X008810Y018760D03*
X008760Y018760D03*
X008710Y018760D03*
X008660Y018760D03*
X008610Y018760D03*
X008560Y018760D03*
X008510Y018760D03*
X008460Y018760D03*
X008410Y018760D03*
X008360Y018760D03*
X008310Y018760D03*
X017310Y018760D03*
X017360Y018760D03*
X017410Y018760D03*
X017460Y018760D03*
X017510Y018760D03*
X017660Y018760D03*
X017710Y018760D03*
X017760Y018760D03*
X017810Y018760D03*
X017860Y018760D03*
D47*
X017610Y018785D03*
X017560Y018785D03*
D48*
X016710Y014535D03*
X013860Y012285D03*
D49*
X013710Y012360D03*
X016610Y014610D03*
D50*
X016510Y014685D03*
D51*
X016460Y018335D03*
X012060Y008685D03*
D52*
X013510Y012535D03*
X016460Y014785D03*
D53*
X016410Y018210D03*
X010510Y018210D03*
X011860Y008810D03*
D54*
X013310Y012760D03*
X016410Y014910D03*
D55*
X016360Y017035D03*
X016310Y017035D03*
X016260Y017035D03*
X016210Y017035D03*
X016160Y017035D03*
X016110Y017035D03*
X016060Y017035D03*
X016010Y017035D03*
X015960Y017035D03*
X015910Y017035D03*
X015860Y017035D03*
X015810Y017035D03*
X015760Y017035D03*
X015710Y017035D03*
X015660Y017035D03*
X015610Y017035D03*
X015560Y017035D03*
X015510Y017035D03*
X015460Y017035D03*
X015410Y017035D03*
X015360Y017035D03*
X015310Y017035D03*
X015260Y017035D03*
X015210Y017035D03*
X015160Y017035D03*
X015110Y017035D03*
X015060Y017035D03*
X015010Y017035D03*
D56*
X014960Y017060D03*
X014910Y017060D03*
X014860Y017060D03*
X014810Y017060D03*
X010560Y009960D03*
D57*
X014710Y017085D03*
X014760Y017085D03*
D58*
X014660Y017110D03*
X010610Y009910D03*
D59*
X014560Y017135D03*
X014610Y017135D03*
D60*
X014510Y017160D03*
X010660Y009860D03*
D61*
X010710Y009835D03*
X014460Y017185D03*
D62*
X014410Y017210D03*
D63*
X014360Y017260D03*
D64*
X014310Y017310D03*
D65*
X014260Y017335D03*
X010860Y009685D03*
D66*
X014210Y017385D03*
D67*
X014160Y017435D03*
X011410Y017435D03*
D68*
X014110Y017485D03*
D69*
X014060Y017535D03*
X011110Y009485D03*
D70*
X011260Y017560D03*
X014010Y017560D03*
D71*
X013960Y017610D03*
X011210Y017610D03*
D72*
X011160Y017660D03*
X013910Y017660D03*
D73*
X013860Y017710D03*
X011310Y009310D03*
D74*
X011060Y017735D03*
X013810Y017735D03*
D75*
X013760Y017785D03*
X011010Y017785D03*
D76*
X010960Y017835D03*
X013710Y017835D03*
D77*
X013660Y017885D03*
X011510Y009135D03*
D78*
X010860Y017910D03*
X013610Y017910D03*
D79*
X013560Y017960D03*
X010810Y017960D03*
D80*
X013560Y012510D03*
D81*
X013510Y018010D03*
X010760Y018010D03*
D82*
X013460Y018060D03*
X011710Y008960D03*
D83*
X013460Y012610D03*
D84*
X013410Y018085D03*
X010660Y018085D03*
D85*
X013410Y012660D03*
D86*
X013360Y018135D03*
X010610Y018135D03*
D87*
X013360Y012735D03*
D88*
X013310Y018185D03*
X010560Y018185D03*
D89*
X013260Y018235D03*
X011910Y008785D03*
D90*
X013260Y012835D03*
D91*
X011960Y008735D03*
X013210Y018285D03*
D92*
X013210Y012885D03*
D93*
X013160Y012960D03*
D94*
X013110Y018360D03*
X010360Y018360D03*
D95*
X013110Y013035D03*
D96*
X012160Y008610D03*
X013060Y018410D03*
D97*
X013060Y013060D03*
D98*
X013010Y013135D03*
D99*
X012360Y008535D03*
X012960Y018485D03*
X010210Y018485D03*
D100*
X011610Y015560D03*
X011810Y015210D03*
X012010Y014860D03*
X012060Y014760D03*
X012210Y014510D03*
X012260Y014410D03*
X012410Y014160D03*
X012460Y014060D03*
X012610Y013810D03*
X012660Y013710D03*
X012810Y013460D03*
X012860Y013360D03*
X012910Y013310D03*
X012960Y013210D03*
D101*
X012760Y013535D03*
X012710Y013635D03*
X012560Y013885D03*
X012510Y013985D03*
X012360Y014235D03*
X012310Y014335D03*
X012160Y014585D03*
X012110Y014685D03*
X011960Y014935D03*
X011910Y015035D03*
X011860Y015135D03*
X011760Y015285D03*
X011710Y015385D03*
X011660Y015485D03*
X011560Y015635D03*
X011510Y015735D03*
X011460Y015835D03*
D102*
X010110Y018560D03*
X012610Y008460D03*
X012660Y008460D03*
D103*
X012110Y008635D03*
X010310Y018385D03*
D104*
X011810Y008860D03*
D105*
X011760Y008910D03*
D106*
X011660Y008985D03*
X010710Y018035D03*
D107*
X011610Y009035D03*
D108*
X011560Y009085D03*
D109*
X011460Y009160D03*
X010910Y017860D03*
D110*
X011410Y009210D03*
D111*
X011010Y009560D03*
X011360Y017460D03*
D112*
X011360Y009260D03*
D113*
X011060Y009510D03*
X011310Y017510D03*
D114*
X011110Y017685D03*
X011260Y009335D03*
D115*
X011210Y009385D03*
D116*
X011160Y009435D03*
D117*
X010960Y009610D03*
D118*
X010910Y009660D03*
D119*
X010810Y009735D03*
D120*
X010760Y009785D03*
D121*
X010510Y010010D03*
D122*
X010460Y018260D03*
D123*
X010460Y010035D03*
D124*
X010410Y010085D03*
D125*
X010360Y010135D03*
D126*
X010310Y010185D03*
D127*
X010260Y010210D03*
D128*
X010210Y010260D03*
D129*
X010160Y010310D03*
D130*
X010110Y010360D03*
D131*
X010060Y010385D03*
D132*
X010010Y010435D03*
D133*
X009960Y010485D03*
D134*
X009910Y010535D03*
D135*
X009860Y010585D03*
D136*
X009810Y010610D03*
D137*
X009760Y010660D03*
D138*
X009710Y010710D03*
D139*
X009660Y010760D03*
D140*
X009610Y010785D03*
D141*
X009560Y010835D03*
D142*
X009510Y010885D03*
D143*
X009460Y010935D03*
D144*
X009410Y010960D03*
D145*
X009360Y011010D03*
D146*
X009310Y011060D03*
D147*
X009260Y011110D03*
D148*
X009210Y011135D03*
D149*
X009160Y011185D03*
D150*
X009110Y011235D03*
D151*
X009010Y011310D03*
D152*
X008960Y011360D03*
D153*
X008910Y011410D03*
D154*
X008860Y011460D03*
D155*
X008810Y011485D03*
D156*
X008760Y011535D03*
D157*
X008710Y011585D03*
D158*
X008660Y011635D03*
D159*
X008610Y011660D03*
D160*
X008560Y011710D03*
D161*
X008510Y011760D03*
D162*
X008460Y011810D03*
D163*
X008410Y011835D03*
D164*
X008360Y011885D03*
D165*
X008310Y011935D03*
M02*
