G75*
G70*
%OFA0B0*%
%FSLAX24Y24*%
%IPPOS*%
%LPD*%
%AMOC8*
5,1,8,0,0,1.08239X$1,22.5*
%
%ADD10OC8,0.0520*%
%ADD11C,0.0520*%
%ADD12R,0.0515X0.0515*%
%ADD13C,0.0515*%
%ADD14OC8,0.0660*%
%ADD15C,0.0560*%
%ADD16C,0.0520*%
%ADD17C,0.0104*%
%ADD18OC8,0.0560*%
%ADD19C,0.1384*%
%ADD20C,0.0160*%
%ADD21C,0.0320*%
D10*
X008059Y001180D03*
X009059Y001180D03*
X010809Y002930D03*
X011809Y002930D03*
X011809Y004930D03*
X010809Y004930D03*
X009059Y005180D03*
X008059Y005180D03*
X007059Y007180D03*
X006059Y008180D03*
X005059Y007180D03*
X008059Y009180D03*
X009059Y009180D03*
X010059Y010430D03*
X010059Y011430D03*
X009059Y013180D03*
X008059Y013180D03*
X014059Y011430D03*
X014059Y010430D03*
X017809Y007680D03*
X019809Y007680D03*
X019809Y006180D03*
X017809Y006180D03*
D11*
X016559Y006680D03*
X015559Y006680D03*
X014559Y006680D03*
X013559Y006680D03*
X013559Y003680D03*
X014559Y003680D03*
X015559Y003680D03*
X016559Y003680D03*
D12*
X021059Y006111D03*
X021059Y010611D03*
D13*
X021059Y009824D03*
X021059Y009036D03*
X021059Y008249D03*
X021059Y005324D03*
X021059Y004536D03*
X021059Y003749D03*
D14*
X012909Y008680D03*
X012059Y008680D03*
X011209Y008680D03*
X011209Y012680D03*
X012059Y012680D03*
X012909Y012680D03*
D15*
X018309Y004460D02*
X018309Y003900D01*
X019309Y003900D02*
X019309Y004460D01*
D16*
X018559Y008920D02*
X018559Y009440D01*
X017559Y009440D02*
X017559Y008920D01*
X016559Y008920D02*
X016559Y009440D01*
X015559Y009440D02*
X015559Y008920D01*
X015559Y011920D02*
X015559Y012440D01*
X016559Y012440D02*
X016559Y011920D01*
X017559Y011920D02*
X017559Y012440D01*
X018559Y012440D02*
X018559Y011920D01*
D17*
X005904Y006146D02*
X005852Y006094D01*
X005852Y006266D01*
X005973Y006387D01*
X006145Y006387D01*
X006266Y006266D01*
X006266Y006094D01*
X006145Y005973D01*
X005973Y005973D01*
X005852Y006094D01*
X005930Y006126D01*
X005930Y006234D01*
X006005Y006309D01*
X006113Y006309D01*
X006188Y006234D01*
X006188Y006126D01*
X006113Y006051D01*
X006005Y006051D01*
X005930Y006126D01*
X006008Y006159D01*
X006008Y006201D01*
X006038Y006231D01*
X006080Y006231D01*
X006110Y006201D01*
X006110Y006159D01*
X006080Y006129D01*
X006038Y006129D01*
X006008Y006159D01*
D18*
X008809Y006680D03*
X009809Y006680D03*
X009809Y007680D03*
X008809Y007680D03*
D19*
X004559Y012680D03*
X023059Y012680D03*
X023059Y001680D03*
X004559Y001680D03*
D20*
X003617Y001290D02*
X003548Y001547D01*
X003539Y001680D01*
X003539Y012680D01*
X003548Y012813D01*
X003617Y013070D01*
X003750Y013301D01*
X003938Y013489D01*
X004169Y013622D01*
X004426Y013691D01*
X004559Y013700D01*
X022559Y013700D01*
X022729Y013690D01*
X022922Y013646D01*
X022679Y013598D01*
X022356Y013383D01*
X022141Y013060D01*
X022065Y012680D01*
X022141Y012300D01*
X022356Y011977D01*
X022679Y011762D01*
X023059Y011686D01*
X023439Y011762D01*
X023762Y011977D01*
X023977Y012300D01*
X024025Y012543D01*
X024069Y012350D01*
X024079Y012180D01*
X024079Y001680D01*
X024070Y001547D01*
X024001Y001290D01*
X023868Y001059D01*
X023680Y000871D01*
X023449Y000738D01*
X023192Y000669D01*
X023059Y000660D01*
X004559Y000660D01*
X004426Y000669D01*
X004169Y000738D01*
X003938Y000871D01*
X003750Y001059D01*
X003617Y001290D01*
X003648Y001290D01*
X003641Y001300D02*
X003856Y000977D01*
X004179Y000762D01*
X004559Y000686D01*
X004939Y000762D01*
X005262Y000977D01*
X005477Y001300D01*
X005553Y001680D01*
X005477Y002060D01*
X005262Y002383D01*
X004939Y002598D01*
X004559Y002674D01*
X004179Y002598D01*
X003856Y002383D01*
X003641Y002060D01*
X003565Y001680D01*
X003641Y001300D01*
X003611Y001448D02*
X003574Y001448D01*
X003580Y001607D02*
X003544Y001607D01*
X003539Y001765D02*
X003582Y001765D01*
X003614Y001924D02*
X003539Y001924D01*
X003539Y002082D02*
X003655Y002082D01*
X003761Y002241D02*
X003539Y002241D01*
X003539Y002399D02*
X003881Y002399D01*
X004118Y002558D02*
X003539Y002558D01*
X003539Y002716D02*
X008014Y002716D01*
X007910Y002820D02*
X008699Y002031D01*
X008699Y001471D01*
X008599Y001371D01*
X008599Y000989D01*
X008868Y000720D01*
X009249Y000720D01*
X009519Y000989D01*
X009519Y001371D01*
X009419Y001471D01*
X009419Y002252D01*
X009364Y002384D01*
X008364Y003384D01*
X008263Y003485D01*
X008131Y003540D01*
X006708Y003540D01*
X005419Y004829D01*
X005419Y006889D01*
X005519Y006989D01*
X005519Y007371D01*
X005249Y007640D01*
X004868Y007640D01*
X004599Y007371D01*
X004599Y006989D01*
X004699Y006889D01*
X004699Y004608D01*
X004754Y004476D01*
X004855Y004375D01*
X006355Y002875D01*
X006487Y002820D01*
X007910Y002820D01*
X008172Y002558D02*
X005000Y002558D01*
X005237Y002399D02*
X008331Y002399D01*
X008489Y002241D02*
X005357Y002241D01*
X005462Y002082D02*
X008648Y002082D01*
X008699Y001924D02*
X005504Y001924D01*
X005536Y001765D02*
X008699Y001765D01*
X008699Y001607D02*
X008255Y001607D01*
X008241Y001620D02*
X008059Y001620D01*
X008059Y001180D01*
X008499Y001180D01*
X008499Y001362D01*
X008241Y001620D01*
X008059Y001620D02*
X007877Y001620D01*
X007619Y001362D01*
X007619Y001180D01*
X007619Y000998D01*
X007877Y000740D01*
X008059Y000740D01*
X008241Y000740D01*
X008499Y000998D01*
X008499Y001180D01*
X008059Y001180D01*
X008059Y001180D01*
X008059Y001180D01*
X008059Y000740D01*
X008059Y001180D01*
X008059Y001180D01*
X008059Y001620D01*
X008059Y001607D02*
X008059Y001607D01*
X008059Y001448D02*
X008059Y001448D01*
X007863Y001607D02*
X005538Y001607D01*
X005506Y001448D02*
X007705Y001448D01*
X007619Y001290D02*
X005470Y001290D01*
X005364Y001131D02*
X007619Y001131D01*
X007619Y001180D02*
X008059Y001180D01*
X008059Y001180D01*
X007619Y001180D01*
X007644Y000973D02*
X005254Y000973D01*
X005017Y000814D02*
X007803Y000814D01*
X008059Y000814D02*
X008059Y000814D01*
X008059Y000973D02*
X008059Y000973D01*
X008059Y001131D02*
X008059Y001131D01*
X008059Y001290D02*
X008059Y001290D01*
X008413Y001448D02*
X008676Y001448D01*
X008599Y001290D02*
X008499Y001290D01*
X008499Y001131D02*
X008599Y001131D01*
X008616Y000973D02*
X008474Y000973D01*
X008315Y000814D02*
X008774Y000814D01*
X009343Y000814D02*
X022601Y000814D01*
X022679Y000762D02*
X023059Y000686D01*
X023439Y000762D01*
X023762Y000977D01*
X023977Y001300D01*
X024053Y001680D01*
X023977Y002060D01*
X023762Y002383D01*
X023439Y002598D01*
X023059Y002674D01*
X022679Y002598D01*
X022356Y002383D01*
X022141Y002060D01*
X022065Y001680D01*
X022141Y001300D01*
X022356Y000977D01*
X022679Y000762D01*
X022364Y000973D02*
X009502Y000973D01*
X009519Y001131D02*
X022254Y001131D01*
X022148Y001290D02*
X009519Y001290D01*
X009441Y001448D02*
X022111Y001448D01*
X022080Y001607D02*
X009419Y001607D01*
X009419Y001765D02*
X022082Y001765D01*
X022114Y001924D02*
X009419Y001924D01*
X009419Y002082D02*
X022155Y002082D01*
X022261Y002241D02*
X009419Y002241D01*
X009349Y002399D02*
X022381Y002399D01*
X022618Y002558D02*
X012059Y002558D01*
X011991Y002490D02*
X012249Y002748D01*
X012249Y002930D01*
X012249Y003112D01*
X011991Y003370D01*
X011809Y003370D01*
X011809Y002930D01*
X012249Y002930D01*
X011809Y002930D01*
X011809Y002930D01*
X011809Y002930D01*
X011809Y002490D01*
X011991Y002490D01*
X011809Y002490D02*
X011809Y002930D01*
X011809Y002930D01*
X011809Y003370D01*
X011627Y003370D01*
X011369Y003112D01*
X011369Y002930D01*
X011369Y002748D01*
X011627Y002490D01*
X011809Y002490D01*
X011809Y002558D02*
X011809Y002558D01*
X011809Y002716D02*
X011809Y002716D01*
X011559Y002558D02*
X011059Y002558D01*
X010991Y002490D02*
X011249Y002748D01*
X011249Y002930D01*
X011249Y003112D01*
X010991Y003370D01*
X010809Y003370D01*
X010809Y002930D01*
X011249Y002930D01*
X010809Y002930D01*
X010809Y002930D01*
X010809Y002930D01*
X010809Y002490D01*
X010991Y002490D01*
X010809Y002490D02*
X010809Y002930D01*
X010809Y002930D01*
X010809Y003370D01*
X010627Y003370D01*
X010369Y003112D01*
X010369Y002930D01*
X010369Y002748D01*
X010627Y002490D01*
X010809Y002490D01*
X010809Y002558D02*
X010809Y002558D01*
X010809Y002716D02*
X010809Y002716D01*
X010559Y002558D02*
X009191Y002558D01*
X009032Y002716D02*
X010401Y002716D01*
X010369Y002875D02*
X008874Y002875D01*
X008715Y003033D02*
X010369Y003033D01*
X010369Y002930D02*
X010809Y002930D01*
X010369Y002930D01*
X010448Y003192D02*
X008557Y003192D01*
X008398Y003350D02*
X010607Y003350D01*
X010809Y003350D02*
X010809Y003350D01*
X010809Y003192D02*
X010809Y003192D01*
X010809Y003033D02*
X010809Y003033D01*
X010809Y002930D02*
X010809Y002930D01*
X010809Y002875D02*
X010809Y002875D01*
X011217Y002716D02*
X011401Y002716D01*
X011369Y002875D02*
X011249Y002875D01*
X011369Y002930D02*
X011809Y002930D01*
X011809Y002930D01*
X011369Y002930D01*
X011369Y003033D02*
X011249Y003033D01*
X011170Y003192D02*
X011448Y003192D01*
X011607Y003350D02*
X011011Y003350D01*
X011809Y003350D02*
X011809Y003350D01*
X011809Y003192D02*
X011809Y003192D01*
X011809Y003033D02*
X011809Y003033D01*
X011809Y002875D02*
X011809Y002875D01*
X012217Y002716D02*
X024079Y002716D01*
X024079Y002558D02*
X023500Y002558D01*
X023737Y002399D02*
X024079Y002399D01*
X024079Y002241D02*
X023857Y002241D01*
X023962Y002082D02*
X024079Y002082D01*
X024079Y001924D02*
X024004Y001924D01*
X024036Y001765D02*
X024079Y001765D01*
X024074Y001607D02*
X024038Y001607D01*
X024044Y001448D02*
X024006Y001448D01*
X024001Y001290D02*
X023970Y001290D01*
X023910Y001131D02*
X023864Y001131D01*
X023782Y000973D02*
X023754Y000973D01*
X023581Y000814D02*
X023517Y000814D01*
X024079Y002875D02*
X012249Y002875D01*
X012249Y003033D02*
X024079Y003033D01*
X024079Y003192D02*
X012170Y003192D01*
X012011Y003350D02*
X012915Y003350D01*
X012855Y003375D02*
X012987Y003320D01*
X013268Y003320D01*
X013298Y003290D01*
X013467Y003220D01*
X013650Y003220D01*
X013819Y003290D01*
X013849Y003320D01*
X014268Y003320D01*
X014298Y003290D01*
X014467Y003220D01*
X014650Y003220D01*
X014819Y003290D01*
X014949Y003419D01*
X015019Y003588D01*
X015019Y003771D01*
X014949Y003941D01*
X014819Y004070D01*
X014650Y004140D01*
X014467Y004140D01*
X014298Y004070D01*
X014268Y004040D01*
X013849Y004040D01*
X013819Y004070D01*
X013650Y004140D01*
X013467Y004140D01*
X013298Y004070D01*
X013268Y004040D01*
X013208Y004040D01*
X012269Y004979D01*
X012269Y005121D01*
X011999Y005390D01*
X011618Y005390D01*
X011518Y005290D01*
X011169Y005290D01*
X011169Y005752D01*
X011114Y005884D01*
X010289Y006709D01*
X010289Y006879D01*
X010169Y006999D01*
X010169Y007361D01*
X010289Y007481D01*
X010289Y007879D01*
X010008Y008160D01*
X009610Y008160D01*
X009329Y007879D01*
X009329Y007481D01*
X009449Y007361D01*
X009449Y006999D01*
X009329Y006879D01*
X009329Y006481D01*
X009610Y006200D01*
X009780Y006200D01*
X010449Y005531D01*
X010449Y005221D01*
X010349Y005121D01*
X010349Y004739D01*
X010618Y004470D01*
X010999Y004470D01*
X011099Y004570D01*
X011518Y004570D01*
X011618Y004470D01*
X011760Y004470D01*
X012855Y003375D01*
X012721Y003509D02*
X008207Y003509D01*
X006581Y003667D02*
X012563Y003667D01*
X012404Y003826D02*
X006423Y003826D01*
X006264Y003984D02*
X012246Y003984D01*
X012087Y004143D02*
X006106Y004143D01*
X005947Y004301D02*
X011929Y004301D01*
X011770Y004460D02*
X005789Y004460D01*
X005630Y004618D02*
X010470Y004618D01*
X010349Y004777D02*
X009306Y004777D01*
X009249Y004720D02*
X009519Y004989D01*
X009519Y005371D01*
X009249Y005640D01*
X008868Y005640D01*
X008768Y005540D01*
X008349Y005540D01*
X008249Y005640D01*
X007868Y005640D01*
X007599Y005371D01*
X007599Y004989D01*
X007868Y004720D01*
X008249Y004720D01*
X008349Y004820D01*
X008768Y004820D01*
X008868Y004720D01*
X009249Y004720D01*
X009464Y004935D02*
X010349Y004935D01*
X010349Y005094D02*
X009519Y005094D01*
X009519Y005252D02*
X010449Y005252D01*
X010449Y005411D02*
X009479Y005411D01*
X009320Y005569D02*
X010411Y005569D01*
X010252Y005728D02*
X006257Y005728D01*
X006249Y005720D02*
X006349Y005820D01*
X008381Y005820D01*
X008513Y005875D01*
X008838Y006200D01*
X009008Y006200D01*
X009289Y006481D01*
X009289Y006879D01*
X009008Y007160D01*
X008610Y007160D01*
X008329Y006879D01*
X008329Y006709D01*
X008160Y006540D01*
X006349Y006540D01*
X006249Y006640D01*
X005868Y006640D01*
X005599Y006371D01*
X005599Y005989D01*
X005868Y005720D01*
X006249Y005720D01*
X005861Y005728D02*
X005419Y005728D01*
X005419Y005886D02*
X005702Y005886D01*
X005599Y006045D02*
X005419Y006045D01*
X005419Y006203D02*
X005599Y006203D01*
X005599Y006362D02*
X005419Y006362D01*
X005419Y006520D02*
X005748Y006520D01*
X005419Y006679D02*
X008298Y006679D01*
X008329Y006837D02*
X007366Y006837D01*
X007249Y006720D02*
X007519Y006989D01*
X007519Y007131D01*
X007708Y007320D01*
X008490Y007320D01*
X008610Y007200D01*
X009008Y007200D01*
X009289Y007481D01*
X009289Y007879D01*
X009008Y008160D01*
X008610Y008160D01*
X008490Y008040D01*
X007487Y008040D01*
X007355Y007985D01*
X007254Y007884D01*
X007010Y007640D01*
X006868Y007640D01*
X006599Y007371D01*
X006599Y006989D01*
X006868Y006720D01*
X007249Y006720D01*
X007519Y006996D02*
X008446Y006996D01*
X008604Y007154D02*
X007542Y007154D01*
X007701Y007313D02*
X008498Y007313D01*
X009014Y007154D02*
X009449Y007154D01*
X009449Y007313D02*
X009120Y007313D01*
X009279Y007471D02*
X009339Y007471D01*
X009329Y007630D02*
X009289Y007630D01*
X009289Y007788D02*
X009329Y007788D01*
X009397Y007947D02*
X009221Y007947D01*
X009063Y008105D02*
X009555Y008105D01*
X010063Y008105D02*
X017199Y008105D01*
X017199Y007947D02*
X010221Y007947D01*
X010289Y007788D02*
X017228Y007788D01*
X017254Y007726D02*
X017199Y007858D01*
X017199Y008629D01*
X017169Y008659D01*
X017099Y008828D01*
X017099Y009531D01*
X017169Y009701D01*
X017298Y009830D01*
X017467Y009900D01*
X017650Y009900D01*
X017819Y009830D01*
X017949Y009701D01*
X018019Y009531D01*
X018019Y008828D01*
X017949Y008659D01*
X017919Y008629D01*
X017919Y008140D01*
X017999Y008140D01*
X018269Y007871D01*
X018269Y007729D01*
X018458Y007540D01*
X019369Y007540D01*
X019369Y007680D01*
X019809Y007680D01*
X020249Y007680D01*
X020249Y007862D01*
X019991Y008120D01*
X019809Y008120D01*
X019809Y007680D01*
X019809Y007680D01*
X020249Y007680D01*
X020249Y007498D01*
X020215Y007464D01*
X020295Y007384D01*
X021111Y006569D01*
X021399Y006569D01*
X021516Y006451D01*
X021516Y005771D01*
X021399Y005654D01*
X021376Y005654D01*
X021447Y005583D01*
X021516Y005415D01*
X021516Y005233D01*
X021447Y005065D01*
X021318Y004936D01*
X021304Y004930D01*
X021318Y004924D01*
X021346Y004896D01*
X021699Y004896D01*
X021699Y008531D01*
X021553Y008676D01*
X021346Y008676D01*
X021318Y008648D01*
X021274Y008630D01*
X021288Y008623D01*
X021344Y008583D01*
X021393Y008534D01*
X021433Y008478D01*
X021464Y008417D01*
X021486Y008351D01*
X021496Y008283D01*
X021496Y008249D01*
X021059Y008249D01*
X021059Y008249D01*
X021496Y008249D01*
X021496Y008214D01*
X021486Y008146D01*
X021464Y008081D01*
X021433Y008020D01*
X021393Y007964D01*
X021344Y007915D01*
X021288Y007875D01*
X021227Y007843D01*
X021161Y007822D01*
X021093Y007811D01*
X021059Y007811D01*
X021059Y008249D01*
X021059Y008249D01*
X020621Y008249D01*
X020621Y008283D01*
X020632Y008351D01*
X020653Y008417D01*
X020685Y008478D01*
X020725Y008534D01*
X020774Y008583D01*
X020830Y008623D01*
X020844Y008630D01*
X020800Y008648D01*
X020671Y008777D01*
X020601Y008945D01*
X020601Y009127D01*
X020671Y009295D01*
X020800Y009424D01*
X020814Y009430D01*
X020800Y009436D01*
X020671Y009565D01*
X020601Y009733D01*
X020601Y009915D01*
X020671Y010083D01*
X020742Y010154D01*
X020719Y010154D01*
X020601Y010271D01*
X020601Y010331D01*
X015606Y010331D01*
X014796Y009521D01*
X014718Y009443D01*
X014615Y009400D01*
X012339Y009400D01*
X012339Y009150D01*
X012498Y008990D01*
X012698Y009190D01*
X012909Y009190D01*
X012909Y008680D01*
X013419Y008680D01*
X013419Y008891D01*
X013120Y009190D01*
X012909Y009190D01*
X012909Y008680D01*
X012909Y008680D01*
X013419Y008680D01*
X013419Y008469D01*
X013120Y008170D01*
X012909Y008170D01*
X012909Y008680D01*
X012909Y008680D01*
X012909Y008680D01*
X012909Y008170D01*
X012698Y008170D01*
X012498Y008370D01*
X012278Y008150D01*
X011839Y008150D01*
X011634Y008355D01*
X011428Y008150D01*
X010989Y008150D01*
X010679Y008460D01*
X010679Y008900D01*
X010989Y009210D01*
X011428Y009210D01*
X011634Y009005D01*
X011779Y009150D01*
X011779Y009564D01*
X011193Y010150D01*
X010429Y010150D01*
X010249Y009970D01*
X009868Y009970D01*
X009599Y010239D01*
X009599Y010621D01*
X009868Y010890D01*
X010249Y010890D01*
X010429Y010710D01*
X011365Y010710D01*
X011468Y010667D01*
X012175Y009960D01*
X014443Y009960D01*
X015331Y010848D01*
X015434Y010891D01*
X020601Y010891D01*
X020601Y010951D01*
X020719Y011069D01*
X021399Y011069D01*
X021516Y010951D01*
X021516Y010271D01*
X021399Y010154D01*
X021376Y010154D01*
X021447Y010083D01*
X021516Y009915D01*
X021516Y009733D01*
X021447Y009565D01*
X021318Y009436D01*
X021304Y009430D01*
X021318Y009424D01*
X021346Y009396D01*
X021410Y009396D01*
X021699Y009685D01*
X021699Y011531D01*
X020410Y012820D01*
X018829Y012820D01*
X018949Y012701D01*
X019019Y012531D01*
X019019Y011828D01*
X018949Y011659D01*
X018819Y011530D01*
X018650Y011460D01*
X018467Y011460D01*
X018298Y011530D01*
X018169Y011659D01*
X018099Y011828D01*
X018099Y012531D01*
X018169Y012701D01*
X018288Y012820D01*
X017829Y012820D01*
X017949Y012701D01*
X018019Y012531D01*
X018019Y011828D01*
X017949Y011659D01*
X017819Y011530D01*
X017650Y011460D01*
X017467Y011460D01*
X017298Y011530D01*
X017169Y011659D01*
X017099Y011828D01*
X017099Y012531D01*
X017169Y012701D01*
X017288Y012820D01*
X017208Y012820D01*
X016990Y012602D01*
X017019Y012531D01*
X017019Y011828D01*
X016949Y011659D01*
X016819Y011530D01*
X016650Y011460D01*
X016467Y011460D01*
X016298Y011530D01*
X016169Y011659D01*
X016099Y011828D01*
X016099Y012531D01*
X016169Y012701D01*
X016199Y012731D01*
X016199Y012752D01*
X016254Y012884D01*
X016754Y013384D01*
X016855Y013485D01*
X016987Y013540D01*
X020631Y013540D01*
X020763Y013485D01*
X020864Y013384D01*
X020864Y013384D01*
X022263Y011985D01*
X022263Y011985D01*
X022364Y011884D01*
X022419Y011752D01*
X022419Y009465D01*
X022364Y009332D01*
X022140Y009108D01*
X022263Y008985D01*
X022364Y008884D01*
X022419Y008752D01*
X022419Y004608D01*
X022364Y004476D01*
X022220Y004332D01*
X022119Y004231D01*
X021987Y004176D01*
X021346Y004176D01*
X021318Y004148D01*
X021274Y004130D01*
X021288Y004123D01*
X021344Y004083D01*
X021393Y004034D01*
X021433Y003978D01*
X021464Y003917D01*
X021486Y003851D01*
X021496Y003783D01*
X021496Y003749D01*
X021059Y003749D01*
X021059Y003749D01*
X021496Y003749D01*
X021496Y003714D01*
X021486Y003646D01*
X021464Y003581D01*
X021433Y003520D01*
X021393Y003464D01*
X021344Y003415D01*
X021288Y003375D01*
X021227Y003343D01*
X021161Y003322D01*
X021093Y003311D01*
X021059Y003311D01*
X021059Y003749D01*
X021059Y003749D01*
X020621Y003749D01*
X020621Y003783D01*
X020632Y003851D01*
X020653Y003917D01*
X020685Y003978D01*
X020725Y004034D01*
X020774Y004083D01*
X020830Y004123D01*
X020844Y004130D01*
X020800Y004148D01*
X020772Y004176D01*
X019814Y004176D01*
X019789Y004151D01*
X019789Y003805D01*
X019716Y003628D01*
X019581Y003493D01*
X019404Y003420D01*
X019213Y003420D01*
X019037Y003493D01*
X018902Y003628D01*
X018829Y003805D01*
X018829Y004555D01*
X018902Y004732D01*
X019037Y004867D01*
X019213Y004940D01*
X019404Y004940D01*
X019552Y004879D01*
X019594Y004896D01*
X020772Y004896D01*
X020800Y004924D01*
X020814Y004930D01*
X020800Y004936D01*
X020671Y005065D01*
X020601Y005233D01*
X020601Y005415D01*
X020671Y005583D01*
X020742Y005654D01*
X020719Y005654D01*
X020601Y005771D01*
X020601Y006059D01*
X019841Y006820D01*
X018237Y006820D01*
X018105Y006875D01*
X017760Y007220D01*
X017618Y007220D01*
X017349Y007489D01*
X017349Y007631D01*
X017254Y007726D01*
X017349Y007630D02*
X010289Y007630D01*
X010279Y007471D02*
X017367Y007471D01*
X017526Y007313D02*
X010169Y007313D01*
X010169Y007154D02*
X017826Y007154D01*
X017984Y006996D02*
X016894Y006996D01*
X016949Y006941D02*
X016819Y007070D01*
X016650Y007140D01*
X016467Y007140D01*
X016298Y007070D01*
X016169Y006941D01*
X016099Y006771D01*
X016099Y006588D01*
X016169Y006419D01*
X016298Y006290D01*
X016467Y006220D01*
X016650Y006220D01*
X016819Y006290D01*
X016949Y006419D01*
X017019Y006588D01*
X017019Y006771D01*
X016949Y006941D01*
X016992Y006837D02*
X018196Y006837D01*
X017999Y006640D02*
X017618Y006640D01*
X017349Y006371D01*
X017349Y006229D01*
X017160Y006040D01*
X014208Y006040D01*
X013919Y006329D01*
X013919Y006389D01*
X013949Y006419D01*
X014019Y006588D01*
X014019Y006771D01*
X013949Y006941D01*
X013819Y007070D01*
X013650Y007140D01*
X013467Y007140D01*
X013298Y007070D01*
X013169Y006941D01*
X013099Y006771D01*
X013099Y006588D01*
X013169Y006419D01*
X013199Y006389D01*
X013199Y006108D01*
X013254Y005976D01*
X013754Y005476D01*
X013855Y005375D01*
X013987Y005320D01*
X017381Y005320D01*
X017513Y005375D01*
X017809Y005671D01*
X017949Y005531D01*
X017949Y004779D01*
X017902Y004732D01*
X017829Y004555D01*
X017829Y003805D01*
X017902Y003628D01*
X018037Y003493D01*
X018213Y003420D01*
X018404Y003420D01*
X018581Y003493D01*
X018716Y003628D01*
X018789Y003805D01*
X018789Y004555D01*
X018716Y004732D01*
X018669Y004779D01*
X018669Y005752D01*
X018614Y005884D01*
X018513Y005985D01*
X018269Y006229D01*
X018269Y006371D01*
X017999Y006640D01*
X018119Y006520D02*
X019527Y006520D01*
X019627Y006620D02*
X019369Y006362D01*
X019369Y006180D01*
X019369Y005998D01*
X019627Y005740D01*
X019809Y005740D01*
X019991Y005740D01*
X020249Y005998D01*
X020249Y006180D01*
X020249Y006362D01*
X019991Y006620D01*
X019809Y006620D01*
X019809Y006180D01*
X020249Y006180D01*
X019809Y006180D01*
X019809Y006180D01*
X019809Y005740D01*
X019809Y006180D01*
X019809Y006180D01*
X019809Y006180D01*
X019809Y006620D01*
X019627Y006620D01*
X019809Y006520D02*
X019809Y006520D01*
X019809Y006362D02*
X019809Y006362D01*
X019809Y006203D02*
X019809Y006203D01*
X019809Y006180D02*
X019809Y006180D01*
X019369Y006180D01*
X019809Y006180D01*
X019809Y006045D02*
X019809Y006045D01*
X020249Y006045D02*
X020601Y006045D01*
X020458Y006203D02*
X020249Y006203D01*
X020249Y006362D02*
X020299Y006362D01*
X020141Y006520D02*
X020091Y006520D01*
X019982Y006679D02*
X017019Y006679D01*
X016991Y006520D02*
X017498Y006520D01*
X017349Y006362D02*
X016891Y006362D01*
X017164Y006045D02*
X014204Y006045D01*
X014045Y006203D02*
X017323Y006203D01*
X018269Y006362D02*
X019369Y006362D01*
X019369Y006203D02*
X018295Y006203D01*
X018454Y006045D02*
X019369Y006045D01*
X019481Y005886D02*
X018612Y005886D01*
X018513Y005985D02*
X018513Y005985D01*
X018669Y005728D02*
X020645Y005728D01*
X020665Y005569D02*
X018669Y005569D01*
X018669Y005411D02*
X020601Y005411D01*
X020601Y005252D02*
X018669Y005252D01*
X018669Y005094D02*
X020659Y005094D01*
X020802Y004935D02*
X019416Y004935D01*
X019201Y004935D02*
X018669Y004935D01*
X018671Y004777D02*
X018947Y004777D01*
X018855Y004618D02*
X018763Y004618D01*
X018789Y004460D02*
X018829Y004460D01*
X018829Y004301D02*
X018789Y004301D01*
X018789Y004143D02*
X018829Y004143D01*
X018829Y003984D02*
X018789Y003984D01*
X018789Y003826D02*
X018829Y003826D01*
X018886Y003667D02*
X018732Y003667D01*
X018596Y003509D02*
X019022Y003509D01*
X019596Y003509D02*
X020693Y003509D01*
X020685Y003520D02*
X020725Y003464D01*
X020774Y003415D01*
X020830Y003375D01*
X020891Y003343D01*
X020956Y003322D01*
X021024Y003311D01*
X021059Y003311D01*
X021059Y003749D01*
X021059Y003749D01*
X020621Y003749D01*
X020621Y003714D01*
X020632Y003646D01*
X020653Y003581D01*
X020685Y003520D01*
X020629Y003667D02*
X019732Y003667D01*
X019789Y003826D02*
X020628Y003826D01*
X020689Y003984D02*
X019789Y003984D01*
X019789Y004143D02*
X020814Y004143D01*
X021304Y004143D02*
X024079Y004143D01*
X024079Y004301D02*
X022189Y004301D01*
X022348Y004460D02*
X024079Y004460D01*
X024079Y004618D02*
X022419Y004618D01*
X022419Y004777D02*
X024079Y004777D01*
X024079Y004935D02*
X022419Y004935D01*
X022419Y005094D02*
X024079Y005094D01*
X024079Y005252D02*
X022419Y005252D01*
X022419Y005411D02*
X024079Y005411D01*
X024079Y005569D02*
X022419Y005569D01*
X022419Y005728D02*
X024079Y005728D01*
X024079Y005886D02*
X022419Y005886D01*
X022419Y006045D02*
X024079Y006045D01*
X024079Y006203D02*
X022419Y006203D01*
X022419Y006362D02*
X024079Y006362D01*
X024079Y006520D02*
X022419Y006520D01*
X022419Y006679D02*
X024079Y006679D01*
X024079Y006837D02*
X022419Y006837D01*
X022419Y006996D02*
X024079Y006996D01*
X024079Y007154D02*
X022419Y007154D01*
X022419Y007313D02*
X024079Y007313D01*
X024079Y007471D02*
X022419Y007471D01*
X022419Y007630D02*
X024079Y007630D01*
X024079Y007788D02*
X022419Y007788D01*
X022419Y007947D02*
X024079Y007947D01*
X024079Y008105D02*
X022419Y008105D01*
X022419Y008264D02*
X024079Y008264D01*
X024079Y008422D02*
X022419Y008422D01*
X022419Y008581D02*
X024079Y008581D01*
X024079Y008739D02*
X022419Y008739D01*
X022351Y008898D02*
X024079Y008898D01*
X024079Y009056D02*
X022192Y009056D01*
X022246Y009215D02*
X024079Y009215D01*
X024079Y009373D02*
X022381Y009373D01*
X022419Y009532D02*
X024079Y009532D01*
X024079Y009690D02*
X022419Y009690D01*
X022419Y009849D02*
X024079Y009849D01*
X024079Y010007D02*
X022419Y010007D01*
X022419Y010166D02*
X024079Y010166D01*
X024079Y010324D02*
X022419Y010324D01*
X022419Y010483D02*
X024079Y010483D01*
X024079Y010641D02*
X022419Y010641D01*
X022419Y010800D02*
X024079Y010800D01*
X024079Y010958D02*
X022419Y010958D01*
X022419Y011117D02*
X024079Y011117D01*
X024079Y011275D02*
X022419Y011275D01*
X022419Y011434D02*
X024079Y011434D01*
X024079Y011592D02*
X022419Y011592D01*
X022419Y011751D02*
X022736Y011751D01*
X022459Y011909D02*
X022339Y011909D01*
X022296Y012068D02*
X022180Y012068D01*
X022190Y012226D02*
X022022Y012226D01*
X022124Y012385D02*
X021863Y012385D01*
X021705Y012543D02*
X022092Y012543D01*
X022069Y012702D02*
X021546Y012702D01*
X021388Y012860D02*
X022101Y012860D01*
X022133Y013019D02*
X021229Y013019D01*
X021071Y013177D02*
X022219Y013177D01*
X022325Y013336D02*
X020912Y013336D01*
X020742Y013494D02*
X022523Y013494D01*
X022895Y013653D02*
X004665Y013653D01*
X004559Y013674D02*
X004179Y013598D01*
X003856Y013383D01*
X003641Y013060D01*
X003565Y012680D01*
X003641Y012300D01*
X003856Y011977D01*
X004179Y011762D01*
X004559Y011686D01*
X004939Y011762D01*
X005262Y011977D01*
X005477Y012300D01*
X005553Y012680D01*
X005477Y013060D01*
X005262Y013383D01*
X004939Y013598D01*
X004559Y013674D01*
X004452Y013653D02*
X004281Y013653D01*
X004023Y013494D02*
X003946Y013494D01*
X003825Y013336D02*
X003784Y013336D01*
X003719Y013177D02*
X003678Y013177D01*
X003633Y013019D02*
X003603Y013019D01*
X003601Y012860D02*
X003560Y012860D01*
X003569Y012702D02*
X003540Y012702D01*
X003539Y012543D02*
X003592Y012543D01*
X003624Y012385D02*
X003539Y012385D01*
X003539Y012226D02*
X003690Y012226D01*
X003796Y012068D02*
X003539Y012068D01*
X003539Y011909D02*
X003959Y011909D01*
X004236Y011751D02*
X003539Y011751D01*
X003539Y011592D02*
X009599Y011592D01*
X009599Y011621D02*
X009599Y011239D01*
X009868Y010970D01*
X010249Y010970D01*
X010429Y011150D01*
X011365Y011150D01*
X011468Y011193D01*
X011546Y011271D01*
X012296Y012021D01*
X012339Y012124D01*
X012339Y012210D01*
X012498Y012370D01*
X012698Y012170D01*
X012909Y012170D01*
X013120Y012170D01*
X013419Y012469D01*
X013419Y012680D01*
X013419Y012891D01*
X013120Y013190D01*
X012909Y013190D01*
X012909Y012680D01*
X013419Y012680D01*
X012909Y012680D01*
X012909Y012680D01*
X012909Y012680D01*
X012909Y012170D01*
X012909Y012680D01*
X012909Y012680D01*
X012909Y013190D01*
X012698Y013190D01*
X012498Y012990D01*
X012278Y013210D01*
X011839Y013210D01*
X011634Y013005D01*
X011428Y013210D01*
X010989Y013210D01*
X010819Y013040D01*
X009708Y013040D01*
X009519Y013229D01*
X009519Y013371D01*
X009249Y013640D01*
X008868Y013640D01*
X008768Y013540D01*
X008349Y013540D01*
X008249Y013640D01*
X007868Y013640D01*
X007599Y013371D01*
X007599Y012989D01*
X007868Y012720D01*
X008249Y012720D01*
X008349Y012820D01*
X008768Y012820D01*
X008868Y012720D01*
X009010Y012720D01*
X009355Y012375D01*
X009487Y012320D01*
X010819Y012320D01*
X010989Y012150D01*
X011428Y012150D01*
X011634Y012355D01*
X011736Y012253D01*
X011193Y011710D01*
X010429Y011710D01*
X010249Y011890D01*
X009868Y011890D01*
X009599Y011621D01*
X009729Y011751D02*
X004882Y011751D01*
X005159Y011909D02*
X011392Y011909D01*
X011233Y011751D02*
X010389Y011751D01*
X010059Y011430D02*
X011309Y011430D01*
X012059Y012180D01*
X012059Y012680D01*
X012470Y013019D02*
X012526Y013019D01*
X012685Y013177D02*
X012311Y013177D01*
X011806Y013177D02*
X011461Y013177D01*
X011620Y013019D02*
X011648Y013019D01*
X010956Y013177D02*
X009571Y013177D01*
X009519Y013336D02*
X016705Y013336D01*
X016547Y013177D02*
X013133Y013177D01*
X012909Y013177D02*
X012909Y013177D01*
X012909Y013019D02*
X012909Y013019D01*
X012909Y012860D02*
X012909Y012860D01*
X012909Y012702D02*
X012909Y012702D01*
X012909Y012543D02*
X012909Y012543D01*
X012909Y012385D02*
X012909Y012385D01*
X012909Y012226D02*
X012909Y012226D01*
X013176Y012226D02*
X015099Y012226D01*
X015099Y012068D02*
X012315Y012068D01*
X012354Y012226D02*
X012642Y012226D01*
X013335Y012385D02*
X015099Y012385D01*
X015099Y012531D02*
X015169Y012701D01*
X015298Y012830D01*
X015467Y012900D01*
X015650Y012900D01*
X015819Y012830D01*
X015949Y012701D01*
X016019Y012531D01*
X016019Y011828D01*
X015949Y011659D01*
X015819Y011530D01*
X015650Y011460D01*
X015467Y011460D01*
X015298Y011530D01*
X015169Y011659D01*
X015099Y011828D01*
X015099Y012531D01*
X015104Y012543D02*
X013419Y012543D01*
X013419Y012702D02*
X015170Y012702D01*
X015371Y012860D02*
X013419Y012860D01*
X013292Y013019D02*
X016388Y013019D01*
X016244Y012860D02*
X015747Y012860D01*
X015948Y012702D02*
X016170Y012702D01*
X016104Y012543D02*
X016014Y012543D01*
X016019Y012385D02*
X016099Y012385D01*
X016099Y012226D02*
X016019Y012226D01*
X016019Y012068D02*
X016099Y012068D01*
X016099Y011909D02*
X016019Y011909D01*
X015987Y011751D02*
X016131Y011751D01*
X016236Y011592D02*
X015881Y011592D01*
X015236Y011592D02*
X014499Y011592D01*
X014499Y011612D02*
X014241Y011870D01*
X014059Y011870D01*
X014059Y011430D01*
X014499Y011430D01*
X014499Y011612D01*
X014499Y011434D02*
X021699Y011434D01*
X021699Y011275D02*
X014499Y011275D01*
X014499Y011248D02*
X014499Y011430D01*
X014059Y011430D01*
X014059Y011430D01*
X014059Y010990D01*
X014241Y010990D01*
X014499Y011248D01*
X014368Y011117D02*
X021699Y011117D01*
X021699Y010958D02*
X021510Y010958D01*
X021516Y010800D02*
X021699Y010800D01*
X021699Y010641D02*
X021516Y010641D01*
X021059Y010611D02*
X015490Y010611D01*
X014559Y009680D01*
X012059Y009680D01*
X012059Y008680D01*
X012432Y009056D02*
X012564Y009056D01*
X012339Y009215D02*
X015099Y009215D01*
X015099Y009373D02*
X012339Y009373D01*
X012059Y009680D02*
X011309Y010430D01*
X010059Y010430D01*
X009599Y010483D02*
X003539Y010483D01*
X003539Y010641D02*
X009619Y010641D01*
X009778Y010800D02*
X003539Y010800D01*
X003539Y010958D02*
X020608Y010958D01*
X021516Y010483D02*
X021699Y010483D01*
X021699Y010324D02*
X021516Y010324D01*
X021411Y010166D02*
X021699Y010166D01*
X021699Y010007D02*
X021478Y010007D01*
X021516Y009849D02*
X021699Y009849D01*
X021699Y009690D02*
X021499Y009690D01*
X021545Y009532D02*
X021414Y009532D01*
X020749Y009373D02*
X018999Y009373D01*
X018999Y009475D02*
X018988Y009543D01*
X018967Y009609D01*
X018935Y009671D01*
X018895Y009727D01*
X018846Y009776D01*
X018790Y009816D01*
X018728Y009848D01*
X018662Y009869D01*
X018594Y009880D01*
X018559Y009880D01*
X018559Y009180D01*
X018999Y009180D01*
X018999Y009475D01*
X018990Y009532D02*
X020704Y009532D01*
X020619Y009690D02*
X018921Y009690D01*
X018725Y009849D02*
X020601Y009849D01*
X020640Y010007D02*
X015282Y010007D01*
X015343Y009849D02*
X015123Y009849D01*
X015169Y009701D02*
X015298Y009830D01*
X015467Y009900D01*
X015650Y009900D01*
X015819Y009830D01*
X015949Y009701D01*
X016019Y009531D01*
X016019Y008828D01*
X015949Y008659D01*
X015819Y008530D01*
X015650Y008460D01*
X015467Y008460D01*
X015298Y008530D01*
X015169Y008659D01*
X015099Y008828D01*
X015099Y009531D01*
X015169Y009701D01*
X015165Y009690D02*
X014965Y009690D01*
X015099Y009532D02*
X014806Y009532D01*
X015099Y009056D02*
X013254Y009056D01*
X012909Y009056D02*
X012909Y009056D01*
X012909Y008898D02*
X012909Y008898D01*
X012909Y008739D02*
X012909Y008739D01*
X012909Y008581D02*
X012909Y008581D01*
X012909Y008422D02*
X012909Y008422D01*
X012909Y008264D02*
X012909Y008264D01*
X013214Y008264D02*
X017199Y008264D01*
X017199Y008422D02*
X013372Y008422D01*
X013419Y008581D02*
X015248Y008581D01*
X015136Y008739D02*
X013419Y008739D01*
X013413Y008898D02*
X015099Y008898D01*
X015870Y008581D02*
X016248Y008581D01*
X016298Y008530D02*
X016467Y008460D01*
X016650Y008460D01*
X016819Y008530D01*
X016949Y008659D01*
X017019Y008828D01*
X017019Y009531D01*
X016949Y009701D01*
X016819Y009830D01*
X016650Y009900D01*
X016467Y009900D01*
X016298Y009830D01*
X016169Y009701D01*
X016099Y009531D01*
X016099Y008828D01*
X016169Y008659D01*
X016298Y008530D01*
X016136Y008739D02*
X015982Y008739D01*
X016019Y008898D02*
X016099Y008898D01*
X016099Y009056D02*
X016019Y009056D01*
X016019Y009215D02*
X016099Y009215D01*
X016099Y009373D02*
X016019Y009373D01*
X016019Y009532D02*
X016099Y009532D01*
X016165Y009690D02*
X015953Y009690D01*
X015775Y009849D02*
X016343Y009849D01*
X016775Y009849D02*
X017343Y009849D01*
X017165Y009690D02*
X016953Y009690D01*
X017019Y009532D02*
X017099Y009532D01*
X017099Y009373D02*
X017019Y009373D01*
X017019Y009215D02*
X017099Y009215D01*
X017099Y009056D02*
X017019Y009056D01*
X017019Y008898D02*
X017099Y008898D01*
X017136Y008739D02*
X016982Y008739D01*
X016870Y008581D02*
X017199Y008581D01*
X017919Y008581D02*
X018278Y008581D01*
X018272Y008584D02*
X018328Y008544D01*
X018390Y008512D01*
X018456Y008491D01*
X018524Y008480D01*
X018559Y008480D01*
X018594Y008480D01*
X018662Y008491D01*
X018728Y008512D01*
X018790Y008544D01*
X018846Y008584D01*
X018895Y008633D01*
X018935Y008689D01*
X018967Y008751D01*
X018988Y008817D01*
X018999Y008885D01*
X018999Y009180D01*
X018559Y009180D01*
X018559Y009180D01*
X018559Y008480D01*
X018559Y009180D01*
X018559Y009180D01*
X018559Y009180D01*
X018559Y009880D01*
X018524Y009880D01*
X018456Y009869D01*
X018390Y009848D01*
X018328Y009816D01*
X018272Y009776D01*
X018223Y009727D01*
X018183Y009671D01*
X018151Y009609D01*
X018130Y009543D01*
X018119Y009475D01*
X018119Y009180D01*
X018119Y008885D01*
X018130Y008817D01*
X018151Y008751D01*
X018183Y008689D01*
X018223Y008633D01*
X018272Y008584D01*
X018157Y008739D02*
X017982Y008739D01*
X018019Y008898D02*
X018119Y008898D01*
X018119Y009056D02*
X018019Y009056D01*
X018019Y009215D02*
X018119Y009215D01*
X018119Y009180D02*
X018559Y009180D01*
X018119Y009180D01*
X018119Y009373D02*
X018019Y009373D01*
X018019Y009532D02*
X018128Y009532D01*
X018197Y009690D02*
X017953Y009690D01*
X017775Y009849D02*
X018392Y009849D01*
X018559Y009849D02*
X018559Y009849D01*
X018559Y009690D02*
X018559Y009690D01*
X018559Y009532D02*
X018559Y009532D01*
X018559Y009373D02*
X018559Y009373D01*
X018559Y009215D02*
X018559Y009215D01*
X018559Y009180D02*
X018559Y009180D01*
X018559Y009056D02*
X018559Y009056D01*
X018999Y009056D02*
X020601Y009056D01*
X020638Y009215D02*
X018999Y009215D01*
X018999Y008898D02*
X020621Y008898D01*
X020709Y008739D02*
X018961Y008739D01*
X018840Y008581D02*
X020772Y008581D01*
X020656Y008422D02*
X017919Y008422D01*
X017919Y008264D02*
X020621Y008264D01*
X020621Y008249D02*
X020621Y008214D01*
X020632Y008146D01*
X020653Y008081D01*
X020685Y008020D01*
X020725Y007964D01*
X020774Y007915D01*
X020830Y007875D01*
X020891Y007843D01*
X020956Y007822D01*
X021024Y007811D01*
X021059Y007811D01*
X021059Y008249D01*
X021059Y008249D01*
X020621Y008249D01*
X020646Y008105D02*
X020006Y008105D01*
X019809Y008105D02*
X019809Y008105D01*
X019809Y008120D02*
X019627Y008120D01*
X019369Y007862D01*
X019369Y007680D01*
X019809Y007680D01*
X019809Y007680D01*
X019809Y008120D01*
X019809Y007947D02*
X019809Y007947D01*
X019809Y007788D02*
X019809Y007788D01*
X019809Y007680D02*
X019809Y007680D01*
X020249Y007630D02*
X021699Y007630D01*
X021699Y007788D02*
X020249Y007788D01*
X020165Y007947D02*
X020743Y007947D01*
X021059Y007947D02*
X021059Y007947D01*
X021059Y008105D02*
X021059Y008105D01*
X021375Y007947D02*
X021699Y007947D01*
X021699Y008105D02*
X021472Y008105D01*
X021496Y008264D02*
X021699Y008264D01*
X021699Y008422D02*
X021462Y008422D01*
X021346Y008581D02*
X021649Y008581D01*
X021699Y007471D02*
X020222Y007471D01*
X020367Y007313D02*
X021699Y007313D01*
X021699Y007154D02*
X020525Y007154D01*
X020684Y006996D02*
X021699Y006996D01*
X021699Y006837D02*
X020842Y006837D01*
X021001Y006679D02*
X021699Y006679D01*
X021699Y006520D02*
X021448Y006520D01*
X021516Y006362D02*
X021699Y006362D01*
X021699Y006203D02*
X021516Y006203D01*
X021516Y006045D02*
X021699Y006045D01*
X021699Y005886D02*
X021516Y005886D01*
X021473Y005728D02*
X021699Y005728D01*
X021699Y005569D02*
X021452Y005569D01*
X021516Y005411D02*
X021699Y005411D01*
X021699Y005252D02*
X021516Y005252D01*
X021459Y005094D02*
X021699Y005094D01*
X021699Y004935D02*
X021316Y004935D01*
X020601Y005886D02*
X020137Y005886D01*
X019809Y005886D02*
X019809Y005886D01*
X017949Y005411D02*
X017549Y005411D01*
X017707Y005569D02*
X017911Y005569D01*
X017949Y005252D02*
X012137Y005252D01*
X012269Y005094D02*
X017949Y005094D01*
X017949Y004935D02*
X012313Y004935D01*
X012472Y004777D02*
X017947Y004777D01*
X017855Y004618D02*
X012630Y004618D01*
X012789Y004460D02*
X017829Y004460D01*
X017829Y004301D02*
X012947Y004301D01*
X013106Y004143D02*
X017829Y004143D01*
X017829Y003984D02*
X016877Y003984D01*
X016895Y003967D02*
X016846Y004016D01*
X016790Y004056D01*
X016728Y004088D01*
X016662Y004109D01*
X016594Y004120D01*
X016559Y004120D01*
X016559Y003680D01*
X016999Y003680D01*
X016999Y003715D01*
X016988Y003783D01*
X016967Y003849D01*
X016935Y003911D01*
X016895Y003967D01*
X016974Y003826D02*
X017829Y003826D01*
X017886Y003667D02*
X016999Y003667D01*
X016999Y003680D02*
X016559Y003680D01*
X016559Y003680D01*
X016559Y003680D01*
X016559Y003240D01*
X016594Y003240D01*
X016662Y003251D01*
X016728Y003272D01*
X016790Y003304D01*
X016846Y003344D01*
X016895Y003393D01*
X016935Y003449D01*
X016967Y003511D01*
X016988Y003577D01*
X016999Y003645D01*
X016999Y003680D01*
X016965Y003509D02*
X018022Y003509D01*
X016851Y003350D02*
X020878Y003350D01*
X021059Y003350D02*
X021059Y003350D01*
X021059Y003509D02*
X021059Y003509D01*
X021059Y003667D02*
X021059Y003667D01*
X021425Y003509D02*
X024079Y003509D01*
X024079Y003667D02*
X021489Y003667D01*
X021490Y003826D02*
X024079Y003826D01*
X024079Y003984D02*
X021429Y003984D01*
X021240Y003350D02*
X024079Y003350D01*
X019369Y007630D02*
X018369Y007630D01*
X018269Y007788D02*
X019369Y007788D01*
X019453Y007947D02*
X018193Y007947D01*
X018034Y008105D02*
X019612Y008105D01*
X018559Y008581D02*
X018559Y008581D01*
X018559Y008739D02*
X018559Y008739D01*
X018559Y008898D02*
X018559Y008898D01*
X020707Y010166D02*
X015440Y010166D01*
X015599Y010324D02*
X020601Y010324D01*
X021638Y011592D02*
X018881Y011592D01*
X018987Y011751D02*
X021479Y011751D01*
X021321Y011909D02*
X019019Y011909D01*
X019019Y012068D02*
X021162Y012068D01*
X021004Y012226D02*
X019019Y012226D01*
X019019Y012385D02*
X020845Y012385D01*
X020687Y012543D02*
X019014Y012543D01*
X018948Y012702D02*
X020528Y012702D01*
X018170Y012702D02*
X017948Y012702D01*
X018014Y012543D02*
X018104Y012543D01*
X018099Y012385D02*
X018019Y012385D01*
X018019Y012226D02*
X018099Y012226D01*
X018099Y012068D02*
X018019Y012068D01*
X018019Y011909D02*
X018099Y011909D01*
X018131Y011751D02*
X017987Y011751D01*
X017881Y011592D02*
X018236Y011592D01*
X017236Y011592D02*
X016881Y011592D01*
X016987Y011751D02*
X017131Y011751D01*
X017099Y011909D02*
X017019Y011909D01*
X017019Y012068D02*
X017099Y012068D01*
X017099Y012226D02*
X017019Y012226D01*
X017019Y012385D02*
X017099Y012385D01*
X017104Y012543D02*
X017014Y012543D01*
X017090Y012702D02*
X017170Y012702D01*
X016876Y013494D02*
X009395Y013494D01*
X009028Y012702D02*
X005548Y012702D01*
X005525Y012543D02*
X009187Y012543D01*
X009345Y012385D02*
X005494Y012385D01*
X005428Y012226D02*
X010913Y012226D01*
X011504Y012226D02*
X011709Y012226D01*
X011550Y012068D02*
X005322Y012068D01*
X005517Y012860D02*
X007728Y012860D01*
X007599Y013019D02*
X005485Y013019D01*
X005399Y013177D02*
X007599Y013177D01*
X007599Y013336D02*
X005293Y013336D01*
X005095Y013494D02*
X007722Y013494D01*
X009599Y011434D02*
X003539Y011434D01*
X003539Y011275D02*
X009599Y011275D01*
X009722Y011117D02*
X003539Y011117D01*
X003539Y010324D02*
X009599Y010324D01*
X009673Y010166D02*
X003539Y010166D01*
X003539Y010007D02*
X009831Y010007D01*
X010286Y010007D02*
X011336Y010007D01*
X011494Y009849D02*
X003539Y009849D01*
X003539Y009690D02*
X011653Y009690D01*
X011779Y009532D02*
X009330Y009532D01*
X009241Y009620D02*
X009059Y009620D01*
X009059Y009180D01*
X009499Y009180D01*
X009499Y009362D01*
X009241Y009620D01*
X009059Y009620D02*
X008877Y009620D01*
X008619Y009362D01*
X008619Y009180D01*
X008619Y008998D01*
X008877Y008740D01*
X009059Y008740D01*
X009241Y008740D01*
X009499Y008998D01*
X009499Y009180D01*
X009059Y009180D01*
X009059Y009180D01*
X009059Y009180D01*
X009059Y008740D01*
X009059Y009180D01*
X009059Y009180D01*
X009059Y009620D01*
X009059Y009532D02*
X009059Y009532D01*
X009059Y009373D02*
X009059Y009373D01*
X009059Y009215D02*
X009059Y009215D01*
X009059Y009180D02*
X009059Y009180D01*
X008619Y009180D01*
X009059Y009180D01*
X009059Y009056D02*
X009059Y009056D01*
X009059Y008898D02*
X009059Y008898D01*
X009399Y008898D02*
X010679Y008898D01*
X010679Y008739D02*
X008268Y008739D01*
X008249Y008720D02*
X008519Y008989D01*
X008519Y009371D01*
X008249Y009640D01*
X007868Y009640D01*
X007768Y009540D01*
X006987Y009540D01*
X006855Y009485D01*
X006010Y008640D01*
X005868Y008640D01*
X005599Y008371D01*
X005599Y007989D01*
X005868Y007720D01*
X006249Y007720D01*
X006519Y007989D01*
X006519Y008131D01*
X007208Y008820D01*
X007768Y008820D01*
X007868Y008720D01*
X008249Y008720D01*
X008427Y008898D02*
X008719Y008898D01*
X008619Y009056D02*
X008519Y009056D01*
X008519Y009215D02*
X008619Y009215D01*
X008630Y009373D02*
X008516Y009373D01*
X008358Y009532D02*
X008788Y009532D01*
X009488Y009373D02*
X011779Y009373D01*
X011779Y009215D02*
X009499Y009215D01*
X009499Y009056D02*
X010835Y009056D01*
X011582Y009056D02*
X011685Y009056D01*
X010679Y008581D02*
X006969Y008581D01*
X007127Y008739D02*
X007849Y008739D01*
X008555Y008105D02*
X006519Y008105D01*
X006476Y007947D02*
X007316Y007947D01*
X007158Y007788D02*
X006317Y007788D01*
X006699Y007471D02*
X005418Y007471D01*
X005260Y007630D02*
X006858Y007630D01*
X006599Y007313D02*
X005519Y007313D01*
X005519Y007154D02*
X006599Y007154D01*
X006599Y006996D02*
X005519Y006996D01*
X005419Y006837D02*
X006751Y006837D01*
X005800Y007788D02*
X003539Y007788D01*
X003539Y007630D02*
X004858Y007630D01*
X004699Y007471D02*
X003539Y007471D01*
X003539Y007313D02*
X004599Y007313D01*
X004599Y007154D02*
X003539Y007154D01*
X003539Y006996D02*
X004599Y006996D01*
X004699Y006837D02*
X003539Y006837D01*
X003539Y006679D02*
X004699Y006679D01*
X004699Y006520D02*
X003539Y006520D01*
X003539Y006362D02*
X004699Y006362D01*
X004699Y006203D02*
X003539Y006203D01*
X003539Y006045D02*
X004699Y006045D01*
X004699Y005886D02*
X003539Y005886D01*
X003539Y005728D02*
X004699Y005728D01*
X004699Y005569D02*
X003539Y005569D01*
X003539Y005411D02*
X004699Y005411D01*
X004699Y005252D02*
X003539Y005252D01*
X003539Y005094D02*
X004699Y005094D01*
X004699Y004935D02*
X003539Y004935D01*
X003539Y004777D02*
X004699Y004777D01*
X004699Y004618D02*
X003539Y004618D01*
X003539Y004460D02*
X004770Y004460D01*
X004929Y004301D02*
X003539Y004301D01*
X003539Y004143D02*
X005087Y004143D01*
X005246Y003984D02*
X003539Y003984D01*
X003539Y003826D02*
X005404Y003826D01*
X005563Y003667D02*
X003539Y003667D01*
X003539Y003509D02*
X005721Y003509D01*
X005880Y003350D02*
X003539Y003350D01*
X003539Y003192D02*
X006038Y003192D01*
X006197Y003033D02*
X003539Y003033D01*
X003539Y002875D02*
X006356Y002875D01*
X005472Y004777D02*
X007812Y004777D01*
X007653Y004935D02*
X005419Y004935D01*
X005419Y005094D02*
X007599Y005094D01*
X007599Y005252D02*
X005419Y005252D01*
X005419Y005411D02*
X007639Y005411D01*
X007797Y005569D02*
X005419Y005569D01*
X008320Y005569D02*
X008797Y005569D01*
X008524Y005886D02*
X010094Y005886D01*
X009935Y006045D02*
X008683Y006045D01*
X009011Y006203D02*
X009607Y006203D01*
X009449Y006362D02*
X009169Y006362D01*
X009289Y006520D02*
X009329Y006520D01*
X009329Y006679D02*
X009289Y006679D01*
X009289Y006837D02*
X009329Y006837D01*
X009446Y006996D02*
X009172Y006996D01*
X010172Y006996D02*
X013224Y006996D01*
X013126Y006837D02*
X010289Y006837D01*
X010320Y006679D02*
X013099Y006679D01*
X013127Y006520D02*
X010478Y006520D01*
X010637Y006362D02*
X013199Y006362D01*
X013199Y006203D02*
X010795Y006203D01*
X010954Y006045D02*
X013225Y006045D01*
X013344Y005886D02*
X011112Y005886D01*
X011169Y005728D02*
X013502Y005728D01*
X013661Y005569D02*
X011169Y005569D01*
X011169Y005411D02*
X013819Y005411D01*
X013754Y005476D02*
X013754Y005476D01*
X014298Y006290D02*
X014467Y006220D01*
X014650Y006220D01*
X014819Y006290D01*
X014849Y006320D01*
X015268Y006320D01*
X015298Y006290D01*
X015467Y006220D01*
X015650Y006220D01*
X015819Y006290D01*
X015949Y006419D01*
X016019Y006588D01*
X016019Y006771D01*
X015949Y006941D01*
X015819Y007070D01*
X015650Y007140D01*
X015467Y007140D01*
X015298Y007070D01*
X015268Y007040D01*
X014849Y007040D01*
X014819Y007070D01*
X014650Y007140D01*
X014467Y007140D01*
X014298Y007070D01*
X014169Y006941D01*
X014099Y006771D01*
X014099Y006588D01*
X014169Y006419D01*
X014298Y006290D01*
X014227Y006362D02*
X013919Y006362D01*
X013991Y006520D02*
X014127Y006520D01*
X014099Y006679D02*
X014019Y006679D01*
X013992Y006837D02*
X014126Y006837D01*
X014224Y006996D02*
X013894Y006996D01*
X015894Y006996D02*
X016224Y006996D01*
X016126Y006837D02*
X015992Y006837D01*
X016019Y006679D02*
X016099Y006679D01*
X016127Y006520D02*
X015991Y006520D01*
X015891Y006362D02*
X016227Y006362D01*
X012604Y008264D02*
X012392Y008264D01*
X011726Y008264D02*
X011542Y008264D01*
X010876Y008264D02*
X006652Y008264D01*
X006810Y008422D02*
X010717Y008422D01*
X012128Y010007D02*
X013860Y010007D01*
X013877Y009990D02*
X014059Y009990D01*
X014241Y009990D01*
X014499Y010248D01*
X014499Y010430D01*
X014499Y010612D01*
X014241Y010870D01*
X014059Y010870D01*
X014059Y010430D01*
X014499Y010430D01*
X014059Y010430D01*
X014059Y010430D01*
X014059Y009990D01*
X014059Y010430D01*
X014059Y010430D01*
X014059Y010430D01*
X014059Y010870D01*
X013877Y010870D01*
X013619Y010612D01*
X013619Y010430D01*
X013619Y010248D01*
X013877Y009990D01*
X014059Y010007D02*
X014059Y010007D01*
X014059Y010166D02*
X014059Y010166D01*
X014059Y010324D02*
X014059Y010324D01*
X014059Y010430D02*
X013619Y010430D01*
X014059Y010430D01*
X014059Y010430D01*
X014059Y010483D02*
X014059Y010483D01*
X014059Y010641D02*
X014059Y010641D01*
X014059Y010800D02*
X014059Y010800D01*
X014059Y010990D02*
X014059Y011430D01*
X014059Y011430D01*
X014059Y011430D01*
X014059Y011870D01*
X013877Y011870D01*
X013619Y011612D01*
X013619Y011430D01*
X013619Y011248D01*
X013877Y010990D01*
X014059Y010990D01*
X014059Y011117D02*
X014059Y011117D01*
X014059Y011275D02*
X014059Y011275D01*
X014059Y011430D02*
X013619Y011430D01*
X014059Y011430D01*
X014059Y011430D01*
X014059Y011434D02*
X014059Y011434D01*
X014059Y011592D02*
X014059Y011592D01*
X014059Y011751D02*
X014059Y011751D01*
X013757Y011751D02*
X012025Y011751D01*
X012184Y011909D02*
X015099Y011909D01*
X015131Y011751D02*
X014361Y011751D01*
X013619Y011592D02*
X011867Y011592D01*
X011708Y011434D02*
X013619Y011434D01*
X013619Y011275D02*
X011550Y011275D01*
X011494Y010641D02*
X013648Y010641D01*
X013806Y010800D02*
X010340Y010800D01*
X010396Y011117D02*
X013750Y011117D01*
X014312Y010800D02*
X015282Y010800D01*
X015124Y010641D02*
X014470Y010641D01*
X014499Y010483D02*
X014965Y010483D01*
X014807Y010324D02*
X014499Y010324D01*
X014417Y010166D02*
X014648Y010166D01*
X014490Y010007D02*
X014258Y010007D01*
X013701Y010166D02*
X011969Y010166D01*
X011811Y010324D02*
X013619Y010324D01*
X013619Y010483D02*
X011652Y010483D01*
X006967Y009532D02*
X003539Y009532D01*
X003539Y009373D02*
X006743Y009373D01*
X006584Y009215D02*
X003539Y009215D01*
X003539Y009056D02*
X006426Y009056D01*
X006267Y008898D02*
X003539Y008898D01*
X003539Y008739D02*
X006109Y008739D01*
X005809Y008581D02*
X003539Y008581D01*
X003539Y008422D02*
X005650Y008422D01*
X005599Y008264D02*
X003539Y008264D01*
X003539Y008105D02*
X005599Y008105D01*
X005642Y007947D02*
X003539Y007947D01*
X008306Y004777D02*
X008812Y004777D01*
X014905Y003984D02*
X015212Y003984D01*
X015169Y003941D02*
X015099Y003771D01*
X015099Y003588D01*
X015169Y003419D01*
X015298Y003290D01*
X015467Y003220D01*
X015650Y003220D01*
X015819Y003290D01*
X015949Y003419D01*
X016019Y003588D01*
X016019Y003771D01*
X015949Y003941D01*
X015819Y004070D01*
X015650Y004140D01*
X015467Y004140D01*
X015298Y004070D01*
X015169Y003941D01*
X015121Y003826D02*
X014997Y003826D01*
X015019Y003667D02*
X015099Y003667D01*
X015132Y003509D02*
X014986Y003509D01*
X014879Y003350D02*
X015238Y003350D01*
X015879Y003350D02*
X016267Y003350D01*
X016272Y003344D02*
X016328Y003304D01*
X016390Y003272D01*
X016456Y003251D01*
X016524Y003240D01*
X016559Y003240D01*
X016559Y003680D01*
X016559Y003680D01*
X016559Y004120D01*
X016524Y004120D01*
X016456Y004109D01*
X016390Y004088D01*
X016328Y004056D01*
X016272Y004016D01*
X016223Y003967D01*
X016183Y003911D01*
X016151Y003849D01*
X016130Y003783D01*
X016119Y003715D01*
X016119Y003680D01*
X016119Y003645D01*
X016130Y003577D01*
X016151Y003511D01*
X016183Y003449D01*
X016223Y003393D01*
X016272Y003344D01*
X016152Y003509D02*
X015986Y003509D01*
X016019Y003667D02*
X016119Y003667D01*
X016119Y003680D02*
X016559Y003680D01*
X016559Y003680D01*
X016119Y003680D01*
X016144Y003826D02*
X015997Y003826D01*
X015905Y003984D02*
X016241Y003984D01*
X016559Y003984D02*
X016559Y003984D01*
X016559Y003826D02*
X016559Y003826D01*
X016559Y003667D02*
X016559Y003667D01*
X016559Y003509D02*
X016559Y003509D01*
X016559Y003350D02*
X016559Y003350D01*
X004169Y000738D02*
X004169Y000738D01*
X004101Y000814D02*
X004036Y000814D01*
X003864Y000973D02*
X003836Y000973D01*
X003754Y001131D02*
X003708Y001131D01*
X023382Y011751D02*
X024079Y011751D01*
X024079Y011909D02*
X023659Y011909D01*
X023822Y012068D02*
X024079Y012068D01*
X024076Y012226D02*
X023928Y012226D01*
X023994Y012385D02*
X024062Y012385D01*
D21*
X022059Y011680D02*
X022059Y009536D01*
X021559Y009036D01*
X021703Y009036D01*
X022059Y008680D01*
X022059Y004680D01*
X021915Y004536D01*
X021059Y004536D01*
X019665Y004536D01*
X019309Y004180D01*
X018309Y004180D02*
X018309Y005680D01*
X017809Y006180D01*
X017309Y005680D01*
X014059Y005680D01*
X013559Y006180D01*
X013559Y006680D01*
X014559Y006680D02*
X015559Y006680D01*
X017559Y007930D02*
X017559Y009180D01*
X017559Y007930D02*
X017809Y007680D01*
X018309Y007180D01*
X019990Y007180D01*
X021059Y006111D01*
X021059Y009036D02*
X021559Y009036D01*
X022059Y011680D02*
X020559Y013180D01*
X017059Y013180D01*
X016559Y012680D01*
X016559Y012180D01*
X011209Y012680D02*
X009559Y012680D01*
X009059Y013180D01*
X008059Y013180D01*
X008059Y009180D02*
X007059Y009180D01*
X006059Y008180D01*
X007059Y007180D02*
X007559Y007680D01*
X008809Y007680D01*
X009809Y007680D02*
X009809Y006680D01*
X010809Y005680D01*
X010809Y004930D01*
X011809Y004930D01*
X013059Y003680D01*
X013559Y003680D01*
X014559Y003680D01*
X009059Y002180D02*
X009059Y001180D01*
X009059Y002180D02*
X008059Y003180D01*
X006559Y003180D01*
X005059Y004680D01*
X005059Y007180D01*
X006059Y006180D02*
X008309Y006180D01*
X008809Y006680D01*
X009059Y005180D02*
X008059Y005180D01*
M02*
