G75*
G70*
%OFA0B0*%
%FSLAX24Y24*%
%IPPOS*%
%LPD*%
%AMOC8*
5,1,8,0,0,1.08239X$1,22.5*
%
%ADD10OC8,0.0600*%
%ADD11C,0.0600*%
%ADD12R,0.0595X0.0595*%
%ADD13C,0.0595*%
%ADD14OC8,0.0740*%
%ADD15C,0.0640*%
%ADD16C,0.0600*%
%ADD17C,0.0120*%
%ADD18OC8,0.0640*%
%ADD19C,0.1464*%
D10*
X008059Y001180D03*
X009059Y001180D03*
X010809Y002930D03*
X011809Y002930D03*
X011809Y004930D03*
X010809Y004930D03*
X009059Y005180D03*
X008059Y005180D03*
X007059Y007180D03*
X006059Y008180D03*
X005059Y007180D03*
X008059Y009180D03*
X009059Y009180D03*
X010059Y010430D03*
X010059Y011430D03*
X009059Y013180D03*
X008059Y013180D03*
X014059Y011430D03*
X014059Y010430D03*
X017809Y007680D03*
X019809Y007680D03*
X019809Y006180D03*
X017809Y006180D03*
D11*
X016559Y006680D03*
X015559Y006680D03*
X014559Y006680D03*
X013559Y006680D03*
X013559Y003680D03*
X014559Y003680D03*
X015559Y003680D03*
X016559Y003680D03*
D12*
X021059Y006111D03*
X021059Y010611D03*
D13*
X021059Y009824D03*
X021059Y009036D03*
X021059Y008249D03*
X021059Y005324D03*
X021059Y004536D03*
X021059Y003749D03*
D14*
X012909Y008680D03*
X012059Y008680D03*
X011209Y008680D03*
X011209Y012680D03*
X012059Y012680D03*
X012909Y012680D03*
D15*
X018309Y004460D02*
X018309Y003900D01*
X019309Y003900D02*
X019309Y004460D01*
D16*
X018559Y008920D02*
X018559Y009440D01*
X017559Y009440D02*
X017559Y008920D01*
X016559Y008920D02*
X016559Y009440D01*
X015559Y009440D02*
X015559Y008920D01*
X015559Y011920D02*
X015559Y012440D01*
X016559Y012440D02*
X016559Y011920D01*
X017559Y011920D02*
X017559Y012440D01*
X018559Y012440D02*
X018559Y011920D01*
D17*
X005880Y006141D02*
X005820Y006081D01*
X005820Y006279D01*
X005960Y006419D01*
X006158Y006419D01*
X006298Y006279D01*
X006298Y006081D01*
X006158Y005941D01*
X005960Y005941D01*
X005820Y006081D01*
X005910Y006118D01*
X005910Y006242D01*
X005997Y006329D01*
X006121Y006329D01*
X006208Y006242D01*
X006208Y006118D01*
X006121Y006031D01*
X005997Y006031D01*
X005910Y006118D01*
X006000Y006155D01*
X006000Y006205D01*
X006034Y006239D01*
X006084Y006239D01*
X006118Y006205D01*
X006118Y006155D01*
X006084Y006121D01*
X006034Y006121D01*
X006000Y006155D01*
D18*
X008809Y006680D03*
X009809Y006680D03*
X009809Y007680D03*
X008809Y007680D03*
D19*
X004559Y001680D03*
X023059Y001680D03*
X023059Y012680D03*
X004559Y012680D03*
M02*
