G75*
G70*
%OFA0B0*%
%FSLAX24Y24*%
%IPPOS*%
%LPD*%
%AMOC8*
5,1,8,0,0,1.08239X$1,22.5*
%
%ADD10OC8,0.0520*%
%ADD11C,0.0520*%
%ADD12R,0.0515X0.0515*%
%ADD13C,0.0515*%
%ADD14OC8,0.0660*%
%ADD15C,0.0560*%
%ADD16C,0.0520*%
%ADD17C,0.0104*%
%ADD18OC8,0.0560*%
%ADD19C,0.1384*%
%ADD20C,0.0160*%
%ADD21C,0.0320*%
D10*
X005180Y001680D03*
X006180Y001680D03*
X008430Y001930D03*
X009430Y001930D03*
X009430Y003930D03*
X008430Y003930D03*
X006180Y004680D03*
X005180Y004680D03*
X004180Y007180D03*
X003180Y008180D03*
X002180Y007180D03*
X005180Y009680D03*
X006180Y009680D03*
X007680Y010430D03*
X007680Y011430D03*
X006180Y012680D03*
X005180Y012680D03*
X010680Y011430D03*
X010680Y010430D03*
X014930Y007680D03*
X014680Y006680D03*
X015930Y006430D03*
X016930Y007680D03*
X016680Y008680D03*
X016680Y011680D03*
X016680Y012680D03*
X018680Y012680D03*
X015930Y004430D03*
X014680Y003680D03*
D11*
X013680Y003680D03*
X012680Y003680D03*
X011680Y003680D03*
X010680Y003680D03*
X010680Y006680D03*
X011680Y006680D03*
X012680Y006680D03*
X013680Y006680D03*
D12*
X018180Y006111D03*
X018180Y010611D03*
D13*
X018180Y009824D03*
X018180Y009036D03*
X018180Y008249D03*
X018180Y005324D03*
X018180Y004536D03*
X018180Y003749D03*
D14*
X010030Y008680D03*
X009180Y008680D03*
X008330Y008680D03*
X008330Y012680D03*
X009180Y012680D03*
X010030Y012680D03*
D15*
X015930Y003710D02*
X015930Y003150D01*
X016930Y003150D02*
X016930Y003710D01*
D16*
X015680Y008920D02*
X015680Y009440D01*
X014680Y009440D02*
X014680Y008920D01*
X013680Y008920D02*
X013680Y009440D01*
X012680Y009440D02*
X012680Y008920D01*
X012680Y011920D02*
X012680Y012440D01*
X013680Y012440D02*
X013680Y011920D01*
X014680Y011920D02*
X014680Y012440D01*
X015680Y012440D02*
X015680Y011920D01*
D17*
X003025Y006146D02*
X002973Y006094D01*
X002973Y006266D01*
X003094Y006387D01*
X003266Y006387D01*
X003387Y006266D01*
X003387Y006094D01*
X003266Y005973D01*
X003094Y005973D01*
X002973Y006094D01*
X003051Y006126D01*
X003051Y006234D01*
X003126Y006309D01*
X003234Y006309D01*
X003309Y006234D01*
X003309Y006126D01*
X003234Y006051D01*
X003126Y006051D01*
X003051Y006126D01*
X003129Y006159D01*
X003129Y006201D01*
X003159Y006231D01*
X003201Y006231D01*
X003231Y006201D01*
X003231Y006159D01*
X003201Y006129D01*
X003159Y006129D01*
X003129Y006159D01*
D18*
X005930Y006680D03*
X006930Y006680D03*
X006930Y007680D03*
X005930Y007680D03*
D19*
X001680Y012680D03*
X001680Y001680D03*
X020180Y001680D03*
X020180Y012680D03*
D20*
X001290Y000738D02*
X001059Y000871D01*
X000871Y001059D01*
X000738Y001290D01*
X000669Y001547D01*
X000660Y001680D01*
X000660Y012680D01*
X000669Y012813D01*
X000738Y013070D01*
X000871Y013301D01*
X001059Y013489D01*
X001290Y013622D01*
X001547Y013691D01*
X001680Y013700D01*
X020180Y013700D01*
X020313Y013691D01*
X020570Y013622D01*
X020801Y013489D01*
X020989Y013301D01*
X021122Y013070D01*
X021191Y012813D01*
X021200Y012680D01*
X021200Y001680D01*
X021191Y001547D01*
X021122Y001290D01*
X020989Y001059D01*
X020801Y000871D01*
X020570Y000738D01*
X020313Y000669D01*
X020180Y000660D01*
X001680Y000660D01*
X001547Y000669D01*
X001290Y000738D01*
X001300Y000762D02*
X001680Y000686D01*
X002060Y000762D01*
X002383Y000977D01*
X002598Y001300D01*
X002674Y001680D01*
X002598Y002060D01*
X002383Y002383D01*
X002060Y002598D01*
X001680Y002674D01*
X001300Y002598D01*
X000977Y002383D01*
X000762Y002060D01*
X000686Y001680D01*
X000762Y001300D01*
X000977Y000977D01*
X001300Y000762D01*
X001222Y000814D02*
X001157Y000814D01*
X000985Y000973D02*
X000957Y000973D01*
X000875Y001131D02*
X000829Y001131D01*
X000769Y001290D02*
X000738Y001290D01*
X000732Y001448D02*
X000695Y001448D01*
X000701Y001607D02*
X000665Y001607D01*
X000660Y001765D02*
X000703Y001765D01*
X000735Y001924D02*
X000660Y001924D01*
X000660Y002082D02*
X000776Y002082D01*
X000882Y002241D02*
X000660Y002241D01*
X000660Y002399D02*
X001002Y002399D01*
X001239Y002558D02*
X000660Y002558D01*
X000660Y002716D02*
X005135Y002716D01*
X005031Y002820D02*
X005820Y002031D01*
X005820Y001971D01*
X005720Y001871D01*
X005720Y001489D01*
X005989Y001220D01*
X006371Y001220D01*
X006640Y001489D01*
X006640Y001871D01*
X006540Y001971D01*
X006540Y002252D01*
X006485Y002384D01*
X005485Y003384D01*
X005384Y003485D01*
X005252Y003540D01*
X003829Y003540D01*
X002540Y004829D01*
X002540Y006889D01*
X002640Y006989D01*
X002640Y007371D01*
X002371Y007640D01*
X001989Y007640D01*
X001720Y007371D01*
X001720Y006989D01*
X001820Y006889D01*
X001820Y004608D01*
X001875Y004476D01*
X001976Y004375D01*
X003476Y002875D01*
X003608Y002820D01*
X005031Y002820D01*
X005293Y002558D02*
X002121Y002558D01*
X002358Y002399D02*
X005452Y002399D01*
X005610Y002241D02*
X002478Y002241D01*
X002584Y002082D02*
X004960Y002082D01*
X004998Y002120D02*
X004740Y001862D01*
X004740Y001680D01*
X005180Y001680D01*
X005180Y001680D01*
X005180Y002120D01*
X005362Y002120D01*
X005620Y001862D01*
X005620Y001680D01*
X005180Y001680D01*
X005180Y001680D01*
X005180Y001680D01*
X005180Y002120D01*
X004998Y002120D01*
X005180Y002082D02*
X005180Y002082D01*
X005180Y001924D02*
X005180Y001924D01*
X005180Y001765D02*
X005180Y001765D01*
X005180Y001680D02*
X004740Y001680D01*
X004740Y001498D01*
X004998Y001240D01*
X005180Y001240D01*
X005362Y001240D01*
X005620Y001498D01*
X005620Y001680D01*
X005180Y001680D01*
X005180Y001240D01*
X005180Y001680D01*
X005180Y001680D01*
X005180Y001607D02*
X005180Y001607D01*
X005180Y001448D02*
X005180Y001448D01*
X005180Y001290D02*
X005180Y001290D01*
X005412Y001290D02*
X005920Y001290D01*
X005761Y001448D02*
X005570Y001448D01*
X005620Y001607D02*
X005720Y001607D01*
X005720Y001765D02*
X005620Y001765D01*
X005559Y001924D02*
X005773Y001924D01*
X005769Y002082D02*
X005400Y002082D01*
X004801Y001924D02*
X002625Y001924D01*
X002657Y001765D02*
X004740Y001765D01*
X004740Y001607D02*
X002659Y001607D01*
X002628Y001448D02*
X004790Y001448D01*
X004948Y001290D02*
X002591Y001290D01*
X002485Y001131D02*
X019375Y001131D01*
X019477Y000977D02*
X019800Y000762D01*
X020180Y000686D01*
X020560Y000762D01*
X020883Y000977D01*
X021098Y001300D01*
X021174Y001680D01*
X021098Y002060D01*
X020883Y002383D01*
X020560Y002598D01*
X020180Y002674D01*
X019800Y002598D01*
X019477Y002383D01*
X019262Y002060D01*
X019186Y001680D01*
X019262Y001300D01*
X019477Y000977D01*
X019485Y000973D02*
X002375Y000973D01*
X002138Y000814D02*
X019722Y000814D01*
X019269Y001290D02*
X006440Y001290D01*
X006599Y001448D02*
X019232Y001448D01*
X019201Y001607D02*
X009729Y001607D01*
X009612Y001490D02*
X009870Y001748D01*
X009870Y001930D01*
X009870Y002112D01*
X009612Y002370D01*
X009430Y002370D01*
X009430Y001930D01*
X009430Y001930D01*
X009870Y001930D01*
X009430Y001930D01*
X009430Y001930D01*
X009430Y001930D01*
X008990Y001930D01*
X008990Y002112D01*
X009248Y002370D01*
X009430Y002370D01*
X009430Y001930D01*
X009430Y001490D01*
X009612Y001490D01*
X009430Y001490D02*
X009430Y001930D01*
X009430Y001930D01*
X008990Y001930D01*
X008990Y001748D01*
X009248Y001490D01*
X009430Y001490D01*
X009430Y001607D02*
X009430Y001607D01*
X009430Y001765D02*
X009430Y001765D01*
X009430Y001924D02*
X009430Y001924D01*
X009430Y002082D02*
X009430Y002082D01*
X009430Y002241D02*
X009430Y002241D01*
X009742Y002241D02*
X014610Y002241D01*
X014452Y002399D02*
X006470Y002399D01*
X006540Y002241D02*
X008118Y002241D01*
X007990Y002112D02*
X007990Y001930D01*
X008430Y001930D01*
X008430Y001930D01*
X008430Y002370D01*
X008612Y002370D01*
X008870Y002112D01*
X008870Y001930D01*
X008430Y001930D01*
X008430Y001930D01*
X008430Y001930D01*
X008430Y002370D01*
X008248Y002370D01*
X007990Y002112D01*
X007990Y002082D02*
X006540Y002082D01*
X006587Y001924D02*
X007990Y001924D01*
X007990Y001930D02*
X007990Y001748D01*
X008248Y001490D01*
X008430Y001490D01*
X008612Y001490D01*
X008870Y001748D01*
X008870Y001930D01*
X008430Y001930D01*
X008430Y001490D01*
X008430Y001930D01*
X008430Y001930D01*
X007990Y001930D01*
X007990Y001765D02*
X006640Y001765D01*
X006640Y001607D02*
X008131Y001607D01*
X008430Y001607D02*
X008430Y001607D01*
X008430Y001765D02*
X008430Y001765D01*
X008430Y001924D02*
X008430Y001924D01*
X008430Y002082D02*
X008430Y002082D01*
X008430Y002241D02*
X008430Y002241D01*
X008742Y002241D02*
X009118Y002241D01*
X008990Y002082D02*
X008870Y002082D01*
X008870Y001924D02*
X008990Y001924D01*
X008990Y001765D02*
X008870Y001765D01*
X008729Y001607D02*
X009131Y001607D01*
X009870Y001765D02*
X019203Y001765D01*
X019235Y001924D02*
X016433Y001924D01*
X016384Y001875D02*
X016252Y001820D01*
X015108Y001820D01*
X014976Y001875D01*
X014375Y002476D01*
X014320Y002608D01*
X014320Y003389D01*
X014220Y003489D01*
X014220Y003871D01*
X014489Y004140D01*
X014871Y004140D01*
X015140Y003871D01*
X015140Y003489D01*
X015040Y003389D01*
X015040Y002829D01*
X015329Y002540D01*
X016031Y002540D01*
X016478Y002987D01*
X016450Y003055D01*
X016450Y003805D01*
X016523Y003982D01*
X016589Y004048D01*
X016625Y004134D01*
X017332Y004841D01*
X017465Y004896D01*
X017893Y004896D01*
X017921Y004924D01*
X017935Y004930D01*
X017921Y004936D01*
X017792Y005065D01*
X017723Y005233D01*
X017723Y005415D01*
X017792Y005583D01*
X017863Y005654D01*
X017840Y005654D01*
X017723Y005771D01*
X017723Y006059D01*
X016726Y007056D01*
X016625Y007157D01*
X016570Y007289D01*
X016570Y007389D01*
X016470Y007489D01*
X016470Y007871D01*
X016570Y007971D01*
X016570Y008220D01*
X016489Y008220D01*
X016220Y008489D01*
X016220Y008871D01*
X016489Y009140D01*
X016871Y009140D01*
X017140Y008871D01*
X017140Y008729D01*
X017235Y008634D01*
X017290Y008502D01*
X017290Y007971D01*
X017390Y007871D01*
X017390Y007489D01*
X017350Y007450D01*
X018232Y006569D01*
X018520Y006569D01*
X018637Y006451D01*
X018637Y005771D01*
X018520Y005654D01*
X018497Y005654D01*
X018568Y005583D01*
X018637Y005415D01*
X018637Y005233D01*
X018568Y005065D01*
X018439Y004936D01*
X018425Y004930D01*
X018439Y004924D01*
X018467Y004896D01*
X018820Y004896D01*
X018820Y008531D01*
X018675Y008676D01*
X018467Y008676D01*
X018439Y008648D01*
X018395Y008630D01*
X018409Y008623D01*
X018465Y008583D01*
X018514Y008534D01*
X018554Y008478D01*
X018585Y008417D01*
X018607Y008351D01*
X018617Y008283D01*
X018617Y008249D01*
X018180Y008249D01*
X018180Y008249D01*
X018180Y008249D01*
X017743Y008249D01*
X017743Y008283D01*
X017753Y008351D01*
X017775Y008417D01*
X017806Y008478D01*
X017846Y008534D01*
X017895Y008583D01*
X017951Y008623D01*
X017965Y008630D01*
X017921Y008648D01*
X017792Y008777D01*
X017723Y008945D01*
X017723Y009127D01*
X017792Y009295D01*
X017921Y009424D01*
X017935Y009430D01*
X017921Y009436D01*
X017792Y009565D01*
X017723Y009733D01*
X017723Y009915D01*
X017792Y010083D01*
X017863Y010154D01*
X017840Y010154D01*
X017723Y010271D01*
X017723Y010331D01*
X012727Y010331D01*
X011917Y009521D01*
X011839Y009443D01*
X011736Y009400D01*
X009460Y009400D01*
X009460Y009150D01*
X009619Y008990D01*
X009819Y009190D01*
X010030Y009190D01*
X010030Y008680D01*
X010030Y008680D01*
X010540Y008680D01*
X010540Y008891D01*
X010241Y009190D01*
X010030Y009190D01*
X010030Y008680D01*
X010030Y008680D01*
X010540Y008680D01*
X010540Y008469D01*
X010241Y008170D01*
X010030Y008170D01*
X010030Y008680D01*
X010030Y008680D01*
X010030Y008170D01*
X009819Y008170D01*
X009619Y008370D01*
X009400Y008150D01*
X008960Y008150D01*
X008755Y008355D01*
X008550Y008150D01*
X008110Y008150D01*
X007800Y008460D01*
X007800Y008900D01*
X008110Y009210D01*
X008550Y009210D01*
X008755Y009005D01*
X008900Y009150D01*
X008900Y009564D01*
X008314Y010150D01*
X008051Y010150D01*
X007871Y009970D01*
X007489Y009970D01*
X007220Y010239D01*
X007220Y010621D01*
X007489Y010890D01*
X007871Y010890D01*
X008051Y010710D01*
X008486Y010710D01*
X008589Y010667D01*
X009296Y009960D01*
X011564Y009960D01*
X012452Y010848D01*
X012555Y010891D01*
X017723Y010891D01*
X017723Y010951D01*
X017840Y011069D01*
X018520Y011069D01*
X018637Y010951D01*
X018637Y010271D01*
X018520Y010154D01*
X018497Y010154D01*
X018568Y010083D01*
X018637Y009915D01*
X018637Y009733D01*
X018568Y009565D01*
X018439Y009436D01*
X018425Y009430D01*
X018439Y009424D01*
X018467Y009396D01*
X018531Y009396D01*
X018820Y009685D01*
X018820Y011031D01*
X017531Y012320D01*
X016971Y012320D01*
X016871Y012220D01*
X016489Y012220D01*
X016220Y012489D01*
X016220Y012631D01*
X016031Y012820D01*
X015951Y012820D01*
X016070Y012701D01*
X016140Y012531D01*
X016140Y011828D01*
X016070Y011659D01*
X015941Y011530D01*
X015771Y011460D01*
X015588Y011460D01*
X015419Y011530D01*
X015290Y011659D01*
X015220Y011828D01*
X015220Y012531D01*
X015290Y012701D01*
X015409Y012820D01*
X014951Y012820D01*
X015070Y012701D01*
X015140Y012531D01*
X015140Y011828D01*
X015070Y011659D01*
X014941Y011530D01*
X014771Y011460D01*
X014588Y011460D01*
X014419Y011530D01*
X014290Y011659D01*
X014220Y011828D01*
X014220Y012531D01*
X014290Y012701D01*
X014409Y012820D01*
X014329Y012820D01*
X014111Y012602D01*
X014140Y012531D01*
X014140Y011828D01*
X014070Y011659D01*
X013941Y011530D01*
X013771Y011460D01*
X013588Y011460D01*
X013419Y011530D01*
X013290Y011659D01*
X013220Y011828D01*
X013220Y012531D01*
X013290Y012701D01*
X013320Y012731D01*
X013320Y012752D01*
X013375Y012884D01*
X013976Y013485D01*
X014108Y013540D01*
X016252Y013540D01*
X016384Y013485D01*
X016729Y013140D01*
X016871Y013140D01*
X016971Y013040D01*
X017752Y013040D01*
X017884Y012985D01*
X017985Y012884D01*
X018240Y012629D01*
X018240Y012680D01*
X018680Y012680D01*
X018680Y012680D01*
X018680Y013120D01*
X018862Y013120D01*
X019120Y012862D01*
X019120Y012680D01*
X018680Y012680D01*
X018680Y012680D01*
X018680Y012680D01*
X018680Y013120D01*
X018498Y013120D01*
X018240Y012862D01*
X018240Y012680D01*
X018680Y012680D01*
X019120Y012680D01*
X019120Y012498D01*
X018862Y012240D01*
X018680Y012240D01*
X018680Y012680D01*
X018680Y012680D01*
X018680Y012240D01*
X018629Y012240D01*
X019485Y011384D01*
X019540Y011252D01*
X019540Y009465D01*
X019485Y009332D01*
X019384Y009231D01*
X019384Y009231D01*
X019261Y009108D01*
X019384Y008985D01*
X019485Y008884D01*
X019540Y008752D01*
X019540Y004608D01*
X019485Y004476D01*
X019341Y004332D01*
X019240Y004231D01*
X019108Y004176D01*
X018467Y004176D01*
X018439Y004148D01*
X018395Y004130D01*
X018409Y004123D01*
X018465Y004083D01*
X018514Y004034D01*
X018554Y003978D01*
X018585Y003917D01*
X018607Y003851D01*
X018617Y003783D01*
X018617Y003749D01*
X018180Y003749D01*
X018180Y003749D01*
X018180Y003749D01*
X017743Y003749D01*
X017743Y003783D01*
X017753Y003851D01*
X017775Y003917D01*
X017806Y003978D01*
X017846Y004034D01*
X017895Y004083D01*
X017951Y004123D01*
X017965Y004130D01*
X017921Y004148D01*
X017893Y004176D01*
X017685Y004176D01*
X017382Y003873D01*
X017410Y003805D01*
X017410Y003055D01*
X017337Y002878D01*
X017271Y002812D01*
X017235Y002726D01*
X017134Y002625D01*
X016384Y001875D01*
X016591Y002082D02*
X019276Y002082D01*
X019382Y002241D02*
X016750Y002241D01*
X016908Y002399D02*
X019502Y002399D01*
X019739Y002558D02*
X017067Y002558D01*
X017225Y002716D02*
X021200Y002716D01*
X021200Y002558D02*
X020621Y002558D01*
X020858Y002399D02*
X021200Y002399D01*
X021200Y002241D02*
X020978Y002241D01*
X021084Y002082D02*
X021200Y002082D01*
X021200Y001924D02*
X021125Y001924D01*
X021157Y001765D02*
X021200Y001765D01*
X021195Y001607D02*
X021159Y001607D01*
X021165Y001448D02*
X021128Y001448D01*
X021122Y001290D02*
X021091Y001290D01*
X021031Y001131D02*
X020985Y001131D01*
X020903Y000973D02*
X020875Y000973D01*
X020703Y000814D02*
X020638Y000814D01*
X021200Y002875D02*
X017333Y002875D01*
X017401Y003033D02*
X021200Y003033D01*
X021200Y003192D02*
X017410Y003192D01*
X017410Y003350D02*
X017999Y003350D01*
X018012Y003343D02*
X018078Y003322D01*
X018146Y003311D01*
X018180Y003311D01*
X018214Y003311D01*
X018282Y003322D01*
X018348Y003343D01*
X018409Y003375D01*
X018465Y003415D01*
X018514Y003464D01*
X018554Y003520D01*
X018585Y003581D01*
X018607Y003646D01*
X018617Y003714D01*
X018617Y003749D01*
X018180Y003749D01*
X017743Y003749D01*
X017743Y003714D01*
X017753Y003646D01*
X017775Y003581D01*
X017806Y003520D01*
X017846Y003464D01*
X017895Y003415D01*
X017951Y003375D01*
X018012Y003343D01*
X018180Y003350D02*
X018180Y003350D01*
X018180Y003311D02*
X018180Y003749D01*
X018180Y003749D01*
X018180Y003311D01*
X018361Y003350D02*
X021200Y003350D01*
X021200Y003509D02*
X018546Y003509D01*
X018610Y003667D02*
X021200Y003667D01*
X021200Y003826D02*
X018611Y003826D01*
X018550Y003984D02*
X021200Y003984D01*
X021200Y004143D02*
X018425Y004143D01*
X017935Y004143D02*
X017652Y004143D01*
X017493Y003984D02*
X017810Y003984D01*
X017749Y003826D02*
X017402Y003826D01*
X017410Y003667D02*
X017750Y003667D01*
X017814Y003509D02*
X017410Y003509D01*
X018180Y003509D02*
X018180Y003509D01*
X018180Y003667D02*
X018180Y003667D01*
X019310Y004301D02*
X021200Y004301D01*
X021200Y004460D02*
X019469Y004460D01*
X019540Y004618D02*
X021200Y004618D01*
X021200Y004777D02*
X019540Y004777D01*
X019540Y004935D02*
X021200Y004935D01*
X021200Y005094D02*
X019540Y005094D01*
X019540Y005252D02*
X021200Y005252D01*
X021200Y005411D02*
X019540Y005411D01*
X019540Y005569D02*
X021200Y005569D01*
X021200Y005728D02*
X019540Y005728D01*
X019540Y005886D02*
X021200Y005886D01*
X021200Y006045D02*
X019540Y006045D01*
X019540Y006203D02*
X021200Y006203D01*
X021200Y006362D02*
X019540Y006362D01*
X019540Y006520D02*
X021200Y006520D01*
X021200Y006679D02*
X019540Y006679D01*
X019540Y006837D02*
X021200Y006837D01*
X021200Y006996D02*
X019540Y006996D01*
X019540Y007154D02*
X021200Y007154D01*
X021200Y007313D02*
X019540Y007313D01*
X019540Y007471D02*
X021200Y007471D01*
X021200Y007630D02*
X019540Y007630D01*
X019540Y007788D02*
X021200Y007788D01*
X021200Y007947D02*
X019540Y007947D01*
X019540Y008105D02*
X021200Y008105D01*
X021200Y008264D02*
X019540Y008264D01*
X019540Y008422D02*
X021200Y008422D01*
X021200Y008581D02*
X019540Y008581D01*
X019540Y008739D02*
X021200Y008739D01*
X021200Y008898D02*
X019472Y008898D01*
X019313Y009056D02*
X021200Y009056D01*
X021200Y009215D02*
X019367Y009215D01*
X019502Y009373D02*
X021200Y009373D01*
X021200Y009532D02*
X019540Y009532D01*
X019540Y009690D02*
X021200Y009690D01*
X021200Y009849D02*
X019540Y009849D01*
X019540Y010007D02*
X021200Y010007D01*
X021200Y010166D02*
X019540Y010166D01*
X019540Y010324D02*
X021200Y010324D01*
X021200Y010483D02*
X019540Y010483D01*
X019540Y010641D02*
X021200Y010641D01*
X021200Y010800D02*
X019540Y010800D01*
X019540Y010958D02*
X021200Y010958D01*
X021200Y011117D02*
X019540Y011117D01*
X019530Y011275D02*
X021200Y011275D01*
X021200Y011434D02*
X019436Y011434D01*
X019277Y011592D02*
X021200Y011592D01*
X021200Y011751D02*
X020503Y011751D01*
X020560Y011762D02*
X020180Y011686D01*
X019800Y011762D01*
X019477Y011977D01*
X019262Y012300D01*
X019186Y012680D01*
X019262Y013060D01*
X019477Y013383D01*
X019800Y013598D01*
X020180Y013674D01*
X020560Y013598D01*
X020883Y013383D01*
X021098Y013060D01*
X021174Y012680D01*
X021098Y012300D01*
X020883Y011977D01*
X020560Y011762D01*
X020780Y011909D02*
X021200Y011909D01*
X021200Y012068D02*
X020943Y012068D01*
X021049Y012226D02*
X021200Y012226D01*
X021200Y012385D02*
X021115Y012385D01*
X021146Y012543D02*
X021200Y012543D01*
X021199Y012702D02*
X021169Y012702D01*
X021179Y012860D02*
X021138Y012860D01*
X021136Y013019D02*
X021106Y013019D01*
X021061Y013177D02*
X021020Y013177D01*
X020955Y013336D02*
X020914Y013336D01*
X020793Y013494D02*
X020716Y013494D01*
X020458Y013653D02*
X020286Y013653D01*
X020074Y013653D02*
X001786Y013653D01*
X001680Y013674D02*
X002060Y013598D01*
X002383Y013383D01*
X002598Y013060D01*
X002674Y012680D01*
X002598Y012300D01*
X002383Y011977D01*
X002060Y011762D01*
X001680Y011686D01*
X001300Y011762D01*
X000977Y011977D01*
X000762Y012300D01*
X000686Y012680D01*
X000762Y013060D01*
X000977Y013383D01*
X001300Y013598D01*
X001680Y013674D01*
X001574Y013653D02*
X001402Y013653D01*
X001144Y013494D02*
X001067Y013494D01*
X000946Y013336D02*
X000905Y013336D01*
X000840Y013177D02*
X000799Y013177D01*
X000754Y013019D02*
X000724Y013019D01*
X000722Y012860D02*
X000681Y012860D01*
X000691Y012702D02*
X000661Y012702D01*
X000660Y012543D02*
X000714Y012543D01*
X000745Y012385D02*
X000660Y012385D01*
X000660Y012226D02*
X000811Y012226D01*
X000917Y012068D02*
X000660Y012068D01*
X000660Y011909D02*
X001080Y011909D01*
X001357Y011751D02*
X000660Y011751D01*
X000660Y011592D02*
X007220Y011592D01*
X007220Y011621D02*
X007220Y011239D01*
X007489Y010970D01*
X007871Y010970D01*
X008051Y011150D01*
X008486Y011150D01*
X008589Y011193D01*
X008667Y011271D01*
X009417Y012021D01*
X009460Y012124D01*
X009460Y012210D01*
X009619Y012370D01*
X009819Y012170D01*
X010030Y012170D01*
X010241Y012170D01*
X010540Y012469D01*
X010540Y012680D01*
X010540Y012891D01*
X010241Y013190D01*
X010030Y013190D01*
X010030Y012680D01*
X010540Y012680D01*
X010030Y012680D01*
X010030Y012680D01*
X010030Y012680D01*
X010030Y012170D01*
X010030Y012680D01*
X010030Y012680D01*
X010030Y013190D01*
X009819Y013190D01*
X009619Y012990D01*
X009400Y013210D01*
X008960Y013210D01*
X008755Y013005D01*
X008550Y013210D01*
X008110Y013210D01*
X007940Y013040D01*
X006471Y013040D01*
X006371Y013140D01*
X005989Y013140D01*
X005889Y013040D01*
X005471Y013040D01*
X005371Y013140D01*
X004989Y013140D01*
X004720Y012871D01*
X004720Y012489D01*
X004989Y012220D01*
X005371Y012220D01*
X005471Y012320D01*
X005889Y012320D01*
X005989Y012220D01*
X006371Y012220D01*
X006471Y012320D01*
X007940Y012320D01*
X008110Y012150D01*
X008550Y012150D01*
X008755Y012355D01*
X008857Y012253D01*
X008314Y011710D01*
X008051Y011710D01*
X007871Y011890D01*
X007489Y011890D01*
X007220Y011621D01*
X007350Y011751D02*
X002003Y011751D01*
X002280Y011909D02*
X008513Y011909D01*
X008355Y011751D02*
X008010Y011751D01*
X007680Y011430D02*
X008430Y011430D01*
X009180Y012180D01*
X009180Y012680D01*
X009591Y013019D02*
X009647Y013019D01*
X009806Y013177D02*
X009433Y013177D01*
X010030Y013177D02*
X010030Y013177D01*
X010030Y013019D02*
X010030Y013019D01*
X010030Y012860D02*
X010030Y012860D01*
X010030Y012702D02*
X010030Y012702D01*
X010030Y012543D02*
X010030Y012543D01*
X010030Y012385D02*
X010030Y012385D01*
X010030Y012226D02*
X010030Y012226D01*
X009763Y012226D02*
X009476Y012226D01*
X009436Y012068D02*
X012220Y012068D01*
X012220Y012226D02*
X010297Y012226D01*
X010456Y012385D02*
X012220Y012385D01*
X012220Y012531D02*
X012290Y012701D01*
X012419Y012830D01*
X012588Y012900D01*
X012771Y012900D01*
X012941Y012830D01*
X013070Y012701D01*
X013140Y012531D01*
X013140Y011828D01*
X013070Y011659D01*
X012941Y011530D01*
X012771Y011460D01*
X012588Y011460D01*
X012419Y011530D01*
X012290Y011659D01*
X012220Y011828D01*
X012220Y012531D01*
X012225Y012543D02*
X010540Y012543D01*
X010540Y012702D02*
X012291Y012702D01*
X012492Y012860D02*
X010540Y012860D01*
X010413Y013019D02*
X013509Y013019D01*
X013365Y012860D02*
X012868Y012860D01*
X013069Y012702D02*
X013291Y012702D01*
X013225Y012543D02*
X013135Y012543D01*
X013140Y012385D02*
X013220Y012385D01*
X013220Y012226D02*
X013140Y012226D01*
X013140Y012068D02*
X013220Y012068D01*
X013220Y011909D02*
X013140Y011909D01*
X013108Y011751D02*
X013252Y011751D01*
X013357Y011592D02*
X013003Y011592D01*
X012357Y011592D02*
X011120Y011592D01*
X011120Y011612D02*
X010862Y011870D01*
X010680Y011870D01*
X010680Y011430D01*
X011120Y011430D01*
X011120Y011612D01*
X011120Y011434D02*
X016276Y011434D01*
X016220Y011489D02*
X016489Y011220D01*
X016871Y011220D01*
X017140Y011489D01*
X017140Y011871D01*
X016871Y012140D01*
X016489Y012140D01*
X016220Y011871D01*
X016220Y011489D01*
X016220Y011592D02*
X016003Y011592D01*
X016108Y011751D02*
X016220Y011751D01*
X016258Y011909D02*
X016140Y011909D01*
X016140Y012068D02*
X016417Y012068D01*
X016483Y012226D02*
X016140Y012226D01*
X016140Y012385D02*
X016325Y012385D01*
X016220Y012543D02*
X016135Y012543D01*
X016149Y012702D02*
X016069Y012702D01*
X016692Y013177D02*
X019340Y013177D01*
X019254Y013019D02*
X018964Y013019D01*
X019120Y012860D02*
X019222Y012860D01*
X019191Y012702D02*
X019120Y012702D01*
X019120Y012543D02*
X019214Y012543D01*
X019245Y012385D02*
X019007Y012385D01*
X018680Y012385D02*
X018680Y012385D01*
X018680Y012543D02*
X018680Y012543D01*
X018680Y012702D02*
X018680Y012702D01*
X018680Y012860D02*
X018680Y012860D01*
X018680Y013019D02*
X018680Y013019D01*
X018396Y013019D02*
X017803Y013019D01*
X018009Y012860D02*
X018240Y012860D01*
X018240Y012702D02*
X018168Y012702D01*
X018643Y012226D02*
X019311Y012226D01*
X019417Y012068D02*
X018802Y012068D01*
X018960Y011909D02*
X019580Y011909D01*
X019857Y011751D02*
X019119Y011751D01*
X018576Y011275D02*
X016926Y011275D01*
X017084Y011434D02*
X018417Y011434D01*
X018259Y011592D02*
X017140Y011592D01*
X017140Y011751D02*
X018100Y011751D01*
X017942Y011909D02*
X017102Y011909D01*
X016943Y012068D02*
X017783Y012068D01*
X017625Y012226D02*
X016877Y012226D01*
X016434Y011275D02*
X011120Y011275D01*
X011120Y011248D02*
X011120Y011430D01*
X010680Y011430D01*
X010680Y011430D01*
X010680Y011430D01*
X010680Y010990D01*
X010862Y010990D01*
X011120Y011248D01*
X010989Y011117D02*
X018734Y011117D01*
X018820Y010958D02*
X018631Y010958D01*
X018637Y010800D02*
X018820Y010800D01*
X018820Y010641D02*
X018637Y010641D01*
X018637Y010483D02*
X018820Y010483D01*
X018820Y010324D02*
X018637Y010324D01*
X018532Y010166D02*
X018820Y010166D01*
X018820Y010007D02*
X018599Y010007D01*
X018637Y009849D02*
X018820Y009849D01*
X018820Y009690D02*
X018620Y009690D01*
X018666Y009532D02*
X018535Y009532D01*
X017870Y009373D02*
X016120Y009373D01*
X016120Y009475D02*
X016109Y009543D01*
X016088Y009609D01*
X016056Y009671D01*
X016016Y009727D01*
X015967Y009776D01*
X015911Y009816D01*
X015849Y009848D01*
X015783Y009869D01*
X015715Y009880D01*
X015680Y009880D01*
X015680Y009180D01*
X016120Y009180D01*
X016120Y009475D01*
X016111Y009532D02*
X017825Y009532D01*
X017740Y009690D02*
X016042Y009690D01*
X015847Y009849D02*
X017723Y009849D01*
X017761Y010007D02*
X012403Y010007D01*
X012464Y009849D02*
X012244Y009849D01*
X012290Y009701D02*
X012419Y009830D01*
X012588Y009900D01*
X012771Y009900D01*
X012941Y009830D01*
X013070Y009701D01*
X013140Y009531D01*
X013140Y008828D01*
X013070Y008659D01*
X012941Y008530D01*
X012771Y008460D01*
X012588Y008460D01*
X012419Y008530D01*
X012290Y008659D01*
X012220Y008828D01*
X012220Y009531D01*
X012290Y009701D01*
X012286Y009690D02*
X012086Y009690D01*
X012220Y009532D02*
X011927Y009532D01*
X011680Y009680D02*
X009180Y009680D01*
X009180Y008680D01*
X008806Y009056D02*
X008704Y009056D01*
X008900Y009215D02*
X004724Y009215D01*
X004829Y009320D02*
X004889Y009320D01*
X004989Y009220D01*
X005371Y009220D01*
X005640Y009489D01*
X005640Y009871D01*
X005371Y010140D01*
X004989Y010140D01*
X004889Y010040D01*
X004608Y010040D01*
X004476Y009985D01*
X004375Y009884D01*
X004375Y009884D01*
X003131Y008640D01*
X002989Y008640D01*
X002720Y008371D01*
X002720Y007989D01*
X002989Y007720D01*
X003371Y007720D01*
X003640Y007989D01*
X003640Y008131D01*
X004829Y009320D01*
X004565Y009056D02*
X007956Y009056D01*
X007800Y008898D02*
X004407Y008898D01*
X004248Y008739D02*
X007800Y008739D01*
X007800Y008581D02*
X004090Y008581D01*
X003931Y008422D02*
X007838Y008422D01*
X007997Y008264D02*
X003773Y008264D01*
X003640Y008105D02*
X005676Y008105D01*
X005731Y008160D02*
X005611Y008040D01*
X004608Y008040D01*
X004476Y007985D01*
X004375Y007884D01*
X004131Y007640D01*
X003989Y007640D01*
X003720Y007371D01*
X003720Y006989D01*
X003989Y006720D01*
X004371Y006720D01*
X004640Y006989D01*
X004640Y007131D01*
X004829Y007320D01*
X005611Y007320D01*
X005731Y007200D01*
X006129Y007200D01*
X006410Y007481D01*
X006410Y007879D01*
X006129Y008160D01*
X005731Y008160D01*
X006184Y008105D02*
X006676Y008105D01*
X006731Y008160D02*
X006450Y007879D01*
X006450Y007481D01*
X006570Y007361D01*
X006570Y006999D01*
X006450Y006879D01*
X006450Y006481D01*
X006731Y006200D01*
X006901Y006200D01*
X008070Y005031D01*
X008070Y004221D01*
X007970Y004121D01*
X007970Y003739D01*
X008239Y003470D01*
X008621Y003470D01*
X008721Y003570D01*
X009139Y003570D01*
X009239Y003470D01*
X009381Y003470D01*
X009476Y003375D01*
X009608Y003320D01*
X010389Y003320D01*
X010419Y003290D01*
X010588Y003220D01*
X010771Y003220D01*
X010941Y003290D01*
X010971Y003320D01*
X011389Y003320D01*
X011419Y003290D01*
X011588Y003220D01*
X011771Y003220D01*
X011941Y003290D01*
X012070Y003419D01*
X012140Y003588D01*
X012140Y003771D01*
X012070Y003941D01*
X011941Y004070D01*
X011771Y004140D01*
X011588Y004140D01*
X011419Y004070D01*
X011389Y004040D01*
X010971Y004040D01*
X010941Y004070D01*
X010771Y004140D01*
X010588Y004140D01*
X010419Y004070D01*
X010389Y004040D01*
X009890Y004040D01*
X009890Y004121D01*
X009621Y004390D01*
X009239Y004390D01*
X009139Y004290D01*
X008790Y004290D01*
X008790Y005252D01*
X014599Y005252D01*
X014531Y005320D02*
X015470Y004381D01*
X015470Y004239D01*
X015570Y004139D01*
X015570Y004029D01*
X015523Y003982D01*
X015450Y003805D01*
X015450Y003055D01*
X015523Y002878D01*
X015658Y002743D01*
X015835Y002670D01*
X016025Y002670D01*
X016202Y002743D01*
X016337Y002878D01*
X016410Y003055D01*
X016410Y003805D01*
X016337Y003982D01*
X016290Y004029D01*
X016290Y004139D01*
X016390Y004239D01*
X016390Y004621D01*
X016121Y004890D01*
X015979Y004890D01*
X014884Y005985D01*
X014752Y006040D01*
X011329Y006040D01*
X011040Y006329D01*
X011040Y006389D01*
X011070Y006419D01*
X011140Y006588D01*
X011140Y006771D01*
X011070Y006941D01*
X010941Y007070D01*
X010771Y007140D01*
X010588Y007140D01*
X010419Y007070D01*
X010290Y006941D01*
X010220Y006771D01*
X010220Y006588D01*
X010290Y006419D01*
X010320Y006389D01*
X010320Y006108D01*
X010375Y005976D01*
X010875Y005476D01*
X010976Y005375D01*
X011108Y005320D01*
X014531Y005320D01*
X014757Y005094D02*
X008790Y005094D01*
X008790Y005252D02*
X008735Y005384D01*
X008634Y005485D01*
X007410Y006709D01*
X007410Y006879D01*
X007290Y006999D01*
X007290Y007361D01*
X007410Y007481D01*
X007410Y007879D01*
X007129Y008160D01*
X006731Y008160D01*
X006518Y007947D02*
X006342Y007947D01*
X006410Y007788D02*
X006450Y007788D01*
X006450Y007630D02*
X006410Y007630D01*
X006400Y007471D02*
X006460Y007471D01*
X006570Y007313D02*
X006241Y007313D01*
X006129Y007160D02*
X005731Y007160D01*
X005450Y006879D01*
X005450Y006709D01*
X005281Y006540D01*
X003471Y006540D01*
X003371Y006640D01*
X002989Y006640D01*
X002720Y006371D01*
X002720Y005989D01*
X002989Y005720D01*
X003371Y005720D01*
X003471Y005820D01*
X005502Y005820D01*
X005634Y005875D01*
X005959Y006200D01*
X006129Y006200D01*
X006410Y006481D01*
X006410Y006879D01*
X006129Y007160D01*
X006135Y007154D02*
X006570Y007154D01*
X006567Y006996D02*
X006293Y006996D01*
X006410Y006837D02*
X006450Y006837D01*
X006450Y006679D02*
X006410Y006679D01*
X006410Y006520D02*
X006450Y006520D01*
X006570Y006362D02*
X006290Y006362D01*
X006132Y006203D02*
X006728Y006203D01*
X007056Y006045D02*
X005804Y006045D01*
X005645Y005886D02*
X007215Y005886D01*
X007373Y005728D02*
X003378Y005728D01*
X002982Y005728D02*
X002540Y005728D01*
X002540Y005886D02*
X002823Y005886D01*
X002720Y006045D02*
X002540Y006045D01*
X002540Y006203D02*
X002720Y006203D01*
X002720Y006362D02*
X002540Y006362D01*
X002540Y006520D02*
X002869Y006520D01*
X002540Y006679D02*
X005419Y006679D01*
X005450Y006837D02*
X004488Y006837D01*
X004640Y006996D02*
X005567Y006996D01*
X005725Y007154D02*
X004663Y007154D01*
X004822Y007313D02*
X005619Y007313D01*
X004437Y007947D02*
X003597Y007947D01*
X003439Y007788D02*
X004279Y007788D01*
X003979Y007630D02*
X002381Y007630D01*
X002540Y007471D02*
X003820Y007471D01*
X003720Y007313D02*
X002640Y007313D01*
X002640Y007154D02*
X003720Y007154D01*
X003720Y006996D02*
X002640Y006996D01*
X002540Y006837D02*
X003872Y006837D01*
X002921Y007788D02*
X000660Y007788D01*
X000660Y007630D02*
X001979Y007630D01*
X001820Y007471D02*
X000660Y007471D01*
X000660Y007313D02*
X001720Y007313D01*
X001720Y007154D02*
X000660Y007154D01*
X000660Y006996D02*
X001720Y006996D01*
X001820Y006837D02*
X000660Y006837D01*
X000660Y006679D02*
X001820Y006679D01*
X001820Y006520D02*
X000660Y006520D01*
X000660Y006362D02*
X001820Y006362D01*
X001820Y006203D02*
X000660Y006203D01*
X000660Y006045D02*
X001820Y006045D01*
X001820Y005886D02*
X000660Y005886D01*
X000660Y005728D02*
X001820Y005728D01*
X001820Y005569D02*
X000660Y005569D01*
X000660Y005411D02*
X001820Y005411D01*
X001820Y005252D02*
X000660Y005252D01*
X000660Y005094D02*
X001820Y005094D01*
X001820Y004935D02*
X000660Y004935D01*
X000660Y004777D02*
X001820Y004777D01*
X001820Y004618D02*
X000660Y004618D01*
X000660Y004460D02*
X001891Y004460D01*
X002050Y004301D02*
X000660Y004301D01*
X000660Y004143D02*
X002208Y004143D01*
X002367Y003984D02*
X000660Y003984D01*
X000660Y003826D02*
X002525Y003826D01*
X002684Y003667D02*
X000660Y003667D01*
X000660Y003509D02*
X002842Y003509D01*
X003001Y003350D02*
X000660Y003350D01*
X000660Y003192D02*
X003159Y003192D01*
X003318Y003033D02*
X000660Y003033D01*
X000660Y002875D02*
X003477Y002875D01*
X003702Y003667D02*
X008042Y003667D01*
X007970Y003826D02*
X003544Y003826D01*
X003385Y003984D02*
X007970Y003984D01*
X007992Y004143D02*
X003227Y004143D01*
X003068Y004301D02*
X004908Y004301D01*
X004989Y004220D02*
X005371Y004220D01*
X005471Y004320D01*
X005889Y004320D01*
X005989Y004220D01*
X006371Y004220D01*
X006640Y004489D01*
X006640Y004871D01*
X006371Y005140D01*
X005989Y005140D01*
X005889Y005040D01*
X005471Y005040D01*
X005371Y005140D01*
X004989Y005140D01*
X004720Y004871D01*
X004720Y004489D01*
X004989Y004220D01*
X004750Y004460D02*
X002910Y004460D01*
X002751Y004618D02*
X004720Y004618D01*
X004720Y004777D02*
X002593Y004777D01*
X002540Y004935D02*
X004784Y004935D01*
X004943Y005094D02*
X002540Y005094D01*
X002540Y005252D02*
X007849Y005252D01*
X008007Y005094D02*
X006417Y005094D01*
X006576Y004935D02*
X008070Y004935D01*
X008070Y004777D02*
X006640Y004777D01*
X006640Y004618D02*
X008070Y004618D01*
X008070Y004460D02*
X006610Y004460D01*
X006452Y004301D02*
X008070Y004301D01*
X008790Y004301D02*
X009150Y004301D01*
X008790Y004460D02*
X015391Y004460D01*
X015233Y004618D02*
X008790Y004618D01*
X008790Y004777D02*
X015074Y004777D01*
X014916Y004935D02*
X008790Y004935D01*
X008709Y005411D02*
X010940Y005411D01*
X010782Y005569D02*
X008550Y005569D01*
X008392Y005728D02*
X010623Y005728D01*
X010465Y005886D02*
X008233Y005886D01*
X008075Y006045D02*
X010346Y006045D01*
X010320Y006203D02*
X007916Y006203D01*
X007758Y006362D02*
X010320Y006362D01*
X010248Y006520D02*
X007599Y006520D01*
X007441Y006679D02*
X010220Y006679D01*
X010247Y006837D02*
X007410Y006837D01*
X007293Y006996D02*
X010345Y006996D01*
X011015Y006996D02*
X011345Y006996D01*
X011290Y006941D02*
X011220Y006771D01*
X011220Y006588D01*
X011290Y006419D01*
X011419Y006290D01*
X011588Y006220D01*
X011771Y006220D01*
X011941Y006290D01*
X011971Y006320D01*
X012389Y006320D01*
X012419Y006290D01*
X012588Y006220D01*
X012771Y006220D01*
X012941Y006290D01*
X013070Y006419D01*
X013140Y006588D01*
X013140Y006771D01*
X013070Y006941D01*
X012941Y007070D01*
X012771Y007140D01*
X012588Y007140D01*
X012419Y007070D01*
X012389Y007040D01*
X011971Y007040D01*
X011941Y007070D01*
X011771Y007140D01*
X011588Y007140D01*
X011419Y007070D01*
X011290Y006941D01*
X011247Y006837D02*
X011113Y006837D01*
X011140Y006679D02*
X011220Y006679D01*
X011248Y006520D02*
X011112Y006520D01*
X011040Y006362D02*
X011348Y006362D01*
X011166Y006203D02*
X015535Y006203D01*
X015490Y006248D02*
X015490Y006430D01*
X015930Y006430D01*
X015930Y006430D01*
X015930Y006870D01*
X016112Y006870D01*
X016370Y006612D01*
X016370Y006430D01*
X015930Y006430D01*
X015930Y006430D01*
X015930Y006430D01*
X015930Y006870D01*
X015748Y006870D01*
X015490Y006612D01*
X015490Y006430D01*
X015930Y006430D01*
X016370Y006430D01*
X016370Y006248D01*
X016112Y005990D01*
X015930Y005990D01*
X015930Y006430D01*
X015930Y006430D01*
X015930Y005990D01*
X015748Y005990D01*
X015490Y006248D01*
X015490Y006362D02*
X015012Y006362D01*
X015140Y006489D02*
X014871Y006220D01*
X014489Y006220D01*
X014389Y006320D01*
X013971Y006320D01*
X013941Y006290D01*
X013771Y006220D01*
X013588Y006220D01*
X013419Y006290D01*
X013290Y006419D01*
X013220Y006588D01*
X013220Y006771D01*
X013290Y006941D01*
X013419Y007070D01*
X013588Y007140D01*
X013771Y007140D01*
X013941Y007070D01*
X013971Y007040D01*
X014389Y007040D01*
X014489Y007140D01*
X014871Y007140D01*
X015140Y006871D01*
X015140Y006489D01*
X015140Y006520D02*
X015490Y006520D01*
X015556Y006679D02*
X015140Y006679D01*
X015140Y006837D02*
X015715Y006837D01*
X015930Y006837D02*
X015930Y006837D01*
X015930Y006679D02*
X015930Y006679D01*
X015930Y006520D02*
X015930Y006520D01*
X015930Y006362D02*
X015930Y006362D01*
X015930Y006203D02*
X015930Y006203D01*
X015930Y006045D02*
X015930Y006045D01*
X016167Y006045D02*
X017723Y006045D01*
X017579Y006203D02*
X016325Y006203D01*
X016370Y006362D02*
X017420Y006362D01*
X017262Y006520D02*
X016370Y006520D01*
X016304Y006679D02*
X017103Y006679D01*
X016945Y006837D02*
X016145Y006837D01*
X016628Y007154D02*
X007290Y007154D01*
X007290Y007313D02*
X014675Y007313D01*
X014748Y007240D02*
X014930Y007240D01*
X015112Y007240D01*
X015370Y007498D01*
X015370Y007680D01*
X015370Y007862D01*
X015112Y008120D01*
X014930Y008120D01*
X014930Y007680D01*
X015370Y007680D01*
X014930Y007680D01*
X014930Y007680D01*
X014930Y007680D01*
X014930Y007240D01*
X014930Y007680D01*
X014930Y007680D01*
X014930Y007680D01*
X014490Y007680D01*
X014490Y007862D01*
X014748Y008120D01*
X014930Y008120D01*
X014930Y007680D01*
X014490Y007680D01*
X014490Y007498D01*
X014748Y007240D01*
X014930Y007313D02*
X014930Y007313D01*
X015185Y007313D02*
X016570Y007313D01*
X016488Y007471D02*
X015343Y007471D01*
X015370Y007630D02*
X016470Y007630D01*
X016470Y007788D02*
X015370Y007788D01*
X015286Y007947D02*
X016546Y007947D01*
X016570Y008105D02*
X015127Y008105D01*
X014930Y008105D02*
X014930Y008105D01*
X014930Y007947D02*
X014930Y007947D01*
X014930Y007788D02*
X014930Y007788D01*
X014930Y007630D02*
X014930Y007630D01*
X014930Y007471D02*
X014930Y007471D01*
X014517Y007471D02*
X007400Y007471D01*
X007410Y007630D02*
X014490Y007630D01*
X014490Y007788D02*
X007410Y007788D01*
X007342Y007947D02*
X014574Y007947D01*
X014733Y008105D02*
X007184Y008105D01*
X008663Y008264D02*
X008847Y008264D01*
X009513Y008264D02*
X009725Y008264D01*
X010030Y008264D02*
X010030Y008264D01*
X010030Y008422D02*
X010030Y008422D01*
X010030Y008581D02*
X010030Y008581D01*
X010030Y008739D02*
X010030Y008739D01*
X010030Y008898D02*
X010030Y008898D01*
X010030Y009056D02*
X010030Y009056D01*
X009685Y009056D02*
X009554Y009056D01*
X009460Y009215D02*
X012220Y009215D01*
X012220Y009373D02*
X009460Y009373D01*
X009180Y009680D02*
X008430Y010430D01*
X007680Y010430D01*
X007220Y010483D02*
X000660Y010483D01*
X000660Y010641D02*
X007240Y010641D01*
X007399Y010800D02*
X000660Y010800D01*
X000660Y010958D02*
X017729Y010958D01*
X018180Y010611D02*
X012611Y010611D01*
X011680Y009680D01*
X011611Y010007D02*
X010879Y010007D01*
X010862Y009990D02*
X011120Y010248D01*
X011120Y010430D01*
X011120Y010612D01*
X010862Y010870D01*
X010680Y010870D01*
X010680Y010430D01*
X011120Y010430D01*
X010680Y010430D01*
X010680Y010430D01*
X010680Y010430D01*
X010680Y009990D01*
X010862Y009990D01*
X010680Y009990D02*
X010680Y010430D01*
X010680Y010430D01*
X010680Y010430D01*
X010240Y010430D01*
X010240Y010612D01*
X010498Y010870D01*
X010680Y010870D01*
X010680Y010430D01*
X010240Y010430D01*
X010240Y010248D01*
X010498Y009990D01*
X010680Y009990D01*
X010680Y010007D02*
X010680Y010007D01*
X010680Y010166D02*
X010680Y010166D01*
X010680Y010324D02*
X010680Y010324D01*
X010680Y010483D02*
X010680Y010483D01*
X010680Y010641D02*
X010680Y010641D01*
X010680Y010800D02*
X010680Y010800D01*
X010680Y010990D02*
X010680Y011430D01*
X010680Y011430D01*
X010680Y011430D01*
X010240Y011430D01*
X010240Y011612D01*
X010498Y011870D01*
X010680Y011870D01*
X010680Y011430D01*
X010240Y011430D01*
X010240Y011248D01*
X010498Y010990D01*
X010680Y010990D01*
X010680Y011117D02*
X010680Y011117D01*
X010680Y011275D02*
X010680Y011275D01*
X010680Y011434D02*
X010680Y011434D01*
X010680Y011592D02*
X010680Y011592D01*
X010680Y011751D02*
X010680Y011751D01*
X010378Y011751D02*
X009146Y011751D01*
X008988Y011592D02*
X010240Y011592D01*
X010240Y011434D02*
X008829Y011434D01*
X008671Y011275D02*
X010240Y011275D01*
X010371Y011117D02*
X008017Y011117D01*
X007961Y010800D02*
X010427Y010800D01*
X010269Y010641D02*
X008615Y010641D01*
X008773Y010483D02*
X010240Y010483D01*
X010240Y010324D02*
X008932Y010324D01*
X009090Y010166D02*
X010322Y010166D01*
X010481Y010007D02*
X009249Y010007D01*
X008774Y009690D02*
X006620Y009690D01*
X006620Y009680D02*
X006620Y009862D01*
X006362Y010120D01*
X006180Y010120D01*
X006180Y009680D01*
X006180Y009680D01*
X006620Y009680D01*
X006180Y009680D01*
X006180Y009680D01*
X006180Y009680D01*
X005740Y009680D01*
X005740Y009862D01*
X005998Y010120D01*
X006180Y010120D01*
X006180Y009680D01*
X006180Y009240D01*
X006362Y009240D01*
X006620Y009498D01*
X006620Y009680D01*
X006620Y009532D02*
X008900Y009532D01*
X008900Y009373D02*
X006495Y009373D01*
X006180Y009373D02*
X006180Y009373D01*
X006180Y009240D02*
X005998Y009240D01*
X005740Y009498D01*
X005740Y009680D01*
X006180Y009680D01*
X006180Y009680D01*
X006180Y009240D01*
X006180Y009532D02*
X006180Y009532D01*
X006180Y009690D02*
X006180Y009690D01*
X006180Y009849D02*
X006180Y009849D01*
X006180Y010007D02*
X006180Y010007D01*
X006475Y010007D02*
X007452Y010007D01*
X007294Y010166D02*
X000660Y010166D01*
X000660Y010324D02*
X007220Y010324D01*
X007908Y010007D02*
X008457Y010007D01*
X008616Y009849D02*
X006620Y009849D01*
X005885Y010007D02*
X005504Y010007D01*
X005640Y009849D02*
X005740Y009849D01*
X005740Y009690D02*
X005640Y009690D01*
X005640Y009532D02*
X005740Y009532D01*
X005865Y009373D02*
X005524Y009373D01*
X004529Y010007D02*
X000660Y010007D01*
X000660Y009849D02*
X004339Y009849D01*
X004181Y009690D02*
X000660Y009690D01*
X000660Y009532D02*
X004022Y009532D01*
X003864Y009373D02*
X000660Y009373D01*
X000660Y009215D02*
X003705Y009215D01*
X003547Y009056D02*
X000660Y009056D01*
X000660Y008898D02*
X003388Y008898D01*
X003230Y008739D02*
X000660Y008739D01*
X000660Y008581D02*
X002930Y008581D01*
X002771Y008422D02*
X000660Y008422D01*
X000660Y008264D02*
X002720Y008264D01*
X002720Y008105D02*
X000660Y008105D01*
X000660Y007947D02*
X002763Y007947D01*
X002540Y005569D02*
X007532Y005569D01*
X007690Y005411D02*
X002540Y005411D01*
X005417Y005094D02*
X005943Y005094D01*
X005908Y004301D02*
X005452Y004301D01*
X005328Y003509D02*
X008201Y003509D01*
X008659Y003509D02*
X009201Y003509D01*
X009536Y003350D02*
X005519Y003350D01*
X005678Y003192D02*
X014320Y003192D01*
X014320Y003350D02*
X013972Y003350D01*
X013967Y003344D02*
X014016Y003393D01*
X014056Y003449D01*
X014088Y003511D01*
X014109Y003577D01*
X014120Y003645D01*
X014120Y003680D01*
X014120Y003715D01*
X014109Y003783D01*
X014088Y003849D01*
X014056Y003911D01*
X014016Y003967D01*
X013967Y004016D01*
X013911Y004056D01*
X013849Y004088D01*
X013783Y004109D01*
X013715Y004120D01*
X013680Y004120D01*
X013680Y003680D01*
X013680Y003680D01*
X014120Y003680D01*
X013680Y003680D01*
X013680Y003680D01*
X013680Y003680D01*
X013240Y003680D01*
X013240Y003715D01*
X013251Y003783D01*
X013272Y003849D01*
X013304Y003911D01*
X013344Y003967D01*
X013393Y004016D01*
X013449Y004056D01*
X013511Y004088D01*
X013577Y004109D01*
X013645Y004120D01*
X013680Y004120D01*
X013680Y003680D01*
X013680Y003240D01*
X013715Y003240D01*
X013783Y003251D01*
X013849Y003272D01*
X013911Y003304D01*
X013967Y003344D01*
X014086Y003509D02*
X014220Y003509D01*
X014220Y003667D02*
X014120Y003667D01*
X014095Y003826D02*
X014220Y003826D01*
X014333Y003984D02*
X013998Y003984D01*
X013680Y003984D02*
X013680Y003984D01*
X013680Y003826D02*
X013680Y003826D01*
X013680Y003680D02*
X013240Y003680D01*
X013240Y003645D01*
X013251Y003577D01*
X013272Y003511D01*
X013304Y003449D01*
X013344Y003393D01*
X013393Y003344D01*
X013449Y003304D01*
X013511Y003272D01*
X013577Y003251D01*
X013645Y003240D01*
X013680Y003240D01*
X013680Y003680D01*
X013680Y003680D01*
X013680Y003667D02*
X013680Y003667D01*
X013680Y003509D02*
X013680Y003509D01*
X013680Y003350D02*
X013680Y003350D01*
X013388Y003350D02*
X013001Y003350D01*
X012941Y003290D02*
X013070Y003419D01*
X013140Y003588D01*
X013140Y003771D01*
X013070Y003941D01*
X012941Y004070D01*
X012771Y004140D01*
X012588Y004140D01*
X012419Y004070D01*
X012290Y003941D01*
X012220Y003771D01*
X012220Y003588D01*
X012290Y003419D01*
X012419Y003290D01*
X012588Y003220D01*
X012771Y003220D01*
X012941Y003290D01*
X013107Y003509D02*
X013274Y003509D01*
X013240Y003667D02*
X013140Y003667D01*
X013118Y003826D02*
X013265Y003826D01*
X013362Y003984D02*
X013027Y003984D01*
X012333Y003984D02*
X012027Y003984D01*
X012118Y003826D02*
X012242Y003826D01*
X012220Y003667D02*
X012140Y003667D01*
X012107Y003509D02*
X012253Y003509D01*
X012359Y003350D02*
X012001Y003350D01*
X009868Y004143D02*
X015567Y004143D01*
X015525Y003984D02*
X015027Y003984D01*
X015140Y003826D02*
X015458Y003826D01*
X015450Y003667D02*
X015140Y003667D01*
X015140Y003509D02*
X015450Y003509D01*
X015450Y003350D02*
X015040Y003350D01*
X015040Y003192D02*
X015450Y003192D01*
X015459Y003033D02*
X015040Y003033D01*
X015040Y002875D02*
X015527Y002875D01*
X015723Y002716D02*
X015153Y002716D01*
X015312Y002558D02*
X016048Y002558D01*
X016137Y002716D02*
X016207Y002716D01*
X016333Y002875D02*
X016365Y002875D01*
X016401Y003033D02*
X016459Y003033D01*
X016450Y003192D02*
X016410Y003192D01*
X016410Y003350D02*
X016450Y003350D01*
X016450Y003509D02*
X016410Y003509D01*
X016410Y003667D02*
X016450Y003667D01*
X016458Y003826D02*
X016402Y003826D01*
X016335Y003984D02*
X016525Y003984D01*
X016633Y004143D02*
X016293Y004143D01*
X016390Y004301D02*
X016792Y004301D01*
X016950Y004460D02*
X016390Y004460D01*
X016390Y004618D02*
X017109Y004618D01*
X017267Y004777D02*
X016234Y004777D01*
X015934Y004935D02*
X017923Y004935D01*
X017780Y005094D02*
X015776Y005094D01*
X015617Y005252D02*
X017723Y005252D01*
X017723Y005411D02*
X015459Y005411D01*
X015300Y005569D02*
X017786Y005569D01*
X017766Y005728D02*
X015142Y005728D01*
X014983Y005886D02*
X017723Y005886D01*
X018574Y005569D02*
X018820Y005569D01*
X018820Y005411D02*
X018637Y005411D01*
X018637Y005252D02*
X018820Y005252D01*
X018820Y005094D02*
X018580Y005094D01*
X018437Y004935D02*
X018820Y004935D01*
X018820Y005728D02*
X018594Y005728D01*
X018637Y005886D02*
X018820Y005886D01*
X018820Y006045D02*
X018637Y006045D01*
X018637Y006203D02*
X018820Y006203D01*
X018820Y006362D02*
X018637Y006362D01*
X018569Y006520D02*
X018820Y006520D01*
X018820Y006679D02*
X018122Y006679D01*
X017963Y006837D02*
X018820Y006837D01*
X018820Y006996D02*
X017805Y006996D01*
X017646Y007154D02*
X018820Y007154D01*
X018820Y007313D02*
X017488Y007313D01*
X017372Y007471D02*
X018820Y007471D01*
X018820Y007630D02*
X017390Y007630D01*
X017390Y007788D02*
X018820Y007788D01*
X018820Y007947D02*
X018496Y007947D01*
X018514Y007964D02*
X018554Y008020D01*
X018585Y008081D01*
X018607Y008146D01*
X018617Y008214D01*
X018617Y008249D01*
X018180Y008249D01*
X017743Y008249D01*
X017743Y008214D01*
X017753Y008146D01*
X017775Y008081D01*
X017806Y008020D01*
X017846Y007964D01*
X017895Y007915D01*
X017951Y007875D01*
X018012Y007843D01*
X018078Y007822D01*
X018146Y007811D01*
X018180Y007811D01*
X018214Y007811D01*
X018282Y007822D01*
X018348Y007843D01*
X018409Y007875D01*
X018465Y007915D01*
X018514Y007964D01*
X018593Y008105D02*
X018820Y008105D01*
X018820Y008264D02*
X018617Y008264D01*
X018583Y008422D02*
X018820Y008422D01*
X018770Y008581D02*
X018467Y008581D01*
X018180Y008249D02*
X018180Y007811D01*
X018180Y008249D01*
X018180Y008249D01*
X018180Y008105D02*
X018180Y008105D01*
X018180Y007947D02*
X018180Y007947D01*
X017864Y007947D02*
X017314Y007947D01*
X017290Y008105D02*
X017767Y008105D01*
X017743Y008264D02*
X017290Y008264D01*
X017290Y008422D02*
X017777Y008422D01*
X017893Y008581D02*
X017257Y008581D01*
X017140Y008739D02*
X017830Y008739D01*
X017742Y008898D02*
X017113Y008898D01*
X016955Y009056D02*
X017723Y009056D01*
X017759Y009215D02*
X016120Y009215D01*
X016120Y009180D02*
X015680Y009180D01*
X015680Y009180D01*
X015680Y009180D01*
X015680Y008480D01*
X015715Y008480D01*
X015783Y008491D01*
X015849Y008512D01*
X015911Y008544D01*
X015967Y008584D01*
X016016Y008633D01*
X016056Y008689D01*
X016088Y008751D01*
X016109Y008817D01*
X016120Y008885D01*
X016120Y009180D01*
X016120Y009056D02*
X016405Y009056D01*
X016247Y008898D02*
X016120Y008898D01*
X016082Y008739D02*
X016220Y008739D01*
X016220Y008581D02*
X015961Y008581D01*
X016287Y008422D02*
X010493Y008422D01*
X010540Y008581D02*
X012369Y008581D01*
X012257Y008739D02*
X010540Y008739D01*
X010534Y008898D02*
X012220Y008898D01*
X012220Y009056D02*
X010375Y009056D01*
X010335Y008264D02*
X016446Y008264D01*
X015680Y008480D02*
X015680Y009180D01*
X015680Y009180D01*
X015680Y009180D01*
X015240Y009180D01*
X015240Y009475D01*
X015251Y009543D01*
X015272Y009609D01*
X015304Y009671D01*
X015344Y009727D01*
X015393Y009776D01*
X015449Y009816D01*
X015511Y009848D01*
X015577Y009869D01*
X015645Y009880D01*
X015680Y009880D01*
X015680Y009180D01*
X015240Y009180D01*
X015240Y008885D01*
X015251Y008817D01*
X015272Y008751D01*
X015304Y008689D01*
X015344Y008633D01*
X015393Y008584D01*
X015449Y008544D01*
X015511Y008512D01*
X015577Y008491D01*
X015645Y008480D01*
X015680Y008480D01*
X015680Y008581D02*
X015680Y008581D01*
X015680Y008739D02*
X015680Y008739D01*
X015680Y008898D02*
X015680Y008898D01*
X015680Y009056D02*
X015680Y009056D01*
X015680Y009215D02*
X015680Y009215D01*
X015680Y009373D02*
X015680Y009373D01*
X015680Y009532D02*
X015680Y009532D01*
X015680Y009690D02*
X015680Y009690D01*
X015680Y009849D02*
X015680Y009849D01*
X015513Y009849D02*
X014896Y009849D01*
X014941Y009830D02*
X014771Y009900D01*
X014588Y009900D01*
X014419Y009830D01*
X014290Y009701D01*
X014220Y009531D01*
X014220Y008828D01*
X014290Y008659D01*
X014419Y008530D01*
X014588Y008460D01*
X014771Y008460D01*
X014941Y008530D01*
X015070Y008659D01*
X015140Y008828D01*
X015140Y009531D01*
X015070Y009701D01*
X014941Y009830D01*
X015074Y009690D02*
X015318Y009690D01*
X015249Y009532D02*
X015140Y009532D01*
X015140Y009373D02*
X015240Y009373D01*
X015240Y009215D02*
X015140Y009215D01*
X015140Y009056D02*
X015240Y009056D01*
X015240Y008898D02*
X015140Y008898D01*
X015103Y008739D02*
X015278Y008739D01*
X015399Y008581D02*
X014991Y008581D01*
X014369Y008581D02*
X013991Y008581D01*
X013941Y008530D02*
X014070Y008659D01*
X014140Y008828D01*
X014140Y009531D01*
X014070Y009701D01*
X013941Y009830D01*
X013771Y009900D01*
X013588Y009900D01*
X013419Y009830D01*
X013290Y009701D01*
X013220Y009531D01*
X013220Y008828D01*
X013290Y008659D01*
X013419Y008530D01*
X013588Y008460D01*
X013771Y008460D01*
X013941Y008530D01*
X014103Y008739D02*
X014257Y008739D01*
X014220Y008898D02*
X014140Y008898D01*
X014140Y009056D02*
X014220Y009056D01*
X014220Y009215D02*
X014140Y009215D01*
X014140Y009373D02*
X014220Y009373D01*
X014220Y009532D02*
X014140Y009532D01*
X014074Y009690D02*
X014286Y009690D01*
X014464Y009849D02*
X013896Y009849D01*
X013464Y009849D02*
X012896Y009849D01*
X013074Y009690D02*
X013286Y009690D01*
X013220Y009532D02*
X013140Y009532D01*
X013140Y009373D02*
X013220Y009373D01*
X013220Y009215D02*
X013140Y009215D01*
X013140Y009056D02*
X013220Y009056D01*
X013220Y008898D02*
X013140Y008898D01*
X013103Y008739D02*
X013257Y008739D01*
X013369Y008581D02*
X012991Y008581D01*
X013015Y006996D02*
X013345Y006996D01*
X013247Y006837D02*
X013113Y006837D01*
X013140Y006679D02*
X013220Y006679D01*
X013248Y006520D02*
X013112Y006520D01*
X013012Y006362D02*
X013348Y006362D01*
X015015Y006996D02*
X016786Y006996D01*
X015693Y006045D02*
X011325Y006045D01*
X009710Y004301D02*
X015470Y004301D01*
X014320Y003033D02*
X005836Y003033D01*
X005995Y002875D02*
X014320Y002875D01*
X014320Y002716D02*
X006153Y002716D01*
X006312Y002558D02*
X014341Y002558D01*
X014769Y002082D02*
X009870Y002082D01*
X009870Y001924D02*
X014927Y001924D01*
X012561Y010166D02*
X017828Y010166D01*
X017723Y010324D02*
X012720Y010324D01*
X012245Y010641D02*
X011091Y010641D01*
X010933Y010800D02*
X012404Y010800D01*
X012087Y010483D02*
X011120Y010483D01*
X011120Y010324D02*
X011928Y010324D01*
X011770Y010166D02*
X011038Y010166D01*
X010982Y011751D02*
X012252Y011751D01*
X012220Y011909D02*
X009305Y011909D01*
X008830Y012226D02*
X008626Y012226D01*
X008672Y012068D02*
X002443Y012068D01*
X002549Y012226D02*
X004983Y012226D01*
X004825Y012385D02*
X002615Y012385D01*
X002646Y012543D02*
X004720Y012543D01*
X004720Y012702D02*
X002669Y012702D01*
X002638Y012860D02*
X004720Y012860D01*
X004868Y013019D02*
X002606Y013019D01*
X002520Y013177D02*
X008077Y013177D01*
X008583Y013177D02*
X008927Y013177D01*
X008769Y013019D02*
X008741Y013019D01*
X008034Y012226D02*
X006377Y012226D01*
X005983Y012226D02*
X005377Y012226D01*
X007220Y011434D02*
X000660Y011434D01*
X000660Y011275D02*
X007220Y011275D01*
X007343Y011117D02*
X000660Y011117D01*
X002414Y013336D02*
X013826Y013336D01*
X013668Y013177D02*
X010254Y013177D01*
X013997Y013494D02*
X002216Y013494D01*
X014003Y011592D02*
X014357Y011592D01*
X014252Y011751D02*
X014108Y011751D01*
X014140Y011909D02*
X014220Y011909D01*
X014220Y012068D02*
X014140Y012068D01*
X014140Y012226D02*
X014220Y012226D01*
X014220Y012385D02*
X014140Y012385D01*
X014135Y012543D02*
X014225Y012543D01*
X014211Y012702D02*
X014291Y012702D01*
X015069Y012702D02*
X015291Y012702D01*
X015225Y012543D02*
X015135Y012543D01*
X015140Y012385D02*
X015220Y012385D01*
X015220Y012226D02*
X015140Y012226D01*
X015140Y012068D02*
X015220Y012068D01*
X015220Y011909D02*
X015140Y011909D01*
X015108Y011751D02*
X015252Y011751D01*
X015357Y011592D02*
X015003Y011592D01*
X016534Y013336D02*
X019446Y013336D01*
X019644Y013494D02*
X016363Y013494D01*
X001547Y000669D02*
X001547Y000669D01*
D21*
X003680Y003180D02*
X002180Y004680D01*
X002180Y007180D01*
X003180Y008180D02*
X004680Y009680D01*
X005180Y009680D01*
X004680Y007680D02*
X005930Y007680D01*
X006930Y007680D02*
X006930Y006680D01*
X008430Y005180D01*
X008430Y003930D01*
X009430Y003930D01*
X009680Y003680D01*
X010680Y003680D01*
X011680Y003680D01*
X011180Y005680D02*
X014680Y005680D01*
X015930Y004430D01*
X015930Y003430D01*
X016930Y003430D02*
X016930Y002930D01*
X016180Y002180D01*
X015180Y002180D01*
X014680Y002680D01*
X014680Y003680D01*
X016930Y003430D02*
X016930Y003930D01*
X017536Y004536D01*
X018180Y004536D01*
X019036Y004536D01*
X019180Y004680D01*
X019180Y008680D01*
X018824Y009036D01*
X018680Y009036D01*
X019180Y009536D01*
X019180Y011180D01*
X017680Y012680D01*
X016680Y012680D01*
X016180Y013180D01*
X014180Y013180D01*
X013680Y012680D01*
X013680Y012180D01*
X018180Y009036D02*
X018680Y009036D01*
X016930Y008430D02*
X016680Y008680D01*
X016930Y008430D02*
X016930Y007680D01*
X016930Y007361D01*
X018180Y006111D01*
X014680Y006680D02*
X013680Y006680D01*
X012680Y006680D02*
X011680Y006680D01*
X010680Y006680D02*
X010680Y006180D01*
X011180Y005680D01*
X006180Y004680D02*
X005180Y004680D01*
X005180Y003180D02*
X003680Y003180D01*
X005180Y003180D02*
X006180Y002180D01*
X006180Y001680D01*
X005430Y006180D02*
X003180Y006180D01*
X004180Y007180D02*
X004680Y007680D01*
X005930Y006680D02*
X005430Y006180D01*
X005180Y012680D02*
X006180Y012680D01*
X006680Y012680D01*
X008330Y012680D01*
M02*
