G75*
G70*
%OFA0B0*%
%FSLAX24Y24*%
%IPPOS*%
%LPD*%
%AMOC8*
5,1,8,0,0,1.08239X$1,22.5*
%
%ADD10OC8,0.0520*%
%ADD11C,0.0520*%
%ADD12R,0.0515X0.0515*%
%ADD13C,0.0515*%
%ADD14OC8,0.0660*%
%ADD15C,0.0560*%
%ADD16C,0.0520*%
%ADD17C,0.0104*%
%ADD18OC8,0.0560*%
%ADD19C,0.1384*%
%ADD20C,0.0160*%
%ADD21C,0.0320*%
D10*
X005180Y001680D03*
X006180Y001680D03*
X008430Y001930D03*
X009430Y001930D03*
X009430Y003930D03*
X008430Y003930D03*
X006180Y004680D03*
X005180Y004680D03*
X004180Y007180D03*
X003180Y008180D03*
X002180Y007180D03*
X005180Y009680D03*
X006180Y009680D03*
X007680Y010430D03*
X007680Y011430D03*
X006180Y012680D03*
X005180Y012680D03*
X010680Y011430D03*
X010680Y010430D03*
X014930Y007680D03*
X014680Y006680D03*
X015930Y006430D03*
X016930Y007680D03*
X016680Y008680D03*
X016680Y011680D03*
X016680Y012680D03*
X018680Y012680D03*
X015930Y004430D03*
X014680Y003680D03*
D11*
X013680Y003680D03*
X012680Y003680D03*
X011680Y003680D03*
X010680Y003680D03*
X010680Y006680D03*
X011680Y006680D03*
X012680Y006680D03*
X013680Y006680D03*
D12*
X018180Y006111D03*
X018180Y010611D03*
D13*
X018180Y009824D03*
X018180Y009036D03*
X018180Y008249D03*
X018180Y005324D03*
X018180Y004536D03*
X018180Y003749D03*
D14*
X010030Y008680D03*
X009180Y008680D03*
X008330Y008680D03*
X008330Y012680D03*
X009180Y012680D03*
X010030Y012680D03*
D15*
X015930Y003710D02*
X015930Y003150D01*
X016930Y003150D02*
X016930Y003710D01*
D16*
X015680Y008920D02*
X015680Y009440D01*
X014680Y009440D02*
X014680Y008920D01*
X013680Y008920D02*
X013680Y009440D01*
X012680Y009440D02*
X012680Y008920D01*
X012680Y011920D02*
X012680Y012440D01*
X013680Y012440D02*
X013680Y011920D01*
X014680Y011920D02*
X014680Y012440D01*
X015680Y012440D02*
X015680Y011920D01*
D17*
X003025Y006146D02*
X002973Y006094D01*
X002973Y006266D01*
X003094Y006387D01*
X003266Y006387D01*
X003387Y006266D01*
X003387Y006094D01*
X003266Y005973D01*
X003094Y005973D01*
X002973Y006094D01*
X003051Y006126D01*
X003051Y006234D01*
X003126Y006309D01*
X003234Y006309D01*
X003309Y006234D01*
X003309Y006126D01*
X003234Y006051D01*
X003126Y006051D01*
X003051Y006126D01*
X003129Y006159D01*
X003129Y006201D01*
X003159Y006231D01*
X003201Y006231D01*
X003231Y006201D01*
X003231Y006159D01*
X003201Y006129D01*
X003159Y006129D01*
X003129Y006159D01*
D18*
X005930Y006680D03*
X006930Y006680D03*
X006930Y007680D03*
X005930Y007680D03*
D19*
X001680Y012680D03*
X001680Y001680D03*
X020180Y001680D03*
X020180Y012680D03*
D20*
X001290Y000738D02*
X001059Y000871D01*
X000871Y001059D01*
X000738Y001290D01*
X000669Y001547D01*
X000660Y001680D01*
X000660Y012680D01*
X000669Y012813D01*
X000738Y013070D01*
X000871Y013301D01*
X001059Y013489D01*
X001290Y013622D01*
X001547Y013691D01*
X001680Y013700D01*
X009350Y013700D01*
X009271Y013667D01*
X009021Y013417D01*
X008943Y013339D01*
X008900Y013236D01*
X008900Y013150D01*
X008755Y013005D01*
X008550Y013210D01*
X008110Y013210D01*
X007800Y012900D01*
X007800Y012460D01*
X008110Y012150D01*
X008550Y012150D01*
X008755Y012355D01*
X008960Y012150D01*
X009400Y012150D01*
X009619Y012370D01*
X009819Y012170D01*
X010030Y012170D01*
X010241Y012170D01*
X010540Y012469D01*
X010540Y012680D01*
X010540Y012891D01*
X010281Y013150D01*
X017314Y013150D01*
X017400Y013064D01*
X017400Y012296D01*
X017271Y012167D01*
X017193Y012089D01*
X017150Y011986D01*
X017150Y010124D01*
X017193Y010021D01*
X017400Y009814D01*
X017400Y009768D01*
X017443Y009665D01*
X017521Y009586D01*
X017624Y009544D01*
X017813Y009544D01*
X017921Y009436D01*
X017935Y009430D01*
X017921Y009424D01*
X017792Y009295D01*
X017723Y009127D01*
X017723Y008945D01*
X017792Y008777D01*
X017921Y008648D01*
X017965Y008630D01*
X017951Y008623D01*
X017895Y008583D01*
X017846Y008534D01*
X017806Y008478D01*
X017775Y008417D01*
X017753Y008351D01*
X017743Y008283D01*
X017743Y008249D01*
X018180Y008249D01*
X018180Y008249D01*
X018617Y008249D01*
X018617Y008283D01*
X018607Y008351D01*
X018585Y008417D01*
X018554Y008478D01*
X018514Y008534D01*
X018465Y008583D01*
X018409Y008623D01*
X018395Y008630D01*
X018439Y008648D01*
X018568Y008777D01*
X018637Y008945D01*
X018637Y009127D01*
X018568Y009295D01*
X018439Y009424D01*
X018425Y009430D01*
X018439Y009436D01*
X018568Y009565D01*
X018637Y009733D01*
X018637Y009915D01*
X018568Y010083D01*
X018497Y010154D01*
X018520Y010154D01*
X018637Y010271D01*
X018637Y010951D01*
X018520Y011069D01*
X017840Y011069D01*
X017723Y010951D01*
X017723Y010283D01*
X017710Y010296D01*
X017710Y011814D01*
X017917Y012021D01*
X017960Y012124D01*
X017960Y013236D01*
X017917Y013339D01*
X017839Y013417D01*
X017589Y013667D01*
X017510Y013700D01*
X020180Y013700D01*
X020313Y013691D01*
X020570Y013622D01*
X020801Y013489D01*
X020989Y013301D01*
X021122Y013070D01*
X021191Y012813D01*
X021200Y012680D01*
X021200Y001680D01*
X021191Y001547D01*
X021122Y001290D01*
X020989Y001059D01*
X020801Y000871D01*
X020570Y000738D01*
X020313Y000669D01*
X020180Y000660D01*
X001680Y000660D01*
X001547Y000669D01*
X001290Y000738D01*
X001300Y000762D02*
X001680Y000686D01*
X002060Y000762D01*
X002383Y000977D01*
X002598Y001300D01*
X002674Y001680D01*
X002598Y002060D01*
X002383Y002383D01*
X002060Y002598D01*
X001680Y002674D01*
X001300Y002598D01*
X000977Y002383D01*
X000762Y002060D01*
X000686Y001680D01*
X000762Y001300D01*
X000977Y000977D01*
X001300Y000762D01*
X001222Y000814D02*
X001157Y000814D01*
X000985Y000973D02*
X000957Y000973D01*
X000875Y001131D02*
X000829Y001131D01*
X000769Y001290D02*
X000738Y001290D01*
X000732Y001448D02*
X000695Y001448D01*
X000701Y001607D02*
X000665Y001607D01*
X000660Y001765D02*
X000703Y001765D01*
X000735Y001924D02*
X000660Y001924D01*
X000660Y002082D02*
X000776Y002082D01*
X000882Y002241D02*
X000660Y002241D01*
X000660Y002399D02*
X001002Y002399D01*
X001239Y002558D02*
X000660Y002558D01*
X000660Y002716D02*
X005820Y002716D01*
X005820Y002558D02*
X002121Y002558D01*
X002358Y002399D02*
X005820Y002399D01*
X005820Y002241D02*
X002478Y002241D01*
X002584Y002082D02*
X004960Y002082D01*
X004998Y002120D02*
X004740Y001862D01*
X004740Y001680D01*
X005180Y001680D01*
X005180Y001680D01*
X005180Y002120D01*
X005362Y002120D01*
X005620Y001862D01*
X005620Y001680D01*
X005180Y001680D01*
X005180Y001680D01*
X005180Y001680D01*
X005180Y002120D01*
X004998Y002120D01*
X005180Y002082D02*
X005180Y002082D01*
X005180Y001924D02*
X005180Y001924D01*
X005180Y001765D02*
X005180Y001765D01*
X005180Y001680D02*
X004740Y001680D01*
X004740Y001498D01*
X004998Y001240D01*
X005180Y001240D01*
X005362Y001240D01*
X005620Y001498D01*
X005620Y001680D01*
X005180Y001680D01*
X005180Y001240D01*
X005180Y001680D01*
X005180Y001680D01*
X005180Y001607D02*
X005180Y001607D01*
X005180Y001448D02*
X005180Y001448D01*
X005180Y001290D02*
X005180Y001290D01*
X005412Y001290D02*
X005920Y001290D01*
X005989Y001220D02*
X006371Y001220D01*
X006640Y001489D01*
X006640Y001871D01*
X006540Y001971D01*
X006540Y003031D01*
X010220Y006711D01*
X010220Y006588D01*
X010290Y006419D01*
X010419Y006290D01*
X010588Y006220D01*
X010771Y006220D01*
X010941Y006290D01*
X011070Y006419D01*
X011140Y006588D01*
X011140Y006771D01*
X011070Y006941D01*
X010941Y007070D01*
X010771Y007140D01*
X010649Y007140D01*
X010829Y007320D01*
X013752Y007320D01*
X013884Y007375D01*
X014884Y008375D01*
X014985Y008476D01*
X015040Y008608D01*
X015040Y008629D01*
X015070Y008659D01*
X015140Y008828D01*
X015140Y009531D01*
X015070Y009701D01*
X014941Y009830D01*
X014771Y009900D01*
X014588Y009900D01*
X014419Y009830D01*
X014290Y009701D01*
X014220Y009531D01*
X014220Y008828D01*
X014249Y008758D01*
X013531Y008040D01*
X010608Y008040D01*
X010476Y007985D01*
X005875Y003384D01*
X005820Y003252D01*
X005820Y001971D01*
X005720Y001871D01*
X005720Y001489D01*
X005989Y001220D01*
X005761Y001448D02*
X005570Y001448D01*
X005620Y001607D02*
X005720Y001607D01*
X005720Y001765D02*
X005620Y001765D01*
X005559Y001924D02*
X005773Y001924D01*
X005820Y002082D02*
X005400Y002082D01*
X004801Y001924D02*
X002625Y001924D01*
X002657Y001765D02*
X004740Y001765D01*
X004740Y001607D02*
X002659Y001607D01*
X002628Y001448D02*
X004790Y001448D01*
X004948Y001290D02*
X002591Y001290D01*
X002485Y001131D02*
X019375Y001131D01*
X019477Y000977D02*
X019800Y000762D01*
X020180Y000686D01*
X020560Y000762D01*
X020883Y000977D01*
X021098Y001300D01*
X021174Y001680D01*
X021098Y002060D01*
X020883Y002383D01*
X020560Y002598D01*
X020180Y002674D01*
X019800Y002598D01*
X019477Y002383D01*
X019262Y002060D01*
X019186Y001680D01*
X019262Y001300D01*
X019477Y000977D01*
X019485Y000973D02*
X002375Y000973D01*
X002138Y000814D02*
X019722Y000814D01*
X019269Y001290D02*
X006440Y001290D01*
X006599Y001448D02*
X019232Y001448D01*
X019201Y001607D02*
X009729Y001607D01*
X009612Y001490D02*
X009870Y001748D01*
X009870Y001930D01*
X009870Y002112D01*
X009612Y002370D01*
X009430Y002370D01*
X009430Y001930D01*
X009430Y001930D01*
X009870Y001930D01*
X009430Y001930D01*
X009430Y001930D01*
X009430Y001930D01*
X008990Y001930D01*
X008990Y002112D01*
X009248Y002370D01*
X009430Y002370D01*
X009430Y001930D01*
X009430Y001490D01*
X009612Y001490D01*
X009430Y001490D02*
X009430Y001930D01*
X009430Y001930D01*
X008990Y001930D01*
X008990Y001748D01*
X009248Y001490D01*
X009430Y001490D01*
X009430Y001607D02*
X009430Y001607D01*
X009430Y001765D02*
X009430Y001765D01*
X009430Y001924D02*
X009430Y001924D01*
X009430Y002082D02*
X009430Y002082D01*
X009430Y002241D02*
X009430Y002241D01*
X009742Y002241D02*
X019382Y002241D01*
X019276Y002082D02*
X009870Y002082D01*
X009870Y001924D02*
X019235Y001924D01*
X019203Y001765D02*
X009870Y001765D01*
X009131Y001607D02*
X008729Y001607D01*
X008612Y001490D02*
X008430Y001490D01*
X008430Y001930D01*
X008430Y001930D01*
X008430Y002370D01*
X008612Y002370D01*
X008870Y002112D01*
X008870Y001930D01*
X008430Y001930D01*
X008430Y001930D01*
X008430Y001930D01*
X007990Y001930D01*
X007990Y002112D01*
X008248Y002370D01*
X008430Y002370D01*
X008430Y001930D01*
X008870Y001930D01*
X008870Y001748D01*
X008612Y001490D01*
X008430Y001490D02*
X008430Y001930D01*
X008430Y001930D01*
X007990Y001930D01*
X007990Y001748D01*
X008248Y001490D01*
X008430Y001490D01*
X008430Y001607D02*
X008430Y001607D01*
X008430Y001765D02*
X008430Y001765D01*
X008430Y001924D02*
X008430Y001924D01*
X008430Y002082D02*
X008430Y002082D01*
X008430Y002241D02*
X008430Y002241D01*
X008742Y002241D02*
X009118Y002241D01*
X008990Y002082D02*
X008870Y002082D01*
X008870Y001924D02*
X008990Y001924D01*
X008990Y001765D02*
X008870Y001765D01*
X008131Y001607D02*
X006640Y001607D01*
X006640Y001765D02*
X007990Y001765D01*
X007990Y001924D02*
X006587Y001924D01*
X006540Y002082D02*
X007990Y002082D01*
X008118Y002241D02*
X006540Y002241D01*
X006540Y002399D02*
X019502Y002399D01*
X019739Y002558D02*
X006540Y002558D01*
X006540Y002716D02*
X015723Y002716D01*
X015658Y002743D02*
X015835Y002670D01*
X016025Y002670D01*
X016202Y002743D01*
X016337Y002878D01*
X016410Y003055D01*
X016410Y003805D01*
X016337Y003982D01*
X016235Y004084D01*
X016390Y004239D01*
X016390Y004621D01*
X016121Y004890D01*
X015739Y004890D01*
X015470Y004621D01*
X015470Y004239D01*
X015625Y004084D01*
X015523Y003982D01*
X015450Y003805D01*
X015450Y003055D01*
X015523Y002878D01*
X015658Y002743D01*
X015527Y002875D02*
X006540Y002875D01*
X006542Y003033D02*
X015459Y003033D01*
X015450Y003192D02*
X006701Y003192D01*
X006859Y003350D02*
X010359Y003350D01*
X010419Y003290D02*
X010290Y003419D01*
X010220Y003588D01*
X010220Y003771D01*
X010290Y003941D01*
X010419Y004070D01*
X010588Y004140D01*
X010771Y004140D01*
X010941Y004070D01*
X011070Y003941D01*
X011140Y003771D01*
X011140Y003588D01*
X011070Y003419D01*
X010941Y003290D01*
X010771Y003220D01*
X010588Y003220D01*
X010419Y003290D01*
X010253Y003509D02*
X009659Y003509D01*
X009621Y003470D02*
X009890Y003739D01*
X009890Y004121D01*
X009621Y004390D01*
X009239Y004390D01*
X008970Y004121D01*
X008970Y003739D01*
X009239Y003470D01*
X009621Y003470D01*
X009818Y003667D02*
X010220Y003667D01*
X010242Y003826D02*
X009890Y003826D01*
X009890Y003984D02*
X010333Y003984D01*
X009868Y004143D02*
X012400Y004143D01*
X012400Y004051D02*
X012290Y003941D01*
X012220Y003771D01*
X012220Y003588D01*
X012290Y003419D01*
X012419Y003290D01*
X012588Y003220D01*
X012771Y003220D01*
X012941Y003290D01*
X013070Y003419D01*
X013140Y003588D01*
X013140Y003771D01*
X013070Y003941D01*
X012960Y004051D01*
X012960Y004064D01*
X013940Y005044D01*
X017813Y005044D01*
X017921Y004936D01*
X017935Y004930D01*
X017921Y004924D01*
X017792Y004795D01*
X017723Y004627D01*
X017723Y004445D01*
X017792Y004277D01*
X017921Y004148D01*
X017965Y004130D01*
X017951Y004123D01*
X017895Y004083D01*
X017846Y004034D01*
X017806Y003978D01*
X017775Y003917D01*
X017753Y003851D01*
X017743Y003783D01*
X017743Y003749D01*
X018180Y003749D01*
X018180Y003749D01*
X018617Y003749D01*
X018617Y003783D01*
X018607Y003851D01*
X018585Y003917D01*
X018554Y003978D01*
X018514Y004034D01*
X018465Y004083D01*
X018409Y004123D01*
X018395Y004130D01*
X018439Y004148D01*
X018568Y004277D01*
X018637Y004445D01*
X018637Y004627D01*
X018568Y004795D01*
X018439Y004924D01*
X018425Y004930D01*
X018439Y004936D01*
X018568Y005065D01*
X018637Y005233D01*
X018637Y005415D01*
X018568Y005583D01*
X018497Y005654D01*
X018520Y005654D01*
X018637Y005771D01*
X018637Y006451D01*
X018520Y006569D01*
X017840Y006569D01*
X017723Y006451D01*
X017723Y005771D01*
X017840Y005654D01*
X017863Y005654D01*
X017813Y005604D01*
X013768Y005604D01*
X013665Y005561D01*
X012521Y004417D01*
X012443Y004339D01*
X012400Y004236D01*
X012400Y004051D01*
X012333Y003984D02*
X012027Y003984D01*
X012070Y003941D02*
X011941Y004070D01*
X011771Y004140D01*
X011588Y004140D01*
X011419Y004070D01*
X011290Y003941D01*
X011220Y003771D01*
X011220Y003588D01*
X011290Y003419D01*
X011419Y003290D01*
X011588Y003220D01*
X011771Y003220D01*
X011941Y003290D01*
X012070Y003419D01*
X012140Y003588D01*
X012140Y003771D01*
X012070Y003941D01*
X012118Y003826D02*
X012242Y003826D01*
X012220Y003667D02*
X012140Y003667D01*
X012107Y003509D02*
X012253Y003509D01*
X012359Y003350D02*
X012001Y003350D01*
X011359Y003350D02*
X011001Y003350D01*
X011107Y003509D02*
X011253Y003509D01*
X011220Y003667D02*
X011140Y003667D01*
X011118Y003826D02*
X011242Y003826D01*
X011333Y003984D02*
X011027Y003984D01*
X009710Y004301D02*
X012427Y004301D01*
X012564Y004460D02*
X007969Y004460D01*
X008127Y004618D02*
X012722Y004618D01*
X012881Y004777D02*
X008286Y004777D01*
X008444Y004935D02*
X013039Y004935D01*
X013198Y005094D02*
X008603Y005094D01*
X008761Y005252D02*
X013356Y005252D01*
X013515Y005411D02*
X008920Y005411D01*
X009078Y005569D02*
X013684Y005569D01*
X013824Y005324D02*
X012680Y004180D01*
X012680Y003680D01*
X013107Y003509D02*
X013274Y003509D01*
X013272Y003511D02*
X013304Y003449D01*
X013344Y003393D01*
X013393Y003344D01*
X013449Y003304D01*
X013511Y003272D01*
X013577Y003251D01*
X013645Y003240D01*
X013680Y003240D01*
X013715Y003240D01*
X013783Y003251D01*
X013849Y003272D01*
X013911Y003304D01*
X013967Y003344D01*
X014016Y003393D01*
X014056Y003449D01*
X014088Y003511D01*
X014109Y003577D01*
X014120Y003645D01*
X014120Y003680D01*
X014120Y003715D01*
X014109Y003783D01*
X014088Y003849D01*
X014056Y003911D01*
X014016Y003967D01*
X013967Y004016D01*
X013911Y004056D01*
X013849Y004088D01*
X013783Y004109D01*
X013715Y004120D01*
X013680Y004120D01*
X013680Y003680D01*
X013680Y003680D01*
X014120Y003680D01*
X013680Y003680D01*
X013680Y003680D01*
X013680Y003680D01*
X013240Y003680D01*
X013240Y003715D01*
X013251Y003783D01*
X013272Y003849D01*
X013304Y003911D01*
X013344Y003967D01*
X013393Y004016D01*
X013449Y004056D01*
X013511Y004088D01*
X013577Y004109D01*
X013645Y004120D01*
X013680Y004120D01*
X013680Y003680D01*
X013680Y003240D01*
X013680Y003680D01*
X013680Y003680D01*
X013240Y003680D01*
X013240Y003645D01*
X013251Y003577D01*
X013272Y003511D01*
X013240Y003667D02*
X013140Y003667D01*
X013118Y003826D02*
X013265Y003826D01*
X013362Y003984D02*
X013027Y003984D01*
X013038Y004143D02*
X015567Y004143D01*
X015525Y003984D02*
X015027Y003984D01*
X015140Y003871D02*
X014871Y004140D01*
X014489Y004140D01*
X014220Y003871D01*
X014220Y003489D01*
X014489Y003220D01*
X014871Y003220D01*
X015140Y003489D01*
X015140Y003871D01*
X015140Y003826D02*
X015458Y003826D01*
X015450Y003667D02*
X015140Y003667D01*
X015140Y003509D02*
X015450Y003509D01*
X015450Y003350D02*
X015001Y003350D01*
X014359Y003350D02*
X013972Y003350D01*
X014086Y003509D02*
X014220Y003509D01*
X014220Y003667D02*
X014120Y003667D01*
X014095Y003826D02*
X014220Y003826D01*
X014333Y003984D02*
X013998Y003984D01*
X013680Y003984D02*
X013680Y003984D01*
X013680Y003826D02*
X013680Y003826D01*
X013680Y003667D02*
X013680Y003667D01*
X013680Y003509D02*
X013680Y003509D01*
X013680Y003350D02*
X013680Y003350D01*
X013388Y003350D02*
X013001Y003350D01*
X013197Y004301D02*
X015470Y004301D01*
X015470Y004460D02*
X013355Y004460D01*
X013514Y004618D02*
X015470Y004618D01*
X015626Y004777D02*
X013672Y004777D01*
X013831Y004935D02*
X017923Y004935D01*
X017784Y004777D02*
X016234Y004777D01*
X016390Y004618D02*
X017723Y004618D01*
X017723Y004460D02*
X016390Y004460D01*
X016390Y004301D02*
X017782Y004301D01*
X017935Y004143D02*
X017140Y004143D01*
X017202Y004117D02*
X017025Y004190D01*
X016835Y004190D01*
X016658Y004117D01*
X016523Y003982D01*
X016450Y003805D01*
X016450Y003055D01*
X016523Y002878D01*
X016658Y002743D01*
X016835Y002670D01*
X017025Y002670D01*
X017202Y002743D01*
X017337Y002878D01*
X017410Y003055D01*
X017410Y003805D01*
X017337Y003982D01*
X017202Y004117D01*
X017335Y003984D02*
X017810Y003984D01*
X017749Y003826D02*
X017402Y003826D01*
X017410Y003667D02*
X017750Y003667D01*
X017753Y003646D02*
X017775Y003581D01*
X017806Y003520D01*
X017846Y003464D01*
X017895Y003415D01*
X017951Y003375D01*
X018012Y003343D01*
X018078Y003322D01*
X018146Y003311D01*
X018180Y003311D01*
X018214Y003311D01*
X018282Y003322D01*
X018348Y003343D01*
X018409Y003375D01*
X018465Y003415D01*
X018514Y003464D01*
X018554Y003520D01*
X018585Y003581D01*
X018607Y003646D01*
X018617Y003714D01*
X018617Y003749D01*
X018180Y003749D01*
X018180Y003749D01*
X017743Y003749D01*
X017743Y003714D01*
X017753Y003646D01*
X017814Y003509D02*
X017410Y003509D01*
X017410Y003350D02*
X017999Y003350D01*
X018180Y003350D02*
X018180Y003350D01*
X018180Y003311D02*
X018180Y003749D01*
X018180Y003749D01*
X018180Y003311D01*
X018361Y003350D02*
X021200Y003350D01*
X021200Y003192D02*
X017410Y003192D01*
X017401Y003033D02*
X021200Y003033D01*
X021200Y002875D02*
X017333Y002875D01*
X017137Y002716D02*
X021200Y002716D01*
X021200Y002558D02*
X020621Y002558D01*
X020858Y002399D02*
X021200Y002399D01*
X021200Y002241D02*
X020978Y002241D01*
X021084Y002082D02*
X021200Y002082D01*
X021200Y001924D02*
X021125Y001924D01*
X021157Y001765D02*
X021200Y001765D01*
X021195Y001607D02*
X021159Y001607D01*
X021165Y001448D02*
X021128Y001448D01*
X021122Y001290D02*
X021091Y001290D01*
X021031Y001131D02*
X020985Y001131D01*
X020903Y000973D02*
X020875Y000973D01*
X020703Y000814D02*
X020638Y000814D01*
X016723Y002716D02*
X016137Y002716D01*
X016333Y002875D02*
X016527Y002875D01*
X016459Y003033D02*
X016401Y003033D01*
X016410Y003192D02*
X016450Y003192D01*
X016450Y003350D02*
X016410Y003350D01*
X016410Y003509D02*
X016450Y003509D01*
X016450Y003667D02*
X016410Y003667D01*
X016402Y003826D02*
X016458Y003826D01*
X016525Y003984D02*
X016335Y003984D01*
X016293Y004143D02*
X016720Y004143D01*
X018180Y003667D02*
X018180Y003667D01*
X018180Y003509D02*
X018180Y003509D01*
X018546Y003509D02*
X021200Y003509D01*
X021200Y003667D02*
X018610Y003667D01*
X018611Y003826D02*
X021200Y003826D01*
X021200Y003984D02*
X018550Y003984D01*
X018425Y004143D02*
X021200Y004143D01*
X021200Y004301D02*
X018578Y004301D01*
X018637Y004460D02*
X021200Y004460D01*
X021200Y004618D02*
X018637Y004618D01*
X018576Y004777D02*
X021200Y004777D01*
X021200Y004935D02*
X018437Y004935D01*
X018580Y005094D02*
X021200Y005094D01*
X021200Y005252D02*
X018637Y005252D01*
X018637Y005411D02*
X021200Y005411D01*
X021200Y005569D02*
X018574Y005569D01*
X018594Y005728D02*
X021200Y005728D01*
X021200Y005886D02*
X018637Y005886D01*
X018637Y006045D02*
X021200Y006045D01*
X021200Y006203D02*
X018637Y006203D01*
X018637Y006362D02*
X021200Y006362D01*
X021200Y006520D02*
X018569Y006520D01*
X017791Y006520D02*
X016370Y006520D01*
X016370Y006430D02*
X016370Y006612D01*
X016112Y006870D01*
X015930Y006870D01*
X015930Y006430D01*
X015930Y006430D01*
X016370Y006430D01*
X015930Y006430D01*
X015930Y006430D01*
X015930Y006430D01*
X015490Y006430D01*
X015490Y006612D01*
X015748Y006870D01*
X015930Y006870D01*
X015930Y006430D01*
X015930Y005990D01*
X016112Y005990D01*
X016370Y006248D01*
X016370Y006430D01*
X016370Y006362D02*
X017723Y006362D01*
X017723Y006203D02*
X016325Y006203D01*
X016167Y006045D02*
X017723Y006045D01*
X017723Y005886D02*
X009395Y005886D01*
X009237Y005728D02*
X017766Y005728D01*
X018180Y005324D02*
X013824Y005324D01*
X013771Y006220D02*
X013941Y006290D01*
X014070Y006419D01*
X014140Y006588D01*
X014140Y006771D01*
X014070Y006941D01*
X013941Y007070D01*
X013771Y007140D01*
X013588Y007140D01*
X013419Y007070D01*
X013290Y006941D01*
X013220Y006771D01*
X013220Y006588D01*
X013290Y006419D01*
X013419Y006290D01*
X013588Y006220D01*
X013771Y006220D01*
X013348Y006362D02*
X013012Y006362D01*
X013070Y006419D02*
X013140Y006588D01*
X013140Y006771D01*
X013070Y006941D01*
X012941Y007070D01*
X012771Y007140D01*
X012588Y007140D01*
X012419Y007070D01*
X012290Y006941D01*
X012220Y006771D01*
X012220Y006588D01*
X012290Y006419D01*
X012419Y006290D01*
X012588Y006220D01*
X012771Y006220D01*
X012941Y006290D01*
X013070Y006419D01*
X013112Y006520D02*
X013248Y006520D01*
X013220Y006679D02*
X013140Y006679D01*
X013113Y006837D02*
X013247Y006837D01*
X013345Y006996D02*
X013015Y006996D01*
X012345Y006996D02*
X012015Y006996D01*
X012070Y006941D02*
X011941Y007070D01*
X011771Y007140D01*
X011588Y007140D01*
X011419Y007070D01*
X011290Y006941D01*
X011220Y006771D01*
X011220Y006588D01*
X011290Y006419D01*
X011419Y006290D01*
X011588Y006220D01*
X011771Y006220D01*
X011941Y006290D01*
X012070Y006419D01*
X012140Y006588D01*
X012140Y006771D01*
X012070Y006941D01*
X012113Y006837D02*
X012247Y006837D01*
X012220Y006679D02*
X012140Y006679D01*
X012112Y006520D02*
X012248Y006520D01*
X012348Y006362D02*
X012012Y006362D01*
X011348Y006362D02*
X011012Y006362D01*
X011112Y006520D02*
X011248Y006520D01*
X011220Y006679D02*
X011140Y006679D01*
X011113Y006837D02*
X011247Y006837D01*
X011345Y006996D02*
X011015Y006996D01*
X010822Y007313D02*
X014675Y007313D01*
X014748Y007240D02*
X014930Y007240D01*
X015112Y007240D01*
X015370Y007498D01*
X015370Y007680D01*
X015370Y007862D01*
X015112Y008120D01*
X014930Y008120D01*
X014930Y007680D01*
X015370Y007680D01*
X014930Y007680D01*
X014930Y007680D01*
X014930Y007680D01*
X014930Y007240D01*
X014930Y007680D01*
X014930Y007680D01*
X014930Y007680D01*
X014490Y007680D01*
X014490Y007862D01*
X014748Y008120D01*
X014930Y008120D01*
X014930Y007680D01*
X014490Y007680D01*
X014490Y007498D01*
X014748Y007240D01*
X014871Y007140D02*
X014489Y007140D01*
X014220Y006871D01*
X014220Y006489D01*
X014489Y006220D01*
X014871Y006220D01*
X015140Y006489D01*
X015140Y006871D01*
X014871Y007140D01*
X014930Y007313D02*
X014930Y007313D01*
X015185Y007313D02*
X016647Y007313D01*
X016739Y007220D02*
X017121Y007220D01*
X017390Y007489D01*
X017390Y007871D01*
X017121Y008140D01*
X016739Y008140D01*
X016470Y007871D01*
X016470Y007489D01*
X016739Y007220D01*
X016488Y007471D02*
X015343Y007471D01*
X015370Y007630D02*
X016470Y007630D01*
X016470Y007788D02*
X015370Y007788D01*
X015286Y007947D02*
X016546Y007947D01*
X016704Y008105D02*
X015127Y008105D01*
X014930Y008105D02*
X014930Y008105D01*
X014930Y007947D02*
X014930Y007947D01*
X014930Y007788D02*
X014930Y007788D01*
X014930Y007630D02*
X014930Y007630D01*
X014930Y007471D02*
X014930Y007471D01*
X014517Y007471D02*
X013980Y007471D01*
X014139Y007630D02*
X014490Y007630D01*
X014490Y007788D02*
X014297Y007788D01*
X014456Y007947D02*
X014574Y007947D01*
X014614Y008105D02*
X014733Y008105D01*
X014773Y008264D02*
X016446Y008264D01*
X016489Y008220D02*
X016871Y008220D01*
X017140Y008489D01*
X017140Y008871D01*
X016871Y009140D01*
X016489Y009140D01*
X016220Y008871D01*
X016220Y008489D01*
X016489Y008220D01*
X016287Y008422D02*
X014931Y008422D01*
X015028Y008581D02*
X015399Y008581D01*
X015393Y008584D02*
X015449Y008544D01*
X015511Y008512D01*
X015577Y008491D01*
X015645Y008480D01*
X015680Y008480D01*
X015715Y008480D01*
X015783Y008491D01*
X015849Y008512D01*
X015911Y008544D01*
X015967Y008584D01*
X016016Y008633D01*
X016056Y008689D01*
X016088Y008751D01*
X016109Y008817D01*
X016120Y008885D01*
X016120Y009180D01*
X016120Y009475D01*
X016109Y009543D01*
X016088Y009609D01*
X016056Y009671D01*
X016016Y009727D01*
X015967Y009776D01*
X015911Y009816D01*
X015849Y009848D01*
X015783Y009869D01*
X015715Y009880D01*
X015680Y009880D01*
X015680Y009180D01*
X016120Y009180D01*
X015680Y009180D01*
X015680Y009180D01*
X015680Y009180D01*
X015680Y008480D01*
X015680Y009180D01*
X015680Y009180D01*
X015680Y009180D01*
X015240Y009180D01*
X015240Y009475D01*
X015251Y009543D01*
X015272Y009609D01*
X015304Y009671D01*
X015344Y009727D01*
X015393Y009776D01*
X015449Y009816D01*
X015511Y009848D01*
X015577Y009869D01*
X015645Y009880D01*
X015680Y009880D01*
X015680Y009180D01*
X015240Y009180D01*
X015240Y008885D01*
X015251Y008817D01*
X015272Y008751D01*
X015304Y008689D01*
X015344Y008633D01*
X015393Y008584D01*
X015278Y008739D02*
X015103Y008739D01*
X015140Y008898D02*
X015240Y008898D01*
X015240Y009056D02*
X015140Y009056D01*
X015140Y009215D02*
X015240Y009215D01*
X015240Y009373D02*
X015140Y009373D01*
X015140Y009532D02*
X015249Y009532D01*
X015318Y009690D02*
X015074Y009690D01*
X014896Y009849D02*
X015513Y009849D01*
X015680Y009849D02*
X015680Y009849D01*
X015680Y009690D02*
X015680Y009690D01*
X015680Y009532D02*
X015680Y009532D01*
X015680Y009373D02*
X015680Y009373D01*
X015680Y009215D02*
X015680Y009215D01*
X015680Y009056D02*
X015680Y009056D01*
X015680Y008898D02*
X015680Y008898D01*
X015680Y008739D02*
X015680Y008739D01*
X015680Y008581D02*
X015680Y008581D01*
X015961Y008581D02*
X016220Y008581D01*
X016220Y008739D02*
X016082Y008739D01*
X016120Y008898D02*
X016247Y008898D01*
X016120Y009056D02*
X016405Y009056D01*
X016120Y009215D02*
X017759Y009215D01*
X017723Y009056D02*
X016955Y009056D01*
X017113Y008898D02*
X017742Y008898D01*
X017830Y008739D02*
X017140Y008739D01*
X017140Y008581D02*
X017893Y008581D01*
X017777Y008422D02*
X017073Y008422D01*
X016914Y008264D02*
X017743Y008264D01*
X017743Y008249D02*
X017743Y008214D01*
X017753Y008146D01*
X017775Y008081D01*
X017806Y008020D01*
X017846Y007964D01*
X017895Y007915D01*
X017951Y007875D01*
X018012Y007843D01*
X018078Y007822D01*
X018146Y007811D01*
X018180Y007811D01*
X018214Y007811D01*
X018282Y007822D01*
X018348Y007843D01*
X018409Y007875D01*
X018465Y007915D01*
X018514Y007964D01*
X018554Y008020D01*
X018585Y008081D01*
X018607Y008146D01*
X018617Y008214D01*
X018617Y008249D01*
X018180Y008249D01*
X018180Y008249D01*
X017743Y008249D01*
X017767Y008105D02*
X017156Y008105D01*
X017314Y007947D02*
X017864Y007947D01*
X018180Y007947D02*
X018180Y007947D01*
X018180Y007811D02*
X018180Y008249D01*
X018180Y008249D01*
X018180Y007811D01*
X018496Y007947D02*
X021200Y007947D01*
X021200Y008105D02*
X018593Y008105D01*
X018617Y008264D02*
X021200Y008264D01*
X021200Y008422D02*
X018583Y008422D01*
X018467Y008581D02*
X021200Y008581D01*
X021200Y008739D02*
X018530Y008739D01*
X018618Y008898D02*
X021200Y008898D01*
X021200Y009056D02*
X018637Y009056D01*
X018601Y009215D02*
X021200Y009215D01*
X021200Y009373D02*
X018490Y009373D01*
X018535Y009532D02*
X021200Y009532D01*
X021200Y009690D02*
X018620Y009690D01*
X018637Y009849D02*
X021200Y009849D01*
X021200Y010007D02*
X018599Y010007D01*
X018532Y010166D02*
X021200Y010166D01*
X021200Y010324D02*
X018637Y010324D01*
X018637Y010483D02*
X021200Y010483D01*
X021200Y010641D02*
X018637Y010641D01*
X018637Y010800D02*
X021200Y010800D01*
X021200Y010958D02*
X018631Y010958D01*
X017729Y010958D02*
X017710Y010958D01*
X017710Y010800D02*
X017723Y010800D01*
X017710Y010641D02*
X017723Y010641D01*
X017710Y010483D02*
X017723Y010483D01*
X017710Y010324D02*
X017723Y010324D01*
X017430Y010180D02*
X017680Y009930D01*
X017680Y009824D01*
X018180Y009824D01*
X017825Y009532D02*
X016111Y009532D01*
X016120Y009373D02*
X017870Y009373D01*
X017432Y009690D02*
X016042Y009690D01*
X015847Y009849D02*
X017366Y009849D01*
X017207Y010007D02*
X014040Y010007D01*
X014040Y010031D02*
X014829Y010820D01*
X016252Y010820D01*
X016384Y010875D01*
X016485Y010976D01*
X016729Y011220D01*
X016871Y011220D01*
X017140Y011489D01*
X017140Y011871D01*
X016871Y012140D01*
X016489Y012140D01*
X016220Y011871D01*
X016220Y011729D01*
X016031Y011540D01*
X015951Y011540D01*
X016070Y011659D01*
X016140Y011828D01*
X016140Y012531D01*
X016070Y012701D01*
X015941Y012830D01*
X015771Y012900D01*
X015588Y012900D01*
X015419Y012830D01*
X015290Y012701D01*
X015220Y012531D01*
X015220Y011828D01*
X015290Y011659D01*
X015409Y011540D01*
X015040Y011540D01*
X015040Y011629D01*
X015070Y011659D01*
X015140Y011828D01*
X015140Y012531D01*
X015070Y012701D01*
X014941Y012830D01*
X014771Y012900D01*
X014588Y012900D01*
X014419Y012830D01*
X014290Y012701D01*
X014220Y012531D01*
X014220Y011828D01*
X014290Y011659D01*
X014320Y011629D01*
X014320Y011329D01*
X013375Y010384D01*
X013320Y010252D01*
X013320Y009731D01*
X013290Y009701D01*
X013220Y009531D01*
X013220Y008828D01*
X013290Y008659D01*
X013419Y008530D01*
X013588Y008460D01*
X013771Y008460D01*
X013941Y008530D01*
X014070Y008659D01*
X014140Y008828D01*
X014140Y009531D01*
X014070Y009701D01*
X014040Y009731D01*
X014040Y010031D01*
X014040Y009849D02*
X014464Y009849D01*
X014286Y009690D02*
X014074Y009690D01*
X014140Y009532D02*
X014220Y009532D01*
X014220Y009373D02*
X014140Y009373D01*
X014140Y009215D02*
X014220Y009215D01*
X014220Y009056D02*
X014140Y009056D01*
X014140Y008898D02*
X014220Y008898D01*
X014230Y008739D02*
X014103Y008739D01*
X014071Y008581D02*
X013991Y008581D01*
X013913Y008422D02*
X010493Y008422D01*
X010540Y008469D02*
X010540Y008680D01*
X010540Y008891D01*
X010241Y009190D01*
X010030Y009190D01*
X010030Y008680D01*
X010540Y008680D01*
X010030Y008680D01*
X010030Y008680D01*
X010030Y008680D01*
X010030Y008170D01*
X010241Y008170D01*
X010540Y008469D01*
X010540Y008581D02*
X012369Y008581D01*
X012419Y008530D02*
X012588Y008460D01*
X012771Y008460D01*
X012941Y008530D01*
X013070Y008659D01*
X013140Y008828D01*
X013140Y009531D01*
X013070Y009701D01*
X012941Y009830D01*
X012771Y009900D01*
X012588Y009900D01*
X012419Y009830D01*
X012290Y009701D01*
X012220Y009531D01*
X012220Y008828D01*
X012290Y008659D01*
X012419Y008530D01*
X012257Y008739D02*
X010540Y008739D01*
X010534Y008898D02*
X012220Y008898D01*
X012220Y009056D02*
X010375Y009056D01*
X010030Y009056D02*
X010030Y009056D01*
X010030Y009190D02*
X009819Y009190D01*
X009619Y008990D01*
X009400Y009210D01*
X008960Y009210D01*
X008755Y009005D01*
X008550Y009210D01*
X008110Y009210D01*
X007800Y008900D01*
X007800Y008460D01*
X007970Y008290D01*
X007970Y006979D01*
X006476Y005485D01*
X006131Y005140D01*
X005989Y005140D01*
X005720Y004871D01*
X005720Y004489D01*
X005989Y004220D01*
X006371Y004220D01*
X006640Y004489D01*
X006640Y004631D01*
X006985Y004976D01*
X008635Y006626D01*
X008690Y006758D01*
X008690Y008290D01*
X008755Y008355D01*
X008960Y008150D01*
X009400Y008150D01*
X009619Y008370D01*
X009819Y008170D01*
X010030Y008170D01*
X010030Y008680D01*
X010030Y008680D01*
X010030Y009190D01*
X009685Y009056D02*
X009554Y009056D01*
X010030Y008898D02*
X010030Y008898D01*
X010030Y008739D02*
X010030Y008739D01*
X010030Y008581D02*
X010030Y008581D01*
X010030Y008422D02*
X010030Y008422D01*
X010030Y008264D02*
X010030Y008264D01*
X009725Y008264D02*
X009513Y008264D01*
X008847Y008264D02*
X008690Y008264D01*
X008690Y008105D02*
X013596Y008105D01*
X013754Y008264D02*
X010335Y008264D01*
X010437Y007947D02*
X008690Y007947D01*
X008690Y007788D02*
X010279Y007788D01*
X010120Y007630D02*
X008690Y007630D01*
X008690Y007471D02*
X009962Y007471D01*
X009803Y007313D02*
X008690Y007313D01*
X008690Y007154D02*
X009645Y007154D01*
X009486Y006996D02*
X008690Y006996D01*
X008690Y006837D02*
X009328Y006837D01*
X009169Y006679D02*
X008657Y006679D01*
X008529Y006520D02*
X009011Y006520D01*
X008852Y006362D02*
X008371Y006362D01*
X008212Y006203D02*
X008694Y006203D01*
X008535Y006045D02*
X008054Y006045D01*
X007895Y005886D02*
X008377Y005886D01*
X008218Y005728D02*
X007737Y005728D01*
X007578Y005569D02*
X008060Y005569D01*
X007901Y005411D02*
X007420Y005411D01*
X007261Y005252D02*
X007743Y005252D01*
X007584Y005094D02*
X007103Y005094D01*
X006985Y004976D02*
X006985Y004976D01*
X006944Y004935D02*
X007426Y004935D01*
X007267Y004777D02*
X006786Y004777D01*
X006640Y004618D02*
X007109Y004618D01*
X006950Y004460D02*
X006610Y004460D01*
X006452Y004301D02*
X006792Y004301D01*
X006633Y004143D02*
X000660Y004143D01*
X000660Y004301D02*
X004908Y004301D01*
X004989Y004220D02*
X005371Y004220D01*
X005640Y004489D01*
X005640Y004871D01*
X005371Y005140D01*
X004989Y005140D01*
X004720Y004871D01*
X004720Y004489D01*
X004989Y004220D01*
X004750Y004460D02*
X000660Y004460D01*
X000660Y004618D02*
X004720Y004618D01*
X004720Y004777D02*
X000660Y004777D01*
X000660Y004935D02*
X004784Y004935D01*
X004943Y005094D02*
X000660Y005094D01*
X000660Y005252D02*
X006243Y005252D01*
X006401Y005411D02*
X000660Y005411D01*
X000660Y005569D02*
X006560Y005569D01*
X006476Y005485D02*
X006476Y005485D01*
X006718Y005728D02*
X003378Y005728D01*
X003371Y005720D02*
X003640Y005989D01*
X003640Y006371D01*
X003371Y006640D01*
X002989Y006640D01*
X002720Y006371D01*
X002720Y005989D01*
X002989Y005720D01*
X003371Y005720D01*
X003537Y005886D02*
X006877Y005886D01*
X007035Y006045D02*
X003640Y006045D01*
X003640Y006203D02*
X005728Y006203D01*
X005731Y006200D02*
X006129Y006200D01*
X006410Y006481D01*
X006410Y006879D01*
X006129Y007160D01*
X005731Y007160D01*
X005450Y006879D01*
X005450Y006481D01*
X005731Y006200D01*
X005570Y006362D02*
X003640Y006362D01*
X003491Y006520D02*
X005450Y006520D01*
X005450Y006679D02*
X000660Y006679D01*
X000660Y006837D02*
X001872Y006837D01*
X001989Y006720D02*
X001720Y006989D01*
X001720Y007371D01*
X001989Y007640D01*
X002371Y007640D01*
X002640Y007371D01*
X002640Y006989D01*
X002371Y006720D01*
X001989Y006720D01*
X001720Y006996D02*
X000660Y006996D01*
X000660Y007154D02*
X001720Y007154D01*
X001720Y007313D02*
X000660Y007313D01*
X000660Y007471D02*
X001820Y007471D01*
X001979Y007630D02*
X000660Y007630D01*
X000660Y007788D02*
X002921Y007788D01*
X002989Y007720D02*
X002720Y007989D01*
X002720Y008371D01*
X002989Y008640D01*
X003371Y008640D01*
X003640Y008371D01*
X003640Y007989D01*
X003371Y007720D01*
X002989Y007720D01*
X002763Y007947D02*
X000660Y007947D01*
X000660Y008105D02*
X002720Y008105D01*
X002720Y008264D02*
X000660Y008264D01*
X000660Y008422D02*
X002771Y008422D01*
X002930Y008581D02*
X000660Y008581D01*
X000660Y008739D02*
X007800Y008739D01*
X007800Y008581D02*
X003430Y008581D01*
X003589Y008422D02*
X007838Y008422D01*
X007970Y008264D02*
X003640Y008264D01*
X003640Y008105D02*
X005676Y008105D01*
X005731Y008160D02*
X005450Y007879D01*
X005450Y007481D01*
X005731Y007200D01*
X006129Y007200D01*
X006410Y007481D01*
X006410Y007879D01*
X006129Y008160D01*
X005731Y008160D01*
X005518Y007947D02*
X003597Y007947D01*
X003439Y007788D02*
X005450Y007788D01*
X005450Y007630D02*
X004381Y007630D01*
X004371Y007640D02*
X003989Y007640D01*
X003720Y007371D01*
X003720Y006989D01*
X003989Y006720D01*
X004371Y006720D01*
X004640Y006989D01*
X004640Y007371D01*
X004371Y007640D01*
X004540Y007471D02*
X005460Y007471D01*
X005619Y007313D02*
X004640Y007313D01*
X004640Y007154D02*
X005725Y007154D01*
X005567Y006996D02*
X004640Y006996D01*
X004488Y006837D02*
X005450Y006837D01*
X006135Y007154D02*
X006725Y007154D01*
X006731Y007160D02*
X006450Y006879D01*
X006450Y006481D01*
X006731Y006200D01*
X007129Y006200D01*
X007410Y006481D01*
X007410Y006879D01*
X007129Y007160D01*
X006731Y007160D01*
X006731Y007200D02*
X007129Y007200D01*
X007410Y007481D01*
X007410Y007879D01*
X007129Y008160D01*
X006731Y008160D01*
X006450Y007879D01*
X006450Y007481D01*
X006731Y007200D01*
X006619Y007313D02*
X006241Y007313D01*
X006400Y007471D02*
X006460Y007471D01*
X006450Y007630D02*
X006410Y007630D01*
X006410Y007788D02*
X006450Y007788D01*
X006518Y007947D02*
X006342Y007947D01*
X006184Y008105D02*
X006676Y008105D01*
X007184Y008105D02*
X007970Y008105D01*
X007970Y007947D02*
X007342Y007947D01*
X007410Y007788D02*
X007970Y007788D01*
X007970Y007630D02*
X007410Y007630D01*
X007400Y007471D02*
X007970Y007471D01*
X007970Y007313D02*
X007241Y007313D01*
X007135Y007154D02*
X007970Y007154D01*
X007970Y006996D02*
X007293Y006996D01*
X007410Y006837D02*
X007828Y006837D01*
X007669Y006679D02*
X007410Y006679D01*
X007410Y006520D02*
X007511Y006520D01*
X007352Y006362D02*
X007290Y006362D01*
X007194Y006203D02*
X007132Y006203D01*
X006728Y006203D02*
X006132Y006203D01*
X006290Y006362D02*
X006570Y006362D01*
X006450Y006520D02*
X006410Y006520D01*
X006410Y006679D02*
X006450Y006679D01*
X006450Y006837D02*
X006410Y006837D01*
X006293Y006996D02*
X006567Y006996D01*
X003979Y007630D02*
X002381Y007630D01*
X002540Y007471D02*
X003820Y007471D01*
X003720Y007313D02*
X002640Y007313D01*
X002640Y007154D02*
X003720Y007154D01*
X003720Y006996D02*
X002640Y006996D01*
X002488Y006837D02*
X003872Y006837D01*
X002869Y006520D02*
X000660Y006520D01*
X000660Y006362D02*
X002720Y006362D01*
X002720Y006203D02*
X000660Y006203D01*
X000660Y006045D02*
X002720Y006045D01*
X002823Y005886D02*
X000660Y005886D01*
X000660Y005728D02*
X002982Y005728D01*
X005417Y005094D02*
X005943Y005094D01*
X005784Y004935D02*
X005576Y004935D01*
X005640Y004777D02*
X005720Y004777D01*
X005720Y004618D02*
X005640Y004618D01*
X005610Y004460D02*
X005750Y004460D01*
X005908Y004301D02*
X005452Y004301D01*
X006158Y003667D02*
X000660Y003667D01*
X000660Y003509D02*
X005999Y003509D01*
X005861Y003350D02*
X000660Y003350D01*
X000660Y003192D02*
X005820Y003192D01*
X005820Y003033D02*
X000660Y003033D01*
X000660Y002875D02*
X005820Y002875D01*
X006316Y003826D02*
X000660Y003826D01*
X000660Y003984D02*
X006475Y003984D01*
X007018Y003509D02*
X008201Y003509D01*
X008239Y003470D02*
X008621Y003470D01*
X008890Y003739D01*
X008890Y004121D01*
X008621Y004390D01*
X008239Y004390D01*
X007970Y004121D01*
X007970Y003739D01*
X008239Y003470D01*
X008042Y003667D02*
X007176Y003667D01*
X007335Y003826D02*
X007970Y003826D01*
X007970Y003984D02*
X007493Y003984D01*
X007652Y004143D02*
X007992Y004143D01*
X008150Y004301D02*
X007810Y004301D01*
X008710Y004301D02*
X009150Y004301D01*
X008992Y004143D02*
X008868Y004143D01*
X008890Y003984D02*
X008970Y003984D01*
X008970Y003826D02*
X008890Y003826D01*
X008818Y003667D02*
X009042Y003667D01*
X009201Y003509D02*
X008659Y003509D01*
X009554Y006045D02*
X015693Y006045D01*
X015748Y005990D02*
X015490Y006248D01*
X015490Y006430D01*
X015930Y006430D01*
X015930Y006430D01*
X015930Y005990D01*
X015748Y005990D01*
X015930Y006045D02*
X015930Y006045D01*
X015930Y006203D02*
X015930Y006203D01*
X015930Y006362D02*
X015930Y006362D01*
X015930Y006520D02*
X015930Y006520D01*
X015930Y006679D02*
X015930Y006679D01*
X015930Y006837D02*
X015930Y006837D01*
X016145Y006837D02*
X021200Y006837D01*
X021200Y006679D02*
X016304Y006679D01*
X015715Y006837D02*
X015140Y006837D01*
X015140Y006679D02*
X015556Y006679D01*
X015490Y006520D02*
X015140Y006520D01*
X015012Y006362D02*
X015490Y006362D01*
X015535Y006203D02*
X009712Y006203D01*
X009871Y006362D02*
X010348Y006362D01*
X010248Y006520D02*
X010029Y006520D01*
X010188Y006679D02*
X010220Y006679D01*
X010663Y007154D02*
X021200Y007154D01*
X021200Y006996D02*
X015015Y006996D01*
X014345Y006996D02*
X014015Y006996D01*
X014113Y006837D02*
X014220Y006837D01*
X014220Y006679D02*
X014140Y006679D01*
X014112Y006520D02*
X014220Y006520D01*
X014348Y006362D02*
X014012Y006362D01*
X017213Y007313D02*
X021200Y007313D01*
X021200Y007471D02*
X017372Y007471D01*
X017390Y007630D02*
X021200Y007630D01*
X021200Y007788D02*
X017390Y007788D01*
X018180Y008105D02*
X018180Y008105D01*
X017430Y010180D02*
X017430Y011930D01*
X017680Y012180D01*
X017680Y013180D01*
X017430Y013430D01*
X009430Y013430D01*
X009180Y013180D01*
X009180Y012680D01*
X008769Y013019D02*
X008741Y013019D01*
X008583Y013177D02*
X008900Y013177D01*
X008941Y013336D02*
X002414Y013336D01*
X002383Y013383D02*
X002060Y013598D01*
X001680Y013674D01*
X001300Y013598D01*
X000977Y013383D01*
X000762Y013060D01*
X000686Y012680D01*
X000762Y012300D01*
X000977Y011977D01*
X001300Y011762D01*
X001680Y011686D01*
X002060Y011762D01*
X002383Y011977D01*
X002598Y012300D01*
X002674Y012680D01*
X002598Y013060D01*
X002383Y013383D01*
X002216Y013494D02*
X009098Y013494D01*
X009257Y013653D02*
X001786Y013653D01*
X001574Y013653D02*
X001402Y013653D01*
X001144Y013494D02*
X001067Y013494D01*
X000946Y013336D02*
X000905Y013336D01*
X000840Y013177D02*
X000799Y013177D01*
X000754Y013019D02*
X000724Y013019D01*
X000722Y012860D02*
X000681Y012860D01*
X000691Y012702D02*
X000661Y012702D01*
X000660Y012543D02*
X000714Y012543D01*
X000745Y012385D02*
X000660Y012385D01*
X000660Y012226D02*
X000811Y012226D01*
X000917Y012068D02*
X000660Y012068D01*
X000660Y011909D02*
X001080Y011909D01*
X001357Y011751D02*
X000660Y011751D01*
X000660Y011592D02*
X007220Y011592D01*
X007220Y011621D02*
X007220Y011239D01*
X007489Y010970D01*
X007871Y010970D01*
X008140Y011239D01*
X008140Y011621D01*
X007871Y011890D01*
X007489Y011890D01*
X007220Y011621D01*
X007350Y011751D02*
X002003Y011751D01*
X002280Y011909D02*
X012220Y011909D01*
X012220Y011828D02*
X012290Y011659D01*
X012419Y011530D01*
X012588Y011460D01*
X012771Y011460D01*
X012941Y011530D01*
X013070Y011659D01*
X013140Y011828D01*
X013140Y012531D01*
X013070Y012701D01*
X012941Y012830D01*
X012771Y012900D01*
X012588Y012900D01*
X012419Y012830D01*
X012290Y012701D01*
X012220Y012531D01*
X012220Y011828D01*
X012252Y011751D02*
X010982Y011751D01*
X010862Y011870D02*
X010680Y011870D01*
X010680Y011430D01*
X011120Y011430D01*
X011120Y011612D01*
X010862Y011870D01*
X010680Y011870D02*
X010498Y011870D01*
X010240Y011612D01*
X010240Y011430D01*
X010680Y011430D01*
X010680Y011430D01*
X010680Y011430D01*
X011120Y011430D01*
X011120Y011248D01*
X010862Y010990D01*
X010680Y010990D01*
X010680Y011430D01*
X010680Y011430D01*
X010680Y011430D01*
X010680Y011870D01*
X010680Y011751D02*
X010680Y011751D01*
X010680Y011592D02*
X010680Y011592D01*
X010680Y011434D02*
X010680Y011434D01*
X010680Y011430D02*
X010240Y011430D01*
X010240Y011248D01*
X010498Y010990D01*
X010680Y010990D01*
X010680Y011430D01*
X010680Y011275D02*
X010680Y011275D01*
X010680Y011117D02*
X010680Y011117D01*
X010371Y011117D02*
X008017Y011117D01*
X008140Y011275D02*
X010240Y011275D01*
X010240Y011434D02*
X008140Y011434D01*
X008140Y011592D02*
X010240Y011592D01*
X010378Y011751D02*
X008010Y011751D01*
X007220Y011434D02*
X000660Y011434D01*
X000660Y011275D02*
X007220Y011275D01*
X007343Y011117D02*
X000660Y011117D01*
X000660Y010958D02*
X013949Y010958D01*
X014107Y011117D02*
X010989Y011117D01*
X011120Y011275D02*
X014266Y011275D01*
X014320Y011434D02*
X011120Y011434D01*
X011120Y011592D02*
X012357Y011592D01*
X013003Y011592D02*
X013357Y011592D01*
X013419Y011530D02*
X013588Y011460D01*
X013771Y011460D01*
X013941Y011530D01*
X014070Y011659D01*
X014140Y011828D01*
X014140Y012531D01*
X014070Y012701D01*
X013941Y012830D01*
X013771Y012900D01*
X013588Y012900D01*
X013419Y012830D01*
X013290Y012701D01*
X013220Y012531D01*
X013220Y011828D01*
X013290Y011659D01*
X013419Y011530D01*
X013252Y011751D02*
X013108Y011751D01*
X013140Y011909D02*
X013220Y011909D01*
X013220Y012068D02*
X013140Y012068D01*
X013140Y012226D02*
X013220Y012226D01*
X013220Y012385D02*
X013140Y012385D01*
X013135Y012543D02*
X013225Y012543D01*
X013291Y012702D02*
X013069Y012702D01*
X012868Y012860D02*
X013492Y012860D01*
X013868Y012860D02*
X014492Y012860D01*
X014291Y012702D02*
X014069Y012702D01*
X014135Y012543D02*
X014225Y012543D01*
X014220Y012385D02*
X014140Y012385D01*
X014140Y012226D02*
X014220Y012226D01*
X014220Y012068D02*
X014140Y012068D01*
X014140Y011909D02*
X014220Y011909D01*
X014252Y011751D02*
X014108Y011751D01*
X014003Y011592D02*
X014320Y011592D01*
X015040Y011592D02*
X015357Y011592D01*
X015252Y011751D02*
X015108Y011751D01*
X015140Y011909D02*
X015220Y011909D01*
X015220Y012068D02*
X015140Y012068D01*
X015140Y012226D02*
X015220Y012226D01*
X015220Y012385D02*
X015140Y012385D01*
X015135Y012543D02*
X015225Y012543D01*
X015291Y012702D02*
X015069Y012702D01*
X014868Y012860D02*
X015492Y012860D01*
X015868Y012860D02*
X016220Y012860D01*
X016220Y012871D02*
X016220Y012489D01*
X016489Y012220D01*
X016871Y012220D01*
X017140Y012489D01*
X017140Y012871D01*
X016871Y013140D01*
X016489Y013140D01*
X016220Y012871D01*
X016220Y012702D02*
X016069Y012702D01*
X016135Y012543D02*
X016220Y012543D01*
X016140Y012385D02*
X016325Y012385D01*
X016483Y012226D02*
X016140Y012226D01*
X016140Y012068D02*
X016417Y012068D01*
X016258Y011909D02*
X016140Y011909D01*
X016108Y011751D02*
X016220Y011751D01*
X016083Y011592D02*
X016003Y011592D01*
X016626Y011117D02*
X017150Y011117D01*
X017150Y011275D02*
X016926Y011275D01*
X017084Y011434D02*
X017150Y011434D01*
X017140Y011592D02*
X017150Y011592D01*
X017140Y011751D02*
X017150Y011751D01*
X017150Y011909D02*
X017102Y011909D01*
X017184Y012068D02*
X016943Y012068D01*
X016877Y012226D02*
X017330Y012226D01*
X017400Y012385D02*
X017035Y012385D01*
X017140Y012543D02*
X017400Y012543D01*
X017400Y012702D02*
X017140Y012702D01*
X017140Y012860D02*
X017400Y012860D01*
X017400Y013019D02*
X016992Y013019D01*
X016368Y013019D02*
X010413Y013019D01*
X010540Y012860D02*
X012492Y012860D01*
X012291Y012702D02*
X010540Y012702D01*
X010540Y012680D02*
X010030Y012680D01*
X010030Y012680D01*
X010540Y012680D01*
X010540Y012543D02*
X012225Y012543D01*
X012220Y012385D02*
X010456Y012385D01*
X010297Y012226D02*
X012220Y012226D01*
X012220Y012068D02*
X002443Y012068D01*
X002549Y012226D02*
X004983Y012226D01*
X004989Y012220D02*
X005371Y012220D01*
X005640Y012489D01*
X005640Y012871D01*
X005371Y013140D01*
X004989Y013140D01*
X004720Y012871D01*
X004720Y012489D01*
X004989Y012220D01*
X004825Y012385D02*
X002615Y012385D01*
X002646Y012543D02*
X004720Y012543D01*
X004720Y012702D02*
X002669Y012702D01*
X002638Y012860D02*
X004720Y012860D01*
X004868Y013019D02*
X002606Y013019D01*
X002520Y013177D02*
X008077Y013177D01*
X007919Y013019D02*
X006492Y013019D01*
X006371Y013140D02*
X005989Y013140D01*
X005720Y012871D01*
X005720Y012489D01*
X005989Y012220D01*
X006371Y012220D01*
X006640Y012489D01*
X006640Y012871D01*
X006371Y013140D01*
X006640Y012860D02*
X007800Y012860D01*
X007800Y012702D02*
X006640Y012702D01*
X006640Y012543D02*
X007800Y012543D01*
X007876Y012385D02*
X006535Y012385D01*
X006377Y012226D02*
X008034Y012226D01*
X008626Y012226D02*
X008884Y012226D01*
X009476Y012226D02*
X009763Y012226D01*
X010030Y012226D02*
X010030Y012226D01*
X010030Y012170D02*
X010030Y012680D01*
X010030Y012680D01*
X010030Y012170D01*
X010030Y012385D02*
X010030Y012385D01*
X010030Y012543D02*
X010030Y012543D01*
X010498Y010870D02*
X010240Y010612D01*
X010240Y010430D01*
X010680Y010430D01*
X011120Y010430D01*
X011120Y010612D01*
X010862Y010870D01*
X010680Y010870D01*
X010680Y010430D01*
X010680Y010430D01*
X010680Y010430D01*
X011120Y010430D01*
X011120Y010248D01*
X010862Y009990D01*
X010680Y009990D01*
X010680Y010430D01*
X010680Y010430D01*
X010680Y010430D01*
X010680Y010870D01*
X010498Y010870D01*
X010427Y010800D02*
X007961Y010800D01*
X007871Y010890D02*
X007489Y010890D01*
X007220Y010621D01*
X007220Y010239D01*
X007489Y009970D01*
X007871Y009970D01*
X008140Y010239D01*
X008140Y010621D01*
X007871Y010890D01*
X008120Y010641D02*
X010269Y010641D01*
X010240Y010483D02*
X008140Y010483D01*
X008140Y010324D02*
X010240Y010324D01*
X010240Y010248D02*
X010498Y009990D01*
X010680Y009990D01*
X010680Y010430D01*
X010240Y010430D01*
X010240Y010248D01*
X010322Y010166D02*
X008066Y010166D01*
X007908Y010007D02*
X010481Y010007D01*
X010680Y010007D02*
X010680Y010007D01*
X010680Y010166D02*
X010680Y010166D01*
X010680Y010324D02*
X010680Y010324D01*
X010680Y010483D02*
X010680Y010483D01*
X010680Y010641D02*
X010680Y010641D01*
X010680Y010800D02*
X010680Y010800D01*
X010933Y010800D02*
X013790Y010800D01*
X013632Y010641D02*
X011091Y010641D01*
X011120Y010483D02*
X013473Y010483D01*
X013350Y010324D02*
X011120Y010324D01*
X011038Y010166D02*
X013320Y010166D01*
X013320Y010007D02*
X010879Y010007D01*
X012220Y009532D02*
X006620Y009532D01*
X006620Y009498D02*
X006620Y009680D01*
X006620Y009862D01*
X006362Y010120D01*
X006180Y010120D01*
X006180Y009680D01*
X006180Y009680D01*
X006620Y009680D01*
X006180Y009680D01*
X006180Y009680D01*
X006180Y009680D01*
X005740Y009680D01*
X005740Y009862D01*
X005998Y010120D01*
X006180Y010120D01*
X006180Y009680D01*
X006180Y009240D01*
X006362Y009240D01*
X006620Y009498D01*
X006495Y009373D02*
X012220Y009373D01*
X012220Y009215D02*
X000660Y009215D01*
X000660Y009373D02*
X004836Y009373D01*
X004720Y009489D02*
X004989Y009220D01*
X005371Y009220D01*
X005640Y009489D01*
X005640Y009871D01*
X005371Y010140D01*
X004989Y010140D01*
X004720Y009871D01*
X004720Y009489D01*
X004720Y009532D02*
X000660Y009532D01*
X000660Y009690D02*
X004720Y009690D01*
X004720Y009849D02*
X000660Y009849D01*
X000660Y010007D02*
X004856Y010007D01*
X005504Y010007D02*
X005885Y010007D01*
X005740Y009849D02*
X005640Y009849D01*
X005640Y009690D02*
X005740Y009690D01*
X005740Y009680D02*
X005740Y009498D01*
X005998Y009240D01*
X006180Y009240D01*
X006180Y009680D01*
X006180Y009680D01*
X005740Y009680D01*
X005740Y009532D02*
X005640Y009532D01*
X005524Y009373D02*
X005865Y009373D01*
X006180Y009373D02*
X006180Y009373D01*
X006180Y009532D02*
X006180Y009532D01*
X006180Y009690D02*
X006180Y009690D01*
X006180Y009849D02*
X006180Y009849D01*
X006180Y010007D02*
X006180Y010007D01*
X006475Y010007D02*
X007452Y010007D01*
X007294Y010166D02*
X000660Y010166D01*
X000660Y010324D02*
X007220Y010324D01*
X007220Y010483D02*
X000660Y010483D01*
X000660Y010641D02*
X007240Y010641D01*
X007399Y010800D02*
X000660Y010800D01*
X000660Y009056D02*
X007956Y009056D01*
X007800Y008898D02*
X000660Y008898D01*
X005377Y012226D02*
X005983Y012226D01*
X005825Y012385D02*
X005535Y012385D01*
X005640Y012543D02*
X005720Y012543D01*
X005720Y012702D02*
X005640Y012702D01*
X005640Y012860D02*
X005720Y012860D01*
X005868Y013019D02*
X005492Y013019D01*
X006620Y009849D02*
X012464Y009849D01*
X012286Y009690D02*
X006620Y009690D01*
X008704Y009056D02*
X008806Y009056D01*
X012896Y009849D02*
X013320Y009849D01*
X013286Y009690D02*
X013074Y009690D01*
X013140Y009532D02*
X013220Y009532D01*
X013220Y009373D02*
X013140Y009373D01*
X013140Y009215D02*
X013220Y009215D01*
X013220Y009056D02*
X013140Y009056D01*
X013140Y008898D02*
X013220Y008898D01*
X013257Y008739D02*
X013103Y008739D01*
X012991Y008581D02*
X013369Y008581D01*
X014175Y010166D02*
X017150Y010166D01*
X017150Y010324D02*
X014333Y010324D01*
X014492Y010483D02*
X017150Y010483D01*
X017150Y010641D02*
X014650Y010641D01*
X014809Y010800D02*
X017150Y010800D01*
X017150Y010958D02*
X016467Y010958D01*
X017710Y011117D02*
X021200Y011117D01*
X021200Y011275D02*
X017710Y011275D01*
X017710Y011434D02*
X021200Y011434D01*
X021200Y011592D02*
X017710Y011592D01*
X017710Y011751D02*
X019857Y011751D01*
X019800Y011762D02*
X020180Y011686D01*
X020560Y011762D01*
X020883Y011977D01*
X021098Y012300D01*
X021174Y012680D01*
X021098Y013060D01*
X020883Y013383D01*
X020560Y013598D01*
X020180Y013674D01*
X019800Y013598D01*
X019477Y013383D01*
X019262Y013060D01*
X019186Y012680D01*
X019262Y012300D01*
X019477Y011977D01*
X019800Y011762D01*
X019580Y011909D02*
X017805Y011909D01*
X017936Y012068D02*
X019417Y012068D01*
X019311Y012226D02*
X017960Y012226D01*
X017960Y012385D02*
X018353Y012385D01*
X018240Y012498D02*
X018498Y012240D01*
X018680Y012240D01*
X018862Y012240D01*
X019120Y012498D01*
X019120Y012680D01*
X019120Y012862D01*
X018862Y013120D01*
X018680Y013120D01*
X018680Y012680D01*
X019120Y012680D01*
X018680Y012680D01*
X018680Y012680D01*
X018680Y012680D01*
X018680Y012240D01*
X018680Y012680D01*
X018680Y012680D01*
X018680Y012680D01*
X018240Y012680D01*
X018240Y012862D01*
X018498Y013120D01*
X018680Y013120D01*
X018680Y012680D01*
X018240Y012680D01*
X018240Y012498D01*
X018240Y012543D02*
X017960Y012543D01*
X017960Y012702D02*
X018240Y012702D01*
X018240Y012860D02*
X017960Y012860D01*
X017960Y013019D02*
X018396Y013019D01*
X018680Y013019D02*
X018680Y013019D01*
X018680Y012860D02*
X018680Y012860D01*
X018680Y012702D02*
X018680Y012702D01*
X018680Y012543D02*
X018680Y012543D01*
X018680Y012385D02*
X018680Y012385D01*
X019007Y012385D02*
X019245Y012385D01*
X019214Y012543D02*
X019120Y012543D01*
X019120Y012702D02*
X019191Y012702D01*
X019222Y012860D02*
X019120Y012860D01*
X019254Y013019D02*
X018964Y013019D01*
X019340Y013177D02*
X017960Y013177D01*
X017919Y013336D02*
X019446Y013336D01*
X019644Y013494D02*
X017762Y013494D01*
X017603Y013653D02*
X020074Y013653D01*
X020286Y013653D02*
X020458Y013653D01*
X020716Y013494D02*
X020793Y013494D01*
X020914Y013336D02*
X020955Y013336D01*
X021020Y013177D02*
X021061Y013177D01*
X021106Y013019D02*
X021136Y013019D01*
X021138Y012860D02*
X021179Y012860D01*
X021169Y012702D02*
X021199Y012702D01*
X021200Y012543D02*
X021146Y012543D01*
X021115Y012385D02*
X021200Y012385D01*
X021200Y012226D02*
X021049Y012226D01*
X020943Y012068D02*
X021200Y012068D01*
X021200Y011909D02*
X020780Y011909D01*
X020503Y011751D02*
X021200Y011751D01*
X001547Y000669D02*
X001547Y000669D01*
D21*
X006180Y001680D02*
X006180Y003180D01*
X010680Y007680D01*
X013680Y007680D01*
X014680Y008680D01*
X014680Y009180D01*
X013680Y009180D02*
X013680Y010180D01*
X014680Y011180D01*
X016180Y011180D01*
X016680Y011680D01*
X014680Y011180D02*
X014680Y012180D01*
X008330Y008680D02*
X008330Y006830D01*
X006680Y005180D01*
X006180Y004680D01*
M02*
