%
M48
M72
T01C0.0315
T02C0.0320
T03C0.0360
T04C0.0984
%
T01
X18180Y3749
X18180Y4536
X18180Y5324
X18180Y6111
X18180Y8249
X18180Y9036
X18180Y9824
X18180Y10611
T02
X16680Y11680
X15680Y12180
X14680Y12180
X13680Y12180
X12680Y12180
X10680Y11430
X10680Y10430
X12680Y9180
X13680Y9180
X14680Y9180
X15680Y9180
X16680Y8680
X16930Y7680
X15930Y6430
X14680Y6680
X13680Y6680
X12680Y6680
X11680Y6680
X10680Y6680
X10030Y8680
X9180Y8680
X8330Y8680
X6180Y9680
X5180Y9680
X3180Y8180
X2180Y7180
X3180Y6180
X4180Y7180
X5180Y4680
X6180Y4680
X8430Y3930
X9430Y3930
X10680Y3680
X11680Y3680
X12680Y3680
X13680Y3680
X14680Y3680
X15930Y4430
X14930Y7680
X7680Y10430
X7680Y11430
X8330Y12680
X9180Y12680
X10030Y12680
X6180Y12680
X5180Y12680
X16680Y12680
X18680Y12680
X9430Y1930
X8430Y1930
X6180Y1680
X5180Y1680
T03
X5930Y6680
X6930Y6680
X6930Y7680
X5930Y7680
X15930Y3430
X16930Y3430
T04
X1680Y1680
X1680Y12680
X20180Y12680
X20180Y1680
M30
