%
M48
M72
T01C0.0315
T02C0.0320
T03C0.0360
T04C0.0984
%
T01
X21059Y3749
X21059Y4536
X21059Y5324
X21059Y6111
X21059Y8249
X21059Y9036
X21059Y9824
X21059Y10611
T02
X18559Y9180
X17559Y9180
X16559Y9180
X15559Y9180
X14059Y10430
X14059Y11430
X15559Y12180
X16559Y12180
X17559Y12180
X18559Y12180
X12909Y12680
X12059Y12680
X11209Y12680
X10059Y11430
X10059Y10430
X9059Y9180
X8059Y9180
X6059Y8180
X7059Y7180
X6059Y6180
X5059Y7180
X8059Y5180
X9059Y5180
X10809Y4930
X11809Y4930
X13559Y3680
X14559Y3680
X15559Y3680
X16559Y3680
X17809Y6180
X16559Y6680
X15559Y6680
X14559Y6680
X13559Y6680
X12909Y8680
X12059Y8680
X11209Y8680
X17809Y7680
X19809Y7680
X19809Y6180
X11809Y2930
X10809Y2930
X9059Y1180
X8059Y1180
X8059Y13180
X9059Y13180
T03
X8809Y7680
X9809Y7680
X9809Y6680
X8809Y6680
X18309Y4180
X19309Y4180
T04
X4559Y1680
X23059Y1680
X23059Y12680
X4559Y12680
M30
