G75*
G70*
%OFA0B0*%
%FSLAX24Y24*%
%IPPOS*%
%LPD*%
%AMOC8*
5,1,8,0,0,1.08239X$1,22.5*
%
%ADD10C,0.0000*%
D10*
X003059Y001680D02*
X003059Y012680D01*
X003061Y012756D01*
X003067Y012832D01*
X003076Y012907D01*
X003090Y012982D01*
X003107Y013056D01*
X003128Y013129D01*
X003152Y013201D01*
X003181Y013272D01*
X003212Y013341D01*
X003247Y013408D01*
X003286Y013473D01*
X003328Y013537D01*
X003373Y013598D01*
X003421Y013657D01*
X003472Y013713D01*
X003526Y013767D01*
X003582Y013818D01*
X003641Y013866D01*
X003702Y013911D01*
X003766Y013953D01*
X003831Y013992D01*
X003898Y014027D01*
X003967Y014058D01*
X004038Y014087D01*
X004110Y014111D01*
X004183Y014132D01*
X004257Y014149D01*
X004332Y014163D01*
X004407Y014172D01*
X004483Y014178D01*
X004559Y014180D01*
X022559Y014180D01*
X022654Y014178D01*
X022749Y014171D01*
X022844Y014160D01*
X022938Y014144D01*
X023031Y014124D01*
X023122Y014099D01*
X023213Y014070D01*
X023302Y014037D01*
X023390Y013999D01*
X023475Y013958D01*
X023559Y013912D01*
X023640Y013863D01*
X023719Y013809D01*
X023795Y013752D01*
X023869Y013691D01*
X023939Y013627D01*
X024006Y013560D01*
X024070Y013490D01*
X024131Y013416D01*
X024188Y013340D01*
X024242Y013261D01*
X024291Y013180D01*
X024337Y013096D01*
X024378Y013011D01*
X024416Y012923D01*
X024449Y012834D01*
X024478Y012743D01*
X024503Y012652D01*
X024523Y012559D01*
X024539Y012465D01*
X024550Y012370D01*
X024557Y012275D01*
X024559Y012180D01*
X024559Y001680D01*
X024557Y001604D01*
X024551Y001528D01*
X024542Y001453D01*
X024528Y001378D01*
X024511Y001304D01*
X024490Y001231D01*
X024466Y001159D01*
X024437Y001088D01*
X024406Y001019D01*
X024371Y000952D01*
X024332Y000887D01*
X024290Y000823D01*
X024245Y000762D01*
X024197Y000703D01*
X024146Y000647D01*
X024092Y000593D01*
X024036Y000542D01*
X023977Y000494D01*
X023916Y000449D01*
X023852Y000407D01*
X023787Y000368D01*
X023720Y000333D01*
X023651Y000302D01*
X023580Y000273D01*
X023508Y000249D01*
X023435Y000228D01*
X023361Y000211D01*
X023286Y000197D01*
X023211Y000188D01*
X023135Y000182D01*
X023059Y000180D01*
X004559Y000180D01*
X004483Y000182D01*
X004407Y000188D01*
X004332Y000197D01*
X004257Y000211D01*
X004183Y000228D01*
X004110Y000249D01*
X004038Y000273D01*
X003967Y000302D01*
X003898Y000333D01*
X003831Y000368D01*
X003766Y000407D01*
X003702Y000449D01*
X003641Y000494D01*
X003582Y000542D01*
X003526Y000593D01*
X003472Y000647D01*
X003421Y000703D01*
X003373Y000762D01*
X003328Y000823D01*
X003286Y000887D01*
X003247Y000952D01*
X003212Y001019D01*
X003181Y001088D01*
X003152Y001159D01*
X003128Y001231D01*
X003107Y001304D01*
X003090Y001378D01*
X003076Y001453D01*
X003067Y001528D01*
X003061Y001604D01*
X003059Y001680D01*
M02*
