G75*
G70*
%OFA0B0*%
%FSLAX24Y24*%
%IPPOS*%
%LPD*%
%AMOC8*
5,1,8,0,0,1.08239X$1,22.5*
%
%ADD10C,0.0000*%
%ADD11C,0.0060*%
%ADD12C,0.0120*%
%ADD13C,0.0050*%
%ADD14C,0.0100*%
%ADD15C,0.0030*%
%ADD16C,0.0010*%
%ADD17R,0.0240X0.0340*%
%ADD18R,0.0340X0.0240*%
%ADD19C,0.0020*%
%ADD20C,0.0080*%
D10*
X003059Y001680D02*
X003059Y012680D01*
X003061Y012756D01*
X003067Y012832D01*
X003076Y012907D01*
X003090Y012982D01*
X003107Y013056D01*
X003128Y013129D01*
X003152Y013201D01*
X003181Y013272D01*
X003212Y013341D01*
X003247Y013408D01*
X003286Y013473D01*
X003328Y013537D01*
X003373Y013598D01*
X003421Y013657D01*
X003472Y013713D01*
X003526Y013767D01*
X003582Y013818D01*
X003641Y013866D01*
X003702Y013911D01*
X003766Y013953D01*
X003831Y013992D01*
X003898Y014027D01*
X003967Y014058D01*
X004038Y014087D01*
X004110Y014111D01*
X004183Y014132D01*
X004257Y014149D01*
X004332Y014163D01*
X004407Y014172D01*
X004483Y014178D01*
X004559Y014180D01*
X022559Y014180D01*
X022654Y014178D01*
X022749Y014171D01*
X022844Y014160D01*
X022938Y014144D01*
X023031Y014124D01*
X023122Y014099D01*
X023213Y014070D01*
X023302Y014037D01*
X023390Y013999D01*
X023475Y013958D01*
X023559Y013912D01*
X023640Y013863D01*
X023719Y013809D01*
X023795Y013752D01*
X023869Y013691D01*
X023939Y013627D01*
X024006Y013560D01*
X024070Y013490D01*
X024131Y013416D01*
X024188Y013340D01*
X024242Y013261D01*
X024291Y013180D01*
X024337Y013096D01*
X024378Y013011D01*
X024416Y012923D01*
X024449Y012834D01*
X024478Y012743D01*
X024503Y012652D01*
X024523Y012559D01*
X024539Y012465D01*
X024550Y012370D01*
X024557Y012275D01*
X024559Y012180D01*
X024559Y001680D01*
X024557Y001604D01*
X024551Y001528D01*
X024542Y001453D01*
X024528Y001378D01*
X024511Y001304D01*
X024490Y001231D01*
X024466Y001159D01*
X024437Y001088D01*
X024406Y001019D01*
X024371Y000952D01*
X024332Y000887D01*
X024290Y000823D01*
X024245Y000762D01*
X024197Y000703D01*
X024146Y000647D01*
X024092Y000593D01*
X024036Y000542D01*
X023977Y000494D01*
X023916Y000449D01*
X023852Y000407D01*
X023787Y000368D01*
X023720Y000333D01*
X023651Y000302D01*
X023580Y000273D01*
X023508Y000249D01*
X023435Y000228D01*
X023361Y000211D01*
X023286Y000197D01*
X023211Y000188D01*
X023135Y000182D01*
X023059Y000180D01*
X004559Y000180D01*
X004483Y000182D01*
X004407Y000188D01*
X004332Y000197D01*
X004257Y000211D01*
X004183Y000228D01*
X004110Y000249D01*
X004038Y000273D01*
X003967Y000302D01*
X003898Y000333D01*
X003831Y000368D01*
X003766Y000407D01*
X003702Y000449D01*
X003641Y000494D01*
X003582Y000542D01*
X003526Y000593D01*
X003472Y000647D01*
X003421Y000703D01*
X003373Y000762D01*
X003328Y000823D01*
X003286Y000887D01*
X003247Y000952D01*
X003212Y001019D01*
X003181Y001088D01*
X003152Y001159D01*
X003128Y001231D01*
X003107Y001304D01*
X003090Y001378D01*
X003076Y001453D01*
X003067Y001528D01*
X003061Y001604D01*
X003059Y001680D01*
D11*
X007609Y002030D02*
X007609Y002180D01*
X007659Y002230D01*
X007659Y004130D01*
X007609Y004180D01*
X007609Y004330D01*
X007611Y004347D01*
X007615Y004364D01*
X007622Y004380D01*
X007632Y004394D01*
X007645Y004407D01*
X007659Y004417D01*
X007675Y004424D01*
X007692Y004428D01*
X007709Y004430D01*
X008409Y004430D01*
X008426Y004428D01*
X008443Y004424D01*
X008459Y004417D01*
X008473Y004407D01*
X008486Y004394D01*
X008496Y004380D01*
X008503Y004364D01*
X008507Y004347D01*
X008509Y004330D01*
X008509Y004180D01*
X008459Y004130D01*
X008459Y002230D01*
X008509Y002180D01*
X008509Y002030D01*
X008609Y002030D02*
X008609Y002180D01*
X008659Y002230D01*
X008659Y004130D01*
X008609Y004180D01*
X008609Y004330D01*
X008611Y004347D01*
X008615Y004364D01*
X008622Y004380D01*
X008632Y004394D01*
X008645Y004407D01*
X008659Y004417D01*
X008675Y004424D01*
X008692Y004428D01*
X008709Y004430D01*
X009409Y004430D01*
X009426Y004428D01*
X009443Y004424D01*
X009459Y004417D01*
X009473Y004407D01*
X009486Y004394D01*
X009496Y004380D01*
X009503Y004364D01*
X009507Y004347D01*
X009509Y004330D01*
X009509Y004180D01*
X009459Y004130D01*
X009459Y002230D01*
X009509Y002180D01*
X009509Y002030D01*
X009507Y002013D01*
X009503Y001996D01*
X009496Y001980D01*
X009486Y001966D01*
X009473Y001953D01*
X009459Y001943D01*
X009443Y001936D01*
X009426Y001932D01*
X009409Y001930D01*
X008709Y001930D01*
X008692Y001932D01*
X008675Y001936D01*
X008659Y001943D01*
X008645Y001953D01*
X008632Y001966D01*
X008622Y001980D01*
X008615Y001996D01*
X008611Y002013D01*
X008609Y002030D01*
X008509Y002030D02*
X008507Y002013D01*
X008503Y001996D01*
X008496Y001980D01*
X008486Y001966D01*
X008473Y001953D01*
X008459Y001943D01*
X008443Y001936D01*
X008426Y001932D01*
X008409Y001930D01*
X007709Y001930D01*
X007692Y001932D01*
X007675Y001936D01*
X007659Y001943D01*
X007645Y001953D01*
X007632Y001966D01*
X007622Y001980D01*
X007615Y001996D01*
X007611Y002013D01*
X007609Y002030D01*
X010359Y003280D02*
X010359Y004580D01*
X010361Y004606D01*
X010366Y004632D01*
X010374Y004657D01*
X010386Y004680D01*
X010400Y004702D01*
X010418Y004721D01*
X010437Y004739D01*
X010459Y004753D01*
X010482Y004765D01*
X010507Y004773D01*
X010533Y004778D01*
X010559Y004780D01*
X011059Y004780D02*
X011085Y004778D01*
X011111Y004773D01*
X011136Y004765D01*
X011159Y004753D01*
X011181Y004739D01*
X011200Y004721D01*
X011218Y004702D01*
X011232Y004680D01*
X011244Y004657D01*
X011252Y004632D01*
X011257Y004606D01*
X011259Y004580D01*
X011259Y003280D01*
X011359Y003280D02*
X011359Y004580D01*
X011361Y004606D01*
X011366Y004632D01*
X011374Y004657D01*
X011386Y004680D01*
X011400Y004702D01*
X011418Y004721D01*
X011437Y004739D01*
X011459Y004753D01*
X011482Y004765D01*
X011507Y004773D01*
X011533Y004778D01*
X011559Y004780D01*
X012059Y004780D02*
X012085Y004778D01*
X012111Y004773D01*
X012136Y004765D01*
X012159Y004753D01*
X012181Y004739D01*
X012200Y004721D01*
X012218Y004702D01*
X012232Y004680D01*
X012244Y004657D01*
X012252Y004632D01*
X012257Y004606D01*
X012259Y004580D01*
X012259Y003280D01*
X012257Y003254D01*
X012252Y003228D01*
X012244Y003203D01*
X012232Y003180D01*
X012218Y003158D01*
X012200Y003139D01*
X012181Y003121D01*
X012159Y003107D01*
X012136Y003095D01*
X012111Y003087D01*
X012085Y003082D01*
X012059Y003080D01*
X011809Y003430D02*
X011809Y003800D01*
X011809Y004050D02*
X011809Y004430D01*
X010809Y004430D02*
X010809Y004050D01*
X010809Y003800D02*
X010809Y003430D01*
X011059Y003080D02*
X011085Y003082D01*
X011111Y003087D01*
X011136Y003095D01*
X011159Y003107D01*
X011181Y003121D01*
X011200Y003139D01*
X011218Y003158D01*
X011232Y003180D01*
X011244Y003203D01*
X011252Y003228D01*
X011257Y003254D01*
X011259Y003280D01*
X011359Y003280D02*
X011361Y003254D01*
X011366Y003228D01*
X011374Y003203D01*
X011386Y003180D01*
X011400Y003158D01*
X011418Y003139D01*
X011437Y003121D01*
X011459Y003107D01*
X011482Y003095D01*
X011507Y003087D01*
X011533Y003082D01*
X011559Y003080D01*
X010559Y003080D02*
X010533Y003082D01*
X010507Y003087D01*
X010482Y003095D01*
X010459Y003107D01*
X010437Y003121D01*
X010418Y003139D01*
X010400Y003158D01*
X010386Y003180D01*
X010374Y003203D01*
X010366Y003228D01*
X010361Y003254D01*
X010359Y003280D01*
X013059Y004030D02*
X013059Y004780D01*
X013098Y004782D01*
X013137Y004788D01*
X013175Y004797D01*
X013212Y004810D01*
X013248Y004827D01*
X013281Y004847D01*
X013313Y004871D01*
X013342Y004897D01*
X013368Y004926D01*
X013392Y004958D01*
X013412Y004991D01*
X013429Y005027D01*
X013442Y005064D01*
X013451Y005102D01*
X013457Y005141D01*
X013459Y005180D01*
X013457Y005219D01*
X013451Y005258D01*
X013442Y005296D01*
X013429Y005333D01*
X013412Y005369D01*
X013392Y005402D01*
X013368Y005434D01*
X013342Y005463D01*
X013313Y005489D01*
X013281Y005513D01*
X013248Y005533D01*
X013212Y005550D01*
X013175Y005563D01*
X013137Y005572D01*
X013098Y005578D01*
X013059Y005580D01*
X013059Y006330D01*
X017059Y006330D01*
X017059Y004030D01*
X013059Y004030D01*
X010309Y006330D02*
X010159Y006180D01*
X009459Y006180D01*
X009309Y006330D01*
X009159Y006180D01*
X008459Y006180D01*
X008309Y006330D01*
X008309Y008030D01*
X008459Y008180D01*
X009159Y008180D01*
X009309Y008030D01*
X009459Y008180D01*
X010159Y008180D01*
X010309Y008030D01*
X010309Y006330D01*
X011234Y008030D02*
X012884Y008030D01*
X012946Y008580D02*
X013104Y008580D01*
X011172Y008580D02*
X011014Y008580D01*
X011059Y009980D02*
X010909Y009980D01*
X010892Y009982D01*
X010875Y009986D01*
X010859Y009993D01*
X010845Y010003D01*
X010832Y010016D01*
X010822Y010030D01*
X010815Y010046D01*
X010811Y010063D01*
X010809Y010080D01*
X010809Y010780D01*
X010811Y010797D01*
X010815Y010814D01*
X010822Y010830D01*
X010832Y010844D01*
X010845Y010857D01*
X010859Y010867D01*
X010875Y010874D01*
X010892Y010878D01*
X010909Y010880D01*
X011059Y010880D01*
X011109Y010830D01*
X013009Y010830D01*
X013059Y010880D01*
X013209Y010880D01*
X013226Y010878D01*
X013243Y010874D01*
X013259Y010867D01*
X013273Y010857D01*
X013286Y010844D01*
X013296Y010830D01*
X013303Y010814D01*
X013307Y010797D01*
X013309Y010780D01*
X013309Y010080D01*
X013307Y010063D01*
X013303Y010046D01*
X013296Y010030D01*
X013286Y010016D01*
X013273Y010003D01*
X013259Y009993D01*
X013243Y009986D01*
X013226Y009982D01*
X013209Y009980D01*
X013059Y009980D01*
X013009Y010030D01*
X011109Y010030D01*
X011059Y009980D01*
X009509Y010030D02*
X009509Y010180D01*
X009459Y010230D01*
X009459Y012130D01*
X009509Y012180D01*
X009509Y012330D01*
X009507Y012347D01*
X009503Y012364D01*
X009496Y012380D01*
X009486Y012394D01*
X009473Y012407D01*
X009459Y012417D01*
X009443Y012424D01*
X009426Y012428D01*
X009409Y012430D01*
X008709Y012430D01*
X008692Y012428D01*
X008675Y012424D01*
X008659Y012417D01*
X008645Y012407D01*
X008632Y012394D01*
X008622Y012380D01*
X008615Y012364D01*
X008611Y012347D01*
X008609Y012330D01*
X008609Y012180D01*
X008659Y012130D01*
X008659Y010230D01*
X008609Y010180D01*
X008609Y010030D01*
X008611Y010013D01*
X008615Y009996D01*
X008622Y009980D01*
X008632Y009966D01*
X008645Y009953D01*
X008659Y009943D01*
X008675Y009936D01*
X008692Y009932D01*
X008709Y009930D01*
X009409Y009930D01*
X009426Y009932D01*
X009443Y009936D01*
X009459Y009943D01*
X009473Y009953D01*
X009486Y009966D01*
X009496Y009980D01*
X009503Y009996D01*
X009507Y010013D01*
X009509Y010030D01*
X008509Y010030D02*
X008509Y010180D01*
X008459Y010230D01*
X008459Y012130D01*
X008509Y012180D01*
X008509Y012330D01*
X008507Y012347D01*
X008503Y012364D01*
X008496Y012380D01*
X008486Y012394D01*
X008473Y012407D01*
X008459Y012417D01*
X008443Y012424D01*
X008426Y012428D01*
X008409Y012430D01*
X007709Y012430D01*
X007692Y012428D01*
X007675Y012424D01*
X007659Y012417D01*
X007645Y012407D01*
X007632Y012394D01*
X007622Y012380D01*
X007615Y012364D01*
X007611Y012347D01*
X007609Y012330D01*
X007609Y012180D01*
X007659Y012130D01*
X007659Y010230D01*
X007609Y010180D01*
X007609Y010030D01*
X007611Y010013D01*
X007615Y009996D01*
X007622Y009980D01*
X007632Y009966D01*
X007645Y009953D01*
X007659Y009943D01*
X007675Y009936D01*
X007692Y009932D01*
X007709Y009930D01*
X008409Y009930D01*
X008426Y009932D01*
X008443Y009936D01*
X008459Y009943D01*
X008473Y009953D01*
X008486Y009966D01*
X008496Y009980D01*
X008503Y009996D01*
X008507Y010013D01*
X008509Y010030D01*
X010809Y011080D02*
X010809Y011780D01*
X010811Y011797D01*
X010815Y011814D01*
X010822Y011830D01*
X010832Y011844D01*
X010845Y011857D01*
X010859Y011867D01*
X010875Y011874D01*
X010892Y011878D01*
X010909Y011880D01*
X011059Y011880D01*
X011109Y011830D01*
X013009Y011830D01*
X013059Y011880D01*
X013209Y011880D01*
X013226Y011878D01*
X013243Y011874D01*
X013259Y011867D01*
X013273Y011857D01*
X013286Y011844D01*
X013296Y011830D01*
X013303Y011814D01*
X013307Y011797D01*
X013309Y011780D01*
X013309Y011080D01*
X013307Y011063D01*
X013303Y011046D01*
X013296Y011030D01*
X013286Y011016D01*
X013273Y011003D01*
X013259Y010993D01*
X013243Y010986D01*
X013226Y010982D01*
X013209Y010980D01*
X013059Y010980D01*
X013009Y011030D01*
X011109Y011030D01*
X011059Y010980D01*
X010909Y010980D01*
X010892Y010982D01*
X010875Y010986D01*
X010859Y010993D01*
X010845Y011003D01*
X010832Y011016D01*
X010822Y011030D01*
X010815Y011046D01*
X010811Y011063D01*
X010809Y011080D01*
X011234Y012030D02*
X012884Y012030D01*
X012946Y012580D02*
X013104Y012580D01*
X011172Y012580D02*
X011014Y012580D01*
X015059Y011830D02*
X015059Y011080D01*
X015098Y011078D01*
X015137Y011072D01*
X015175Y011063D01*
X015212Y011050D01*
X015248Y011033D01*
X015281Y011013D01*
X015313Y010989D01*
X015342Y010963D01*
X015368Y010934D01*
X015392Y010902D01*
X015412Y010869D01*
X015429Y010833D01*
X015442Y010796D01*
X015451Y010758D01*
X015457Y010719D01*
X015459Y010680D01*
X015457Y010641D01*
X015451Y010602D01*
X015442Y010564D01*
X015429Y010527D01*
X015412Y010491D01*
X015392Y010458D01*
X015368Y010426D01*
X015342Y010397D01*
X015313Y010371D01*
X015281Y010347D01*
X015248Y010327D01*
X015212Y010310D01*
X015175Y010297D01*
X015137Y010288D01*
X015098Y010282D01*
X015059Y010280D01*
X015059Y009530D01*
X019059Y009530D01*
X019059Y011830D01*
X015059Y011830D01*
X018159Y008130D02*
X019459Y008130D01*
X019485Y008128D01*
X019511Y008123D01*
X019536Y008115D01*
X019559Y008103D01*
X019581Y008089D01*
X019600Y008071D01*
X019618Y008052D01*
X019632Y008030D01*
X019644Y008007D01*
X019652Y007982D01*
X019657Y007956D01*
X019659Y007930D01*
X019309Y007680D02*
X018939Y007680D01*
X018689Y007680D02*
X018309Y007680D01*
X017959Y007430D02*
X017961Y007404D01*
X017966Y007378D01*
X017974Y007353D01*
X017986Y007330D01*
X018000Y007308D01*
X018018Y007289D01*
X018037Y007271D01*
X018059Y007257D01*
X018082Y007245D01*
X018107Y007237D01*
X018133Y007232D01*
X018159Y007230D01*
X019459Y007230D01*
X019485Y007232D01*
X019511Y007237D01*
X019536Y007245D01*
X019559Y007257D01*
X019581Y007271D01*
X019600Y007289D01*
X019618Y007308D01*
X019632Y007330D01*
X019644Y007353D01*
X019652Y007378D01*
X019657Y007404D01*
X019659Y007430D01*
X019459Y006630D02*
X018159Y006630D01*
X018133Y006628D01*
X018107Y006623D01*
X018082Y006615D01*
X018059Y006603D01*
X018037Y006589D01*
X018018Y006571D01*
X018000Y006552D01*
X017986Y006530D01*
X017974Y006507D01*
X017966Y006482D01*
X017961Y006456D01*
X017959Y006430D01*
X018309Y006180D02*
X018689Y006180D01*
X018939Y006180D02*
X019309Y006180D01*
X019659Y006430D02*
X019657Y006456D01*
X019652Y006482D01*
X019644Y006507D01*
X019632Y006530D01*
X019618Y006552D01*
X019600Y006571D01*
X019581Y006589D01*
X019559Y006603D01*
X019536Y006615D01*
X019511Y006623D01*
X019485Y006628D01*
X019459Y006630D01*
X019659Y005930D02*
X019657Y005904D01*
X019652Y005878D01*
X019644Y005853D01*
X019632Y005830D01*
X019618Y005808D01*
X019600Y005789D01*
X019581Y005771D01*
X019559Y005757D01*
X019536Y005745D01*
X019511Y005737D01*
X019485Y005732D01*
X019459Y005730D01*
X018159Y005730D01*
X018133Y005732D01*
X018107Y005737D01*
X018082Y005745D01*
X018059Y005757D01*
X018037Y005771D01*
X018018Y005789D01*
X018000Y005808D01*
X017986Y005830D01*
X017974Y005853D01*
X017966Y005878D01*
X017961Y005904D01*
X017959Y005930D01*
X017909Y004680D02*
X018709Y004680D01*
X018809Y004580D01*
X018909Y004680D01*
X019709Y004680D01*
X019809Y004580D01*
X019809Y003780D01*
X019709Y003680D01*
X018909Y003680D01*
X018809Y003780D01*
X018709Y003680D01*
X017909Y003680D01*
X017809Y003780D01*
X017809Y004580D01*
X017909Y004680D01*
X017959Y007930D02*
X017961Y007956D01*
X017966Y007982D01*
X017974Y008007D01*
X017986Y008030D01*
X018000Y008052D01*
X018018Y008071D01*
X018037Y008089D01*
X018059Y008103D01*
X018082Y008115D01*
X018107Y008123D01*
X018133Y008128D01*
X018159Y008130D01*
D12*
X018689Y007980D02*
X018689Y007680D01*
X018689Y007380D01*
X018939Y007380D02*
X018939Y007680D01*
X018939Y007980D01*
X018939Y006480D02*
X018939Y006180D01*
X018939Y005880D01*
X018689Y005880D02*
X018689Y006180D01*
X018689Y006480D01*
X012109Y004050D02*
X011809Y004050D01*
X011509Y004050D01*
X011509Y003800D02*
X011809Y003800D01*
X012109Y003800D01*
X011109Y003800D02*
X010809Y003800D01*
X010509Y003800D01*
X010509Y004050D02*
X010809Y004050D01*
X011109Y004050D01*
D13*
X011384Y004109D02*
X011384Y003959D01*
X011459Y003884D01*
X011759Y003884D01*
X011834Y003959D01*
X011834Y004109D01*
X011759Y004184D01*
X011609Y004345D02*
X011609Y004645D01*
X011834Y004570D02*
X011384Y004570D01*
X011609Y004345D01*
X011459Y004184D02*
X011384Y004109D01*
X012384Y004109D02*
X012384Y003959D01*
X012459Y003884D01*
X012759Y003884D01*
X012834Y003959D01*
X012834Y004109D01*
X012759Y004184D01*
X012934Y004205D02*
X012934Y004055D01*
X012934Y004130D02*
X012484Y004130D01*
X012459Y004184D02*
X012384Y004109D01*
X012484Y004055D02*
X012484Y004205D01*
X012459Y004345D02*
X012384Y004420D01*
X012384Y004570D01*
X012459Y004645D01*
X012534Y004645D01*
X012834Y004345D01*
X012834Y004645D01*
X012859Y004662D02*
X012934Y004587D01*
X012934Y004437D01*
X012859Y004362D01*
X012559Y004362D01*
X012484Y004437D01*
X012484Y004587D01*
X012559Y004662D01*
X012634Y004822D02*
X012484Y004972D01*
X012934Y004972D01*
X012934Y004822D02*
X012934Y005123D01*
X010134Y004245D02*
X010134Y003945D01*
X010134Y004095D02*
X009684Y004095D01*
X009834Y003945D01*
X009759Y003784D02*
X009909Y003784D01*
X009984Y003709D01*
X009984Y003484D01*
X010134Y003484D02*
X009684Y003484D01*
X009684Y003709D01*
X009759Y003784D01*
X009984Y003634D02*
X010134Y003784D01*
X007434Y002766D02*
X007434Y002465D01*
X007134Y002766D01*
X007059Y002766D01*
X006984Y002691D01*
X006984Y002540D01*
X007059Y002465D01*
X007059Y002305D02*
X007209Y002305D01*
X007284Y002230D01*
X007284Y002005D01*
X007434Y002005D02*
X006984Y002005D01*
X006984Y002230D01*
X007059Y002305D01*
X007284Y002155D02*
X007434Y002305D01*
X008634Y005555D02*
X008934Y005555D01*
X008784Y005555D02*
X008784Y006005D01*
X008634Y005855D01*
X009634Y005930D02*
X009709Y006005D01*
X009859Y006005D01*
X009934Y005930D01*
X009934Y005855D01*
X009634Y005555D01*
X009934Y005555D01*
X004287Y007180D02*
X004289Y007267D01*
X004296Y007354D01*
X004306Y007440D01*
X004321Y007526D01*
X004340Y007611D01*
X004363Y007694D01*
X004391Y007777D01*
X004422Y007858D01*
X004457Y007938D01*
X004496Y008015D01*
X004539Y008091D01*
X004586Y008164D01*
X004636Y008236D01*
X004689Y008304D01*
X004746Y008370D01*
X004806Y008433D01*
X004869Y008493D01*
X004935Y008550D01*
X005003Y008603D01*
X005075Y008653D01*
X005148Y008700D01*
X005224Y008743D01*
X005301Y008782D01*
X005381Y008817D01*
X005462Y008848D01*
X005545Y008876D01*
X005628Y008899D01*
X005713Y008918D01*
X005799Y008933D01*
X005885Y008943D01*
X005972Y008950D01*
X006059Y008952D01*
X006146Y008950D01*
X006233Y008943D01*
X006319Y008933D01*
X006405Y008918D01*
X006490Y008899D01*
X006573Y008876D01*
X006656Y008848D01*
X006737Y008817D01*
X006817Y008782D01*
X006894Y008743D01*
X006970Y008700D01*
X007043Y008653D01*
X007115Y008603D01*
X007183Y008550D01*
X007249Y008493D01*
X007312Y008433D01*
X007372Y008370D01*
X007429Y008304D01*
X007482Y008236D01*
X007532Y008164D01*
X007579Y008091D01*
X007622Y008015D01*
X007661Y007938D01*
X007696Y007858D01*
X007727Y007777D01*
X007755Y007694D01*
X007778Y007611D01*
X007797Y007526D01*
X007812Y007440D01*
X007822Y007354D01*
X007829Y007267D01*
X007831Y007180D01*
X007829Y007093D01*
X007822Y007006D01*
X007812Y006920D01*
X007797Y006834D01*
X007778Y006749D01*
X007755Y006666D01*
X007727Y006583D01*
X007696Y006502D01*
X007661Y006422D01*
X007622Y006345D01*
X007579Y006269D01*
X007532Y006196D01*
X007482Y006124D01*
X007429Y006056D01*
X007372Y005990D01*
X007312Y005927D01*
X007249Y005867D01*
X007183Y005810D01*
X007115Y005757D01*
X007043Y005707D01*
X006970Y005660D01*
X006894Y005617D01*
X006817Y005578D01*
X006737Y005543D01*
X006656Y005512D01*
X006573Y005484D01*
X006490Y005461D01*
X006405Y005442D01*
X006319Y005427D01*
X006233Y005417D01*
X006146Y005410D01*
X006059Y005408D01*
X005972Y005410D01*
X005885Y005417D01*
X005799Y005427D01*
X005713Y005442D01*
X005628Y005461D01*
X005545Y005484D01*
X005462Y005512D01*
X005381Y005543D01*
X005301Y005578D01*
X005224Y005617D01*
X005148Y005660D01*
X005075Y005707D01*
X005003Y005757D01*
X004935Y005810D01*
X004869Y005867D01*
X004806Y005927D01*
X004746Y005990D01*
X004689Y006056D01*
X004636Y006124D01*
X004586Y006196D01*
X004539Y006269D01*
X004496Y006345D01*
X004457Y006422D01*
X004422Y006502D01*
X004391Y006583D01*
X004363Y006666D01*
X004340Y006749D01*
X004321Y006834D01*
X004306Y006920D01*
X004296Y007006D01*
X004289Y007093D01*
X004287Y007180D01*
X003524Y006655D02*
X003524Y006205D01*
X003374Y006205D02*
X003674Y006205D01*
X003374Y006505D02*
X003524Y006655D01*
X003213Y006580D02*
X003138Y006655D01*
X002988Y006655D01*
X002913Y006580D01*
X002913Y006505D01*
X002988Y006430D01*
X003138Y006430D01*
X003213Y006355D01*
X003213Y006280D01*
X003138Y006205D01*
X002988Y006205D01*
X002913Y006280D01*
X002753Y006280D02*
X002753Y006655D01*
X003063Y006730D02*
X003063Y006130D01*
X002753Y006280D02*
X002678Y006205D01*
X002528Y006205D01*
X002453Y006280D01*
X002453Y006655D01*
X004382Y008574D02*
X004672Y008284D01*
X004955Y008567D02*
X004665Y008857D01*
X004382Y008574D01*
X004090Y007180D02*
X004092Y007277D01*
X004099Y007373D01*
X004111Y007469D01*
X004128Y007564D01*
X004149Y007658D01*
X004175Y007752D01*
X004205Y007843D01*
X004240Y007934D01*
X004279Y008022D01*
X004322Y008108D01*
X004370Y008192D01*
X004422Y008274D01*
X004477Y008353D01*
X004537Y008429D01*
X004600Y008502D01*
X004667Y008572D01*
X004737Y008639D01*
X004810Y008702D01*
X004886Y008762D01*
X004965Y008817D01*
X005047Y008869D01*
X005131Y008917D01*
X005217Y008960D01*
X005305Y008999D01*
X005396Y009034D01*
X005487Y009064D01*
X005581Y009090D01*
X005675Y009111D01*
X005770Y009128D01*
X005866Y009140D01*
X005962Y009147D01*
X006059Y009149D01*
X006156Y009147D01*
X006252Y009140D01*
X006348Y009128D01*
X006443Y009111D01*
X006537Y009090D01*
X006631Y009064D01*
X006722Y009034D01*
X006813Y008999D01*
X006901Y008960D01*
X006987Y008917D01*
X007071Y008869D01*
X007153Y008817D01*
X007232Y008762D01*
X007308Y008702D01*
X007381Y008639D01*
X007451Y008572D01*
X007518Y008502D01*
X007581Y008429D01*
X007641Y008353D01*
X007696Y008274D01*
X007748Y008192D01*
X007796Y008108D01*
X007839Y008022D01*
X007878Y007934D01*
X007913Y007843D01*
X007943Y007752D01*
X007969Y007658D01*
X007990Y007564D01*
X008007Y007469D01*
X008019Y007373D01*
X008026Y007277D01*
X008028Y007180D01*
X008026Y007083D01*
X008019Y006987D01*
X008007Y006891D01*
X007990Y006796D01*
X007969Y006702D01*
X007943Y006608D01*
X007913Y006517D01*
X007878Y006426D01*
X007839Y006338D01*
X007796Y006252D01*
X007748Y006168D01*
X007696Y006086D01*
X007641Y006007D01*
X007581Y005931D01*
X007518Y005858D01*
X007451Y005788D01*
X007381Y005721D01*
X007308Y005658D01*
X007232Y005598D01*
X007153Y005543D01*
X007071Y005491D01*
X006987Y005443D01*
X006901Y005400D01*
X006813Y005361D01*
X006722Y005326D01*
X006631Y005296D01*
X006537Y005270D01*
X006443Y005249D01*
X006348Y005232D01*
X006252Y005220D01*
X006156Y005213D01*
X006059Y005211D01*
X005962Y005213D01*
X005866Y005220D01*
X005770Y005232D01*
X005675Y005249D01*
X005581Y005270D01*
X005487Y005296D01*
X005396Y005326D01*
X005305Y005361D01*
X005217Y005400D01*
X005131Y005443D01*
X005047Y005491D01*
X004965Y005543D01*
X004886Y005598D01*
X004810Y005658D01*
X004737Y005721D01*
X004667Y005788D01*
X004600Y005858D01*
X004537Y005931D01*
X004477Y006007D01*
X004422Y006086D01*
X004370Y006168D01*
X004322Y006252D01*
X004279Y006338D01*
X004240Y006426D01*
X004205Y006517D01*
X004175Y006608D01*
X004149Y006702D01*
X004128Y006796D01*
X004111Y006891D01*
X004099Y006987D01*
X004092Y007083D01*
X004090Y007180D01*
X008334Y008480D02*
X008409Y008405D01*
X008484Y008405D01*
X008559Y008480D01*
X008559Y008855D01*
X008484Y008855D02*
X008634Y008855D01*
X008794Y008855D02*
X009019Y008855D01*
X009095Y008780D01*
X009095Y008630D01*
X009019Y008555D01*
X008794Y008555D01*
X008794Y008405D02*
X008794Y008855D01*
X009255Y008630D02*
X009555Y008630D01*
X009480Y008405D02*
X009480Y008855D01*
X009255Y008630D01*
X010334Y008680D02*
X010334Y008530D01*
X010409Y008455D01*
X010709Y008455D01*
X010784Y008530D01*
X010784Y008680D01*
X010709Y008755D01*
X010409Y008755D01*
X010334Y008680D01*
X010634Y008605D02*
X010784Y008755D01*
X010784Y008915D02*
X010484Y009216D01*
X010409Y009216D01*
X010334Y009141D01*
X010334Y008990D01*
X010409Y008915D01*
X010784Y008915D02*
X010784Y009216D01*
X012363Y009355D02*
X012363Y009805D01*
X012588Y009805D01*
X012663Y009730D01*
X012663Y009580D01*
X012588Y009505D01*
X012363Y009505D01*
X012513Y009505D02*
X012663Y009355D01*
X012824Y009430D02*
X012899Y009355D01*
X013049Y009355D01*
X013124Y009430D01*
X013124Y009505D01*
X013049Y009580D01*
X012974Y009580D01*
X013049Y009580D02*
X013124Y009655D01*
X013124Y009730D01*
X013049Y009805D01*
X012899Y009805D01*
X012824Y009730D01*
X012899Y010355D02*
X012824Y010430D01*
X012824Y010580D01*
X013049Y010580D01*
X013124Y010505D01*
X013124Y010430D01*
X013049Y010355D01*
X012899Y010355D01*
X012663Y010355D02*
X012513Y010505D01*
X012588Y010505D02*
X012363Y010505D01*
X012363Y010355D02*
X012363Y010805D01*
X012588Y010805D01*
X012663Y010730D01*
X012663Y010580D01*
X012588Y010505D01*
X012824Y010580D02*
X012974Y010730D01*
X013124Y010805D01*
X014484Y010548D02*
X014484Y010397D01*
X014559Y010322D01*
X014559Y010162D02*
X014484Y010087D01*
X014484Y009937D01*
X014559Y009862D01*
X014859Y009862D01*
X014934Y009937D01*
X014934Y010087D01*
X014859Y010162D01*
X014934Y010322D02*
X014634Y010623D01*
X014559Y010623D01*
X014484Y010548D01*
X014934Y010623D02*
X014934Y010322D01*
X014934Y009705D02*
X014934Y009555D01*
X014934Y009630D02*
X014484Y009630D01*
X014484Y009555D02*
X014484Y009705D01*
X017984Y008630D02*
X017984Y008330D01*
X018059Y008255D01*
X018209Y008255D01*
X018284Y008330D01*
X018444Y008330D02*
X018519Y008255D01*
X018669Y008255D01*
X018745Y008330D01*
X018745Y008405D01*
X018669Y008480D01*
X018594Y008480D01*
X018669Y008480D02*
X018745Y008555D01*
X018745Y008630D01*
X018669Y008705D01*
X018519Y008705D01*
X018444Y008630D01*
X018284Y008630D02*
X018209Y008705D01*
X018059Y008705D01*
X017984Y008630D01*
X018059Y007205D02*
X017984Y007130D01*
X017984Y006830D01*
X018059Y006755D01*
X018209Y006755D01*
X018284Y006830D01*
X018444Y006755D02*
X018745Y006755D01*
X018594Y006755D02*
X018594Y007205D01*
X018444Y007055D01*
X018284Y007130D02*
X018209Y007205D01*
X018059Y007205D01*
X020665Y006899D02*
X021453Y006899D01*
X019524Y003505D02*
X019524Y003055D01*
X019374Y003055D02*
X019674Y003055D01*
X019374Y003355D02*
X019524Y003505D01*
X019213Y003430D02*
X019213Y003280D01*
X019138Y003205D01*
X018913Y003205D01*
X018913Y003055D02*
X018913Y003505D01*
X019138Y003505D01*
X019213Y003430D01*
X018753Y003505D02*
X018603Y003505D01*
X018678Y003505D02*
X018678Y003130D01*
X018603Y003055D01*
X018528Y003055D01*
X018453Y003130D01*
X008434Y010005D02*
X007984Y010005D01*
X007984Y010230D01*
X008059Y010305D01*
X008209Y010305D01*
X008284Y010230D01*
X008284Y010005D01*
X008284Y010155D02*
X008434Y010305D01*
X008359Y010465D02*
X008434Y010540D01*
X008434Y010691D01*
X008359Y010766D01*
X008209Y010766D01*
X008134Y010691D01*
X008134Y010616D01*
X008209Y010465D01*
X007984Y010465D01*
X007984Y010766D01*
X008684Y011484D02*
X008684Y011709D01*
X008759Y011784D01*
X008909Y011784D01*
X008984Y011709D01*
X008984Y011484D01*
X009134Y011484D02*
X008684Y011484D01*
X008984Y011634D02*
X009134Y011784D01*
X008909Y011945D02*
X008909Y012245D01*
X009134Y012170D02*
X008684Y012170D01*
X008909Y011945D01*
X010334Y012109D02*
X010334Y012259D01*
X010409Y012334D01*
X010709Y012334D01*
X010784Y012259D01*
X010784Y012109D01*
X010709Y012034D01*
X010409Y012034D01*
X010334Y012109D01*
X010634Y012184D02*
X010784Y012334D01*
X010784Y012495D02*
X010784Y012795D01*
X010784Y012645D02*
X010334Y012645D01*
X010484Y012495D01*
X020665Y011399D02*
X021453Y011399D01*
D14*
X021689Y011399D02*
X021689Y007461D01*
X024366Y007461D01*
X024366Y008328D01*
X023972Y008328D01*
X023972Y010532D01*
X024366Y010532D01*
X024366Y011399D01*
X021689Y011399D01*
X020468Y011399D01*
X020468Y007461D01*
X021689Y007461D01*
X021689Y006899D02*
X021689Y002961D01*
X024366Y002961D01*
X024366Y003828D01*
X023972Y003828D01*
X023972Y006032D01*
X024366Y006032D01*
X024366Y006899D01*
X021689Y006899D01*
X020468Y006899D01*
X020468Y002961D01*
X021689Y002961D01*
D15*
X020284Y005049D02*
X020333Y005098D01*
X020333Y005146D01*
X020284Y005195D01*
X020043Y005195D01*
X020043Y005243D02*
X020043Y005146D01*
X020139Y005344D02*
X020043Y005441D01*
X020333Y005441D01*
X020333Y005344D02*
X020333Y005538D01*
X020284Y009549D02*
X020333Y009598D01*
X020333Y009646D01*
X020284Y009695D01*
X020043Y009695D01*
X020043Y009743D02*
X020043Y009646D01*
X020091Y009844D02*
X020043Y009892D01*
X020043Y009989D01*
X020091Y010038D01*
X020139Y010038D01*
X020333Y009844D01*
X020333Y010038D01*
D16*
X012906Y008019D02*
X012867Y008050D01*
X012867Y008049D02*
X012904Y008099D01*
X012937Y008151D01*
X012967Y008205D01*
X012994Y008261D01*
X013018Y008318D01*
X013038Y008376D01*
X013054Y008436D01*
X013067Y008496D01*
X013077Y008557D01*
X013082Y008619D01*
X013084Y008681D01*
X013082Y008742D01*
X013076Y008804D01*
X013067Y008865D01*
X013054Y008925D01*
X013038Y008985D01*
X013017Y009043D01*
X012994Y009100D01*
X012967Y009156D01*
X012936Y009210D01*
X012903Y009262D01*
X012866Y009311D01*
X012827Y009359D01*
X012785Y009404D01*
X012740Y009446D01*
X012692Y009486D01*
X012642Y009523D01*
X012591Y009556D01*
X012537Y009587D01*
X012481Y009614D01*
X012424Y009638D01*
X012366Y009658D01*
X012380Y009705D01*
X012381Y009706D01*
X012442Y009684D01*
X012502Y009660D01*
X012560Y009631D01*
X012616Y009599D01*
X012671Y009564D01*
X012723Y009525D01*
X012773Y009484D01*
X012820Y009439D01*
X012864Y009392D01*
X012906Y009342D01*
X012944Y009290D01*
X012979Y009236D01*
X013011Y009179D01*
X013039Y009121D01*
X013064Y009061D01*
X013085Y009000D01*
X013103Y008937D01*
X013116Y008874D01*
X013126Y008810D01*
X013132Y008745D01*
X013134Y008681D01*
X013132Y008616D01*
X013126Y008551D01*
X013117Y008487D01*
X013103Y008424D01*
X013086Y008361D01*
X013065Y008300D01*
X013040Y008240D01*
X013012Y008182D01*
X012980Y008125D01*
X012945Y008071D01*
X012906Y008018D01*
X012899Y008024D01*
X012937Y008076D01*
X012972Y008130D01*
X013004Y008186D01*
X013032Y008244D01*
X013056Y008303D01*
X013077Y008364D01*
X013094Y008426D01*
X013108Y008489D01*
X013117Y008552D01*
X013123Y008616D01*
X013125Y008681D01*
X013123Y008745D01*
X013117Y008809D01*
X013108Y008872D01*
X013094Y008935D01*
X013077Y008997D01*
X013056Y009058D01*
X013031Y009117D01*
X013003Y009175D01*
X012972Y009231D01*
X012937Y009285D01*
X012899Y009337D01*
X012858Y009386D01*
X012814Y009433D01*
X012767Y009477D01*
X012717Y009518D01*
X012666Y009556D01*
X012612Y009591D01*
X012556Y009623D01*
X012498Y009651D01*
X012439Y009676D01*
X012378Y009697D01*
X012375Y009689D01*
X012436Y009668D01*
X012494Y009643D01*
X012552Y009615D01*
X012607Y009584D01*
X012661Y009549D01*
X012712Y009511D01*
X012761Y009470D01*
X012807Y009427D01*
X012851Y009380D01*
X012892Y009331D01*
X012929Y009280D01*
X012964Y009226D01*
X012995Y009171D01*
X013023Y009114D01*
X013047Y009055D01*
X013068Y008994D01*
X013085Y008933D01*
X013099Y008871D01*
X013108Y008808D01*
X013114Y008744D01*
X013116Y008681D01*
X013114Y008617D01*
X013108Y008553D01*
X013099Y008490D01*
X013086Y008428D01*
X013068Y008367D01*
X013048Y008306D01*
X013023Y008247D01*
X012996Y008190D01*
X012964Y008135D01*
X012930Y008081D01*
X012892Y008030D01*
X012885Y008035D01*
X012922Y008086D01*
X012957Y008139D01*
X012988Y008194D01*
X013015Y008251D01*
X013039Y008310D01*
X013060Y008369D01*
X013077Y008430D01*
X013090Y008492D01*
X013099Y008554D01*
X013105Y008617D01*
X013107Y008681D01*
X013105Y008744D01*
X013099Y008807D01*
X013090Y008869D01*
X013077Y008931D01*
X013060Y008992D01*
X013039Y009051D01*
X013015Y009110D01*
X012987Y009167D01*
X012956Y009222D01*
X012922Y009275D01*
X012884Y009326D01*
X012844Y009374D01*
X012801Y009420D01*
X012755Y009464D01*
X012706Y009504D01*
X012656Y009542D01*
X012603Y009576D01*
X012548Y009607D01*
X012491Y009635D01*
X012432Y009659D01*
X012373Y009680D01*
X012370Y009671D01*
X012429Y009651D01*
X012487Y009627D01*
X012543Y009599D01*
X012598Y009568D01*
X012650Y009534D01*
X012701Y009497D01*
X012749Y009457D01*
X012794Y009414D01*
X012837Y009368D01*
X012877Y009320D01*
X012914Y009270D01*
X012948Y009217D01*
X012979Y009162D01*
X013007Y009106D01*
X013031Y009048D01*
X013051Y008989D01*
X013068Y008929D01*
X013081Y008867D01*
X013090Y008806D01*
X013096Y008743D01*
X013098Y008681D01*
X013096Y008618D01*
X013091Y008556D01*
X013081Y008494D01*
X013068Y008432D01*
X013051Y008372D01*
X013031Y008313D01*
X013007Y008255D01*
X012980Y008199D01*
X012949Y008144D01*
X012915Y008091D01*
X012878Y008041D01*
X012871Y008046D01*
X012908Y008096D01*
X012941Y008149D01*
X012972Y008203D01*
X012999Y008259D01*
X013023Y008316D01*
X013043Y008375D01*
X013059Y008435D01*
X013072Y008495D01*
X013082Y008557D01*
X013087Y008618D01*
X013089Y008681D01*
X013087Y008743D01*
X013081Y008804D01*
X013072Y008866D01*
X013059Y008927D01*
X013042Y008986D01*
X013022Y009045D01*
X012998Y009102D01*
X012971Y009158D01*
X012941Y009212D01*
X012907Y009265D01*
X012870Y009315D01*
X012831Y009362D01*
X012788Y009408D01*
X012743Y009450D01*
X012695Y009490D01*
X012645Y009527D01*
X012593Y009561D01*
X012539Y009591D01*
X012483Y009618D01*
X012426Y009642D01*
X012367Y009663D01*
X011738Y009705D02*
X011753Y009657D01*
X011752Y009658D02*
X011694Y009638D01*
X011637Y009614D01*
X011581Y009587D01*
X011527Y009556D01*
X011476Y009523D01*
X011426Y009486D01*
X011378Y009446D01*
X011333Y009404D01*
X011291Y009359D01*
X011252Y009311D01*
X011215Y009262D01*
X011182Y009210D01*
X011151Y009156D01*
X011124Y009100D01*
X011101Y009043D01*
X011080Y008985D01*
X011064Y008925D01*
X011051Y008865D01*
X011042Y008804D01*
X011036Y008742D01*
X011034Y008681D01*
X011036Y008619D01*
X011041Y008557D01*
X011051Y008496D01*
X011064Y008436D01*
X011080Y008376D01*
X011100Y008318D01*
X011124Y008261D01*
X011151Y008205D01*
X011181Y008151D01*
X011214Y008099D01*
X011251Y008049D01*
X011212Y008019D01*
X011212Y008018D01*
X011173Y008071D01*
X011138Y008125D01*
X011106Y008182D01*
X011078Y008240D01*
X011053Y008300D01*
X011032Y008361D01*
X011015Y008424D01*
X011001Y008487D01*
X010992Y008551D01*
X010986Y008616D01*
X010984Y008681D01*
X010986Y008745D01*
X010992Y008810D01*
X011002Y008874D01*
X011015Y008937D01*
X011033Y009000D01*
X011054Y009061D01*
X011079Y009121D01*
X011107Y009179D01*
X011139Y009236D01*
X011174Y009290D01*
X011212Y009342D01*
X011254Y009392D01*
X011298Y009439D01*
X011345Y009484D01*
X011395Y009525D01*
X011447Y009564D01*
X011502Y009599D01*
X011558Y009631D01*
X011616Y009660D01*
X011676Y009684D01*
X011737Y009706D01*
X011740Y009697D01*
X011679Y009676D01*
X011620Y009651D01*
X011562Y009623D01*
X011506Y009591D01*
X011452Y009557D01*
X011401Y009518D01*
X011351Y009477D01*
X011304Y009433D01*
X011260Y009386D01*
X011219Y009337D01*
X011181Y009285D01*
X011146Y009231D01*
X011115Y009175D01*
X011087Y009117D01*
X011062Y009058D01*
X011041Y008997D01*
X011024Y008935D01*
X011010Y008872D01*
X011001Y008809D01*
X010995Y008745D01*
X010993Y008681D01*
X010995Y008616D01*
X011001Y008552D01*
X011010Y008489D01*
X011024Y008426D01*
X011041Y008364D01*
X011062Y008303D01*
X011086Y008244D01*
X011114Y008186D01*
X011146Y008130D01*
X011181Y008076D01*
X011219Y008024D01*
X011226Y008030D01*
X011188Y008081D01*
X011154Y008135D01*
X011122Y008190D01*
X011095Y008247D01*
X011070Y008306D01*
X011050Y008367D01*
X011032Y008428D01*
X011019Y008490D01*
X011010Y008553D01*
X011004Y008617D01*
X011002Y008681D01*
X011004Y008744D01*
X011010Y008808D01*
X011019Y008871D01*
X011033Y008933D01*
X011050Y008994D01*
X011071Y009055D01*
X011095Y009114D01*
X011123Y009171D01*
X011154Y009226D01*
X011189Y009280D01*
X011226Y009331D01*
X011267Y009380D01*
X011311Y009427D01*
X011357Y009470D01*
X011406Y009511D01*
X011457Y009549D01*
X011511Y009584D01*
X011566Y009615D01*
X011624Y009643D01*
X011682Y009668D01*
X011743Y009689D01*
X011745Y009680D01*
X011686Y009659D01*
X011627Y009635D01*
X011570Y009607D01*
X011515Y009576D01*
X011462Y009542D01*
X011412Y009504D01*
X011363Y009464D01*
X011317Y009420D01*
X011274Y009374D01*
X011234Y009326D01*
X011196Y009275D01*
X011162Y009222D01*
X011131Y009167D01*
X011103Y009110D01*
X011079Y009051D01*
X011058Y008992D01*
X011041Y008931D01*
X011028Y008869D01*
X011019Y008807D01*
X011013Y008744D01*
X011011Y008681D01*
X011013Y008617D01*
X011019Y008554D01*
X011028Y008492D01*
X011041Y008430D01*
X011058Y008369D01*
X011079Y008310D01*
X011103Y008251D01*
X011130Y008194D01*
X011161Y008139D01*
X011195Y008086D01*
X011233Y008035D01*
X011240Y008041D01*
X011203Y008091D01*
X011169Y008144D01*
X011138Y008199D01*
X011111Y008255D01*
X011087Y008313D01*
X011067Y008372D01*
X011050Y008432D01*
X011037Y008494D01*
X011027Y008556D01*
X011022Y008618D01*
X011020Y008681D01*
X011022Y008743D01*
X011028Y008806D01*
X011037Y008867D01*
X011050Y008929D01*
X011067Y008989D01*
X011087Y009048D01*
X011111Y009106D01*
X011139Y009162D01*
X011170Y009217D01*
X011204Y009270D01*
X011241Y009320D01*
X011281Y009368D01*
X011324Y009414D01*
X011369Y009457D01*
X011417Y009497D01*
X011468Y009534D01*
X011520Y009568D01*
X011575Y009599D01*
X011631Y009627D01*
X011689Y009651D01*
X011748Y009671D01*
X011751Y009663D01*
X011692Y009642D01*
X011635Y009618D01*
X011579Y009591D01*
X011525Y009561D01*
X011473Y009527D01*
X011423Y009490D01*
X011375Y009450D01*
X011330Y009408D01*
X011287Y009362D01*
X011248Y009315D01*
X011211Y009265D01*
X011177Y009212D01*
X011147Y009158D01*
X011120Y009102D01*
X011096Y009045D01*
X011076Y008986D01*
X011059Y008927D01*
X011046Y008866D01*
X011037Y008804D01*
X011031Y008743D01*
X011029Y008681D01*
X011031Y008619D01*
X011036Y008557D01*
X011046Y008495D01*
X011059Y008435D01*
X011075Y008375D01*
X011095Y008316D01*
X011119Y008259D01*
X011146Y008203D01*
X011177Y008149D01*
X011210Y008096D01*
X011247Y008046D01*
X011738Y013705D02*
X011753Y013657D01*
X011752Y013658D02*
X011694Y013638D01*
X011637Y013614D01*
X011581Y013587D01*
X011527Y013556D01*
X011476Y013523D01*
X011426Y013486D01*
X011378Y013446D01*
X011333Y013404D01*
X011291Y013359D01*
X011252Y013311D01*
X011215Y013262D01*
X011182Y013210D01*
X011151Y013156D01*
X011124Y013100D01*
X011101Y013043D01*
X011080Y012985D01*
X011064Y012925D01*
X011051Y012865D01*
X011042Y012804D01*
X011036Y012742D01*
X011034Y012681D01*
X011036Y012619D01*
X011041Y012557D01*
X011051Y012496D01*
X011064Y012436D01*
X011080Y012376D01*
X011100Y012318D01*
X011124Y012261D01*
X011151Y012205D01*
X011181Y012151D01*
X011214Y012099D01*
X011251Y012049D01*
X011212Y012019D01*
X011212Y012018D01*
X011173Y012071D01*
X011138Y012125D01*
X011106Y012182D01*
X011078Y012240D01*
X011053Y012300D01*
X011032Y012361D01*
X011015Y012424D01*
X011001Y012487D01*
X010992Y012551D01*
X010986Y012616D01*
X010984Y012681D01*
X010986Y012745D01*
X010992Y012810D01*
X011002Y012874D01*
X011015Y012937D01*
X011033Y013000D01*
X011054Y013061D01*
X011079Y013121D01*
X011107Y013179D01*
X011139Y013236D01*
X011174Y013290D01*
X011212Y013342D01*
X011254Y013392D01*
X011298Y013439D01*
X011345Y013484D01*
X011395Y013525D01*
X011447Y013564D01*
X011502Y013599D01*
X011558Y013631D01*
X011616Y013660D01*
X011676Y013684D01*
X011737Y013706D01*
X011740Y013697D01*
X011679Y013676D01*
X011620Y013651D01*
X011562Y013623D01*
X011506Y013591D01*
X011452Y013557D01*
X011401Y013518D01*
X011351Y013477D01*
X011304Y013433D01*
X011260Y013386D01*
X011219Y013337D01*
X011181Y013285D01*
X011146Y013231D01*
X011115Y013175D01*
X011087Y013117D01*
X011062Y013058D01*
X011041Y012997D01*
X011024Y012935D01*
X011010Y012872D01*
X011001Y012809D01*
X010995Y012745D01*
X010993Y012681D01*
X010995Y012616D01*
X011001Y012552D01*
X011010Y012489D01*
X011024Y012426D01*
X011041Y012364D01*
X011062Y012303D01*
X011086Y012244D01*
X011114Y012186D01*
X011146Y012130D01*
X011181Y012076D01*
X011219Y012024D01*
X011226Y012030D01*
X011188Y012081D01*
X011154Y012135D01*
X011122Y012190D01*
X011095Y012247D01*
X011070Y012306D01*
X011050Y012367D01*
X011032Y012428D01*
X011019Y012490D01*
X011010Y012553D01*
X011004Y012617D01*
X011002Y012681D01*
X011004Y012744D01*
X011010Y012808D01*
X011019Y012871D01*
X011033Y012933D01*
X011050Y012994D01*
X011071Y013055D01*
X011095Y013114D01*
X011123Y013171D01*
X011154Y013226D01*
X011189Y013280D01*
X011226Y013331D01*
X011267Y013380D01*
X011311Y013427D01*
X011357Y013470D01*
X011406Y013511D01*
X011457Y013549D01*
X011511Y013584D01*
X011566Y013615D01*
X011624Y013643D01*
X011682Y013668D01*
X011743Y013689D01*
X011745Y013680D01*
X011686Y013659D01*
X011627Y013635D01*
X011570Y013607D01*
X011515Y013576D01*
X011462Y013542D01*
X011412Y013504D01*
X011363Y013464D01*
X011317Y013420D01*
X011274Y013374D01*
X011234Y013326D01*
X011196Y013275D01*
X011162Y013222D01*
X011131Y013167D01*
X011103Y013110D01*
X011079Y013051D01*
X011058Y012992D01*
X011041Y012931D01*
X011028Y012869D01*
X011019Y012807D01*
X011013Y012744D01*
X011011Y012681D01*
X011013Y012617D01*
X011019Y012554D01*
X011028Y012492D01*
X011041Y012430D01*
X011058Y012369D01*
X011079Y012310D01*
X011103Y012251D01*
X011130Y012194D01*
X011161Y012139D01*
X011195Y012086D01*
X011233Y012035D01*
X011240Y012041D01*
X011203Y012091D01*
X011169Y012144D01*
X011138Y012199D01*
X011111Y012255D01*
X011087Y012313D01*
X011067Y012372D01*
X011050Y012432D01*
X011037Y012494D01*
X011027Y012556D01*
X011022Y012618D01*
X011020Y012681D01*
X011022Y012743D01*
X011028Y012806D01*
X011037Y012867D01*
X011050Y012929D01*
X011067Y012989D01*
X011087Y013048D01*
X011111Y013106D01*
X011139Y013162D01*
X011170Y013217D01*
X011204Y013270D01*
X011241Y013320D01*
X011281Y013368D01*
X011324Y013414D01*
X011369Y013457D01*
X011417Y013497D01*
X011468Y013534D01*
X011520Y013568D01*
X011575Y013599D01*
X011631Y013627D01*
X011689Y013651D01*
X011748Y013671D01*
X011751Y013663D01*
X011692Y013642D01*
X011635Y013618D01*
X011579Y013591D01*
X011525Y013561D01*
X011473Y013527D01*
X011423Y013490D01*
X011375Y013450D01*
X011330Y013408D01*
X011287Y013362D01*
X011248Y013315D01*
X011211Y013265D01*
X011177Y013212D01*
X011147Y013158D01*
X011120Y013102D01*
X011096Y013045D01*
X011076Y012986D01*
X011059Y012927D01*
X011046Y012866D01*
X011037Y012804D01*
X011031Y012743D01*
X011029Y012681D01*
X011031Y012619D01*
X011036Y012557D01*
X011046Y012495D01*
X011059Y012435D01*
X011075Y012375D01*
X011095Y012316D01*
X011119Y012259D01*
X011146Y012203D01*
X011177Y012149D01*
X011210Y012096D01*
X011247Y012046D01*
X012906Y012019D02*
X012867Y012050D01*
X012867Y012049D02*
X012904Y012099D01*
X012937Y012151D01*
X012967Y012205D01*
X012994Y012261D01*
X013018Y012318D01*
X013038Y012376D01*
X013054Y012436D01*
X013067Y012496D01*
X013077Y012557D01*
X013082Y012619D01*
X013084Y012681D01*
X013082Y012742D01*
X013076Y012804D01*
X013067Y012865D01*
X013054Y012925D01*
X013038Y012985D01*
X013017Y013043D01*
X012994Y013100D01*
X012967Y013156D01*
X012936Y013210D01*
X012903Y013262D01*
X012866Y013311D01*
X012827Y013359D01*
X012785Y013404D01*
X012740Y013446D01*
X012692Y013486D01*
X012642Y013523D01*
X012591Y013556D01*
X012537Y013587D01*
X012481Y013614D01*
X012424Y013638D01*
X012366Y013658D01*
X012380Y013705D01*
X012381Y013706D01*
X012442Y013684D01*
X012502Y013660D01*
X012560Y013631D01*
X012616Y013599D01*
X012671Y013564D01*
X012723Y013525D01*
X012773Y013484D01*
X012820Y013439D01*
X012864Y013392D01*
X012906Y013342D01*
X012944Y013290D01*
X012979Y013236D01*
X013011Y013179D01*
X013039Y013121D01*
X013064Y013061D01*
X013085Y013000D01*
X013103Y012937D01*
X013116Y012874D01*
X013126Y012810D01*
X013132Y012745D01*
X013134Y012681D01*
X013132Y012616D01*
X013126Y012551D01*
X013117Y012487D01*
X013103Y012424D01*
X013086Y012361D01*
X013065Y012300D01*
X013040Y012240D01*
X013012Y012182D01*
X012980Y012125D01*
X012945Y012071D01*
X012906Y012018D01*
X012899Y012024D01*
X012937Y012076D01*
X012972Y012130D01*
X013004Y012186D01*
X013032Y012244D01*
X013056Y012303D01*
X013077Y012364D01*
X013094Y012426D01*
X013108Y012489D01*
X013117Y012552D01*
X013123Y012616D01*
X013125Y012681D01*
X013123Y012745D01*
X013117Y012809D01*
X013108Y012872D01*
X013094Y012935D01*
X013077Y012997D01*
X013056Y013058D01*
X013031Y013117D01*
X013003Y013175D01*
X012972Y013231D01*
X012937Y013285D01*
X012899Y013337D01*
X012858Y013386D01*
X012814Y013433D01*
X012767Y013477D01*
X012717Y013518D01*
X012666Y013556D01*
X012612Y013591D01*
X012556Y013623D01*
X012498Y013651D01*
X012439Y013676D01*
X012378Y013697D01*
X012375Y013689D01*
X012436Y013668D01*
X012494Y013643D01*
X012552Y013615D01*
X012607Y013584D01*
X012661Y013549D01*
X012712Y013511D01*
X012761Y013470D01*
X012807Y013427D01*
X012851Y013380D01*
X012892Y013331D01*
X012929Y013280D01*
X012964Y013226D01*
X012995Y013171D01*
X013023Y013114D01*
X013047Y013055D01*
X013068Y012994D01*
X013085Y012933D01*
X013099Y012871D01*
X013108Y012808D01*
X013114Y012744D01*
X013116Y012681D01*
X013114Y012617D01*
X013108Y012553D01*
X013099Y012490D01*
X013086Y012428D01*
X013068Y012367D01*
X013048Y012306D01*
X013023Y012247D01*
X012996Y012190D01*
X012964Y012135D01*
X012930Y012081D01*
X012892Y012030D01*
X012885Y012035D01*
X012922Y012086D01*
X012957Y012139D01*
X012988Y012194D01*
X013015Y012251D01*
X013039Y012310D01*
X013060Y012369D01*
X013077Y012430D01*
X013090Y012492D01*
X013099Y012554D01*
X013105Y012617D01*
X013107Y012681D01*
X013105Y012744D01*
X013099Y012807D01*
X013090Y012869D01*
X013077Y012931D01*
X013060Y012992D01*
X013039Y013051D01*
X013015Y013110D01*
X012987Y013167D01*
X012956Y013222D01*
X012922Y013275D01*
X012884Y013326D01*
X012844Y013374D01*
X012801Y013420D01*
X012755Y013464D01*
X012706Y013504D01*
X012656Y013542D01*
X012603Y013576D01*
X012548Y013607D01*
X012491Y013635D01*
X012432Y013659D01*
X012373Y013680D01*
X012370Y013671D01*
X012429Y013651D01*
X012487Y013627D01*
X012543Y013599D01*
X012598Y013568D01*
X012650Y013534D01*
X012701Y013497D01*
X012749Y013457D01*
X012794Y013414D01*
X012837Y013368D01*
X012877Y013320D01*
X012914Y013270D01*
X012948Y013217D01*
X012979Y013162D01*
X013007Y013106D01*
X013031Y013048D01*
X013051Y012989D01*
X013068Y012929D01*
X013081Y012867D01*
X013090Y012806D01*
X013096Y012743D01*
X013098Y012681D01*
X013096Y012618D01*
X013091Y012556D01*
X013081Y012494D01*
X013068Y012432D01*
X013051Y012372D01*
X013031Y012313D01*
X013007Y012255D01*
X012980Y012199D01*
X012949Y012144D01*
X012915Y012091D01*
X012878Y012041D01*
X012871Y012046D01*
X012908Y012096D01*
X012941Y012149D01*
X012972Y012203D01*
X012999Y012259D01*
X013023Y012316D01*
X013043Y012375D01*
X013059Y012435D01*
X013072Y012495D01*
X013082Y012557D01*
X013087Y012618D01*
X013089Y012681D01*
X013087Y012743D01*
X013081Y012804D01*
X013072Y012866D01*
X013059Y012927D01*
X013042Y012986D01*
X013022Y013045D01*
X012998Y013102D01*
X012971Y013158D01*
X012941Y013212D01*
X012907Y013265D01*
X012870Y013315D01*
X012831Y013362D01*
X012788Y013408D01*
X012743Y013450D01*
X012695Y013490D01*
X012645Y013527D01*
X012593Y013561D01*
X012539Y013591D01*
X012483Y013618D01*
X012426Y013642D01*
X012367Y013663D01*
D17*
X009059Y012600D03*
X008059Y012600D03*
X008059Y009760D03*
X009059Y009760D03*
X009059Y004600D03*
X008059Y004600D03*
X008059Y001760D03*
X009059Y001760D03*
D18*
X010639Y010430D03*
X010639Y011430D03*
X013479Y011430D03*
X013479Y010430D03*
D19*
X006936Y007546D02*
X006912Y007598D01*
X006886Y007648D01*
X006856Y007697D01*
X006824Y007744D01*
X006788Y007789D01*
X006751Y007831D01*
X006710Y007872D01*
X006668Y007909D01*
X006623Y007945D01*
X006576Y007977D01*
X006527Y008007D01*
X006477Y008033D01*
X006425Y008057D01*
X005693Y008057D02*
X005641Y008033D01*
X005591Y008007D01*
X005542Y007977D01*
X005495Y007945D01*
X005450Y007909D01*
X005408Y007872D01*
X005367Y007831D01*
X005330Y007789D01*
X005294Y007744D01*
X005262Y007697D01*
X005232Y007648D01*
X005206Y007598D01*
X005182Y007546D01*
X005182Y006814D02*
X005206Y006762D01*
X005232Y006712D01*
X005262Y006663D01*
X005294Y006616D01*
X005330Y006571D01*
X005367Y006529D01*
X005408Y006488D01*
X005450Y006451D01*
X005495Y006415D01*
X005542Y006383D01*
X005591Y006353D01*
X005641Y006327D01*
X005693Y006303D01*
X006425Y006303D02*
X006477Y006327D01*
X006527Y006353D01*
X006576Y006383D01*
X006623Y006415D01*
X006668Y006451D01*
X006710Y006488D01*
X006751Y006529D01*
X006788Y006571D01*
X006824Y006616D01*
X006856Y006663D01*
X006886Y006712D01*
X006912Y006762D01*
X006936Y006814D01*
D20*
X003870Y001680D02*
X003872Y001732D01*
X003878Y001784D01*
X003888Y001835D01*
X003901Y001885D01*
X003919Y001935D01*
X003940Y001982D01*
X003964Y002028D01*
X003993Y002072D01*
X004024Y002114D01*
X004058Y002153D01*
X004095Y002190D01*
X004135Y002223D01*
X004178Y002254D01*
X004222Y002281D01*
X004268Y002305D01*
X004317Y002325D01*
X004366Y002341D01*
X004417Y002354D01*
X004468Y002363D01*
X004520Y002368D01*
X004572Y002369D01*
X004624Y002366D01*
X004676Y002359D01*
X004727Y002348D01*
X004777Y002334D01*
X004826Y002315D01*
X004873Y002293D01*
X004918Y002268D01*
X004962Y002239D01*
X005003Y002207D01*
X005042Y002172D01*
X005077Y002134D01*
X005110Y002093D01*
X005140Y002051D01*
X005166Y002006D01*
X005189Y001959D01*
X005208Y001910D01*
X005224Y001860D01*
X005236Y001810D01*
X005244Y001758D01*
X005248Y001706D01*
X005248Y001654D01*
X005244Y001602D01*
X005236Y001550D01*
X005224Y001500D01*
X005208Y001450D01*
X005189Y001401D01*
X005166Y001354D01*
X005140Y001309D01*
X005110Y001267D01*
X005077Y001226D01*
X005042Y001188D01*
X005003Y001153D01*
X004962Y001121D01*
X004918Y001092D01*
X004873Y001067D01*
X004826Y001045D01*
X004777Y001026D01*
X004727Y001012D01*
X004676Y001001D01*
X004624Y000994D01*
X004572Y000991D01*
X004520Y000992D01*
X004468Y000997D01*
X004417Y001006D01*
X004366Y001019D01*
X004317Y001035D01*
X004268Y001055D01*
X004222Y001079D01*
X004178Y001106D01*
X004135Y001137D01*
X004095Y001170D01*
X004058Y001207D01*
X004024Y001246D01*
X003993Y001288D01*
X003964Y001332D01*
X003940Y001378D01*
X003919Y001425D01*
X003901Y001475D01*
X003888Y001525D01*
X003878Y001576D01*
X003872Y001628D01*
X003870Y001680D01*
X003870Y012680D02*
X003872Y012732D01*
X003878Y012784D01*
X003888Y012835D01*
X003901Y012885D01*
X003919Y012935D01*
X003940Y012982D01*
X003964Y013028D01*
X003993Y013072D01*
X004024Y013114D01*
X004058Y013153D01*
X004095Y013190D01*
X004135Y013223D01*
X004178Y013254D01*
X004222Y013281D01*
X004268Y013305D01*
X004317Y013325D01*
X004366Y013341D01*
X004417Y013354D01*
X004468Y013363D01*
X004520Y013368D01*
X004572Y013369D01*
X004624Y013366D01*
X004676Y013359D01*
X004727Y013348D01*
X004777Y013334D01*
X004826Y013315D01*
X004873Y013293D01*
X004918Y013268D01*
X004962Y013239D01*
X005003Y013207D01*
X005042Y013172D01*
X005077Y013134D01*
X005110Y013093D01*
X005140Y013051D01*
X005166Y013006D01*
X005189Y012959D01*
X005208Y012910D01*
X005224Y012860D01*
X005236Y012810D01*
X005244Y012758D01*
X005248Y012706D01*
X005248Y012654D01*
X005244Y012602D01*
X005236Y012550D01*
X005224Y012500D01*
X005208Y012450D01*
X005189Y012401D01*
X005166Y012354D01*
X005140Y012309D01*
X005110Y012267D01*
X005077Y012226D01*
X005042Y012188D01*
X005003Y012153D01*
X004962Y012121D01*
X004918Y012092D01*
X004873Y012067D01*
X004826Y012045D01*
X004777Y012026D01*
X004727Y012012D01*
X004676Y012001D01*
X004624Y011994D01*
X004572Y011991D01*
X004520Y011992D01*
X004468Y011997D01*
X004417Y012006D01*
X004366Y012019D01*
X004317Y012035D01*
X004268Y012055D01*
X004222Y012079D01*
X004178Y012106D01*
X004135Y012137D01*
X004095Y012170D01*
X004058Y012207D01*
X004024Y012246D01*
X003993Y012288D01*
X003964Y012332D01*
X003940Y012378D01*
X003919Y012425D01*
X003901Y012475D01*
X003888Y012525D01*
X003878Y012576D01*
X003872Y012628D01*
X003870Y012680D01*
X022370Y012680D02*
X022372Y012732D01*
X022378Y012784D01*
X022388Y012835D01*
X022401Y012885D01*
X022419Y012935D01*
X022440Y012982D01*
X022464Y013028D01*
X022493Y013072D01*
X022524Y013114D01*
X022558Y013153D01*
X022595Y013190D01*
X022635Y013223D01*
X022678Y013254D01*
X022722Y013281D01*
X022768Y013305D01*
X022817Y013325D01*
X022866Y013341D01*
X022917Y013354D01*
X022968Y013363D01*
X023020Y013368D01*
X023072Y013369D01*
X023124Y013366D01*
X023176Y013359D01*
X023227Y013348D01*
X023277Y013334D01*
X023326Y013315D01*
X023373Y013293D01*
X023418Y013268D01*
X023462Y013239D01*
X023503Y013207D01*
X023542Y013172D01*
X023577Y013134D01*
X023610Y013093D01*
X023640Y013051D01*
X023666Y013006D01*
X023689Y012959D01*
X023708Y012910D01*
X023724Y012860D01*
X023736Y012810D01*
X023744Y012758D01*
X023748Y012706D01*
X023748Y012654D01*
X023744Y012602D01*
X023736Y012550D01*
X023724Y012500D01*
X023708Y012450D01*
X023689Y012401D01*
X023666Y012354D01*
X023640Y012309D01*
X023610Y012267D01*
X023577Y012226D01*
X023542Y012188D01*
X023503Y012153D01*
X023462Y012121D01*
X023418Y012092D01*
X023373Y012067D01*
X023326Y012045D01*
X023277Y012026D01*
X023227Y012012D01*
X023176Y012001D01*
X023124Y011994D01*
X023072Y011991D01*
X023020Y011992D01*
X022968Y011997D01*
X022917Y012006D01*
X022866Y012019D01*
X022817Y012035D01*
X022768Y012055D01*
X022722Y012079D01*
X022678Y012106D01*
X022635Y012137D01*
X022595Y012170D01*
X022558Y012207D01*
X022524Y012246D01*
X022493Y012288D01*
X022464Y012332D01*
X022440Y012378D01*
X022419Y012425D01*
X022401Y012475D01*
X022388Y012525D01*
X022378Y012576D01*
X022372Y012628D01*
X022370Y012680D01*
X022370Y001680D02*
X022372Y001732D01*
X022378Y001784D01*
X022388Y001835D01*
X022401Y001885D01*
X022419Y001935D01*
X022440Y001982D01*
X022464Y002028D01*
X022493Y002072D01*
X022524Y002114D01*
X022558Y002153D01*
X022595Y002190D01*
X022635Y002223D01*
X022678Y002254D01*
X022722Y002281D01*
X022768Y002305D01*
X022817Y002325D01*
X022866Y002341D01*
X022917Y002354D01*
X022968Y002363D01*
X023020Y002368D01*
X023072Y002369D01*
X023124Y002366D01*
X023176Y002359D01*
X023227Y002348D01*
X023277Y002334D01*
X023326Y002315D01*
X023373Y002293D01*
X023418Y002268D01*
X023462Y002239D01*
X023503Y002207D01*
X023542Y002172D01*
X023577Y002134D01*
X023610Y002093D01*
X023640Y002051D01*
X023666Y002006D01*
X023689Y001959D01*
X023708Y001910D01*
X023724Y001860D01*
X023736Y001810D01*
X023744Y001758D01*
X023748Y001706D01*
X023748Y001654D01*
X023744Y001602D01*
X023736Y001550D01*
X023724Y001500D01*
X023708Y001450D01*
X023689Y001401D01*
X023666Y001354D01*
X023640Y001309D01*
X023610Y001267D01*
X023577Y001226D01*
X023542Y001188D01*
X023503Y001153D01*
X023462Y001121D01*
X023418Y001092D01*
X023373Y001067D01*
X023326Y001045D01*
X023277Y001026D01*
X023227Y001012D01*
X023176Y001001D01*
X023124Y000994D01*
X023072Y000991D01*
X023020Y000992D01*
X022968Y000997D01*
X022917Y001006D01*
X022866Y001019D01*
X022817Y001035D01*
X022768Y001055D01*
X022722Y001079D01*
X022678Y001106D01*
X022635Y001137D01*
X022595Y001170D01*
X022558Y001207D01*
X022524Y001246D01*
X022493Y001288D01*
X022464Y001332D01*
X022440Y001378D01*
X022419Y001425D01*
X022401Y001475D01*
X022388Y001525D01*
X022378Y001576D01*
X022372Y001628D01*
X022370Y001680D01*
M02*
